<svg width="33" height="34" viewBox="0 0 33 34" fill="none" xmlns="http://www.w3.org/2000/svg">
<path d="M14.9683 0.839776C15.6732 -0.279924 17.3268 -0.279926 18.0317 0.839775L19.7214 3.52373C20.1848 4.25987 21.1197 4.55915 21.9338 4.23198L24.9021 3.0391C26.1404 2.54145 27.4781 3.49904 27.3804 4.8131L27.1461 7.96297C27.0819 8.82689 27.6597 9.61042 28.5135 9.81717L31.6265 10.571C32.9252 10.8855 33.4362 12.4349 32.5731 13.4414L30.5044 15.854C29.937 16.5158 29.937 17.4842 30.5044 18.146L32.5731 20.5586C33.4362 21.5651 32.9252 23.1145 31.6265 23.429L28.5135 24.1828C27.6597 24.3896 27.0819 25.1731 27.1461 26.037L27.3804 29.1869C27.4781 30.501 26.1404 31.4585 24.9021 30.9609L21.9338 29.768C21.1197 29.4408 20.1848 29.7401 19.7214 30.4763L18.0317 33.1602C17.3268 34.2799 15.6732 34.2799 14.9683 33.1602L13.2786 30.4763C12.8152 29.7401 11.8803 29.4408 11.0662 29.768L8.09794 30.9609C6.85964 31.4585 5.52187 30.501 5.6196 29.1869L5.85388 26.037C5.91814 25.1731 5.34033 24.3896 4.48651 24.1828L1.37348 23.429C0.0747851 23.1145 -0.4362 21.5651 0.426845 20.5586L2.49559 18.146C3.06299 17.4842 3.06299 16.5158 2.49559 15.854L0.426846 13.4414C-0.436199 12.4349 0.074783 10.8855 1.37348 10.571L4.48651 9.81717C5.34033 9.61042 5.91814 8.82689 5.85388 7.96297L5.6196 4.81311C5.52187 3.49904 6.85964 2.54145 8.09793 3.0391L11.0662 4.23198C11.8803 4.55915 12.8152 4.25987 13.2786 3.52373L14.9683 0.839776Z" fill="#6750A4"/>
</svg>
