<svg width="34" height="32" viewBox="0 0 34 32" fill="none" xmlns="http://www.w3.org/2000/svg">
<path d="M11.6481 2.43735C13.3067 1.22903 14.136 0.624865 15.022 0.325145C16.3035 -0.108382 17.6965 -0.108382 18.978 0.325145C19.864 0.624865 20.6933 1.22903 22.3519 2.43735L25.9794 5.08012L29.6049 7.5564C31.3249 8.73116 32.1849 9.31853 32.7598 10.0573C33.5914 11.1258 34.0282 12.4391 33.9986 13.7824C33.9781 14.711 33.6363 15.6817 32.9526 17.6232L31.529 21.6657L30.215 25.808C29.5983 27.7519 29.29 28.7239 28.7509 29.48C27.9712 30.5736 26.838 31.378 25.5341 31.7634C24.6327 32.0299 23.5936 32.0144 21.5154 31.9835L17 31.9162L12.4846 31.9835C10.4064 32.0144 9.36728 32.0299 8.46588 31.7634C7.16204 31.378 6.02882 30.5736 5.24909 29.48C4.71002 28.7239 4.40169 27.7519 3.78503 25.808L2.47101 21.6657L1.04741 17.6232C0.363716 15.6817 0.021869 14.711 0.00141072 13.7824C-0.0281818 12.4391 0.408555 11.1258 1.24017 10.0573C1.8151 9.31853 2.67508 8.73116 4.39505 7.5564L8.02059 5.08012L11.6481 2.43735Z" fill="#6750A4"/>
</svg>
