<svg width="34" height="34" viewBox="0 0 34 34" fill="none" xmlns="http://www.w3.org/2000/svg">
<path d="M26.1856 4.12375C27.2431 4.19561 27.7718 4.23154 28.1991 4.41844C28.8175 4.68887 29.3111 5.18252 29.5816 5.80088C29.7685 6.22823 29.8044 6.75694 29.8762 7.81438L30.0402 10.2275C30.0693 10.6552 30.0838 10.869 30.1303 11.0733C30.1975 11.3684 30.3142 11.6501 30.4754 11.9063C30.5869 12.0836 30.7279 12.2451 31.0097 12.5681L32.6001 14.3903C33.297 15.1889 33.6455 15.5881 33.8155 16.0225C34.0615 16.6509 34.0615 17.3491 33.8155 17.9775C33.6455 18.4119 33.297 18.8111 32.6001 19.6097L31.0097 21.4319C30.7279 21.7549 30.5869 21.9164 30.4754 22.0937C30.3142 22.3499 30.1975 22.6316 30.1303 22.9267C30.0838 23.131 30.0693 23.3448 30.0402 23.7725L29.8762 26.1856C29.8044 27.2431 29.7685 27.7718 29.5816 28.1991C29.3111 28.8175 28.8175 29.3111 28.1991 29.5816C27.7718 29.7685 27.2431 29.8044 26.1856 29.8762L23.7725 30.0402C23.3448 30.0693 23.131 30.0838 22.9267 30.1303C22.6316 30.1975 22.3499 30.3142 22.0937 30.4754C21.9164 30.5869 21.7549 30.7279 21.4319 31.0097L19.6097 32.6001C18.8111 33.297 18.4119 33.6455 17.9775 33.8155C17.3491 34.0615 16.6509 34.0615 16.0225 33.8155C15.5881 33.6455 15.1889 33.297 14.3903 32.6001L12.5681 31.0097C12.2451 30.7279 12.0836 30.5869 11.9063 30.4754C11.6501 30.3142 11.3684 30.1975 11.0733 30.1303C10.869 30.0838 10.6552 30.0693 10.2275 30.0402L7.81438 29.8762C6.75694 29.8044 6.22822 29.7685 5.80088 29.5816C5.18252 29.3111 4.68887 28.8175 4.41844 28.1991C4.23154 27.7718 4.19561 27.2431 4.12375 26.1856L3.95977 23.7725C3.93071 23.3448 3.91618 23.131 3.86969 22.9267C3.80251 22.6316 3.68584 22.3499 3.52463 22.0937C3.41306 21.9164 3.27213 21.7549 2.99027 21.4319L1.3999 19.6097C0.702996 18.8111 0.354542 18.4119 0.184516 17.9775C-0.0615054 17.3491 -0.0615053 16.6509 0.184516 16.0225C0.354542 15.5881 0.702996 15.1889 1.3999 14.3903L2.99027 12.5681C3.27213 12.2451 3.41306 12.0836 3.52463 11.9063C3.68584 11.6501 3.80251 11.3684 3.86969 11.0733C3.91618 10.869 3.93071 10.6552 3.95977 10.2275L4.12375 7.81438C4.19561 6.75694 4.23154 6.22823 4.41844 5.80088C4.68887 5.18252 5.18252 4.68887 5.80088 4.41844C6.22823 4.23154 6.75694 4.19561 7.81438 4.12375L10.2275 3.95977C10.6552 3.93071 10.869 3.91618 11.0733 3.86969C11.3684 3.80251 11.6501 3.68584 11.9063 3.52463C12.0836 3.41306 12.2451 3.27213 12.5681 2.99027L14.3903 1.3999C15.1889 0.702996 15.5881 0.354542 16.0225 0.184516C16.6509 -0.0615054 17.3491 -0.0615054 17.9775 0.184516C18.4119 0.354542 18.8111 0.702996 19.6097 1.3999L21.4319 2.99027C21.7549 3.27213 21.9164 3.41306 22.0937 3.52463C22.3499 3.68584 22.6316 3.80251 22.9267 3.86969C23.131 3.91618 23.3448 3.93071 23.7725 3.95977L26.1856 4.12375Z" fill="#6750A4"/>
</svg>
