<svg width="34" height="34" viewBox="0 0 34 34" fill="none" xmlns="http://www.w3.org/2000/svg">
<path d="M13.3091 1.40363C13.4924 1.254 13.584 1.17919 13.6677 1.11603C15.6389 -0.372011 18.3611 -0.372011 20.3323 1.11603C20.416 1.17919 20.5076 1.254 20.6909 1.40363C20.7727 1.47042 20.8136 1.50381 20.8541 1.5356C21.7818 2.26445 22.9191 2.67748 24.0993 2.71409C24.1508 2.71569 24.2037 2.71634 24.3094 2.71765C24.5462 2.72059 24.6646 2.72206 24.7694 2.72733C27.2381 2.85162 29.3234 4.59743 29.8748 7.00154C29.8982 7.10358 29.9202 7.21966 29.9642 7.45183C29.9838 7.55547 29.9937 7.60729 30.0042 7.65759C30.2452 8.81087 30.8504 9.85669 31.7309 10.6416C31.7693 10.6759 31.8094 10.7103 31.8895 10.7791C32.069 10.9332 32.1588 11.0102 32.2357 11.0815C34.0467 12.76 34.5194 15.4347 33.393 17.6299C33.3451 17.7231 33.2872 17.8262 33.1714 18.0322C33.1196 18.1242 33.0938 18.1702 33.0694 18.2155C32.5111 19.2536 32.3009 20.4429 32.4697 21.6088C32.4771 21.6597 32.4856 21.7117 32.5027 21.8158C32.5409 22.049 32.56 22.1656 32.573 22.2695C32.879 24.7168 31.5179 27.0689 29.2407 28.0281C29.1441 28.0688 29.0333 28.1106 28.8118 28.1942C28.7129 28.2315 28.6635 28.2501 28.6156 28.2692C27.5192 28.7063 26.592 29.4826 25.9701 30.484C25.943 30.5277 25.916 30.5731 25.862 30.6637C25.741 30.8669 25.6806 30.9685 25.6236 31.0564C24.2814 33.1273 21.7234 34.0563 19.3609 33.3306C19.2606 33.2998 19.1489 33.2608 18.9253 33.1827C18.8256 33.1479 18.7757 33.1305 18.7268 33.1144C17.6052 32.7461 16.3948 32.7461 15.2732 33.1144C15.2243 33.1305 15.1744 33.1479 15.0747 33.1827C14.8511 33.2608 14.7394 33.2998 14.6391 33.3306C12.2767 34.0563 9.71865 33.1273 8.37641 31.0564C8.31944 30.9685 8.25897 30.8669 8.13801 30.6637C8.08402 30.5731 8.05702 30.5277 8.0299 30.484C7.40803 29.4826 6.48083 28.7063 5.38436 28.2692C5.33654 28.2501 5.28709 28.2315 5.18821 28.1942C4.96669 28.1106 4.85593 28.0688 4.75928 28.0281C2.48205 27.0689 1.12097 24.7168 1.42698 22.2695C1.43997 22.1656 1.45908 22.049 1.4973 21.8158C1.51436 21.7117 1.52289 21.6597 1.53026 21.6088C1.69906 20.4429 1.48889 19.2536 0.930563 18.2155C0.906211 18.1702 0.880352 18.1242 0.828635 18.0322C0.712779 17.8262 0.654852 17.7231 0.60704 17.6299C-0.519433 15.4347 -0.0467336 12.76 1.76433 11.0815C1.8412 11.0102 1.93096 10.9332 2.11047 10.7791C2.19061 10.7103 2.23068 10.6759 2.26908 10.6416C3.14958 9.85669 3.75476 8.81087 3.99583 7.6576C4.00634 7.60729 4.01617 7.55547 4.03582 7.45183C4.07984 7.21966 4.10185 7.10357 4.12525 7.00153C4.67662 4.59743 6.76192 2.85162 9.23063 2.72733C9.33541 2.72206 9.45381 2.72059 9.69062 2.71765C9.79633 2.71634 9.84919 2.71569 9.90067 2.71409C11.0809 2.67748 12.2182 2.26445 13.1459 1.5356C13.1864 1.50381 13.2273 1.47042 13.3091 1.40363Z" fill="#6750A4"/>
</svg>
