<svg xmlns="http://www.w3.org/2000/svg" xmlns:xlink="http://www.w3.org/1999/xlink" width="1024" height="1024">
<style>
    path {
        /* Set the center point for scaling and rotation */
        transform-origin: 50% 50%;
        /* Start invisible for the appearance animation */
        opacity: 0;
        /* Apply both animations:
           1. fadeInUnfurl: Runs once, takes 0.8s, eases out, stays at final state. Delayed per element.
           2. gentleDrift: Starts after fadeInUnfurl finishes, runs infinitely, takes 10s, eases in/out. Delayed per element.
        */
        /* animation: fadeInUnfurl 0.8s ease-out forwards, gentleDrift 10s ease-in-out infinite; */ /* Base - delays added individually below */
    }

    /* Keyframes for the appearance animation: fade in, scale up, and un-rotate */
    @keyframes fadeInUnfurl {
        from {
            opacity: 0;
            transform: scale(0.5) rotate(-20deg) translateY(10px); /* Start smaller, rotated, and slightly offset */
        }
        to {
            opacity: 1;
            transform: scale(1) rotate(0deg) translateY(0px); /* End at normal scale, rotation, and position */
        }
    }

    /* Keyframes for the continuous subtle drifting and slight rotation motion */
    @keyframes gentleDrift {
        0% {
            transform: translateX(0px) translateY(0px) rotate(0deg) scale(1);
        }
        25% {
            transform: translateX(-3px) translateY(2px) rotate(1.2deg) scale(1.005); /* Gentle move and slight clockwise turn, tiny grow */
        }
        50% {
            transform: translateX(2px) translateY(-2.5px) rotate(-0.8deg) scale(0.995); /* Gentle move other way, slight counter-clockwise turn, tiny shrink */
        }
        75% {
            transform: translateX(-1.5px) translateY(3px) rotate(0.5deg) scale(1.003); /* Another variation */
        }
        100% {
            transform: translateX(0px) translateY(0px) rotate(0deg) scale(1); /* Return to origin */
        }
    }

    /* --- Staggered Animation Delays --- */
    /* Delay increment for fadeInUnfurl animation: 0.045s */
    /* Delay for gentleDrift = fadeInUnfurl delay + fadeInUnfurl duration (0.8s) */

    path[data-index="1"]  { animation: fadeInUnfurl 0.8s cubic-bezier(0.25, 0.46, 0.45, 0.94) 0.000s forwards, gentleDrift 10s ease-in-out 0.800s infinite; }
    path[data-index="2"]  { animation: fadeInUnfurl 0.8s cubic-bezier(0.25, 0.46, 0.45, 0.94) 0.045s forwards, gentleDrift 10s ease-in-out 0.845s infinite; }
    path[data-index="3"]  { animation: fadeInUnfurl 0.8s cubic-bezier(0.25, 0.46, 0.45, 0.94) 0.090s forwards, gentleDrift 10s ease-in-out 0.890s infinite; }
    path[data-index="4"]  { animation: fadeInUnfurl 0.8s cubic-bezier(0.25, 0.46, 0.45, 0.94) 0.135s forwards, gentleDrift 10s ease-in-out 0.935s infinite; }
    path[data-index="5"]  { animation: fadeInUnfurl 0.8s cubic-bezier(0.25, 0.46, 0.45, 0.94) 0.180s forwards, gentleDrift 10s ease-in-out 0.980s infinite; }
    path[data-index="6"]  { animation: fadeInUnfurl 0.8s cubic-bezier(0.25, 0.46, 0.45, 0.94) 0.225s forwards, gentleDrift 10s ease-in-out 1.025s infinite; }
    path[data-index="7"]  { animation: fadeInUnfurl 0.8s cubic-bezier(0.25, 0.46, 0.45, 0.94) 0.270s forwards, gentleDrift 10s ease-in-out 1.070s infinite; }
    path[data-index="8"]  { animation: fadeInUnfurl 0.8s cubic-bezier(0.25, 0.46, 0.45, 0.94) 0.315s forwards, gentleDrift 10s ease-in-out 1.115s infinite; }
    path[data-index="9"]  { animation: fadeInUnfurl 0.8s cubic-bezier(0.25, 0.46, 0.45, 0.94) 0.360s forwards, gentleDrift 10s ease-in-out 1.160s infinite; }
    path[data-index="10"] { animation: fadeInUnfurl 0.8s cubic-bezier(0.25, 0.46, 0.45, 0.94) 0.405s forwards, gentleDrift 10s ease-in-out 1.205s infinite; }
    path[data-index="11"] { animation: fadeInUnfurl 0.8s cubic-bezier(0.25, 0.46, 0.45, 0.94) 0.450s forwards, gentleDrift 10s ease-in-out 1.250s infinite; }
    path[data-index="12"] { animation: fadeInUnfurl 0.8s cubic-bezier(0.25, 0.46, 0.45, 0.94) 0.495s forwards, gentleDrift 10s ease-in-out 1.295s infinite; }
    path[data-index="13"] { animation: fadeInUnfurl 0.8s cubic-bezier(0.25, 0.46, 0.45, 0.94) 0.540s forwards, gentleDrift 10s ease-in-out 1.340s infinite; }
    path[data-index="14"] { animation: fadeInUnfurl 0.8s cubic-bezier(0.25, 0.46, 0.45, 0.94) 0.585s forwards, gentleDrift 10s ease-in-out 1.385s infinite; }
    path[data-index="15"] { animation: fadeInUnfurl 0.8s cubic-bezier(0.25, 0.46, 0.45, 0.94) 0.630s forwards, gentleDrift 10s ease-in-out 1.430s infinite; }
    path[data-index="16"] { animation: fadeInUnfurl 0.8s cubic-bezier(0.25, 0.46, 0.45, 0.94) 0.675s forwards, gentleDrift 10s ease-in-out 1.475s infinite; }
    path[data-index="17"] { animation: fadeInUnfurl 0.8s cubic-bezier(0.25, 0.46, 0.45, 0.94) 0.720s forwards, gentleDrift 10s ease-in-out 1.520s infinite; }
    path[data-index="18"] { animation: fadeInUnfurl 0.8s cubic-bezier(0.25, 0.46, 0.45, 0.94) 0.765s forwards, gentleDrift 10s ease-in-out 1.565s infinite; }
    path[data-index="19"] { animation: fadeInUnfurl 0.8s cubic-bezier(0.25, 0.46, 0.45, 0.94) 0.810s forwards, gentleDrift 10s ease-in-out 1.610s infinite; }
    path[data-index="20"] { animation: fadeInUnfurl 0.8s cubic-bezier(0.25, 0.46, 0.45, 0.94) 0.855s forwards, gentleDrift 10s ease-in-out 1.655s infinite; }
    path[data-index="21"] { animation: fadeInUnfurl 0.8s cubic-bezier(0.25, 0.46, 0.45, 0.94) 0.900s forwards, gentleDrift 10s ease-in-out 1.700s infinite; }
    path[data-index="22"] { animation: fadeInUnfurl 0.8s cubic-bezier(0.25, 0.46, 0.45, 0.94) 0.945s forwards, gentleDrift 10s ease-in-out 1.745s infinite; }
    path[data-index="23"] { animation: fadeInUnfurl 0.8s cubic-bezier(0.25, 0.46, 0.45, 0.94) 0.990s forwards, gentleDrift 10s ease-in-out 1.790s infinite; }
    path[data-index="24"] { animation: fadeInUnfurl 0.8s cubic-bezier(0.25, 0.46, 0.45, 0.94) 1.035s forwards, gentleDrift 10s ease-in-out 1.835s infinite; }
    path[data-index="25"] { animation: fadeInUnfurl 0.8s cubic-bezier(0.25, 0.46, 0.45, 0.94) 1.080s forwards, gentleDrift 10s ease-in-out 1.880s infinite; }
    path[data-index="26"] { animation: fadeInUnfurl 0.8s cubic-bezier(0.25, 0.46, 0.45, 0.94) 1.125s forwards, gentleDrift 10s ease-in-out 1.925s infinite; }
    path[data-index="27"] { animation: fadeInUnfurl 0.8s cubic-bezier(0.25, 0.46, 0.45, 0.94) 1.170s forwards, gentleDrift 10s ease-in-out 1.970s infinite; }
    path[data-index="28"] { animation: fadeInUnfurl 0.8s cubic-bezier(0.25, 0.46, 0.45, 0.94) 1.215s forwards, gentleDrift 10s ease-in-out 2.015s infinite; }
    path[data-index="29"] { animation: fadeInUnfurl 0.8s cubic-bezier(0.25, 0.46, 0.45, 0.94) 1.260s forwards, gentleDrift 10s ease-in-out 2.060s infinite; }
    path[data-index="30"] { animation: fadeInUnfurl 0.8s cubic-bezier(0.25, 0.46, 0.45, 0.94) 1.305s forwards, gentleDrift 10s ease-in-out 2.105s infinite; }
    path[data-index="31"] { animation: fadeInUnfurl 0.8s cubic-bezier(0.25, 0.46, 0.45, 0.94) 1.350s forwards, gentleDrift 10s ease-in-out 2.150s infinite; }
    path[data-index="32"] { animation: fadeInUnfurl 0.8s cubic-bezier(0.25, 0.46, 0.45, 0.94) 1.395s forwards, gentleDrift 10s ease-in-out 2.195s infinite; }
    path[data-index="33"] { animation: fadeInUnfurl 0.8s cubic-bezier(0.25, 0.46, 0.45, 0.94) 1.440s forwards, gentleDrift 10s ease-in-out 2.240s infinite; }
    path[data-index="34"] { animation: fadeInUnfurl 0.8s cubic-bezier(0.25, 0.46, 0.45, 0.94) 1.485s forwards, gentleDrift 10s ease-in-out 2.285s infinite; }
    path[data-index="35"] { animation: fadeInUnfurl 0.8s cubic-bezier(0.25, 0.46, 0.45, 0.94) 1.530s forwards, gentleDrift 10s ease-in-out 2.330s infinite; }

</style>
	
	<path fill="#26B6C4" d="M222.213 399.701C235.923 397.64 253.111 400.697 264.56 408.713C273.037 414.649 278.669 423.15 280.419 433.374C281.613 440.353 281.108 447.865 281.103 454.938L281.053 489.856L281.115 531.833C281.124 541.015 281.609 550.499 280.377 559.607C279.371 567.048 276.929 574.35 272.523 580.483C265.263 590.587 254.607 595.562 242.57 597.429C226.035 599.994 206.739 599.852 192.751 589.461C182.316 581.708 178.757 572.107 176.846 559.648C178.49 558.282 201.737 559.004 205.891 559.01C206.647 560.84 207.469 562.795 208.747 564.327C212.648 569.003 219.21 570.416 225 570.794C232.386 571.277 241.934 570.584 247.623 565.306C254.243 559.165 252.847 544.96 253.015 536.684C246.328 542.614 240.271 545.592 231.339 546.522C217.467 547.966 202.552 545.647 191.503 536.614C182.914 529.592 178.289 519.689 177.215 508.755C176.229 498.715 176.926 488.164 176.886 478.065C176.835 465.037 175.393 444.962 177.828 432.91C179.039 426.664 181.802 420.823 185.863 415.926C194.919 405.066 208.571 400.888 222.213 399.701Z" data-index="1"></path>
	<path fill="#091524" d="M226.864 428.209C232.881 427.712 240.314 428.582 245.387 432.011C249.09 434.514 250.343 437.343 251.192 441.615C253.155 451.485 252.021 462.993 252.072 473.075C252.117 482.118 252.883 491.444 251.87 500.43C251.513 503.593 250.878 507.597 248.996 510.207C245.225 515.437 238.553 516.592 232.625 517.506C225.055 517.678 216.709 517.578 210.456 512.652C206.792 509.765 205.802 507.212 205.24 502.715C204.089 493.515 204.857 483.452 204.844 474.165C204.831 464.529 204.029 454.128 205.159 444.576C205.511 441.599 206.029 437.918 207.98 435.556C212.583 429.984 220.097 428.855 226.864 428.209Z" data-index="2"></path>
	<path fill="#E84354" d="M112.242 578.979L131.831 579.018C132.652 588.529 135.588 597.535 141.004 605.436C148.097 615.781 157.705 622.407 170.092 624.648C185.095 627.363 205.188 626.017 220.796 626.071C234.415 626.119 252.071 627.467 265.171 625.233C273.016 623.895 280.227 621.004 286.723 616.397C297.544 608.724 305.52 597.689 307.736 584.472L846.959 584.459L837.095 596.319C835.162 598.731 833.082 601.035 831.052 603.366C809.302 603.131 787.55 603.081 765.799 603.216L666.532 603.16L322.212 603.157C319.191 609.563 315.832 615.352 311.163 620.719C298.108 635.806 279.547 645.025 259.637 646.312C240.777 647.457 221.358 646.403 202.449 646.194C189.993 646.056 176.065 647.707 163.947 644.835C153.92 642.459 144.712 637.073 137.065 630.249C122.369 617.089 113.451 598.668 112.242 578.979Z" data-index="3" style="opacity: 1;"></path>
	<path fill="#F7B915" d="M917.773 359.165C931.166 359.235 944.559 359.188 957.951 359.024L957.972 479.62C964.278 480.039 970.771 479.702 977.095 479.634L977.064 506.645C970.669 506.598 964.274 506.624 957.88 506.723C957.833 521.278 957.863 535.833 957.972 550.387C948.984 550.364 939.997 550.388 931.009 550.46L930.998 544.75L930.978 506.728C909.314 506.429 887.583 506.952 865.91 506.993C865.844 498.382 864.643 479.129 866.286 471.761C868.06 463.8 877.572 446.17 881.336 438.063L917.773 359.165Z" data-index="4" style="opacity: 1;"></path>
	<path fill="#091524" d="M930.606 383.827C931.933 388.514 931.034 405.994 931.032 411.709L931.049 479.635L888.158 479.862C887.644 476.933 926.639 392.263 930.606 383.827Z" data-index="5" style="opacity: 1; visibility: visible;"></path>
	<path fill="#F7B915" d="M345.281 399.707C346.85 399.562 348.424 399.492 350 399.497C364.571 399.407 378.44 403.081 388.965 413.666C393.808 418.536 397.621 424.748 399.16 431.482C401.884 443.407 400.538 462.049 400.54 474.743L400.593 550.428L355.185 550.403C345.485 550.409 334.35 551.497 324.86 549.404C317.935 547.877 311.123 544.381 306.06 539.386C297.369 530.813 296.368 520.877 296.387 509.285C296.542 497.458 297.086 486.392 306.05 477.568C317.425 466.37 332.495 466.917 347.278 466.935L372.038 466.976C372.096 458.311 373.929 442.646 368.395 435.257C365.216 431.013 359.589 429.132 354.522 428.456C347.584 427.53 339.258 428.966 333.771 433.461C328.172 438.048 328.109 445.252 327.578 451.886L298.091 451.881C297.786 439.199 299.324 426.443 307.715 416.379C317.05 405.182 331.247 400.904 345.281 399.707Z" data-index="6"></path>
	<path fill="#091524" d="M349.352 493.227C357.061 493.142 364.77 493.128 372.479 493.182C372.166 503.446 372.404 513.762 372.43 524.032L348.375 524.071C342.407 524.127 335.123 524.66 330.035 520.937C327.183 518.849 325.814 515.634 325.423 512.196C324.902 507.619 325.153 501.949 328.308 498.33C332.945 493.011 342.82 493.504 349.352 493.227Z" data-index="7"></path>
	<path fill="#E84354" d="M752.947 366.509L781.807 366.41C781.087 380.277 781.687 394.319 781.559 408.215C789.209 403.966 795.7 400.475 804.722 400.435C816.882 400.38 828.478 405.539 837.044 414.055C842.312 419.292 846.698 426.18 848.29 433.509C850.767 444.906 849.48 462.969 849.474 475.007L849.476 550.494L820.983 550.479L820.998 465.743C820.934 456.985 823.542 441.726 817.14 434.775C813.467 430.787 806.818 428.659 801.522 428.593C796.085 428.526 789.873 430.196 786.028 434.235C783.43 436.965 782.372 440.527 781.903 444.187C780.54 454.819 781.565 468.834 781.588 479.799L781.583 550.521L752.949 550.42L752.947 366.509Z" data-index="8"></path>
	<path fill="#26B6C4" d="M390.601 630.238L786.277 630.315L887.362 630.31L909.998 630.326C913.564 630.307 917.789 629.668 921.251 630.373C924.096 630.953 926.631 632.441 928.159 634.962C929.36 636.944 929.792 639.412 929.176 641.659C928.313 644.804 926.316 646.614 923.576 648.19C918.381 649.005 912.526 648.538 907.259 648.533L878.092 648.511L773.403 648.514L402.038 648.464C395.416 642.947 389.94 636.189 383.574 630.379L390.601 630.238Z" data-index="9" style="opacity: 1;"></path>
	<path fill="#26B6C4" d="M113.318 400.211C113.415 400.207 113.513 400.202 113.61 400.2C126.432 399.95 138.575 403.147 148.015 412.237C154.024 418.024 157.798 425.547 159.531 433.666C162.081 445.613 160.681 461.736 160.665 474.159C160.632 499.595 160.381 525.057 160.711 550.49C151.321 550.373 141.929 550.36 132.538 550.45L132.54 482.393C132.551 470.485 133.345 457.93 132.249 446.088C131.932 442.667 131.379 438.81 129.484 435.887C126.945 431.97 122.924 429.964 118.471 428.986C109.739 427.068 100.829 429.068 93.367 433.807C92.9273 434.235 92.4959 434.671 92.0731 435.115C89.849 437.456 88.8822 439.609 88.3473 442.776C86.4546 453.985 87.6351 469.518 87.6359 481.122C87.6375 504.196 87.2973 527.363 87.9517 550.426C78.2075 550.233 68.4368 550.418 58.6901 550.457C58.3087 533.105 58.613 515.678 58.6106 498.32L58.6267 400.785C67.7291 400.905 76.8326 400.919 85.9353 400.827C82.8849 405.849 82.0566 411.061 81.0411 416.732C81.9977 415.364 82.9581 413.976 84.0469 412.708C91.7896 403.697 101.869 400.999 113.318 400.211Z" data-index="10"></path>
	<path fill="#F7B915" d="M680.817 399.711C682.69 399.394 684.839 399.464 686.741 399.435C699.821 399.239 714.28 402.961 723.765 412.416C729.879 418.509 733.783 426.596 735.501 435C737.835 446.417 736.511 463.368 736.502 475.418L736.539 550.422L706.924 550.421L706.974 482.934C706.99 470.857 707.727 458.238 706.701 446.215C706.436 443.11 706.015 439.836 704.499 437.067C702.013 432.525 697.668 430.877 692.989 429.478C690.791 429.053 688.599 428.888 686.362 428.847C680.274 428.737 673.767 430.315 669.379 434.757C666.523 437.648 665.731 441.879 665.273 445.796C664.049 456.259 664.996 469.37 664.999 480.139L665.023 550.445C655.505 550.225 645.95 550.39 636.427 550.382L636.431 474.739C636.428 462.16 635.177 446.587 637.385 434.361C638.654 427.336 641.397 420.662 646.013 415.165C654.919 404.56 667.481 400.837 680.817 399.711Z" data-index="11"></path>
	<path fill="#26B6C4" d="M458.944 399.7C461.701 399.339 464.71 399.383 467.502 399.378C481.421 399.351 495.688 403.098 505.782 413.156C511.43 418.852 515.311 426.06 516.958 433.911C519.476 445.929 518.024 462.362 518.022 474.857L518.078 550.474L489.278 550.46C488.426 535.215 490.978 445.225 487.629 438.259C485.355 433.529 480.776 431.536 476.121 429.876C473.56 429.289 471.114 428.673 468.468 428.636C461.975 428.545 454.272 430.579 449.62 435.274C446.807 438.114 445.994 441.405 445.468 445.25C444.057 455.559 445.07 469.921 445.079 480.58L445.118 550.419C435.736 550.212 426.306 550.429 416.919 550.446L416.929 476.152C416.905 463.429 415.656 446.867 417.91 434.667C419.142 427.83 422.057 421.408 426.391 415.98C434.555 405.862 446.303 401.086 458.944 399.7Z" data-index="12"></path>
	<path fill="#E84354" d="M175.974 326.379L554.964 326.239C561.657 332.429 568.252 338.724 574.747 345.122L175.999 345.096L175.974 326.379Z" data-index="13"></path>
	<path fill="#26B6C4" d="M554.675 284.526C561.325 284.547 572.424 283.138 578.538 285.242C583.226 286.855 614.575 320.035 621.145 326.28C642.246 326.948 663.555 326.373 684.675 326.365L802.338 326.343L846.307 326.316C854.287 326.312 862.491 325.913 870.441 326.526C872.558 326.689 874.326 326.876 875.855 328.522C879.281 332.208 878.131 340.423 878.059 345.204C845.887 344.338 813.501 345.092 781.31 345.101L614.712 345.174C594.961 324.708 574.646 304.781 554.675 284.526Z" data-index="14"></path>
	<path fill="#26B6C4" d="M535.025 366.5L565.028 366.441L565.013 459.241C565.001 476.529 564.137 494.196 565.127 511.419C565.268 513.875 565.466 516.379 566.752 518.544C568.566 521.597 571.753 522.473 574.96 523.317L575.025 550.673C564.594 550.485 554.109 547.85 546.456 540.366C540.914 534.946 537.726 528.088 536.272 520.538C533.837 507.892 535.108 482.229 535.109 468.251L535.025 366.5Z" data-index="15"></path>
	<path fill="#26B6C4" d="M240.294 237.21C251.672 235.884 267.682 236.903 279.535 236.905L360.088 236.946C360.039 242.851 360.031 248.756 360.062 254.66L254.576 254.763C216.275 255.121 186.357 263.922 158.986 291.788C139.509 312.424 129.574 337.002 127.564 365.106C121.522 365.083 115.481 365.139 109.441 365.274C109.682 336.15 123.259 305.377 142.371 283.613C168.556 253.796 201.24 239.901 240.294 237.21Z" data-index="16"></path>
	<path fill="#F7B915" d="M234.032 284.604C235.019 284.541 236.007 284.502 236.995 284.487L441.609 284.487C450.622 284.486 509.72 283.446 514.977 285.071C521.171 286.988 530.495 297.883 535.395 302.662L528.893 302.614L327.775 302.593L269.88 302.581C262.336 302.575 237.684 303.676 232.124 301.604C230.069 300.839 228.158 299.358 227.344 297.268C226.38 294.792 226.741 292.106 227.849 289.74C229.214 286.825 231.103 285.691 234.032 284.604Z" data-index="17"></path>
	<path fill="#F7B915" d="M600.679 409.242C606.62 409.237 612.565 409.11 618.505 409.029L618.521 550.397L606.875 550.364L588.933 550.448L588.898 409.415L600.679 409.242Z" data-index="18"></path>
	<path fill="#F7B915" d="M593.514 676.429C617.785 676.776 642.103 676.503 666.377 676.504L799.687 676.462C794.211 682.061 788.747 689.552 782.471 694.111L575.517 694.169C581.29 688.03 587.293 682.113 593.514 676.429Z" data-index="19" style="opacity: 1;"></path>
	<path fill="#26B6C4" d="M866.776 667.295L884.663 667.344C883.114 697.974 869.451 727.519 848.673 749.849C823.589 776.804 791.529 790.178 755.037 791.495L736.435 791.615L736.374 773.764C770.62 774.616 800.305 769.59 827.158 746.538C850.37 726.438 864.625 697.925 866.776 667.295Z" data-index="20"></path>
	<path fill="#26B6C4" d="M871.437 245.288C889.436 241.943 906.727 253.859 910.009 271.869C913.291 289.88 901.315 307.13 883.293 310.349C865.36 313.552 848.214 301.647 844.948 283.726C841.682 265.804 853.526 248.616 871.437 245.288Z" data-index="21" style="opacity: 1;"></path>
	<path fill="#091524" d="M875.851 262.187C884.422 261.261 892.125 267.448 893.068 276.016C894.012 284.585 887.84 292.3 879.273 293.261C870.683 294.224 862.941 288.031 861.995 279.438C861.049 270.846 867.257 263.117 875.851 262.187Z" data-index="22" style="opacity: 1;"></path>
	<path fill="#F7B915" d="M505.451 677.867C523.285 675.264 539.822 687.701 542.268 705.558C544.714 723.415 532.132 739.841 514.255 742.131C496.598 744.392 480.418 731.999 478.002 714.362C475.586 696.726 487.836 680.438 505.451 677.867Z" data-index="23" style="opacity: 1;"></path>
	<path fill="#091524" d="M507.932 694.784C516.399 693.669 524.155 699.662 525.211 708.137C526.268 716.612 520.22 724.326 511.738 725.322C503.339 726.309 495.718 720.334 494.672 711.943C493.626 703.551 499.548 695.889 507.932 694.784Z" data-index="24"></path>
	<path fill="#F7B915" d="M615.085 182.213C615.319 182.306 615.562 182.38 615.788 182.493C617.751 183.472 622.801 205.635 624.222 209.265C625.682 212.993 628.048 217.134 631.092 219.745C638.156 225.803 650.709 229.048 659.334 232.978C661.469 233.952 663.883 235.053 664.716 237.342C661.912 240.943 640.066 242.59 629.271 255.007C618.711 267.154 621.28 283.212 616.002 290.638C615.609 290.542 614.856 290.375 614.506 290.21C611.965 289.008 607.949 270.912 606.786 267.28C601.08 249.454 594.916 247.526 578.288 242.189C575.037 241.146 571.439 240.215 568.445 238.549C567.021 237.757 566.199 237.115 565.704 235.554C569.489 232.182 583.189 228.728 588.762 226.36C606.927 218.64 607.199 208.272 611.954 191.282C612.795 188.274 613.456 184.881 615.085 182.213Z" data-index="25"></path>
	<path fill="#26B6C4" d="M163.66 677.652L266.349 677.652C283.73 694.193 300.215 711.861 316.97 729.046L304.375 729.021L290.075 728.976C285.05 725.041 280.746 719.646 276.4 714.987C269.825 707.958 263.158 701.017 256.401 694.164C221.797 693.738 187.141 694.491 152.526 694.233C156.189 688.674 159.901 683.146 163.66 677.652Z" data-index="26"></path>
	<path fill="#E84354" d="M344.432 639.323C348.202 641.642 352.174 646.872 355.304 650.12L379.981 675.841C369.005 688.518 355.508 699.442 343.821 711.527C331.856 699.641 319.635 688.029 307.743 676.065C319.553 663.466 332.385 651.718 344.432 639.323Z" data-index="27"></path>
	<path fill="#E84354" d="M641.445 722.106C676.436 722.654 711.524 722.069 746.526 722.044L746.603 740.56L641.439 740.59L641.445 722.106Z" data-index="28"></path>
	<path fill="#26B6C4" d="M866.016 584.448L957.684 584.461C957.581 590.592 957.767 596.748 957.852 602.881C927.233 602.615 896.612 602.615 865.993 602.883C866.038 596.738 866.046 590.593 866.016 584.448Z" data-index="29"></path>
	<path fill="#26B6C4" d="M679.013 284.534C695.156 283.906 711.583 284.372 727.743 284.483C733.535 290.532 739.377 296.532 745.269 302.482L727.38 302.444L659.952 302.377C665.512 296.322 671.582 288.243 679.013 284.534Z" data-index="30"></path>
	<path fill="#E84354" d="M769.743 243.601C779.886 242.722 788.842 250.183 789.81 260.318C790.778 270.453 783.396 279.474 773.27 280.531C763.018 281.6 753.86 274.106 752.88 263.845C751.9 253.584 759.473 244.492 769.743 243.601Z" data-index="31"></path>
	<path fill="#F7B915" d="M86.5999 628.255C96.0809 625.696 105.838 631.322 108.372 640.81C110.906 650.298 105.253 660.04 95.7586 662.548C86.3004 665.046 76.604 659.42 74.0797 649.969C71.5555 640.517 77.1555 630.806 86.5999 628.255Z" data-index="32"></path>
	<path fill="#F7B915" d="M588.463 365.966L618.892 365.988C618.819 375.445 618.844 384.902 618.967 394.359L588.478 394.59L588.463 365.966Z" data-index="33"></path>
	<path fill="#E84354" d="M439.716 227.662C448.82 227.728 457.924 227.73 467.028 227.666C467.088 237.022 467.071 246.377 466.976 255.733C457.935 255.515 448.852 255.715 439.805 255.739C439.534 246.39 439.693 237.014 439.716 227.662Z" data-index="34"></path>
	<path fill="#E84354" d="M390.806 227.744C397.712 227.674 404.619 227.681 411.525 227.766L411.478 255.691L405.918 255.692L384.857 255.707C384.933 246.398 384.887 237.089 384.718 227.781L390.806 227.744Z" data-index="35"></path>
</svg>