<svg xmlns="http://www.w3.org/2000/svg" xmlns:xlink="http://www.w3.org/1999/xlink" width="1536" height="1024">

<style>
    path[data-index] { /* Apply only to paths with data-index */
        /* Set the center point for scaling and rotation */
        transform-origin: center center; /* Explicitly center */
        /* Start invisible and slightly smaller for the grow effect */
        opacity: 0;
        /* Base animation properties - delays added individually */
        /* animation: growIn 0.6s ease-out forwards, sway 7s ease-in-out infinite; */
    }

    /* Keyframes for the appearance animation */
    @keyframes growIn {
        from {
            opacity: 0;
            transform: scale(0.7);
        }
        to {
            opacity: 1;
            transform: scale(1);
        }
    }

    /* Keyframes for the continuous subtle swaying motion */
    @keyframes sway {
        0%, 100% {
            /* Using individual transform functions for better compatibility/readability */
             transform: rotate(0deg) translateX(0px) scale(1);
        }
        25% {
             transform: rotate(-1.5deg) translateX(-3px) scale(1);
        }
        75% {
             transform: rotate(1deg) translateX(2px) scale(1);
        }
    }

    /* --- Staggered Animation Delays --- */
    /* Delay increment for growIn animation */
    /* Delay for sway = growIn delay + growIn duration (0.6s) */

    /* Apply animations via data-index */
    path[data-index="1"]  { animation: growIn 0.6s ease-out 0.00s forwards, sway 7s ease-in-out 0.60s infinite; transform-origin: 400px 550px; } /* Adjusted origin */
    path[data-index="2"]  { animation: growIn 0.6s ease-out 0.03s forwards, sway 7s ease-in-out 0.63s infinite; transform-origin: 400px 550px; } /* Adjusted origin */
    path[data-index="3"]  { animation: growIn 0.6s ease-out 0.06s forwards, sway 7s ease-in-out 0.66s infinite; transform-origin: 400px 550px; } /* Adjusted origin */
    path[data-index="4"]  { animation: growIn 0.6s ease-out 0.09s forwards, sway 7s ease-in-out 0.69s infinite; transform-origin: 400px 550px; } /* Adjusted origin */
    path[data-index="5"]  { animation: growIn 0.6s ease-out 0.12s forwards, sway 7s ease-in-out 0.72s infinite; transform-origin: 550px 520px; } /* Adjusted origin */
    path[data-index="6"]  { animation: growIn 0.6s ease-out 0.15s forwards, sway 7s ease-in-out 0.75s infinite; transform-origin: 550px 520px; } /* Adjusted origin */
    path[data-index="7"]  { animation: growIn 0.6s ease-out 0.18s forwards, sway 7s ease-in-out 0.78s infinite; transform-origin: 550px 520px; } /* Adjusted origin */
    path[data-index="8"]  { animation: growIn 0.6s ease-out 0.21s forwards, sway 7s ease-in-out 0.81s infinite; transform-origin: 260px 520px; } /* Adjusted origin */
    path[data-index="9"]  { animation: growIn 0.6s ease-out 0.24s forwards, sway 7s ease-in-out 0.84s infinite; transform-origin: 1260px 500px; } /* Adjusted origin */
    path[data-index="10"] { animation: growIn 0.6s ease-out 0.27s forwards, sway 7s ease-in-out 0.87s infinite; transform-origin: 1260px 500px; } /* Adjusted origin */
    path[data-index="11"] { animation: growIn 0.6s ease-out 0.30s forwards, sway 7s ease-in-out 0.90s infinite; transform-origin: 1260px 500px; } /* Adjusted origin */
    path[data-index="12"] { animation: growIn 0.6s ease-out 0.33s forwards, sway 7s ease-in-out 0.93s infinite; transform-origin: 1260px 500px; } /* Adjusted origin */
    path[data-index="13"] { animation: growIn 0.6s ease-out 0.36s forwards, sway 7s ease-in-out 0.96s infinite; transform-origin: 1110px 500px; } /* Adjusted origin */
    path[data-index="14"] { animation: growIn 0.6s ease-out 0.39s forwards, sway 7s ease-in-out 0.99s infinite; transform-origin: 1110px 500px; } /* Adjusted origin */
    path[data-index="15"] { animation: growIn 0.6s ease-out 0.42s forwards, sway 7s ease-in-out 1.02s infinite; transform-origin: 690px 520px; } /* Adjusted origin */
    path[data-index="16"] { animation: growIn 0.6s ease-out 0.45s forwards, sway 7s ease-in-out 1.05s infinite; transform-origin: 690px 520px; } /* Adjusted origin */
    path[data-index="17"] { animation: growIn 0.6s ease-out 0.48s forwards, sway 7s ease-in-out 1.08s infinite; transform-origin: 970px 520px; } /* Adjusted origin */
    path[data-index="18"] { animation: growIn 0.6s ease-out 0.51s forwards, sway 7s ease-in-out 1.11s infinite; transform-origin: 970px 520px; } /* Adjusted origin */
    path[data-index="19"] { animation: growIn 0.6s ease-out 0.54s forwards, sway 7s ease-in-out 1.14s infinite; transform-origin: 800px 490px; } /* Adjusted origin */
    path[data-index="20"] { animation: growIn 0.6s ease-out 0.57s forwards, sway 7s ease-in-out 1.17s infinite; transform-origin: 800px 490px; } /* Adjusted origin */
    path[data-index="21"] { animation: growIn 0.6s ease-out 0.60s forwards, sway 7s ease-in-out 1.20s infinite; transform-origin: 860px 490px; } /* Adjusted origin */
    path[data-index="22"] { animation: growIn 0.6s ease-out 0.63s forwards, sway 7s ease-in-out 1.23s infinite; transform-origin: 860px 490px; } /* Adjusted origin */
    path[data-index="23"] { animation: growIn 0.6s ease-out 0.66s forwards, sway 7s ease-in-out 1.26s infinite; transform-origin: 860px 490px; } /* Adjusted origin */
    path[data-index="24"] { animation: growIn 0.6s ease-out 0.69s forwards, sway 7s ease-in-out 1.29s infinite; transform-origin: 310px 280px; } /* Adjusted origin */
    path[data-index="25"] { animation: growIn 0.6s ease-out 0.72s forwards, sway 7s ease-in-out 1.32s infinite; transform-origin: 310px 280px; } /* Adjusted origin */
    path[data-index="26"] { animation: growIn 0.6s ease-out 0.75s forwards, sway 7s ease-in-out 1.35s infinite; transform-origin: 780px 720px; } /* Adjusted origin */
    path[data-index="27"] { animation: growIn 0.6s ease-out 0.78s forwards, sway 7s ease-in-out 1.38s infinite; transform-origin: 780px 720px; } /* Adjusted origin */
    path[data-index="28"] { animation: growIn 0.6s ease-out 0.81s forwards, sway 7s ease-in-out 1.41s infinite; transform-origin: 560px 710px; } /* Adjusted origin */
    path[data-index="29"] { animation: growIn 0.6s ease-out 0.84s forwards, sway 7s ease-in-out 1.44s infinite; transform-origin: 560px 710px; } /* Adjusted origin */
    path[data-index="30"] { animation: growIn 0.6s ease-out 0.87s forwards, sway 7s ease-in-out 1.47s infinite; transform-origin: 880px 250px; } /* Adjusted origin */
    path[data-index="31"] { animation: growIn 0.6s ease-out 0.90s forwards, sway 7s ease-in-out 1.50s infinite; transform-origin: 880px 250px; } /* Adjusted origin */
    path[data-index="32"] { animation: growIn 0.6s ease-out 0.93s forwards, sway 7s ease-in-out 1.53s infinite; transform-origin: 690px 270px; } /* Adjusted origin */
    path[data-index="33"] { animation: growIn 0.6s ease-out 0.96s forwards, sway 7s ease-in-out 1.56s infinite; transform-origin: 690px 270px; } /* Adjusted origin */
    path[data-index="34"] { animation: growIn 0.6s ease-out 0.99s forwards, sway 7s ease-in-out 1.59s infinite; transform-origin: 500px 270px; } /* Adjusted origin */
    path[data-index="35"] { animation: growIn 0.6s ease-out 1.02s forwards, sway 7s ease-in-out 1.62s infinite; transform-origin: 500px 270px; } /* Adjusted origin */
    path[data-index="36"] { animation: growIn 0.6s ease-out 1.05s forwards, sway 7s ease-in-out 1.65s infinite; transform-origin: 970px 710px; } /* Adjusted origin */
    path[data-index="37"] { animation: growIn 0.6s ease-out 1.08s forwards, sway 7s ease-in-out 1.68s infinite; transform-origin: 970px 710px; } /* Adjusted origin */
    path[data-index="38"] { animation: growIn 0.6s ease-out 1.11s forwards, sway 7s ease-in-out 1.71s infinite; transform-origin: 1050px 290px; } /* Adjusted origin */
    path[data-index="39"] { animation: growIn 0.6s ease-out 1.14s forwards, sway 7s ease-in-out 1.74s infinite; transform-origin: 1050px 290px; } /* Adjusted origin */
    path[data-index="40"] { animation: growIn 0.6s ease-out 1.17s forwards, sway 7s ease-in-out 1.77s infinite; transform-origin: 590px 350px; } /* Adjusted origin */
    path[data-index="41"] { animation: growIn 0.6s ease-out 1.20s forwards, sway 7s ease-in-out 1.80s infinite; transform-origin: 590px 350px; } /* Adjusted origin */
    path[data-index="42"] { animation: growIn 0.6s ease-out 1.23s forwards, sway 7s ease-in-out 1.83s infinite; transform-origin: 1100px 700px; } /* Adjusted origin */
    path[data-index="43"] { animation: growIn 0.6s ease-out 1.26s forwards, sway 7s ease-in-out 1.86s infinite; transform-origin: 1100px 700px; } /* Adjusted origin */
    path[data-index="44"] { animation: growIn 0.6s ease-out 1.29s forwards, sway 7s ease-in-out 1.89s infinite; transform-origin: 210px 375px; } /* Adjusted origin */
    path[data-index="45"] { animation: growIn 0.6s ease-out 1.32s forwards, sway 7s ease-in-out 1.92s infinite; transform-origin: 210px 375px; } /* Adjusted origin */
    path[data-index="46"] { animation: growIn 0.6s ease-out 1.35s forwards, sway 7s ease-in-out 1.95s infinite; transform-origin: 420px 740px; } /* Adjusted origin */
    path[data-index="47"] { animation: growIn 0.6s ease-out 1.38s forwards, sway 7s ease-in-out 1.98s infinite; transform-origin: 420px 740px; } /* Adjusted origin */
    path[data-index="48"] { animation: growIn 0.6s ease-out 1.41s forwards, sway 7s ease-in-out 2.01s infinite; transform-origin: 958px 340px; } /* Adjusted origin */
    path[data-index="49"] { animation: growIn 0.6s ease-out 1.44s forwards, sway 7s ease-in-out 2.04s infinite; transform-origin: 1218px 658px; } /* Adjusted origin */
    path[data-index="50"] { animation: growIn 0.6s ease-out 1.47s forwards, sway 7s ease-in-out 2.07s infinite; transform-origin: 305px 690px; } /* Adjusted origin */
    path[data-index="51"] { animation: growIn 0.6s ease-out 1.50s forwards, sway 7s ease-in-out 2.10s infinite; transform-origin: 438px 348px; } /* Adjusted origin */
    path[data-index="52"] { animation: growIn 0.6s ease-out 1.53s forwards, sway 7s ease-in-out 2.13s infinite; transform-origin: 808px 330px; } /* Adjusted origin */
    path[data-index="53"] { animation: growIn 0.6s ease-out 1.56s forwards, sway 7s ease-in-out 2.16s infinite; transform-origin: 678px 772px; } /* Adjusted origin */
    path[data-index="54"] { animation: growIn 0.6s ease-out 1.59s forwards, sway 7s ease-in-out 2.19s infinite; transform-origin: 895px 795px; } /* Adjusted origin */
    path[data-index="55"] { animation: growIn 0.6s ease-out 1.62s forwards, sway 7s ease-in-out 2.22s infinite; transform-origin: 1188px 344px; } /* Adjusted origin */

</style>

	<!-- Background - No data-index -->
	

	<!-- Animated Elements - data-index added -->
	<path data-index="1" fill="#1F1D1E" d="M533.411 436.157C551.376 434.476 571.075 436.861 586.709 446.227C598.433 453.25 607.616 464.521 610.887 477.905C614.342 492.041 610.964 520.702 611.199 536.858C611.4 550.668 613.691 564.425 612.515 578.259C612.12 582.902 611.173 587.527 608.631 591.503C605.34 596.65 599.824 599.712 593.946 600.952C581.941 603.485 571.934 601.593 561.774 594.946C558.744 596.934 555.609 598.687 552.168 599.866C535.532 605.567 513.733 603 498.295 595.136C489.522 590.667 481.225 583.149 478.144 573.527C476.598 584.457 475.342 595.31 472.094 605.91C466.9 622.865 455.149 636.577 439.415 644.788C419.592 655.133 390.56 656.841 369.323 650.156C359.176 646.962 348.177 640.885 343.132 631.071C338.908 622.855 339.479 613.977 342.241 605.419C345.114 596.521 349.277 593.045 357.472 588.879L369.71 590.268C365.99 588.428 362.182 586.708 358.653 584.51C344.7 575.82 336.93 562.572 333.166 546.869C333.042 561.694 336.407 579.575 326.125 591.864C320.974 598.019 313.897 601.077 305.988 601.704C298.483 602.299 288.112 600.65 282.306 595.446C268.819 583.354 274.837 532.033 273.845 513.551C273.621 509.383 272.839 502.702 269.348 499.879C267.203 498.144 264.749 498.423 262.191 498.61C261.223 499.292 260.1 500.038 259.294 500.921C254.468 506.199 256.095 518.501 256.283 525.195C256.686 539.537 258.565 567.368 255.379 580.58C254.203 585.456 251.96 590.168 248.445 593.794C242.429 599.998 233.715 601.831 225.359 601.801C217.985 601.776 210.777 599.359 205.534 594.037Q204.91 593.412 204.33 592.746Q203.751 592.079 203.22 591.374Q202.688 590.668 202.208 589.927Q201.727 589.186 201.299 588.413Q200.872 587.64 200.499 586.84Q200.126 586.039 199.811 585.214Q199.495 584.389 199.238 583.544Q198.981 582.699 198.783 581.838C195.064 565.738 196.911 540.128 197.177 522.989L197.625 476.176C197.782 465.385 197.926 452.92 206.366 444.94C212.337 439.295 220.645 438.656 228.455 438.841C237.841 439.064 242.909 441.148 249.396 447.922C254.747 444.425 260.707 442.198 266.962 440.977C281.553 438.13 297.95 438.489 310.574 447.176C325.912 457.731 330.334 476.078 333.544 493.288C336.814 481.302 341.149 470.408 349.335 460.82C361.188 446.936 377.029 440.238 395.035 439.055C406.987 438.269 416.803 441.202 425.856 449.023C431.63 443.378 437.114 439.262 445.487 438.854C453.382 438.469 462.039 441.46 467.817 446.887C471.696 450.53 474.278 455.153 475.579 460.297C479.219 474.696 476.686 513.414 477.206 530.828C478.59 527.234 480.185 523.525 482.054 520.155C488.314 508.864 496.659 503.081 508.902 499.624C503.31 497.85 498.2 496.19 493.494 492.526Q492.896 492.057 492.322 491.558Q491.748 491.059 491.2 490.532Q490.651 490.006 490.13 489.452Q489.609 488.899 489.116 488.32Q488.623 487.741 488.159 487.138Q487.696 486.536 487.263 485.911Q486.83 485.285 486.429 484.639Q486.028 483.993 485.66 483.328Q485.292 482.663 484.957 481.98Q484.622 481.297 484.322 480.599Q484.022 479.9 483.757 479.187Q483.492 478.475 483.263 477.75Q483.034 477.024 482.842 476.289Q482.65 475.553 482.494 474.809Q482.339 474.064 482.221 473.313Q482.102 472.562 482.022 471.806C481.309 465.459 482.9 459.276 486.908 454.263C497.613 440.877 517.431 437.999 533.411 436.157Z" style="opacity: 1;"></path>
	<path data-index="2" fill="#FED963" d="M390.985 450.971C392.906 450.837 394.84 450.714 396.767 450.726C411.093 450.818 421.786 460.125 431.162 469.894C431.87 464.662 432.439 459.305 436.146 455.225C438.492 452.644 441.809 451.468 445.219 451.243C450.005 450.927 454.929 452.085 458.511 455.432C464.603 461.125 464.933 472.316 465.143 480.097C465.617 497.643 465.084 515.299 465.123 532.858C465.183 560.465 470.604 599.86 449.81 621.582C436.089 635.915 417.348 642.512 397.819 642.812C382.607 643.045 366.645 639.067 355.547 628.234C352.998 624.514 351.815 619.05 352.083 614.555C352.309 610.77 354.465 606.193 357.349 603.744C365.029 597.222 384.123 607.555 394.313 608.52C402.43 609.289 410.902 608.588 417.375 603.157C427.459 594.697 428.035 581.816 429.145 569.696C423.169 574.813 414.45 579.796 406.823 581.648C394.13 584.73 377.979 582.475 366.883 575.578C355.404 568.442 347.612 556.235 344.728 543.198C341.397 528.135 340.794 507.306 345.293 492.567C347.376 485.743 351.089 478.981 354.957 472.995C363.343 460.015 376.283 454.106 390.985 450.971Z" style="opacity: 1;"></path>
	<path data-index="3" fill="#1F1D1E" d="M398.315 483.284C404.629 482.733 410.016 482.815 415.626 486.06C422.29 489.914 426.23 496.654 428.161 503.935C431.114 515.07 430.119 533.694 424.073 543.816C420.68 549.498 416.586 551.24 410.465 552.747C402.746 553.836 396.515 553.053 389.165 550.461C387.13 548.333 385.327 545.865 384.121 543.167C378.747 531.15 378.772 512.124 383.405 499.895C386.334 492.165 390.8 486.738 398.315 483.284Z" style="opacity: 1;"></path>
	<path data-index="4" fill="#FEFEF7" d="M401.172 495.925C403.363 495.853 406.096 495.527 408.148 496.44C411.903 498.112 414.425 502.547 415.619 506.331C418.422 515.213 418.264 529.123 413.754 537.466C412.587 539.626 411.026 540.141 408.777 540.858C405.928 540.96 402.812 541.275 399.99 540.834C397.519 540.449 396.485 539.231 395.142 537.182C390.809 530.574 390.882 517.063 392.482 509.619C393.774 503.605 395.917 499.325 401.172 495.925Z" style="opacity: 1;"></path>
	<path data-index="5" fill="#FEA090" d="M540.152 448.193C543.85 447.835 547.566 448.022 551.273 448.169C565.68 448.741 579.112 452.477 589.123 463.486C594.415 469.306 597.647 476.473 599.159 484.156C600.69 491.939 600.202 499.614 600.19 507.481L599.924 544.975C599.819 555.428 600.65 566.049 600.072 576.471C599.834 580.753 599.196 583.927 595.7 586.824C590.439 591.181 582.599 589.994 576.295 589.586C575.666 589.173 575.067 588.76 574.471 588.301C568.859 583.989 567.553 579.497 566.625 572.668C559.053 581.654 555.236 587.672 543.05 589.851C528.558 592.443 511.386 590.131 499.109 581.713C492.661 575.941 489.16 569.448 487.688 560.926C485.571 548.662 486.995 534.841 494.436 524.523C506.86 507.297 529.977 506.579 549.207 507.728C553.638 507.992 558.682 509.306 563.04 508.642C564.342 506.9 563.768 504.203 563.467 502.06C562.704 496.62 560.404 491.293 555.874 487.989C545.001 480.061 530.607 483.921 518.553 485.757C513.282 486.56 506.467 486.517 502.124 482.935C498.583 480.014 494.558 474.136 494.266 469.476C494.07 466.35 495.46 463.541 497.518 461.267C507.448 450.295 526.232 448.712 540.152 448.193Z" style="opacity: 1;"></path>
	<path data-index="6" fill="#1F1D1E" d="M537.52 529.93C544.07 529.678 556.562 528.809 562.473 531.363C563.755 531.918 564.433 532.773 564.887 534.08C566.387 538.401 563.085 546.334 561.004 550.133C557.81 555.964 554.502 558.397 548.188 560.305C541.672 561.011 535.876 561.601 529.944 558.266C526.272 556.202 523.406 552.826 522.45 548.659Q522.294 547.965 522.21 547.259Q522.127 546.553 522.117 545.842Q522.107 545.13 522.171 544.422Q522.234 543.714 522.371 543.016Q522.507 542.318 522.715 541.638Q522.923 540.958 523.201 540.303Q523.478 539.648 523.821 539.025Q524.165 538.403 524.571 537.819C527.635 533.392 532.356 530.925 537.52 529.93Z"></path>
	<path data-index="7" fill="#FEFEF7" d="M536.286 542.371C540.239 542.642 546.315 541.255 549.718 543.372C549.931 545.491 549.195 545.904 547.996 547.603C544.311 547.835 536.899 549.174 534.033 546.833C533.996 544.549 534.871 544.1 536.286 542.371Z"></path>
	<path data-index="8" fill="#FEA090" d="M276.847 451.098C285.063 450.362 293.973 451.754 301.285 455.67C310.49 460.6 314.564 467.719 317.411 477.477C319.559 484.842 320.679 492.494 321.29 500.129C322.417 514.219 323.395 574.147 317.465 583.988C315.546 587.172 312.322 589.057 308.756 589.806C304.374 590.727 296.22 590.286 292.584 587.536C289.889 585.497 288.471 582.272 287.713 579.062C286.337 573.231 286.81 566.553 286.703 560.545C286.539 551.433 286.169 542.383 286.175 533.255C286.182 524.068 286.87 514.111 285.422 505.028C284.439 498.862 282.004 492.957 276.735 489.265C272.586 486.358 266.885 485.279 261.921 486.184C255.259 487.399 251.286 491.922 247.58 497.214C241.233 511.692 242.761 539.789 243.306 556.028C243.544 563.124 244.508 570.82 242.804 577.763C241.351 583.677 238.714 586.482 233.587 589.554C229.355 589.93 225.229 589.736 220.998 589.523C215.797 586.607 212.001 583.273 210.194 577.39C206.963 566.872 208.028 463.326 212.466 456.141C213.821 453.948 216.818 452.706 219.215 452.067C224.214 450.735 231.875 450.454 236.365 453.367C241.773 456.876 242.679 464.335 243.71 470.102C253.491 459.368 262.35 453.331 276.847 451.098Z" style="opacity: 1;"></path>
	<path data-index="9" fill="#1F1D1E" d="M1257.93 388.219C1270.04 386.861 1303.88 385.933 1313.92 391.971C1318.13 394.505 1320.71 398.032 1321.85 402.81C1324.63 414.439 1322.88 436.928 1323.27 449.812C1323.72 464.671 1325.36 479.759 1325.15 494.585C1325.13 496.474 1324.95 497.938 1323.9 499.58C1329.68 500.119 1335.17 500.593 1339.89 504.33C1345.06 508.432 1347 514.695 1347.64 521.043C1348.53 529.739 1349.67 543.216 1343.55 550.189C1338.32 556.156 1330.59 556.743 1323.21 557.243C1323.54 557.823 1323.65 557.945 1323.87 558.526C1326.34 565.101 1324.91 582.339 1321.88 588.948Q1321.63 589.495 1321.36 590.029Q1321.08 590.564 1320.78 591.083Q1320.48 591.602 1320.15 592.106Q1319.82 592.609 1319.47 593.095Q1319.11 593.581 1318.74 594.049Q1318.36 594.516 1317.96 594.964Q1317.56 595.412 1317.13 595.839Q1316.71 596.266 1316.27 596.67Q1315.82 597.075 1315.36 597.457Q1314.89 597.839 1314.41 598.196Q1313.93 598.554 1313.43 598.887Q1312.93 599.22 1312.41 599.526Q1311.9 599.833 1311.36 600.114Q1310.83 600.394 1310.29 600.647Q1309.74 600.9 1309.19 601.125Q1308.63 601.35 1308.06 601.546C1296.67 605.47 1282.34 602.602 1271.79 597.522C1269.97 593.652 1265.96 591.227 1264.48 586.75C1261.75 578.511 1265.51 562.87 1261.68 556.698C1245.55 556.764 1202.54 559.47 1189.88 553.365C1185.02 551.022 1181.88 547.651 1180.15 542.51C1176.12 530.501 1176.31 507.264 1182.03 495.962C1192.16 475.924 1205.62 456.961 1217.61 437.961C1226.3 424.196 1234.65 407.611 1245.64 395.708C1249.29 391.748 1252.85 389.887 1257.93 388.219Z"></path>
	<path data-index="10" fill="#9AD5DC" d="M1260.23 400.222Q1265.14 399.895 1270.06 399.966C1275.8 400.061 1304.99 400.048 1308.01 403.173C1309.21 406.447 1309.84 409.888 1310.15 413.359C1311.05 423.394 1314.38 507.708 1312.38 512.693C1317.88 513.106 1324.95 511.282 1330.11 512.98C1332.15 513.652 1333.47 515.242 1334.4 517.123C1337.18 522.687 1337.42 531.283 1335.52 537.14C1332.68 545.898 1324.58 543.429 1317.4 545.207C1314.94 545.818 1312.48 547.212 1310.22 548.351C1313.82 553.657 1313.53 568.449 1312.83 574.818C1312.26 579.912 1310.25 585.048 1306.03 588.209C1302.15 591.123 1297.08 591.818 1292.37 591.135C1284.4 589.979 1279.6 586.534 1274.84 580.267C1274.94 579.955 1275.12 579.44 1275.18 579.091C1276.03 574.609 1275.74 549.144 1273.72 546.065C1262.49 543.194 1230.22 545.525 1217.29 545.559C1211.2 545.574 1204.43 545.971 1198.61 544.016C1195.62 543.014 1193.77 541.243 1192.44 538.416C1188.36 529.798 1188.28 512.879 1191.65 504.104C1197.66 488.416 1243.91 416.125 1254.69 403.918C1256.3 402.09 1258.05 401.191 1260.23 400.222Z"></path>
	<path data-index="11" fill="#1F1D1E" d="M1266.08 447.482C1267.28 447.589 1267.73 447.559 1268.72 448.238C1270.69 449.584 1271.9 451.43 1272.31 453.761C1272.45 454.497 1272.58 455.21 1272.66 455.956C1273.73 466.387 1277.41 504.031 1271.57 511.138Q1254.43 510.612 1237.31 511.626C1235.91 511.708 1234.33 511.549 1233.06 510.87C1231.14 509.841 1230.83 509.015 1230.21 507.092C1231.04 502.037 1255.07 462.181 1259.66 455.375C1261.58 452.532 1263.85 450.077 1266.08 447.482Z"></path>
	<path data-index="12" fill="#FEFEF7" d="M1260.32 478.239C1261.25 478.693 1261.36 478.498 1261.72 479.554C1262.83 482.838 1263.17 495.958 1261.73 498.874C1258.17 499.493 1254.44 499.528 1250.83 499.719L1249.8 499.452C1249.5 495.11 1258.3 483.172 1260.32 478.239Z"></path>
	<path data-index="13" fill="#1F1D1E" d="M1058.45 383.71C1065.69 382.75 1074.72 383.327 1081.35 386.625C1087.6 389.738 1091.43 395.368 1093.62 401.864C1096.22 409.606 1099.42 436.791 1095.79 443.999C1099.1 443.442 1102.35 442.161 1105.66 441.471C1115.87 439.346 1128.23 439.282 1138.36 441.953C1149.54 444.902 1158.5 451.59 1164.27 461.641C1168.59 469.175 1171.38 477.993 1172.62 486.571C1174.45 499.256 1174.83 571.949 1171.77 582.588C1169.8 589.413 1165.86 595.754 1159.49 599.225C1152.03 603.291 1141.16 603.328 1133.19 600.873C1103.38 591.683 1120.52 550.954 1113.71 538.638C1113.64 538.507 1113.55 538.384 1113.47 538.256C1113.64 537.979 1113.83 537.709 1113.98 537.423C1116.25 533.18 1113.79 509.956 1112.27 504.969C1111.58 502.708 1110.46 500.787 1108.25 499.735C1106.24 498.779 1103.68 498.11 1101.54 498.996C1090.31 503.646 1100.15 572.023 1092.6 588.086C1089.72 594.205 1084.9 599.023 1078.44 601.211C1070.72 603.825 1059.4 603.507 1052.05 599.857C1045.75 596.727 1041.31 591.817 1039.16 585.086C1034.41 570.193 1036.55 547.8 1036.55 531.96L1036.55 477.274C1036.56 456.316 1035.29 434.578 1036.88 413.713C1037.34 407.568 1038.01 401.309 1040.99 395.808C1044.82 388.733 1051.06 385.905 1058.45 383.71Z"></path>
	<path data-index="14" fill="#FED963" d="M1062.07 396.467C1067.35 395.937 1072.68 395.382 1077.29 398.602C1081.6 401.609 1083.4 408.043 1084.33 412.97C1085.94 421.527 1086.38 453.315 1084.99 461.842C1084.66 463.859 1083.96 465.454 1082.81 467.148C1086.73 465.282 1090.26 462.171 1093.92 459.792Q1094.98 459.107 1096.07 458.475Q1097.16 457.843 1098.28 457.265Q1099.39 456.688 1100.54 456.166Q1101.69 455.644 1102.86 455.18Q1104.03 454.715 1105.22 454.309Q1106.41 453.902 1107.62 453.555Q1108.83 453.208 1110.06 452.921Q1111.29 452.634 1112.53 452.408Q1113.76 452.182 1115.01 452.017Q1116.26 451.852 1117.52 451.749Q1118.77 451.646 1120.03 451.605Q1121.29 451.564 1122.55 451.585Q1123.81 451.606 1125.07 451.689Q1126.32 451.772 1127.57 451.917Q1128.82 452.062 1130.07 452.268Q1131.31 452.475 1132.54 452.742C1141.28 454.702 1148.41 459.622 1153.08 467.306C1157.43 474.462 1159.47 483.165 1160.6 491.404C1162.02 501.732 1162.62 568.304 1160.45 576.666C1159.21 581.444 1156.51 585.992 1152.08 588.428Q1151.37 588.827 1150.62 589.154Q1149.87 589.482 1149.09 589.735Q1148.31 589.989 1147.52 590.166Q1146.72 590.343 1145.91 590.441Q1145.09 590.54 1144.28 590.56Q1143.46 590.579 1142.64 590.519Q1141.83 590.459 1141.02 590.321Q1140.22 590.182 1139.43 589.966C1124.78 585.795 1126.28 567.974 1126.38 556.076Q1126.53 545.446 1126.48 534.815C1126.45 531.189 1126.98 526.445 1125.17 523.242C1125.28 522.965 1125.4 522.692 1125.5 522.411C1127.53 516.724 1125.14 502.232 1122.32 496.816C1119.79 491.967 1115.07 488.624 1109.9 487.057C1105.07 485.59 1099.92 485.837 1095.48 488.411C1074.97 500.306 1089.03 557.958 1083.68 578.602C1082.58 582.833 1080.47 586.803 1076.47 588.936C1071.59 591.537 1064.76 590.799 1059.73 588.981C1055.96 587.62 1052.71 585.082 1051.08 581.335C1049.1 576.743 1048.96 571.325 1048.71 566.39C1047.8 548.333 1048.23 408.957 1050.8 403.555C1052.99 398.935 1057.61 397.842 1062.07 396.467Z"></path>
	<path data-index="15" fill="#1F1D1E" d="M697.214 437.621C708.787 436.256 723.196 438.541 733.067 444.826C745.51 452.75 752.005 466.362 755.084 480.364C759.345 499.747 757.438 521.475 757.547 541.22C757.611 552.699 758.715 565.249 756.994 576.54Q756.724 578.381 756.256 580.182Q755.79 581.984 755.131 583.724Q754.473 585.465 753.632 587.125Q752.79 588.785 751.775 590.344C747.92 596.175 742.476 600.104 735.589 601.465C727.594 603.045 717.047 601.987 710.168 597.335C704.892 593.767 701.654 588.119 700.115 582.028C695.521 563.853 701.969 530.929 698.253 511.494C697.387 506.965 695.357 501.602 691.207 499.109C689.752 498.234 688.209 497.982 686.575 498.472C683.061 499.525 680.086 503.767 678.498 506.896L678.153 507.587C674.007 522.22 677.232 549.985 677.054 566.404C676.943 576.652 676.306 588.218 668.387 595.753C662.237 601.605 653.589 602.647 645.457 602.35C638.186 602.085 630.868 599.032 625.942 593.606C621.938 589.195 620.763 584.566 619.863 578.787C617.976 566.656 618.645 554.402 618.783 542.18Q618.931 523.582 618.876 504.984C618.865 491.247 617.385 475.159 618.276 461.858Q618.325 461.214 618.405 460.574Q618.485 459.933 618.597 459.297Q618.709 458.661 618.852 458.032Q618.995 457.402 619.169 456.78Q619.343 456.159 619.547 455.546Q619.751 454.934 619.985 454.332Q620.219 453.73 620.483 453.141Q620.746 452.552 621.039 451.976Q621.331 451.4 621.651 450.84Q621.971 450.279 622.319 449.735Q622.666 449.191 623.04 448.665Q623.414 448.138 623.813 447.631Q624.213 447.124 624.636 446.637Q625.06 446.15 625.508 445.684Q625.955 445.219 626.424 444.776Q626.894 444.333 627.385 443.914C636.363 436.351 647.814 438.193 658.602 439.062C662.589 441.586 666.194 445.045 669.808 448.086C678.907 442.641 686.488 438.86 697.214 437.621Z" style="opacity: 1;"></path>
	<path data-index="16" fill="#9AD5DC" d="M645.423 450.203C649.244 449.91 653.081 450.107 656.449 452.123C662.606 455.809 663.876 464.263 665.467 470.666C669.906 467.426 672.698 462.632 676.749 458.937C684.575 451.796 696.476 450.293 706.633 450.76C716.918 451.233 726.749 454.05 733.815 461.929C739.789 468.59 742.721 477.45 744.254 486.119C746.837 500.731 745.28 516.738 745.299 531.612C745.314 544.136 746.1 556.954 745.448 569.441C745.126 575.606 744.047 582.171 739.092 586.394C734.058 590.684 727.647 589.958 721.548 589.539C719.736 588.51 717.78 587.3 716.31 585.805C713.466 582.912 711.893 578.827 711.107 574.902C708.753 563.144 710.447 539.033 710.485 526.253C710.559 517.291 711.217 507.206 707.965 498.725C706.025 493.663 702.629 489.894 697.593 487.794C692.098 485.501 686.2 485.418 680.726 487.809C674.689 490.446 670.442 495.235 668.046 501.328C662.729 514.849 665.154 545.089 665.259 560.669C665.303 567.159 665.834 574.42 663.411 580.558C661.933 584.3 659.35 587.34 655.555 588.85C650.994 590.665 643.249 590.625 638.775 588.525C635.557 587.015 633.671 584.167 632.589 580.888C628.581 568.727 631.01 512.018 630.962 495.676C630.935 486.386 629.762 476.853 630.289 467.6C630.474 464.358 631.089 461.298 632.705 458.453C635.582 453.386 640.134 451.697 645.423 450.203Z"></path>
	<path data-index="17" fill="#1F1D1E" d="M916.421 436.894C928.998 437.189 936.133 439.063 945.174 448.164C954.021 442.361 962.584 438.599 973.308 438.226C987.496 437.732 1001.08 441.773 1011.47 451.676C1025.04 464.612 1030.75 483.267 1031.13 501.619C1031.42 515.826 1030.4 530.088 1030.27 544.3C1030.17 555.67 1031.61 568.011 1029.7 579.192C1028.78 584.592 1027.16 589.777 1023.24 593.755C1017.39 599.684 1009.24 602.199 1001.05 602.182C993.35 602.165 988.154 599.629 982.776 594.216C970.394 581.754 973.859 559.659 973.988 543.508C973.957 534.68 974.717 525.781 974.389 516.967C974.213 512.247 973.206 503.835 969.262 500.624C967.297 499.025 964.191 498.171 961.698 498.708C942.318 502.882 959.308 575.102 948.159 589.827C943.821 595.558 936.404 599.638 929.321 600.548C920.801 601.643 912.233 600.813 905.283 595.375C899.45 590.811 895.937 583.87 895.099 576.579C892.313 552.361 893.022 521.882 893.158 497.118C893.228 484.346 892.33 470.515 894.683 457.971Q894.991 456.262 895.515 454.606Q896.039 452.951 896.77 451.375Q897.501 449.8 898.427 448.331Q899.353 446.862 900.459 445.523C904.65 440.359 909.881 437.589 916.421 436.894Z" style="opacity: 1;"></path>
	<path data-index="18" fill="#9AD5DC" d="M915.88 450.155C920.666 449.968 925.146 449.618 929.48 452.071C935.85 455.676 937.931 463.325 939.621 469.932C952.744 458.748 957.025 452.785 975.599 452.138C986.346 451.764 995.642 454.001 1003.61 461.526C1014.85 472.136 1018.98 484.7 1019.41 499.869C1019.78 512.978 1019.03 526.277 1018.97 539.41C1018.91 550.638 1020.18 564.538 1018.29 575.324C1017.59 579.289 1016.16 583.27 1013.24 586.16C1010.37 589.014 1006.62 590.106 1002.66 590.162C998.405 590.222 994.248 589.18 991.176 586.036C988.75 583.553 987.517 580.292 986.885 576.94C984.848 566.143 986.39 537.787 986.391 525.391C986.108 515.607 986.496 502.555 981.079 494.051C978.388 489.826 972.863 487.128 968.065 486.208C962.672 485.174 957.122 486.181 952.585 489.327C931.022 504.279 944.429 551.794 940.099 574.167C939.085 579.405 937.085 584.064 932.423 587.062C928.42 589.635 924.57 589.885 920.061 588.897C916.274 588.068 912.244 586.262 910.221 582.771C907.888 578.745 907.49 572.737 907.054 568.152C905.609 552.988 903.306 470.452 906.953 459.347C908.68 454.091 911.147 452.467 915.88 450.155Z" style="opacity: 1;"></path>
	<path data-index="19" fill="#1F1D1E" d="M787.057 384.966C794.96 384.473 803.796 384.97 811.183 388.068C816.916 390.472 819.788 394.705 822.037 400.308Q822.832 402.333 823.463 404.414Q824.095 406.496 824.558 408.622Q825.022 410.747 825.315 412.902Q825.608 415.058 825.728 417.23C826.724 434.04 824.985 451.245 825.113 468.126L825.165 527.747C825.298 541.532 826.21 555.385 825.609 569.166C825.373 574.582 825.086 580.177 822.87 585.187C819.413 593.001 813.301 598.071 805.437 601.071C804.529 601.318 803.623 601.534 802.702 601.729C794.449 603.466 786.022 602.486 778.891 597.729C772.029 593.152 768.568 585.745 767.05 577.83C765.91 571.883 766.222 565.303 766.092 559.235C765.697 540.821 766.45 522.468 766.47 504.056L766.447 443.136C766.44 431.845 765.759 420.063 766.948 408.842C767.514 403.502 769.202 398.615 772.249 394.16C776.072 388.569 780.52 386.181 787.057 384.966Z"></path>
	<path data-index="20" fill="#FEA090" d="M789.469 397.048C793.436 396.939 797.458 396.788 801.362 397.643C805.582 398.566 809.562 400.871 811.695 404.757C813.528 408.097 813.604 414.84 813.765 418.648C814.924 446.176 813.861 474.218 813.847 501.816C813.836 524.799 814.923 550.302 814.069 572.966C813.985 575.187 813.767 577.5 812.977 579.597C810.942 584.994 807.448 587.255 802.481 589.466C798.244 590.018 794.191 589.988 790.034 588.888C786.363 587.917 782.64 585.846 780.814 582.374C778.514 578.002 778.279 571.499 777.984 566.591C776.578 543.231 777.678 519.208 777.699 495.784C777.719 473.201 776.663 450.1 777.898 427.578C778.235 421.441 778.922 414.73 780.563 408.8C782.156 403.04 784.177 399.98 789.469 397.048Z"></path>
	<path data-index="21" fill="#1F1D1E" d="M855.654 384.987C861.794 384.736 866.734 384.726 872.461 387.248C879.62 390.401 884.973 396.125 887.779 403.418C892.699 416.208 888.454 426.028 883.241 437.779L875.324 442.963C881.706 448.898 885.325 453.81 886.736 462.468C890.782 487.309 889.072 514.053 889.074 539.227C889.076 551.639 890.038 565.01 888.482 577.323C887.806 582.671 886.611 587.88 883.344 592.264C878.073 599.336 870.459 601.039 862.238 602.307C859.361 602.375 856.222 602.294 853.405 601.678C844.58 599.749 838.004 592.696 833.365 585.346C832.358 573.114 833.177 560.587 832.96 548.304C832.652 530.824 829.418 475.707 833.233 461.623C835.711 452.478 840.184 448.317 848.125 443.656C845.94 442.747 843.651 441.861 841.644 440.595C835.992 437.029 833.08 429.557 831.696 423.328C829.66 414.168 830.785 405.335 836.004 397.411C840.819 390.101 847.273 386.725 855.654 384.987Z"></path>
	<path data-index="22" fill="#9AD5DC" d="M857.569 454.071C860.581 453.913 863.289 453.9 866.196 454.846C869.423 455.896 872.759 457.727 874.208 460.969C877.984 469.415 879.058 576.498 876.001 582.813C873.778 587.404 869.528 588.574 865.044 589.906C860.594 590.035 855.451 589.873 851.445 587.727C849.32 586.588 847.564 585.002 846.858 582.646C843.1 570.099 845.395 538.322 845.033 523.009C844.659 507.229 843.118 491.177 843.735 475.427C843.906 471.079 843.953 464.828 846.288 461.03C848.976 456.658 852.93 455.339 857.569 454.071Z"></path>
	<path data-index="23" fill="#9AD5DC" d="M857.785 396.956C860.243 396.822 863.032 396.624 865.409 397.363C870.202 398.854 874.48 402.376 876.628 406.926C878.481 410.85 878.881 415.363 877.39 419.472C874.99 426.089 870.074 428.812 864.02 431.686C860 432.291 855.857 431.748 852.28 429.726C846.331 426.362 844.158 421.09 842.302 414.829L842.549 414.06C845.313 405.564 849.875 401.004 857.785 396.956Z"></path>
	<path data-index="24" fill="#1F1D1E" d="M305.181 216.851C318.012 216.228 323.599 230.863 332.219 237.982C341.688 245.803 356.506 238.066 367.435 237.041C370.881 236.718 375.117 236.813 377.78 239.324C387.73 248.703 365.934 267.724 363.504 277.362C360.937 287.545 376.523 301.233 376.329 312.816C376.287 315.339 375.305 317.468 373.484 319.209C367.58 324.857 345.753 317.061 337.575 316.665C334.737 316.528 334.042 316.733 331.959 318.584C324.984 325.481 313.626 341.511 303.714 343.447C302.226 343.738 300.938 343.611 299.706 342.681C292.432 337.189 294.068 311.145 293.364 302.3C284.828 299.43 261.853 290.433 256.703 283.846C255.519 282.332 254.828 280.746 255.169 278.811C256.899 269.002 284.155 264.872 291.802 259.308C297.338 255.281 296.679 237.443 297.536 231.245C298.409 224.93 299.997 220.79 305.181 216.851Z"></path>
	<path data-index="25" fill="#FED963" d="M310.752 231.166C314.707 231.752 328.333 250.263 337.685 254.963C347.537 253.803 357.827 250.299 367.539 248.035C361.923 258.449 354.887 268.392 350.285 279.289C353.96 289.628 359.781 298.993 363.436 309.425C352.566 309.359 340.246 303.712 329.852 307.366C321.585 312.611 314.2 325.215 307.311 328.748C303.636 324.459 305.279 306.111 303.58 299.233C301.865 292.296 283.789 288.151 277.67 284.613C275.219 283.195 273.683 281.797 272.924 279.007C274.489 275.848 288.158 272.751 291.913 271.451C295.126 270.339 299.239 269.263 301.797 266.966C308.839 260.645 306.03 240.912 310.752 231.166Z"></path>
	<path data-index="26" fill="#1F1D1E" d="M806.156 673.709C810.707 673.331 815.029 673.584 819.348 675.174C824.883 677.213 828.773 680.874 831.227 686.222C835.254 694.999 835.077 705.105 831.706 714.054C824.433 733.365 802.989 752.648 784.518 760.914C777.386 758.16 770.402 753.597 764.58 748.673C758.633 742.841 752.435 736.999 747.203 730.504C739.359 720.765 734.76 709.543 736.319 696.877C737.156 690.077 740.194 683.866 745.728 679.691C751.336 675.459 758.919 673.664 765.845 674.73C774.564 676.072 779.622 681.414 784.587 688.229C790.637 680.854 797.015 676.395 806.156 673.709Z"></path>
	<path data-index="27" fill="#FEA090" d="M761.039 686.613C762.527 686.68 764.082 686.975 765.511 687.403C772.913 689.617 776.973 698.76 780.218 704.967C781.541 707.497 782.353 709.385 785.219 710.284C789.406 708.689 791.322 701.472 793.284 697.648C796.234 691.898 799.782 688.702 805.946 686.705L806.839 686.421C810.434 686.998 813.978 687.474 817.024 689.646Q817.546 690.025 818.027 690.455Q818.508 690.885 818.944 691.361Q819.379 691.838 819.765 692.355Q820.151 692.872 820.482 693.426Q820.814 693.98 821.089 694.564Q821.363 695.148 821.577 695.757Q821.792 696.365 821.944 696.992Q822.096 697.62 822.185 698.259C823.602 708.036 817.232 717.354 811.676 724.758C803.937 734.941 795.43 742.863 784.244 749.207C769.449 740.214 752.843 724.527 748.109 707.568C746.879 703.162 746.022 697.786 748.548 693.653C751.52 688.787 755.905 687.849 761.039 686.613Z"></path>
	<path data-index="28" fill="#1F1D1E" d="M556.859 665.359C570.982 665.608 569.699 684.067 578.371 691.647C586.483 698.738 601.376 693.874 609.17 700.48C610.765 701.832 611.444 703.433 611.502 705.516C611.735 713.931 596.822 725.687 591.135 731.341C592.381 740.061 596.851 750.04 595.708 758.816C595.369 761.416 594.728 762.862 592.629 764.452C584.733 767.286 570.203 758.824 562.741 755.631C556.956 754.81 541.552 769.786 532.52 769.104C531.18 769.002 529.853 768.407 529.017 767.33C523.49 760.217 528.526 741.639 529.772 733.241C524.409 727.557 517.707 723.294 512.472 717.536C510.139 714.97 507.65 710.502 507.98 706.906C508.949 696.346 530.916 699.419 537.704 695.65C546.503 690.764 547.356 672.5 556.859 665.359Z"></path>
	<path data-index="29" fill="#FEA090" d="M559.153 680.749C565.333 684.78 566.577 695.672 571.438 701.243C576.269 706.782 592.635 706.486 599.914 707.258C594.161 714.502 586.764 720.541 580.543 727.444C580.673 736.195 583.164 745.319 584.886 753.897C576.946 750.687 569.863 745.945 562.059 742.499C553.941 745.467 545.677 751.8 538.279 756.359C539.622 747.215 539.916 737.758 540.906 728.542C534.675 721.657 527.069 716.551 520.479 710.057C529.317 708.66 539.198 708.414 547.628 705.418C551.801 697.342 554.641 688.713 559.153 680.749Z"></path>
	<path data-index="30" fill="#1F1D1E" d="M913.197 209.469L922.59 208.958C924.521 209.851 926.413 210.781 928.191 211.958C933.423 215.422 937.145 220.365 938.289 226.615C940.267 237.426 935.016 249.042 929.004 257.715C922.727 266.77 903.108 287.969 892.147 289.495C886.494 290.282 877.141 281.619 872.756 278.111C868.468 274.141 864.283 270.094 860.436 265.689C852.445 256.541 845.587 245.22 846.603 232.62C847.162 225.699 850.027 218.967 855.413 214.443C859.734 210.815 865.152 209.315 870.738 209.799C879.781 210.582 886.671 215.355 892.428 222.05C898.404 215.297 904.9 212.436 913.197 209.469Z"></path>
	<path data-index="31" fill="#FEA090" d="M864.748 221.272C867.215 221.15 869.726 221.096 872.145 221.662C884.188 224.482 883.784 233.323 890.048 241.687C891.212 243.24 891.972 243.46 893.805 243.669C896.586 241.756 897.946 238.008 899.429 235.073C902.176 229.635 905.256 223.485 911.615 221.664C915.261 220.62 919.429 221.418 922.691 223.26C925.194 224.673 926.811 227.173 927.373 229.965C929.019 238.147 923.968 247.116 919.685 253.656C911.916 263.909 902.856 271.461 892.512 279.011C883.014 274.485 873.878 265.967 867.268 257.845C861.822 251.154 856.539 242.221 857.595 233.219C858.233 227.777 860.583 224.657 864.748 221.272Z"></path>
	<path data-index="32" fill="#1F1D1E" d="M687.541 213.093C689.162 212.918 691.061 212.695 692.647 213.169C699.807 215.306 694.996 233.889 701.9 243.629C710.798 256.184 732.629 260.357 736.099 267.921C736.034 271.225 734.886 272.706 732.016 274.477C716.095 284.3 708.907 281.213 700.313 302.826C698.47 307.462 697.968 312.9 695.152 317.024L691.495 318.37C683.799 316.762 682.015 296.986 676.88 289.971C671.675 282.86 661.335 280.245 653.978 276.054C651.09 274.409 648.932 272.543 648.054 269.236C649.429 260.041 670.224 256.465 678.062 247.543C686.945 237.43 680.412 222.914 687.541 213.093Z"></path>
	<path data-index="33" fill="#9AD5DC" d="M691.19 243.64C693.387 245.939 695.183 248.851 697.228 251.331C703.525 258.968 709.91 264.077 718.5 268.818C705.97 274.132 698.088 283.982 691.784 295.666C686.216 281.979 675.663 275.545 663.377 268.625C675.985 262.03 684.109 256.374 691.19 243.64Z"></path>
	<path data-index="34" fill="#1F1D1E" d="M496.166 224.094C496.989 224.109 497.82 224.121 498.64 224.187C507.409 224.896 506.226 242.101 510.456 248.677C516.159 257.543 530.563 258.963 535.94 266.679C537.025 268.236 537.092 269.846 536.548 271.624C534.272 279.06 519.877 283.197 515.143 290.204C508.786 299.614 509.058 309.387 505.191 315.757C504.391 317.076 502.938 317.912 501.654 318.7C501.497 318.671 501.339 318.646 501.182 318.614C500.188 318.407 498.639 318.139 497.749 317.686C494.131 315.841 489.663 296.232 485.686 290.861C481.069 284.625 472.117 280.79 465.95 276.221C463.218 274.197 460.899 272.085 460.394 268.547C460.944 265.71 462.526 263.874 464.855 262.225C470.809 258.012 478.351 256.51 484.174 251.851C493.172 244.652 489.326 232.282 496.166 224.094Z" style="opacity: 1;"></path>
	<path data-index="35" fill="#FED963" d="M498.97 248.921C504.547 259.62 510.285 264.354 520.79 269.807C512.307 277.355 507.01 282.635 500.87 292.119L499.955 292.094C493.707 281.456 486.258 275.908 476.411 268.819C486.501 263.12 493.093 259.174 498.97 248.921Z" style="opacity: 1;"></path>
	<path data-index="36" fill="#1F1D1E" d="M969.434 663.844C971.11 663.81 972.586 663.953 974.236 664.24C979.917 668.267 980.173 684.393 985.956 691.499C992.538 699.587 1007.14 700.643 1012.05 709.115C1012.63 716.203 994.297 721.696 989.377 726.739C979.491 736.873 982.593 750.782 975.101 760.391C973.532 760.31 971.386 760.372 969.985 759.674C964.804 757.093 964.456 742.371 962.566 736.957C958.04 724 947.893 720.705 936.522 715.098C934.169 713.938 932.238 712.856 931.353 710.294C933.944 700.756 950.837 699.913 957.244 692.904C964.818 684.618 961.878 670.747 969.434 663.844Z"></path>
	<path data-index="37" fill="#FED963" d="M971.498 689.145C973.645 691.185 975.144 694.178 977.08 696.487C981.845 702.169 987.102 706.028 993.218 710.092C984.54 717.055 978.355 724.299 972.767 733.899C967.589 722.961 958.937 716.589 949.361 709.732C959.396 704.014 966.524 700.099 971.498 689.145Z"></path>
	<path data-index="38" fill="#1F1D1E" d="M1049.07 258.419C1051.35 258.068 1052.79 257.84 1054.96 258.701C1059.08 262.102 1058.57 268.778 1059.49 273.692C1062.14 287.863 1074.32 286.827 1083.51 293.947C1085.25 295.297 1085.42 295.868 1085.57 297.992C1082.14 304.929 1070.41 304.044 1065.33 310.876C1059.63 318.55 1057.92 334.57 1054.76 336.982C1054.73 337.033 1054.72 337.09 1054.69 337.135C1053.86 338.297 1053.38 338.768 1052.05 339.26C1046.2 337.73 1043.82 319.119 1040.18 312.253C1036.25 304.845 1025.4 306.412 1020.96 299.799C1020.31 292.545 1035.37 287.957 1040.35 283.327C1046.29 277.793 1044.96 265.562 1049.07 258.419Z"></path>
	<path data-index="39" fill="#FED963" d="M1050.12 286.921C1053.54 287.435 1060.79 294.591 1063.08 297.636C1062.98 298.095 1062.98 298.227 1062.71 298.689C1061.44 300.865 1055.34 308.222 1053.18 309.788C1052.8 310.07 1051.55 310.258 1051.03 310.406C1050.98 309.652 1051.07 309.702 1050.8 309.119C1048.5 304.081 1041.92 300.003 1037.02 297.946C1038.38 297.339 1039.75 296.711 1041.05 295.959C1044.46 293.981 1049 290.878 1050.12 286.921Z"></path>
	<path data-index="40" fill="#1F1D1E" d="M584.929 315.112C586.817 314.956 589.015 314.611 590.638 315.679C593.239 317.39 593.735 321.806 594.334 324.632C598.126 342.524 608.659 339.985 620.601 347.74C621.633 349.507 621.84 349.888 621.834 351.915C618.862 356.921 610.831 356.121 606.147 359.271C596.5 365.758 595.405 374.906 593.379 385.587C591.675 386.811 590.73 387.33 588.622 387.491C583.299 385.105 582.286 376.316 580.117 371.198C577.363 364.698 573.041 360.521 566.607 357.859C563.966 356.767 559.409 355.002 558.457 352.104C556.905 347.384 572.027 341.828 575.269 339.074C581.926 333.42 581.71 322.705 584.929 315.112Z"></path>
	<path data-index="41" fill="#FEA090" d="M587.998 338.907C592.633 342.245 595.759 347.083 601.053 350.565C596.026 354.321 591.966 358.087 588.283 363.201C584.45 358.284 580.059 354.79 575.084 351.127C580.595 347.698 584.073 344.026 587.998 338.907Z"></path>
	<path data-index="42" fill="#1F1D1E" d="M1112.77 662.778C1113.34 662.714 1113.9 662.654 1114.47 662.639C1121.6 662.448 1122.05 678.071 1125.03 683.094C1129.4 690.479 1140.47 690.633 1146.17 696.256L1146.1 698.611C1142.64 705.332 1132.36 704.589 1127.53 710.181C1122.26 716.285 1121.32 729.132 1116.84 732.559C1116.24 732.779 1115.53 733.092 1114.87 733.11C1112.97 733.161 1111.5 732.421 1110.35 730.924C1106.73 726.217 1107.9 718.438 1104.13 713.619C1099.66 707.889 1092.69 705.845 1087.66 701.017C1086.14 699.554 1085.59 698.477 1085.5 696.386C1087.57 690.82 1097.19 690.507 1102.31 684.311C1107.44 678.106 1107.39 668.111 1112.77 662.778Z"></path>
	<path data-index="43" fill="#C3C4B4" d="M1112.09 686.779L1114.13 686.786C1116.74 689.11 1122.96 695.647 1124.53 698.641C1123.06 702.206 1117.06 707.998 1113.94 710.434C1111.59 704.674 1106.72 700.687 1101.6 697.46C1101.73 697.396 1101.85 697.333 1101.98 697.267C1105.98 695.117 1110.75 691.278 1112.09 686.779Z"></path>
	<path data-index="44" fill="#1F1D1E" d="M208.076 339.047C209.733 339.139 211.5 339.277 212.961 340.153C217.171 342.677 218.002 351.907 219.434 356.343C222.422 365.599 229.263 366.477 236.841 370.539C239.444 371.935 240.369 373.119 241.183 375.847C240.956 376.444 240.816 377.082 240.503 377.638C238.157 381.808 227.882 382.807 224.173 386.874C217.541 394.146 219.888 404.673 213.869 411.583C212.217 411.646 210.896 411.452 209.289 411.078C204.915 407.946 204.535 400.238 202.974 395.369C200.039 386.213 193.256 384.683 185.48 380.631C182.896 379.284 181.718 378.286 180.84 375.505C182.411 368.545 194.789 368.017 199.137 362.418C204.53 355.474 202.819 345.861 208.076 339.047Z" style="opacity: 1;"></path>
	<path data-index="45" fill="#FED963" d="M210.407 365.007C214.017 369.09 217.28 372.673 221.882 375.682C218.005 379.168 214.496 382.674 211.087 386.626C207.116 382.969 204.259 378.786 199.88 375.36C203.939 372.229 207.287 369.1 210.407 365.007Z"></path>
	<path data-index="46" fill="#1F1D1E" d="M419.202 711.615C430.916 711.255 426.336 724.876 432.869 731.127C436.997 735.078 444.023 735.253 448.267 738.998C449.751 740.307 449.849 741.032 450.022 742.938C447.442 748.618 438.076 748.937 433.839 753.414C428.525 759.028 429.887 767.442 424.919 772.993C423.661 773.131 421 773.356 419.897 772.776C415.506 770.468 414.988 763.602 413.604 759.268C410.895 750.785 404.62 750.37 397.803 746.562C395.908 745.503 395.076 744.335 394.464 742.288C394.8 740.149 394.734 739.643 396.706 738.429C400.693 735.974 405.788 735.137 409.587 732.34C415.694 727.843 414.557 717.67 419.202 711.615Z"></path>
	<path data-index="47" fill="#FED963" d="M421.314 734.24C424.028 737.149 426.823 739.671 429.932 742.151C427.02 744.887 424.446 747.912 421.829 750.924C418.915 747.412 415.773 744.745 412.216 741.934C415.47 739.551 418.394 737.022 421.314 734.24Z"></path>
	<path data-index="48" fill="#1F1D1E" d="M950.308 331.071Q950.64 330.945 950.979 330.842Q951.318 330.739 951.664 330.658Q952.009 330.578 952.359 330.52Q952.709 330.463 953.062 330.429Q953.415 330.395 953.77 330.384Q954.124 330.373 954.479 330.386Q954.833 330.399 955.186 330.436Q955.539 330.472 955.888 330.532Q956.238 330.591 956.583 330.674Q956.928 330.757 957.267 330.862Q957.605 330.968 957.936 331.095Q958.267 331.223 958.589 331.372Q958.911 331.522 959.222 331.692Q959.533 331.862 959.832 332.053Q960.131 332.243 960.417 332.453Q960.703 332.664 960.974 332.892Q961.245 333.12 961.501 333.367Q961.756 333.613 961.995 333.875Q962.234 334.137 962.454 334.415Q962.675 334.693 962.877 334.984Q963.079 335.276 963.261 335.581Q963.443 335.885 963.605 336.201Q963.766 336.517 963.906 336.843Q964.046 337.168 964.165 337.503Q964.283 337.837 964.379 338.179Q964.475 338.52 964.548 338.868Q964.621 339.215 964.671 339.566Q964.721 339.917 964.747 340.271Q964.773 340.625 964.776 340.98Q964.779 341.334 964.759 341.688Q964.738 342.043 964.694 342.395Q964.65 342.747 964.583 343.095Q964.516 343.443 964.426 343.786Q964.335 344.13 964.223 344.466Q964.11 344.802 963.975 345.13Q963.84 345.459 963.684 345.777Q963.528 346.096 963.351 346.403Q963.174 346.711 962.977 347.006Q962.78 347.301 962.564 347.582Q962.348 347.863 962.114 348.13Q961.879 348.396 961.628 348.646Q961.377 348.896 961.109 349.129Q960.842 349.362 960.559 349.577Q960.277 349.792 959.981 349.988Q959.685 350.183 959.377 350.359Q959.069 350.534 958.749 350.689Q958.43 350.844 958.102 350.977Q957.773 351.11 957.436 351.221Q957.19 351.302 956.941 351.371Q956.692 351.44 956.439 351.497Q956.187 351.554 955.932 351.598Q955.677 351.643 955.42 351.675Q955.164 351.707 954.906 351.727Q954.648 351.747 954.389 351.754Q954.13 351.761 953.872 351.756Q953.613 351.751 953.355 351.733Q953.097 351.715 952.84 351.685Q952.583 351.655 952.328 351.612Q952.072 351.569 951.82 351.514Q951.567 351.459 951.317 351.392Q951.067 351.325 950.821 351.246Q950.574 351.167 950.332 351.076Q950.09 350.985 949.852 350.882Q949.615 350.779 949.383 350.665Q949.15 350.551 948.924 350.426Q948.697 350.301 948.477 350.165Q948.257 350.029 948.044 349.883Q947.83 349.736 947.624 349.58Q947.418 349.423 947.22 349.257Q947.022 349.091 946.832 348.915Q946.642 348.739 946.461 348.554Q946.28 348.369 946.108 348.176Q945.935 347.983 945.773 347.781Q945.611 347.58 945.458 347.371Q945.305 347.162 945.163 346.946Q945.021 346.729 944.889 346.507Q944.758 346.284 944.637 346.055Q944.516 345.826 944.407 345.592Q944.297 345.357 944.199 345.117Q944.101 344.878 944.015 344.634Q943.929 344.39 943.854 344.142Q943.78 343.894 943.718 343.643Q943.655 343.392 943.605 343.138Q943.555 342.884 943.517 342.628Q943.48 342.372 943.454 342.115Q943.429 341.857 943.416 341.599Q943.403 341.34 943.403 341.081Q943.403 340.823 943.415 340.564Q943.427 340.306 943.452 340.048Q943.477 339.79 943.514 339.534Q943.551 339.278 943.601 339.024Q943.65 338.77 943.712 338.519Q943.773 338.267 943.847 338.019Q943.921 337.771 944.007 337.527Q944.092 337.283 944.19 337.043Q944.287 336.804 944.396 336.569Q944.505 336.334 944.625 336.105Q944.745 335.876 944.876 335.653Q945.008 335.43 945.149 335.213Q945.291 334.997 945.443 334.787Q945.595 334.578 945.757 334.376Q945.919 334.174 946.091 333.98Q946.262 333.787 946.443 333.592Q946.624 333.406 946.813 333.23Q947.003 333.054 947.2 332.877Q947.398 332.71 947.604 332.553Q947.809 332.396 948.022 332.249Q948.235 332.102 948.455 331.966Q948.675 331.829 948.901 331.704Q949.127 331.578 949.359 331.464Q949.591 331.349 949.829 331.246Q950.066 331.143 950.308 331.071Z"></path>
	<path data-index="49" fill="#1F1D1E" d="M1211.32 649.231Q1211.55 649.181 1211.78 649.141Q1212.02 649.102 1212.25 649.074Q1212.48 649.046 1212.72 649.029Q1212.95 649.012 1213.19 649.006Q1213.43 649.001 1213.66 649.007Q1213.9 649.012 1214.13 649.03Q1214.37 649.047 1214.6 649.075Q1214.84 649.103 1215.07 649.143Q1215.3 649.183 1215.53 649.233Q1215.76 649.284 1215.99 649.346Q1216.22 649.408 1216.44 649.48Q1216.66 649.553 1216.89 649.636Q1217.11 649.719 1217.32 649.813Q1217.54 649.907 1217.75 650.011Q1217.96 650.115 1218.17 650.229Q1218.37 650.343 1218.57 650.467Q1218.78 650.591 1218.97 650.725Q1219.16 650.858 1219.35 651.001Q1219.54 651.143 1219.72 651.295Q1219.9 651.446 1220.07 651.606Q1220.25 651.766 1220.41 651.934Q1220.58 652.102 1220.74 652.278Q1220.89 652.454 1221.04 652.637Q1221.19 652.82 1221.33 653.01Q1221.47 653.2 1221.6 653.397Q1221.73 653.594 1221.85 653.796Q1221.97 653.999 1222.08 654.207Q1222.19 654.415 1222.29 654.629Q1222.39 654.842 1222.48 655.06Q1222.57 655.278 1222.65 655.5Q1222.73 655.721 1222.8 655.947Q1222.87 656.172 1222.93 656.401Q1222.99 656.63 1223.04 656.861Q1223.08 657.092 1223.12 657.325Q1223.15 657.558 1223.18 657.793Q1223.2 658.027 1223.22 658.263Q1223.23 658.498 1223.23 658.734Q1223.23 658.97 1223.22 659.205Q1223.22 659.441 1223.19 659.676Q1223.17 659.911 1223.14 660.145Q1223.11 660.378 1223.07 660.61Q1223.02 660.842 1222.97 661.072Q1222.92 661.301 1222.85 661.528Q1222.79 661.755 1222.71 661.978Q1222.63 662.201 1222.55 662.42Q1222.46 662.64 1222.36 662.855Q1222.27 663.07 1222.16 663.28Q1222.05 663.49 1221.93 663.695Q1221.82 663.899 1221.69 664.098Q1221.56 664.297 1221.43 664.489Q1221.29 664.682 1221.15 664.868Q1221 665.053 1220.85 665.232Q1220.69 665.41 1220.53 665.581Q1220.37 665.752 1220.2 665.915Q1220.03 666.078 1219.85 666.232Q1219.67 666.387 1219.49 666.533Q1219.3 666.679 1219.11 666.815Q1218.92 666.952 1218.72 667.079Q1218.52 667.207 1218.31 667.324Q1218.11 667.442 1217.9 667.55Q1217.69 667.657 1217.48 667.755Q1217.26 667.852 1217.04 667.939Q1216.82 668.026 1216.6 668.103Q1216.38 668.179 1216.15 668.245Q1215.83 668.336 1215.51 668.406Q1215.19 668.476 1214.87 668.525Q1214.55 668.573 1214.22 668.6Q1213.89 668.627 1213.56 668.632Q1213.24 668.637 1212.91 668.62Q1212.58 668.603 1212.26 668.564Q1211.93 668.525 1211.61 668.464Q1211.29 668.404 1210.97 668.322Q1210.65 668.24 1210.34 668.137Q1210.03 668.034 1209.72 667.911Q1209.42 667.787 1209.13 667.644Q1208.83 667.5 1208.55 667.337Q1208.26 667.174 1207.99 666.993Q1207.72 666.811 1207.45 666.612Q1207.19 666.413 1206.95 666.196Q1206.7 665.98 1206.47 665.748Q1206.24 665.516 1206.02 665.268Q1205.81 665.021 1205.61 664.76Q1205.41 664.499 1205.23 664.225Q1205.05 663.951 1204.89 663.666Q1204.72 663.38 1204.58 663.085Q1204.44 662.789 1204.31 662.485Q1204.19 661.868 1204.09 661.556Q1203.99 661.238 1203.91 660.92Q1203.83 660.598 1203.77 660.275Q1203.71 659.949 1203.67 659.623Q1203.63 659.295 1203.61 658.967Q1203.6 658.639 1203.6 658.311Q1203.61 657.984 1203.64 657.657Q1203.67 657.332 1203.72 657.008Q1203.77 656.687 1203.84 656.367Q1203.91 656.052 1204 655.737Q1204.09 655.429 1204.21 655.121Q1204.32 654.821 1204.45 654.521Q1204.59 654.231 1204.74 653.941Q1204.89 653.662 1205.07 653.383Q1205.24 653.115 1205.43 652.848Q1205.62 652.595 1205.83 652.341Q1206.04 652.088 1206.26 651.849Q1206.49 651.61 1206.73 651.386Q1206.97 651.162 1207.22 650.954Q1207.47 650.746 1207.74 650.557Q1208.01 650.367 1208.29 650.195Q1208.57 650.024 1208.86 649.872Q1209.15 649.719 1209.45 649.587Q1209.75 649.454 1210.06 649.342Q1210.37 649.23 1210.68 649.138Q1211 649.047 1211.32 649.231Z"></path>
	<path data-index="50" fill="#1F1D1E" d="M298.62 681.649Q298.837 681.552 299.059 681.466Q299.281 681.38 299.506 681.305Q299.732 681.23 299.961 681.167Q300.19 681.103 300.422 681.051Q300.654 680.998 300.888 680.957Q301.122 680.916 301.358 680.887Q301.594 680.858 301.831 680.84Q302.068 680.822 302.306 680.816Q302.544 680.81 302.782 680.816Q303.019 680.822 303.256 680.839Q303.493 680.856 303.729 680.885Q303.965 680.914 304.2 680.955Q304.434 680.995 304.666 681.047Q304.898 681.099 305.127 681.163Q305.356 681.226 305.582 681.3Q305.808 681.375 306.03 681.461Q306.252 681.546 306.469 681.643Q306.686 681.739 306.899 681.846Q307.111 681.953 307.318 682.07Q307.525 682.187 307.726 682.315Q307.927 682.442 308.121 682.579Q308.315 682.716 308.503 682.862Q308.69 683.009 308.87 683.164Q309.05 683.319 309.222 683.484Q309.394 683.648 309.558 683.82Q309.722 683.992 309.877 684.173Q310.032 684.353 310.178 684.54Q310.324 684.728 310.461 684.923Q310.598 685.117 310.725 685.318Q310.852 685.519 310.969 685.726Q311.086 685.933 311.192 686.146Q311.299 686.358 311.395 686.576Q311.491 686.794 311.576 687.016Q311.662 687.238 311.736 687.464Q311.81 687.689 311.873 687.919Q311.936 688.148 311.988 688.38Q312.04 688.612 312.08 688.847Q312.12 689.081 312.149 689.317Q312.177 689.553 312.194 689.791Q312.211 690.028 312.217 690.266Q312.222 690.504 312.216 690.741Q312.21 690.979 312.191 691.216Q312.173 691.453 312.144 691.689Q312.114 691.925 312.073 692.159Q312.032 692.394 311.979 692.626Q311.926 692.858 311.862 693.087Q311.798 693.316 311.723 693.541Q311.648 693.767 311.562 693.989Q311.475 694.21 311.378 694.427Q311.281 694.645 311.174 694.857Q311.066 695.069 310.948 695.275Q310.831 695.482 310.703 695.682Q310.575 695.883 310.437 696.077Q310.3 696.271 310.153 696.458Q310.006 696.645 309.85 696.825Q309.694 697.004 309.529 697.176Q309.365 697.347 309.192 697.511Q309.019 697.674 308.839 697.829Q308.658 697.983 308.47 698.129Q308.282 698.275 308.087 698.411Q307.892 698.547 307.691 698.673Q307.489 698.8 307.282 698.916Q307.074 699.033 306.862 699.139Q306.649 699.245 306.431 699.34Q306.214 699.435 305.993 699.519Q305.771 699.604 305.546 699.677Q305.321 699.75 305.092 699.813Q304.864 699.875 304.632 699.926Q304.401 699.977 304.168 700.016Q303.934 700.056 303.699 700.084Q303.464 700.112 303.227 700.129Q302.991 700.145 302.754 700.15Q302.518 700.155 302.281 700.149Q302.044 700.142 301.808 700.124Q301.572 700.105 301.337 700.076Q301.102 700.046 300.868 700.005Q300.635 699.963 300.404 699.911Q300.173 699.858 299.945 699.794Q299.717 699.73 299.492 699.655Q299.268 699.58 299.047 699.494Q298.826 699.408 298.61 699.312Q298.394 699.215 298.182 699.108Q297.971 699.001 297.765 698.884Q297.56 698.766 297.36 698.639Q297.16 698.512 296.967 698.375Q296.773 698.238 296.587 698.092Q296.401 697.946 296.222 697.791Q296.043 697.635 295.871 697.472Q295.7 697.308 295.537 697.136Q295.374 696.964 295.22 696.784Q295.065 696.605 294.92 696.418Q294.775 696.231 294.639 696.037Q294.503 695.843 294.376 695.642Q294.25 695.442 294.133 695.236Q294.017 695.029 293.911 694.817Q293.805 694.606 293.709 694.389Q293.613 694.172 293.528 693.951Q293.443 693.73 293.369 693.505Q293.295 693.28 293.232 693.051Q293.169 692.823 293.118 692.592Q293.066 692.361 293.026 692.127Q292.986 691.894 292.957 691.658Q292.928 691.423 292.911 691.187Q292.893 690.951 292.888 690.714Q292.882 690.477 292.888 690.24Q292.894 690.003 292.911 689.767Q292.929 689.531 292.958 689.296Q292.987 689.061 293.028 688.827Q293.068 688.594 293.12 688.363Q293.172 688.131 293.235 687.903Q293.298 687.675 293.373 687.45Q293.447 687.225 293.532 687.004Q293.617 686.783 293.713 686.566Q293.809 686.349 293.916 686.138Q294.022 685.926 294.139 685.72Q294.255 685.514 294.382 685.314Q294.509 685.113 294.645 684.92Q294.781 684.726 294.927 684.539Q295.072 684.352 295.227 684.172Q295.382 683.993 295.545 683.821Q295.708 683.65 295.879 683.486Q296.051 683.322 296.23 683.167Q296.409 683.013 296.596 682.867Q296.782 682.721 296.976 682.584Q297.169 682.447 297.369 682.32Q297.569 682.193 297.775 682.076Q297.981 681.959 298.192 681.852Q298.404 681.745 298.62 681.649Z"></path>
	<path data-index="51" fill="#1F1D1E" d="M432.983 339.392Q433.19 339.31 433.401 339.238Q433.612 339.167 433.827 339.105Q434.041 339.043 434.258 338.992Q434.475 338.941 434.694 338.9Q434.913 338.859 435.134 338.828Q435.354 338.798 435.576 338.778Q435.798 338.758 436.021 338.748Q436.244 338.739 436.467 338.74Q436.69 338.741 436.912 338.753Q437.135 338.765 437.357 338.787Q437.578 338.81 437.799 338.843Q438.019 338.876 438.238 338.919Q438.456 338.963 438.673 339.016Q438.889 339.07 439.103 339.134Q439.316 339.198 439.526 339.272Q439.737 339.346 439.943 339.43Q440.15 339.514 440.352 339.608Q440.554 339.702 440.752 339.805Q440.949 339.908 441.141 340.021Q441.334 340.133 441.521 340.255Q441.708 340.377 441.888 340.507Q442.069 340.637 442.244 340.776Q442.418 340.915 442.586 341.062Q442.753 341.209 442.914 341.364Q443.074 341.518 443.227 341.681Q443.38 341.843 443.525 342.012Q443.67 342.182 443.807 342.358Q443.944 342.534 444.072 342.716Q444.2 342.898 444.319 343.087Q444.439 343.275 444.549 343.468Q444.66 343.662 444.761 343.861Q444.862 344.06 444.953 344.263Q445.044 344.466 445.126 344.674Q445.208 344.881 445.279 345.092Q445.351 345.303 445.413 345.518Q445.474 345.732 445.525 345.949Q445.577 346.166 445.618 346.385Q445.659 346.604 445.689 346.825Q445.719 347.046 445.739 347.268Q445.759 347.49 445.768 347.713Q445.778 347.935 445.777 348.158Q445.775 348.381 445.763 348.604Q445.751 348.826 445.729 349.048Q445.707 349.27 445.673 349.49Q445.64 349.711 445.597 349.93Q445.554 350.148 445.5 350.365Q445.446 350.581 445.382 350.794Q445.318 351.008 445.244 351.218Q445.17 351.428 445.086 351.635Q445.001 351.841 444.908 352.044Q444.814 352.246 444.711 352.443Q444.607 352.641 444.495 352.833Q444.382 353.026 444.261 353.213Q444.139 353.399 444.009 353.58Q443.878 353.761 443.739 353.935Q443.601 354.11 443.454 354.277Q443.307 354.445 443.152 354.606Q442.997 354.766 442.835 354.919Q442.673 355.072 442.504 355.217Q442.334 355.362 442.158 355.498Q441.982 355.635 441.8 355.763Q441.618 355.892 441.429 356.011Q441.241 356.13 441.047 356.241Q440.854 356.351 440.655 356.452Q440.374 356.595 440.083 356.719Q439.793 356.842 439.495 356.946Q439.196 357.05 438.892 357.134Q438.587 357.217 438.278 357.28Q437.969 357.343 437.656 357.385Q437.343 357.427 437.028 357.447Q436.713 357.468 436.397 357.467Q436.081 357.467 435.766 357.445Q435.451 357.423 435.139 357.38Q434.826 357.337 434.517 357.273Q434.208 357.209 433.904 357.124Q433.599 357.039 433.302 356.934Q433.004 356.829 432.714 356.704Q432.424 356.579 432.143 356.435Q431.862 356.291 431.592 356.128Q431.321 355.966 431.062 355.785Q430.803 355.604 430.557 355.407Q430.311 355.209 430.078 354.995Q429.846 354.782 429.628 354.553Q429.411 354.324 429.21 354.081Q429.008 353.838 428.823 353.582Q428.639 353.325 428.472 353.057Q428.305 352.789 428.156 352.511Q428.007 352.232 427.878 351.944Q427.748 351.656 427.639 351.36Q427.529 351.064 427.439 350.761Q427.35 350.459 427.281 350.15Q427.212 349.842 427.164 349.53Q427.116 349.218 427.089 348.904Q427.062 348.589 427.056 348.273Q427.05 347.957 427.066 347.642Q427.081 347.327 427.118 347.013Q427.155 346.699 427.213 346.389Q427.27 346.079 427.349 345.773Q427.428 345.467 427.527 345.167Q427.626 344.867 427.744 344.575Q427.863 344.282 428.002 343.999Q428.14 343.715 428.297 343.441Q428.455 343.167 428.63 342.905Q428.805 342.642 428.998 342.392Q429.19 342.142 429.399 341.905Q429.608 341.668 429.832 341.446Q430.057 341.224 430.296 341.018Q430.535 340.811 430.787 340.622Q431.039 340.432 431.304 340.259Q431.568 340.087 431.843 339.933Q432.119 339.778 432.404 339.643Q432.689 339.508 432.983 339.392Z"></path>
	<path data-index="52" fill="#1F1D1E" d="M806.374 320.271Q808.527 320.367 810.625 320.862C813.048 321.441 814.871 322.983 816.03 325.179C817.308 327.598 817.489 330.277 816.669 332.875C815.495 336.592 813.567 338.416 810.162 340.128C808.946 340.129 807.756 340.07 806.557 339.852C804.111 339.407 802.096 338.083 800.751 335.977C799.232 333.599 799.081 330.769 799.825 328.094C800.925 324.138 803.037 322.283 806.374 320.271Z"></path>
	<path data-index="53" fill="#1F1D1E" d="M672.356 763.117Q672.637 763.031 672.923 762.963Q673.208 762.896 673.498 762.848Q673.788 762.8 674.08 762.771Q674.372 762.743 674.666 762.734Q674.959 762.725 675.253 762.735Q675.546 762.746 675.838 762.776Q676.13 762.806 676.42 762.856Q676.709 762.906 676.995 762.975Q677.28 763.043 677.561 763.131Q677.841 763.219 678.115 763.325Q678.388 763.431 678.654 763.556Q678.92 763.68 679.178 763.822Q679.435 763.964 679.682 764.122Q679.929 764.281 680.165 764.456Q680.401 764.631 680.625 764.821Q680.848 765.011 681.059 765.216Q681.27 765.421 681.466 765.639Q681.663 765.857 681.844 766.088Q682.026 766.319 682.191 766.562Q682.357 766.805 682.506 767.058Q682.655 767.311 682.787 767.573Q682.919 767.836 683.033 768.107Q683.147 768.377 683.242 768.655Q683.338 768.933 683.415 769.216Q683.492 769.5 683.55 769.788Q683.607 770.076 683.646 770.367Q683.684 770.658 683.703 770.951Q683.722 771.245 683.721 771.538Q683.721 771.832 683.7 772.125Q683.68 772.418 683.64 772.709Q683.601 773 683.541 773.288Q683.482 773.576 683.404 773.859Q683.326 774.142 683.229 774.419Q683.132 774.697 683.016 774.967Q682.901 775.237 682.768 775.499Q682.635 775.761 682.485 776.013Q682.335 776.265 682.168 776.507Q682.001 776.749 681.819 776.979Q681.636 777.209 681.439 777.427Q681.241 777.644 681.03 777.848Q680.818 778.051 680.594 778.241Q680.369 778.43 680.132 778.604Q679.895 778.777 679.647 778.935Q679.399 779.092 679.142 779.233Q678.884 779.373 678.617 779.496Q678.351 779.62 678.076 779.725Q677.802 779.83 677.521 779.916Q677.241 780.002 676.955 780.07Q676.75 780.119 676.542 780.157Q676.334 780.196 676.125 780.224Q675.916 780.253 675.706 780.271Q675.495 780.29 675.284 780.298Q675.073 780.307 674.862 780.305Q674.651 780.303 674.44 780.291Q674.23 780.279 674.02 780.257Q673.81 780.235 673.601 780.203Q673.392 780.171 673.185 780.129Q672.979 780.087 672.774 780.035Q672.569 779.983 672.367 779.921Q672.166 779.859 671.967 779.788Q671.768 779.717 671.573 779.636Q671.378 779.555 671.187 779.465Q670.996 779.375 670.81 779.276Q670.623 779.176 670.442 779.068Q670.26 778.96 670.084 778.844Q669.908 778.727 669.738 778.602Q669.568 778.477 669.404 778.344Q669.24 778.211 669.083 778.071Q668.925 777.93 668.775 777.782Q668.624 777.634 668.481 777.479Q668.338 777.323 668.202 777.162Q668.066 777 667.939 776.831Q667.811 776.663 667.692 776.489Q667.572 776.315 667.461 776.135Q667.35 775.956 667.248 775.771Q667.146 775.586 667.053 775.397Q666.959 775.207 666.876 775.013Q666.792 774.82 666.717 774.622Q666.642 774.425 666.577 774.224Q666.512 774.023 666.457 773.819Q666.402 773.615 666.356 773.409Q666.311 773.203 666.275 772.995Q666.24 772.786 666.214 772.577Q666.189 772.367 666.174 772.156Q666.158 771.946 666.153 771.735Q666.148 771.524 666.153 771.312Q666.158 771.101 666.173 770.891Q666.188 770.68 666.213 770.47Q666.238 770.261 666.273 770.052Q666.308 769.844 666.354 769.638Q666.399 769.432 666.454 769.228Q666.509 769.024 666.574 768.823Q666.638 768.622 666.713 768.424Q666.787 768.226 666.871 768.032Q666.954 767.839 667.047 767.649Q667.14 767.459 667.242 767.274Q667.344 767.089 667.455 766.91Q667.566 766.73 667.685 766.555Q667.804 766.381 667.931 766.213Q668.059 766.044 668.194 765.882Q668.33 765.72 668.473 765.565Q668.616 765.41 668.766 765.261Q668.916 765.113 669.074 764.972Q669.231 764.831 669.395 764.698Q669.558 764.565 669.729 764.44Q669.899 764.314 670.074 764.198Q670.25 764.081 670.432 763.972Q670.613 763.864 670.799 763.765Q670.985 763.665 671.176 763.575Q671.367 763.484 671.562 763.403Q671.757 763.322 671.956 763.251Q672.154 763.179 672.356 763.117Z"></path>
	<path data-index="54" fill="#1F1D1E" d="M888.507 786.152C892.039 785.915 894.987 785.995 897.767 788.48Q898.098 788.774 898.394 789.103Q898.691 789.431 898.951 789.79Q899.21 790.148 899.429 790.533Q899.648 790.917 899.825 791.324Q900.001 791.73 900.132 792.152Q900.263 792.575 900.348 793.01Q900.433 793.444 900.47 793.885Q900.507 794.326 900.496 794.769C900.433 798.766 898.492 801.097 895.82 803.728L895.029 803.84C891.945 804.261 889.331 804.304 886.795 802.159C884.976 800.62 884.043 798.364 883.995 796.003C883.906 791.688 885.719 789.111 888.507 786.152Z"></path>
	<path data-index="55" fill="#1F1D1E" d="M1185.75 334.955C1187.91 334.817 1189.96 334.999 1191.77 336.335C1193.75 337.798 1194.9 340.206 1195.21 342.61Q1195.28 343.14 1195.29 343.675Q1195.31 344.209 1195.27 344.742Q1195.23 345.275 1195.13 345.802Q1195.04 346.328 1194.89 346.842Q1194.75 347.356 1194.55 347.853Q1194.35 348.35 1194.11 348.825Q1193.86 349.299 1193.57 349.747Q1193.28 350.194 1192.94 350.61C1191.38 352.525 1189.77 352.9 1187.41 353.192C1186.19 353.285 1184.66 353.187 1183.52 352.74C1181.78 352.066 1180.41 350.176 1179.72 348.516C1178.66 345.947 1178.89 342.857 1179.95 340.325C1181.15 337.433 1182.88 336.049 1185.75 334.955Z"></path>

</svg>