<svg xmlns="http://www.w3.org/2000/svg" xmlns:xlink="http://www.w3.org/1999/xlink" width="1024" height="1024">
<style>
    path {
        /* Set the center point for scaling and rotation */
        transform-origin: 50% 50%;
        /* Start invisible and slightly smaller for the grow effect.
           Note: If paths have inline 'style="opacity:1;"', that will take precedence
           initially, potentially causing a flicker before the animation starts.
           For a smooth grow-in, ensure paths are initially opacity 0 or use
           'animation-fill-mode: both;' for the growIn animation.
           This implementation follows the example's use of 'forwards'. */
        opacity: 0;
    }

    /* Keyframes for the appearance animation */
    @keyframes growIn {
        from {
            opacity: 0;
            transform: scale(0.7);
        }
        to {
            opacity: 1;
            transform: scale(1);
        }
    }

    /* Keyframes for the continuous subtle swaying motion */
    @keyframes sway {
        0%, 100% {
            transform: rotate(0deg) translateX(0px) scale(1); /* Ensure scale(1) is maintained */
        }
        25% {
            transform: rotate(-1.5deg) translateX(-3px) scale(1);
        }
        75% {
            transform: rotate(1deg) translateX(2px) scale(1);
        }
    }

    /* --- Staggered Animation Delays --- */
    /* Delay increment for growIn animation: 0.03s */
    /* Delay for sway = growIn delay + growIn duration (0.6s) */

    path[data-index="1"]  { animation: growIn 0.6s ease-out 0.00s forwards, sway 7s ease-in-out 0.60s infinite; }
    path[data-index="2"]  { animation: growIn 0.6s ease-out 0.03s forwards, sway 7s ease-in-out 0.63s infinite; }
    path[data-index="3"]  { animation: growIn 0.6s ease-out 0.06s forwards, sway 7s ease-in-out 0.66s infinite; }
    path[data-index="4"]  { animation: growIn 0.6s ease-out 0.09s forwards, sway 7s ease-in-out 0.69s infinite; }
    path[data-index="5"]  { animation: growIn 0.6s ease-out 0.12s forwards, sway 7s ease-in-out 0.72s infinite; }
    path[data-index="6"]  { animation: growIn 0.6s ease-out 0.15s forwards, sway 7s ease-in-out 0.75s infinite; }
    path[data-index="7"]  { animation: growIn 0.6s ease-out 0.18s forwards, sway 7s ease-in-out 0.78s infinite; }
    path[data-index="8"]  { animation: growIn 0.6s ease-out 0.21s forwards, sway 7s ease-in-out 0.81s infinite; }
    path[data-index="9"]  { animation: growIn 0.6s ease-out 0.24s forwards, sway 7s ease-in-out 0.84s infinite; }
    path[data-index="10"] { animation: growIn 0.6s ease-out 0.27s forwards, sway 7s ease-in-out 0.87s infinite; }
    path[data-index="11"] { animation: growIn 0.6s ease-out 0.30s forwards, sway 7s ease-in-out 0.90s infinite; }
    path[data-index="12"] { animation: growIn 0.6s ease-out 0.33s forwards, sway 7s ease-in-out 0.93s infinite; }
    path[data-index="13"] { animation: growIn 0.6s ease-out 0.36s forwards, sway 7s ease-in-out 0.96s infinite; }
    path[data-index="14"] { animation: growIn 0.6s ease-out 0.39s forwards, sway 7s ease-in-out 0.99s infinite; }
    path[data-index="15"] { animation: growIn 0.6s ease-out 0.42s forwards, sway 7s ease-in-out 1.02s infinite; }
    path[data-index="16"] { animation: growIn 0.6s ease-out 0.45s forwards, sway 7s ease-in-out 1.05s infinite; }
    path[data-index="17"] { animation: growIn 0.6s ease-out 0.48s forwards, sway 7s ease-in-out 1.08s infinite; }
    path[data-index="18"] { animation: growIn 0.6s ease-out 0.51s forwards, sway 7s ease-in-out 1.11s infinite; }
    path[data-index="19"] { animation: growIn 0.6s ease-out 0.54s forwards, sway 7s ease-in-out 1.14s infinite; }
    path[data-index="20"] { animation: growIn 0.6s ease-out 0.57s forwards, sway 7s ease-in-out 1.17s infinite; }
    path[data-index="21"] { animation: growIn 0.6s ease-out 0.60s forwards, sway 7s ease-in-out 1.20s infinite; }
    path[data-index="22"] { animation: growIn 0.6s ease-out 0.63s forwards, sway 7s ease-in-out 1.23s infinite; }
    path[data-index="23"] { animation: growIn 0.6s ease-out 0.66s forwards, sway 7s ease-in-out 1.26s infinite; }
    path[data-index="24"] { animation: growIn 0.6s ease-out 0.69s forwards, sway 7s ease-in-out 1.29s infinite; }
    path[data-index="25"] { animation: growIn 0.6s ease-out 0.72s forwards, sway 7s ease-in-out 1.32s infinite; }
    path[data-index="26"] { animation: growIn 0.6s ease-out 0.75s forwards, sway 7s ease-in-out 1.35s infinite; }
    path[data-index="27"] { animation: growIn 0.6s ease-out 0.78s forwards, sway 7s ease-in-out 1.38s infinite; }
    path[data-index="28"] { animation: growIn 0.6s ease-out 0.81s forwards, sway 7s ease-in-out 1.41s infinite; }
    path[data-index="29"] { animation: growIn 0.6s ease-out 0.84s forwards, sway 7s ease-in-out 1.44s infinite; }
    path[data-index="30"] { animation: growIn 0.6s ease-out 0.87s forwards, sway 7s ease-in-out 1.47s infinite; }
</style>
	
	<path fill="#87513D" d="M719.911 462.381C714.44 457.467 709.639 451.855 705.632 445.689C690.573 422.883 685.338 393.06 690.972 366.354C696.725 339.991 712.664 316.97 735.316 302.307C757.211 288.074 785.326 283.158 810.797 288.555C837.469 294.092 860.776 310.161 875.438 333.119C890.171 356.26 895.124 384.3 889.211 411.088C883.626 437.129 866.806 460.736 844.447 475.057C819.413 491.089 790.721 493.937 762.136 487.61C762.514 493.127 762.568 498.707 762.813 504.236C778.486 501.931 792.338 501.637 805.897 511.137C820.592 521.433 824.387 536.741 827.233 553.456C830.471 546.077 835.33 539.007 839.593 532.184C848.601 517.763 857.944 503.553 867.615 489.567C872.595 482.303 877.316 474.31 883.276 467.803C889.926 460.544 898.655 455.83 908.6 455.433C916.955 455.099 926.017 457.937 932.094 463.819C936.098 467.695 938.065 472.298 939.328 477.616C941.188 485.453 940.808 493.992 941.026 502.001C941.434 516.997 941.458 531.984 941.744 546.98C949.41 546.989 956.52 547.654 962.954 552.297C968.519 556.313 971.872 562.449 972.739 569.214C973.611 576.012 972.16 583.115 967.865 588.56C961.891 596.135 952.791 598.664 943.627 599.67C943.544 609.85 943.703 623.862 936.261 631.897C931.659 636.865 925.103 639.058 918.464 639.22C910.977 639.403 902.29 637.504 896.839 632.056C888.974 624.195 889.937 610.093 889.968 599.916C879.999 599.928 870.011 600.082 860.044 599.942C846.954 599.759 838.287 598.151 828.853 588.482C828.999 598.274 829.618 608.833 827.011 618.355C825.075 625.427 821.121 631.737 814.525 635.32C809.627 637.98 801.799 639.241 796.342 637.486C777.03 631.277 778.786 611.403 779.108 595.282C779.262 587.559 779.271 579.93 778.834 572.214C778.578 567.699 778.589 562.991 776.413 558.892C775.429 557.039 773.773 555.098 771.597 554.699C770.298 554.462 769.08 554.886 768.025 555.621C757.823 562.728 764.905 605.848 762.87 618.069C761.74 624.853 758.504 630.975 752.736 634.927C747.039 638.83 739.733 639.926 733.04 638.416C725.222 636.653 720.311 631.601 716.257 625.071C713.787 629.543 710.074 633.204 705.569 635.613C699.537 638.828 692.446 639.414 685.969 637.232C667.409 631.184 668.765 611.114 669.204 595.477C669.46 587.608 669.566 579.736 669.522 571.863C669.453 567.412 669.571 561.718 667.435 557.687C666.57 556.055 665.142 554.592 663.293 554.15C661.375 553.692 659.154 554.289 657.529 555.342C648.214 561.38 653.298 605.848 650.905 618.095C649.607 624.74 645.968 630.874 640.236 634.615C634.479 638.312 627.448 639.461 620.814 637.789C612.674 635.8 607.939 630.767 603.876 623.843C601.621 628.291 599.258 632.004 595.02 634.878C589.644 638.524 582.796 639.501 576.483 638.285C568.644 636.775 563.147 632.178 558.747 625.79C556.162 630.082 553.276 633.722 548.787 636.15C542.793 639.391 535.231 639.892 528.754 637.904C520.266 635.3 515.563 629.413 511.703 621.849C511.289 622.777 510.851 623.695 510.389 624.602C507.154 630.893 501.665 635.666 494.852 637.703C488.845 639.499 481.851 639.083 476.359 635.928C453.792 622.964 468.994 581.212 462.914 560.153C462.19 557.646 460.86 554.472 458.262 553.4C456.75 552.776 454.836 553.211 453.38 553.833C442.557 558.452 445.98 597.691 445.408 608.641C445.142 613.715 444.469 618.964 442.531 623.697C440.005 629.863 435.376 634.415 429.206 636.912C423.14 639.366 416.444 639.458 410.396 636.875C402.767 633.619 398.923 627.811 396.056 620.406C394.919 624.705 393.629 628.478 390.751 631.972C386.729 636.855 380.784 639.683 374.505 640.083C367.333 640.541 361.229 638.127 355.966 633.372C342.984 639.566 328.345 641.388 314.241 638.565C302.881 636.365 292.265 630.524 285.737 620.768C284.819 629.17 283.769 637.302 280.658 645.235C274.846 660.423 263.24 672.68 248.392 679.312C231.346 686.742 206.82 685.916 189.735 679.002C180.826 675.397 172.237 669.637 168.547 660.357C166.169 654.34 166.365 647.612 169.087 641.743C172.617 634.068 179.294 630.9 186.814 628.275C176.595 621.348 170.879 613.911 165.183 603.091C163.942 613.392 162.63 624.247 154.68 631.789C150.351 635.896 144.931 637.555 139.037 637.382C115.4 636.69 114.82 616.074 114.916 598.235C114.96 590.204 116.561 558.168 111.259 553.722C110.06 552.716 107.625 552.396 106.143 552.854C103.051 553.809 101.675 556.857 100.857 559.746C97.2754 572.391 100.598 597.195 99.1047 611.934C98.6371 616.548 97.5432 621.137 95.4469 625.294C92.7342 630.675 88.4222 633.875 82.7679 635.775C76.2935 637.951 68.0415 637.855 61.9075 634.675C56.2708 631.752 52.7975 626.347 51.0043 620.406C49.8911 616.718 49.3563 612.841 49.1184 609.004C48.1008 592.594 49.1688 575.645 49.4714 559.194C49.7065 546.414 49.1223 533.012 50.5329 520.322C50.9265 516.781 51.6552 512.934 53.4365 509.816C56.0389 505.261 60.7766 501.979 65.8409 500.754C72.8548 499.057 79.1634 500.783 85.1042 504.574C86.2581 505.979 87.471 507.362 88.562 508.814C90.3519 507.421 92.1207 505.979 93.9887 504.691C95.8502 503.912 97.7147 503.154 99.6596 502.606C111.961 499.14 127.552 500.561 138.711 506.944C152.034 514.565 158.506 527.301 162.424 541.582C164.412 537.301 166.448 533.053 168.973 529.058C177.208 516.025 189.762 506.143 204.968 502.817C219.679 499.6 234.923 501.573 247.604 509.785C247.815 509.706 248.025 509.624 248.237 509.547C255.667 506.837 263.895 506.584 271.077 510.227C278.896 514.192 281.735 520.984 284.274 528.847C286.951 521.837 291.131 516.612 297.143 512.175C311.232 501.774 331.467 499.041 348.444 501.654C380.259 506.551 389.82 529.934 394.121 558.785C394.5 561.326 394.267 567.534 395.55 569.292C398.656 553.015 392.128 520.153 404.159 507.618C408.49 503.106 414.94 501.471 421.038 501.539C428.309 501.621 433.206 504.693 438.092 509.72C440.715 507.851 443.521 506.399 446.529 505.249C458.148 500.921 471.011 501.383 482.289 506.535C499.503 514.328 504.745 526.598 511.092 543.14C510.759 530.739 510.992 518.275 510.99 505.867C510.989 496.227 510.259 485.901 511.895 476.39C512.682 471.813 514.265 467.348 516.898 463.496C520.965 457.545 527.765 453.358 534.909 452.295C543.1 451.076 549.628 454.592 555.924 459.285C559.422 456.999 562.972 454.354 566.699 452.466C573.573 448.985 581.796 448.845 589.022 451.302C596.459 453.832 602.81 458.999 606.218 466.159C609.917 473.931 609.676 483.315 606.731 491.297C603.737 499.415 598.629 503.431 591.07 506.942C597.375 510.08 601.06 513.167 604.724 519.253C606.433 514.709 608.278 510.485 611.978 507.141C616.434 503.114 622.552 501.492 628.466 501.82C634.956 502.18 639.334 504.85 643.527 509.579C644.47 508.93 645.435 508.316 646.421 507.736C657.265 501.465 670.967 500.435 682.936 503.746C696.724 507.559 704.668 516.955 711.415 529.01C711.314 528.029 711.233 527.046 711.173 526.061C710.6 515.092 709.23 482.551 712.295 473.507C713.828 468.983 716.77 465.837 719.911 462.381Z" data-index="1" style="opacity: 1;"></path>
	<path fill="#FECC9C" d="M788.242 299.233C809.948 298.902 831.03 306.496 847.541 320.591C865.537 336.017 876.704 357.934 878.606 381.561C880.405 405.615 872.565 429.398 856.814 447.666C840.038 466.973 818.201 476.107 793.064 477.959C781.533 478.017 770.637 476.532 759.635 473.031C758.453 470.795 757.306 468.383 755.688 466.426C749.779 459.281 742.006 457.517 733.275 456.649C731.827 455.52 730.416 454.344 729.044 453.123C712.441 438.364 702.934 415.635 701.768 393.685C700.509 369.973 708.437 345.873 724.49 328.248C741.304 309.786 763.511 300.483 788.242 299.233Z" data-index="2" style="opacity: 1; visibility: visible;"></path>
	<path fill="#87513D" d="M764.464 397.083C771.942 398.045 772.452 407.629 778.968 411.158C781.176 412.354 783.754 412.823 786.225 413.135C800.077 414.887 800.147 404.55 807.814 402.396C809.593 401.896 811.571 402.287 813.08 403.32C814.425 404.241 815.271 405.566 815.451 407.214C815.844 410.809 813.835 413.374 811.803 416.061C808.953 419.068 805.683 421.539 801.925 423.296C794.337 426.847 784.815 427.124 776.97 424.238C769.606 421.53 763.129 415.834 760.013 408.565C758.986 406.171 758.233 403.315 759.404 400.83C760.451 398.606 762.24 397.8 764.464 397.083Z" data-index="3"></path>
	<path fill="#87513D" d="M751.738 354.539C754.371 354.406 756.673 354.408 759.145 355.437C762.718 356.909 765.503 359.824 766.811 363.46C768.195 367.196 768.124 371.6 766.447 375.23C764.473 379.503 761.287 381.578 757.007 383.153C754.239 383.413 751.925 383.385 749.32 382.3C745.736 380.808 743.071 377.896 741.739 374.263C740.374 370.54 740.495 366.218 742.183 362.618C744.216 358.28 747.383 356.168 751.738 354.539Z" data-index="4"></path>
	<path fill="#87513D" d="M825.667 363.568C832.909 362.812 839.409 368.026 840.243 375.259C841.077 382.492 835.933 389.048 828.709 389.96C823.967 390.558 819.269 388.562 816.407 384.734C813.545 380.906 812.96 375.835 814.876 371.456C816.792 367.076 820.913 364.064 825.667 363.568Z" data-index="5"></path>
	<path fill="#FEBAAE" d="M217.191 514.212C231.514 514.356 235.762 517.926 247.718 524.711C250.422 523.153 253.011 521.657 256.069 520.882C259.678 519.968 263.449 519.912 266.671 522.013C269.747 524.02 271.389 527.463 272.084 530.972C273.775 539.516 272.85 552.865 272.9 561.977C272.979 575.512 272.952 589.047 272.82 602.581C272.758 611.423 273.164 620.605 271.768 629.357C270.503 637.284 267.793 645.174 263.162 651.785C255.954 662.075 244.775 668.526 232.462 670.549C218.128 672.903 196.813 671.564 184.757 662.502C181.615 660.141 178.965 656.828 178.46 652.821C177.977 648.991 179.445 645.954 181.771 643.031L182.189 642.514C192.065 635.332 204.122 644.741 216.413 644.768C225.063 644.787 233.835 641.716 239.948 635.459C246.636 628.614 247.146 621.174 246.896 612.155C239.137 618.243 231.675 622.359 221.699 623.323C209.5 624.502 197.285 621.308 187.798 613.429C176.751 604.253 171.872 590.866 170.671 576.885C169.236 560.185 172.624 542.814 183.804 529.833C192.444 519.799 204.204 515.159 217.191 514.212Z" data-index="6"></path>
	<path fill="#87513D" d="M218.495 539.176C223.5 538.884 228.183 539.274 232.695 541.654C239.05 545.006 243.234 551.221 245.13 558.034C247.602 566.918 246.339 577.087 241.676 585.056C237.829 591.631 232.181 595.559 224.867 597.44C218.869 598.052 213.613 597.416 208.49 593.996C202.063 589.706 198.101 582.392 196.758 574.894C195.221 566.309 196.681 556.431 201.811 549.249C205.999 543.385 211.519 540.361 218.495 539.176Z" data-index="7"></path>
	<path fill="#FEF8E7" d="M218.743 552.033C220.252 551.963 221.815 551.849 223.312 552.101C226.603 552.657 229.516 554.932 231.288 557.699C234.134 562.141 234.591 567.988 233.329 573.025C231.98 578.413 229.084 582.084 224.317 584.811C221.738 585.196 219.335 585.39 216.934 584.172C213.304 582.331 211.04 578.957 209.825 575.156C208.125 569.837 208.311 563.184 211.003 558.215C212.847 554.812 215.12 553.189 218.743 552.033Z" data-index="8"></path>
	<path fill="#FEBAAE" d="M909.43 468.173C913.908 467.911 918.985 468.803 922.514 471.753C925.193 473.993 926.278 476.922 926.966 480.251C928.754 488.912 928.11 498.706 928.331 507.57C928.767 525.053 929.014 542.754 930.062 560.2C936.795 560.607 951.36 558.483 956.483 562.678C959.257 564.95 960.321 568.496 960.643 571.961C960.936 575.106 960.257 578.131 958.173 580.568C952.339 587.391 939.709 587.015 931.511 587.536C931.46 595.012 932.485 616.255 928.306 621.805C926.176 624.634 922.715 626.113 919.27 626.486C915.172 626.93 910.256 626.159 907.039 623.398C903.176 620.081 903.032 615.826 902.765 611.124C902.127 603.212 902.472 594.997 902.386 587.048C892.08 586.963 881.774 586.944 871.468 586.99C863.992 586.987 856.01 587.375 848.643 585.988C845.662 585.427 842.665 584.424 840.263 582.515C837.757 580.523 836.621 577.568 836.25 574.462C835.708 569.934 836.576 564.722 838.211 560.487C841.056 553.115 845.814 546.22 849.956 539.513C858.406 525.83 867.147 512.597 876.264 499.358C880.896 492.632 885.264 485.514 890.264 479.07C895.544 472.264 900.935 469.295 909.43 468.173Z" data-index="9" style="opacity: 1;"></path>
	<path fill="#87513D" d="M900.461 512.701C901.445 512.997 901.603 513.13 902.317 513.804C904.207 518.811 902.975 552.924 902.597 560.128L872.227 561.537C871.845 561.362 871.336 561.147 871.003 560.904C869.946 560.132 869.84 559.851 869.712 558.646C873.292 551.339 878.901 544.235 883.417 537.436C888.658 529.548 894.08 519.583 900.461 512.701Z" data-index="10" style="opacity: 1;"></path>
	<path fill="#FEBAAE" d="M335.282 513.719C340.477 513.715 345.641 513.988 350.712 515.198C359.443 517.282 367.873 522.523 372.539 530.345C376.162 536.42 378.344 543.101 379.86 549.98C382.863 563.611 386.621 606.78 383.098 619.346C382.183 622.61 380.308 626.053 377.146 627.601C374.838 628.731 372.056 628.534 369.687 627.686C364.344 625.775 362.1 619.722 359.846 615.04C357.728 616.687 355.617 618.354 353.456 619.943C344.23 626.726 329.218 627.863 318.212 626.149C308.715 624.67 300.723 620.724 295.026 612.826C291.83 607.443 290.457 601.519 290.519 595.285C290.615 585.579 294.022 577.17 301.065 570.456C311.269 560.73 324.591 557.563 338.382 558.233C344.154 558.513 349.858 559.407 355.646 559.53C355.554 558.694 355.452 557.86 355.34 557.026C354.499 550.857 352.047 545.031 346.861 541.294C343.489 538.862 339.393 537.578 335.282 537.18C318.854 535.59 315.854 546.092 305.755 547.376C303.474 547.666 301.059 546.727 299.278 545.343C296.98 543.556 295.707 540.61 295.486 537.751C295.171 533.684 296.698 529.184 299.438 526.165C307.848 516.897 323.497 514.414 335.282 513.719Z" data-index="11"></path>
	<path fill="#87513D" d="M331.442 575.611C337.287 575.076 345.485 575.669 350.73 578.491C353.133 579.784 354.684 581.74 355.409 584.365C356.538 588.454 355.578 593.409 353.365 596.978C350.004 602.399 344.394 604.383 338.528 605.797C332.584 606.859 325.578 607.365 320.154 604.225C317.179 602.504 315.039 599.768 314.283 596.395C313.346 592.214 314.471 587.747 316.846 584.237C320.365 579.036 325.533 576.838 331.442 575.611Z" data-index="12"></path>
	<path fill="#FEF8E7" d="M333.453 587.607C334.64 587.531 335.83 587.462 337.02 587.477C338.642 587.497 340.315 587.557 341.442 588.899C341.961 589.516 341.705 589.904 341.623 590.646C339.918 592.872 337.59 593.524 334.998 594.34C331.927 594.882 329.48 595.603 326.637 593.903C325.905 592.665 325.931 592.717 326.207 591.303C328.179 588.765 330.452 588.329 333.453 587.607Z" data-index="13"></path>
	<path fill="#FEBAAE" d="M731.673 471.64C732.274 471.608 732.875 471.589 733.477 471.583C737.462 471.534 741.801 472.411 744.689 475.372C751.184 482.029 749.841 515.829 750.062 526.485C755.997 521.502 762.578 517.683 770.255 516.165C779.928 514.253 790.408 515.815 798.628 521.43C807.636 527.583 811.766 538.249 813.608 548.617C816.079 562.533 817.477 598.858 815.201 612.72C814.667 615.97 813.739 619.365 811.745 622.042C810.005 624.379 807.831 625.392 804.985 625.77C802.217 626.137 799.595 625.608 797.386 623.849C794.709 621.718 793.097 618.412 792.39 615.117C791.256 609.826 791.723 604.021 791.74 598.64C791.775 588.249 792.111 577.459 791.114 567.123C790.746 562.039 789.663 556.82 787.341 552.245C785.012 547.655 781.171 543.471 776.104 542.014C771.81 540.78 766.824 541.846 762.988 543.992C745.345 553.868 750.381 586.191 750.631 603.3C750.704 608.294 751.02 613.648 749.538 618.474C748.623 621.451 746.953 624.401 744.036 625.789C740.883 627.29 736.79 626.618 733.632 625.493C730.719 624.452 728.388 622.218 727.226 619.352C725.945 616.175 725.458 612.521 725.211 609.125C724.702 602.13 724.976 594.998 724.906 587.98L724.342 551.928L722.963 506.046C722.743 498.909 722.177 491.659 722.332 484.529C722.387 481.966 722.538 478.977 723.739 476.659C725.28 473.683 728.726 472.638 731.673 471.64Z" data-index="14" style="opacity: 1;"></path>
	<path fill="#FEBAAE" d="M420.1 514.134C421.609 514.029 423.228 514.174 424.708 514.49C431.333 515.907 429.825 523.521 432.932 528.124C435.596 528.731 443.954 520.613 447.011 518.912C450.596 516.881 454.552 515.59 458.645 515.116C467.97 514.079 477.327 516.769 484.677 522.599C496.296 531.897 499.321 546.329 500.853 560.444C502.259 573.402 504.814 613.271 496.662 622.748C494.772 624.945 492.383 626.057 489.509 626.261C486.015 626.509 482.74 625.209 480.233 622.776C477.877 620.489 476.91 617.14 476.427 613.988C475.593 608.55 476.239 602.458 476.341 596.963C476.6 587.269 476.654 577.571 476.504 567.875C476.34 564.193 475.796 560.43 474.802 556.88C473.237 551.293 470.319 545.63 465.032 542.785C460.88 540.551 455.163 539.578 450.631 541.157C433.861 547 433.623 566.483 433.378 581.292L433.057 601.889C432.949 607.783 433.121 614.933 430.303 620.281C428.988 622.775 426.968 624.663 424.243 625.494C420.822 626.537 416.355 626.082 413.266 624.261C410.666 622.728 409.568 620.961 408.78 618.116C407.851 614.765 407.441 611.359 407.308 607.89C406.753 593.476 407.723 578.763 408.162 564.347C408.556 551.395 408.404 537.992 409.743 525.123C409.97 522.95 410.214 520.387 411.403 518.505C413.34 515.436 416.79 514.735 420.1 514.134Z" data-index="15" style="opacity: 1;"></path>
	<path fill="#FEBAAE" d="M69.5923 512.575C71.2481 512.494 72.7574 512.526 74.3702 512.962C80.4468 514.607 82.3742 521.876 85.1587 526.814C93.2966 521.846 98.1684 515.781 108.108 514.213C118.101 512.636 129.082 514.978 137.232 521.068C146.373 527.899 149.193 538.368 150.752 549.155C152.657 562.341 156.061 611.367 148.132 621.213C146.415 623.345 143.748 624.28 141.093 624.478C137.612 624.738 134.472 624.321 131.84 621.864C129.8 619.96 128.574 617.288 127.976 614.596C126.675 608.749 127.365 601.84 127.402 595.851C127.484 587.366 127.461 578.881 127.332 570.397C127.068 563.497 126.89 556.139 123.97 549.74C122.046 545.525 119.034 542.849 114.653 541.363C109.326 539.562 103.489 540.07 98.5537 542.763C78.2877 553.877 91.4378 597.605 85.5653 616.75C84.719 619.509 83.259 621.746 80.6365 623.067C77.2509 624.773 72.8227 625.218 69.2114 623.998C66.7081 623.152 64.4121 621.328 63.3107 618.885C61.5119 614.895 61.2796 608.802 61.1011 604.464C60.4539 588.735 61.644 572.601 62.0924 556.855C62.4184 545.407 61.9714 533.76 62.7034 522.351C62.8138 520.631 62.9369 518.869 63.6573 517.281C64.9022 514.536 66.8743 513.583 69.5923 512.575Z" data-index="16" style="opacity: 1;"></path>
	<path fill="#FEBAAE" d="M626.869 514.671C628.537 514.681 630.553 514.916 632.043 515.696C636.407 517.978 637.175 524.92 638.579 529.258C648.42 523.17 653.033 516.273 665.488 514.938C674.397 513.984 683.788 516.873 690.718 522.544C702.502 532.189 705.524 547.863 706.829 562.255C707.951 574.625 709.979 614.049 702.352 622.684C700.362 624.938 697.492 626.126 694.511 626.219C691.374 626.318 688.569 625.456 686.273 623.26C679.1 616.398 681.758 600.593 681.915 591.749C682.117 584.459 682.07 577.163 681.774 569.876C681.549 565.341 681.103 560.791 679.85 556.412C678.296 550.977 675.434 545.5 670.245 542.775C666.001 540.546 660.181 540.304 655.634 541.743C627.918 550.515 646.561 603.733 636.52 621.12C635.202 623.402 633.206 625.279 630.563 625.838C627.472 626.492 623.258 626.059 620.572 624.314C617.375 622.237 615.194 619.48 614.463 615.671C613.045 608.275 613.789 599.888 613.969 592.381L614.814 561.495C615.187 549.563 614.834 537.212 616.061 525.363C616.284 523.206 616.461 520.792 617.753 518.973C619.825 516.056 623.55 515.189 626.869 514.671Z" data-index="17" style="opacity: 1;"></path>
	<path fill="#FEBAAE" d="M537 465.09C540.414 464.989 543.538 465.636 546.374 467.633C548.308 468.995 549.875 471.091 550.22 473.466C551.086 479.421 550.684 485.813 550.676 491.826L550.557 524.253L550.302 578.47C550.2 588.672 550.42 599.078 549.534 609.245C549.174 613.381 548.881 618.675 546.286 622.076C543.972 625.108 540.847 625.909 537.231 626.269C534.656 625.975 532.202 625.564 529.855 624.403C527.207 623.094 525.053 620.878 524.265 617.975C521.944 609.429 523.015 598.518 523.018 589.718C523.03 575.175 523.125 560.632 523.303 546.09C523.42 526.16 522.509 505.078 523.812 485.338C524.108 480.854 524.235 475.717 526.603 471.769C529.016 467.747 532.591 466.107 537 465.09Z" data-index="18" style="opacity: 1;"></path>
	<path fill="#FEBAAE" d="M578.031 518.633C581.265 518.369 584.332 518.21 587.449 519.338C590.037 520.275 592.561 522.303 593.605 524.912C594.828 527.97 595.151 531.636 595.323 534.903C595.931 546.455 595.204 611.948 591.869 619.767C590.416 623.175 587.918 624.698 584.602 625.994C581.587 626.527 578.728 626.356 575.844 625.258C572.991 624.171 570.573 622.109 569.351 619.273C568.165 616.522 567.837 612.823 567.654 609.838C566.911 597.722 567.498 585.212 567.485 573.054C567.472 560.526 566.867 547.647 567.671 535.154C567.862 532.189 568.127 528.716 569.237 525.937C570.798 522.028 574.369 520.131 578.031 518.633Z" data-index="19" style="opacity: 1;"></path>
	<path fill="#FEBAAE" d="M575.607 462.587C578.715 462.366 581.471 462.082 584.451 463.247C588.524 464.839 591.611 468.126 593.199 472.175C595.111 477.05 594.83 482.838 592.611 487.564C590.612 491.822 587.601 494.355 583.282 496.026C580.308 496.541 577.407 496.502 574.565 495.399C570.435 493.797 567.321 490.392 565.694 486.313C563.765 481.372 563.946 475.857 566.194 471.053C568.237 466.724 571.215 464.264 575.607 462.587Z" data-index="20"></path>
	<path fill="#FEF8E7" d="M285.295 547.683C286.488 548.691 287.43 550.093 288.54 551.214C290.986 553.684 293.848 555.361 296.876 557.017C294.751 559.002 292.68 561.052 290.585 563.07C288.675 565.101 287.13 567.44 285.515 569.706L285.295 547.683Z" data-index="21"></path>
	<path fill="#FEF8E7" d="M563.841 504.57C564.986 505.104 566.146 505.627 567.269 506.206C568.311 506.743 569.154 506.972 569.506 508.148L568.385 508.905L563.82 512.067L563.841 504.57Z" data-index="22"></path>
	<path fill="#87513D" d="M292.861 271.626C294.571 271.489 296.287 271.35 298.001 271.312C309.376 271.063 321.21 275.503 329.303 283.557C340.202 294.406 342.93 307.958 343.056 322.785C354.757 320.052 366.373 319.669 377.615 324.485C388.089 328.972 396.618 337.198 400.761 347.889C404.819 358.526 404.412 370.35 399.633 380.683C392.864 395.656 379.743 403.263 364.945 408.748C369.908 418.913 373.353 428.622 372.253 440.138C371.151 451.677 365.918 462.366 356.836 469.685C347.041 477.477 334.546 481.046 322.114 479.605C308.359 478.026 297.995 471.211 289.459 460.596C288.73 459.512 287.997 458.597 287.112 457.637C285.549 457.69 279.365 464.502 277.342 465.837C270.2 470.553 263.945 473.738 255.404 474.914C242.491 476.692 229.889 473.77 219.476 465.792C210.025 458.551 202.665 447.721 201.208 435.749C199.45 421.305 204.531 408.814 213.334 397.604C201.908 392.539 192.598 386.012 186.973 374.489C181.646 363.577 181.006 350.227 185.058 338.794C189.294 327.037 198.108 317.493 209.493 312.337C223.597 305.8 238.258 307.865 252.365 313.128C254.048 305.073 256.409 297.822 261.198 291.038C268.929 280.086 279.826 273.948 292.861 271.626Z" data-index="23" style="opacity: 1;"></path>
	<path fill="#FEBAAE" d="M294.761 284.655C297.632 284.25 300.935 284.282 303.794 284.745C320.867 287.509 329.808 300.557 330.173 317.196C330.282 322.183 327.548 333.105 330.723 337.007C331.876 338.424 333.432 339.082 335.246 339.028C338.168 338.941 341.502 336.939 344.233 335.914C350.122 333.702 357.208 332.983 363.453 333.713C371.648 334.671 379.841 338.614 384.939 345.233C389.802 351.547 391.704 359.406 390.523 367.252C388.428 381.168 376.562 391.687 363.524 395.589C359.396 396.824 353.01 397.571 349.691 400.258C347.957 401.661 347.155 404.355 347.861 406.494C348.606 408.749 350.442 410.913 351.796 412.872C357.245 420.762 360.585 428.068 359.781 437.904C359.081 446.473 355.149 454.272 348.496 459.736C341.516 465.469 332.109 467.908 323.184 466.948C311.078 465.646 301.222 457.585 296.361 446.541C295.126 443.735 294.614 440.232 292.579 437.867C291.046 436.087 289.222 436.079 287.052 435.967L286.388 435.938C282.568 438.317 281.163 442.578 278.684 446.159C274.975 451.519 269.688 456.141 263.827 459.007C255.799 462.934 246.039 463.791 237.568 460.808C228.04 457.452 220.471 451.023 216.166 441.826C210.517 429.759 214.373 415.303 223.152 405.779C226.629 402.008 231.816 398.714 233.569 393.773C233.437 387.442 220.348 386.312 215.764 384.463C210.996 382.54 206.424 379.825 202.924 376.011C196.983 369.539 194.884 360.856 195.284 352.261C195.683 343.67 199.613 335.828 205.959 330.066C216.829 320.197 233.31 318.763 246.558 324.505C250.018 326.005 255.159 330.57 259.005 330.332C261.086 330.203 263.012 328.897 263.849 326.991C264.858 324.693 264.826 321.756 265.036 319.279C265.706 311.384 267.217 304.124 272.024 297.628C277.557 290.152 285.701 286.029 294.761 284.655Z" data-index="24" style="opacity: 1; visibility: visible;"></path>
	<path fill="#87513D" d="M286.228 339.293C309.098 335.913 330.368 351.743 333.695 374.622C337.021 397.501 321.14 418.733 298.253 422.005C275.444 425.265 254.299 409.449 250.983 386.648C247.668 363.846 263.434 342.663 286.228 339.293Z" data-index="25" style="opacity: 1;"></path>
	<path fill="#FECC9C" d="M287.274 351.911C303.103 349.072 318.245 359.577 321.129 375.398C324.013 391.219 313.552 406.391 297.74 409.321C281.862 412.263 266.615 401.75 263.718 385.864C260.822 369.978 271.379 354.761 287.274 351.911Z" data-index="26" style="opacity: 1;"></path>
	<path fill="#87513D" d="M540.079 688.083C542.843 687.931 545.55 687.858 548.28 688.421C557.177 690.258 562.241 696.567 566.971 703.682C568.128 702.587 569.289 701.482 570.514 700.464C576.096 695.828 583.435 693.047 590.729 693.963C596.616 694.703 601.829 697.831 605.436 702.513C610.337 708.875 611.756 716.877 610.609 724.68C608.421 739.556 597.868 750.797 586.288 759.443C580.374 763.768 573.23 768.18 566.092 770.118C560.08 771.749 555.132 770.497 549.824 767.469C535.423 759.257 523.088 743.951 518.898 727.853C516.553 718.845 516.743 708.804 521.648 700.648C525.928 693.534 532.313 690.011 540.079 688.083Z" data-index="27"></path>
	<path fill="#FEBAAE" d="M540.701 700.557C541.794 700.505 542.907 700.447 543.999 700.528C557.118 701.5 555.295 712.993 561.528 719.454C562.681 720.648 564.006 721.413 565.712 721.353C569.539 721.219 572.684 715.873 574.891 713.236C577.977 709.548 581.936 706.457 586.935 706.154C589.721 705.986 592.405 706.829 594.493 708.694C597.142 711.061 598.59 714.2 598.793 717.736C599.348 727.389 593.014 735.666 587.117 742.569C579.537 749.988 570.346 756.841 559.797 759.047C547.876 753.391 537.412 741.535 532.421 729.382C529.88 723.195 528.191 714.999 531.058 708.685C533.025 704.356 536.47 702.227 540.701 700.557Z" data-index="28"></path>
	<path fill="#87513D" d="M522.555 334.63C526.96 334.254 531.291 334.995 535.192 337.144C540.858 340.265 544.611 346.032 546.187 352.217C549.247 364.222 545.301 376.887 539.011 387.165C532.869 397.202 520.687 410.998 508.655 413.626C499.447 415.636 489.323 409.086 481.896 404.436C479.589 402.936 477.38 401.212 475.29 399.422C465.816 391.313 457.342 379.97 456.451 367.125C455.896 359.128 458.197 351.058 463.655 345.06C467.959 340.235 474.035 337.36 480.496 337.092C489.557 336.773 496.247 341.651 502.58 347.421C508.107 340.625 513.693 336.139 522.555 334.63Z" data-index="29"></path>
	<path fill="#FEBAAE" d="M521.63 347.104C524.135 346.731 526.154 346.781 528.522 347.771C531.083 348.841 532.945 350.533 533.878 353.184C536.477 360.564 533.57 370.427 530.245 377.132C525.18 387.345 515.864 398.59 504.792 402.311C495.393 399.381 488.409 394.245 481.133 387.719C476.939 383.368 473.241 378.675 470.923 373.047C468.902 368.144 467.807 362.294 470.11 357.296C471.712 353.821 475.062 350.882 478.655 349.597C490.428 345.389 494.107 362.308 501.189 364.762C502.129 365.087 504.102 365.179 505.03 364.752C508.257 363.271 512.503 353.773 515.813 350.587C517.522 348.941 519.486 348.035 521.63 347.104Z" data-index="30"></path>
</svg>