<svg xmlns="http://www.w3.org/2000/svg" xmlns:xlink="http://www.w3.org/1999/xlink" width="1024" height="1024">

<style>
    path {
        /* Set the center point for scaling and rotation */
        transform-origin: 50% 50%;
        /* Start invisible and slightly smaller for the fadeInScaleUp effect */
        opacity: 0;
        /* Apply both animations:
           1. fadeInScaleUp: Runs once, takes 0.8s, eases out, stays at final state. Delayed per element.
           2. gentlePulse: Starts after fadeInScaleUp finishes, runs infinitely, takes 5s, eases in/out. Delayed per element.
        */
        /* animation: fadeInScaleUp 0.8s ease-out forwards, gentlePulse 5s ease-in-out infinite; */ /* Base - delays added individually below */
    }

    /* Keyframes for the appearance animation */
    @keyframes fadeInScaleUp {
        from {
            opacity: 0;
            transform: scale(0.8);
        }
        to {
            opacity: 1;
            transform: scale(1);
        }
    }

    /* Keyframes for the continuous subtle pulsing motion */
    @keyframes gentlePulse {
        0%, 100% {
            transform: scale(1) translateY(0px);
            opacity: 1;
        }
        50% {
            transform: scale(1.04) translateY(-2px); /* Slightly larger and lifted */
            opacity: 0.9; /* Slightly dimmer for a softer feel */
        }
    }

    /* --- Staggered Animation Delays --- */
    /* Delay increment for fadeInScaleUp animation: 0.04s */
    /* Delay for gentlePulse = fadeInScaleUp delay + fadeInScaleUp duration (0.8s) */

    path[data-index="1"]  { animation: fadeInScaleUp 0.8s ease-out 0.00s forwards, gentlePulse 5s ease-in-out 0.80s infinite; }
    path[data-index="2"]  { animation: fadeInScaleUp 0.8s ease-out 0.04s forwards, gentlePulse 5s ease-in-out 0.84s infinite; }
    path[data-index="3"]  { animation: fadeInScaleUp 0.8s ease-out 0.08s forwards, gentlePulse 5s ease-in-out 0.88s infinite; }
    path[data-index="4"]  { animation: fadeInScaleUp 0.8s ease-out 0.12s forwards, gentlePulse 5s ease-in-out 0.92s infinite; }
    path[data-index="5"]  { animation: fadeInScaleUp 0.8s ease-out 0.16s forwards, gentlePulse 5s ease-in-out 0.96s infinite; }
    path[data-index="6"]  { animation: fadeInScaleUp 0.8s ease-out 0.20s forwards, gentlePulse 5s ease-in-out 1.00s infinite; }
    path[data-index="7"]  { animation: fadeInScaleUp 0.8s ease-out 0.24s forwards, gentlePulse 5s ease-in-out 1.04s infinite; }
    path[data-index="8"]  { animation: fadeInScaleUp 0.8s ease-out 0.28s forwards, gentlePulse 5s ease-in-out 1.08s infinite; }
    path[data-index="9"]  { animation: fadeInScaleUp 0.8s ease-out 0.32s forwards, gentlePulse 5s ease-in-out 1.12s infinite; }
    path[data-index="10"] { animation: fadeInScaleUp 0.8s ease-out 0.36s forwards, gentlePulse 5s ease-in-out 1.16s infinite; }
    path[data-index="11"] { animation: fadeInScaleUp 0.8s ease-out 0.40s forwards, gentlePulse 5s ease-in-out 1.20s infinite; }
    path[data-index="12"] { animation: fadeInScaleUp 0.8s ease-out 0.44s forwards, gentlePulse 5s ease-in-out 1.24s infinite; }
    path[data-index="13"] { animation: fadeInScaleUp 0.8s ease-out 0.48s forwards, gentlePulse 5s ease-in-out 1.28s infinite; }
    path[data-index="14"] { animation: fadeInScaleUp 0.8s ease-out 0.52s forwards, gentlePulse 5s ease-in-out 1.32s infinite; }
    path[data-index="15"] { animation: fadeInScaleUp 0.8s ease-out 0.56s forwards, gentlePulse 5s ease-in-out 1.36s infinite; }
    path[data-index="16"] { animation: fadeInScaleUp 0.8s ease-out 0.60s forwards, gentlePulse 5s ease-in-out 1.40s infinite; }
    path[data-index="17"] { animation: fadeInScaleUp 0.8s ease-out 0.64s forwards, gentlePulse 5s ease-in-out 1.44s infinite; }
    path[data-index="18"] { animation: fadeInScaleUp 0.8s ease-out 0.68s forwards, gentlePulse 5s ease-in-out 1.48s infinite; }
    path[data-index="19"] { animation: fadeInScaleUp 0.8s ease-out 0.72s forwards, gentlePulse 5s ease-in-out 1.52s infinite; }
    path[data-index="20"] { animation: fadeInScaleUp 0.8s ease-out 0.76s forwards, gentlePulse 5s ease-in-out 1.56s infinite; }
    path[data-index="21"] { animation: fadeInScaleUp 0.8s ease-out 0.80s forwards, gentlePulse 5s ease-in-out 1.60s infinite; }
    path[data-index="22"] { animation: fadeInScaleUp 0.8s ease-out 0.84s forwards, gentlePulse 5s ease-in-out 1.64s infinite; }
    path[data-index="23"] { animation: fadeInScaleUp 0.8s ease-out 0.88s forwards, gentlePulse 5s ease-in-out 1.68s infinite; }
    path[data-index="24"] { animation: fadeInScaleUp 0.8s ease-out 0.92s forwards, gentlePulse 5s ease-in-out 1.72s infinite; }
    path[data-index="25"] { animation: fadeInScaleUp 0.8s ease-out 0.96s forwards, gentlePulse 5s ease-in-out 1.76s infinite; }
    path[data-index="26"] { animation: fadeInScaleUp 0.8s ease-out 1.00s forwards, gentlePulse 5s ease-in-out 1.80s infinite; }
    path[data-index="27"] { animation: fadeInScaleUp 0.8s ease-out 1.04s forwards, gentlePulse 5s ease-in-out 1.84s infinite; }
    path[data-index="28"] { animation: fadeInScaleUp 0.8s ease-out 1.08s forwards, gentlePulse 5s ease-in-out 1.88s infinite; }
    path[data-index="29"] { animation: fadeInScaleUp 0.8s ease-out 1.12s forwards, gentlePulse 5s ease-in-out 1.92s infinite; }
    path[data-index="30"] { animation: fadeInScaleUp 0.8s ease-out 1.16s forwards, gentlePulse 5s ease-in-out 1.96s infinite; }
    path[data-index="31"] { animation: fadeInScaleUp 0.8s ease-out 1.20s forwards, gentlePulse 5s ease-in-out 2.00s infinite; }
    path[data-index="32"] { animation: fadeInScaleUp 0.8s ease-out 1.24s forwards, gentlePulse 5s ease-in-out 2.04s infinite; }
    path[data-index="33"] { animation: fadeInScaleUp 0.8s ease-out 1.28s forwards, gentlePulse 5s ease-in-out 2.08s infinite; }
    path[data-index="34"] { animation: fadeInScaleUp 0.8s ease-out 1.32s forwards, gentlePulse 5s ease-in-out 2.12s infinite; }
    path[data-index="35"] { animation: fadeInScaleUp 0.8s ease-out 1.36s forwards, gentlePulse 5s ease-in-out 2.16s infinite; }
    path[data-index="36"] { animation: fadeInScaleUp 0.8s ease-out 1.40s forwards, gentlePulse 5s ease-in-out 2.20s infinite; }
    path[data-index="37"] { animation: fadeInScaleUp 0.8s ease-out 1.44s forwards, gentlePulse 5s ease-in-out 2.24s infinite; }
    path[data-index="38"] { animation: fadeInScaleUp 0.8s ease-out 1.48s forwards, gentlePulse 5s ease-in-out 2.28s infinite; }
    path[data-index="39"] { animation: fadeInScaleUp 0.8s ease-out 1.52s forwards, gentlePulse 5s ease-in-out 2.32s infinite; }
    path[data-index="40"] { animation: fadeInScaleUp 0.8s ease-out 1.56s forwards, gentlePulse 5s ease-in-out 2.36s infinite; }
    path[data-index="41"] { animation: fadeInScaleUp 0.8s ease-out 1.60s forwards, gentlePulse 5s ease-in-out 2.40s infinite; }
    path[data-index="42"] { animation: fadeInScaleUp 0.8s ease-out 1.64s forwards, gentlePulse 5s ease-in-out 2.44s infinite; }
</style>
	
	<path fill="#494156" d="M284.151 453.147C287.502 452.964 290.771 452.954 294.079 453.608C302.64 455.301 308.263 460.417 312.912 467.444C314.743 465.332 316.692 463.338 318.931 461.655C322.656 458.856 330.975 453.674 335.719 454.803C337.076 455.125 337.821 455.765 338.523 456.97C339.57 458.766 336.132 465.028 335.265 466.973C324.661 490.747 321.723 519.162 316.761 544.614C313.621 560.724 309.498 576.591 306.04 592.625C321.356 594.085 336.68 594.996 351.869 597.608C390.438 604.243 426.387 619.339 460.995 637.264C473.05 643.507 484.809 650.32 496.866 656.528C504.424 653.273 511.83 649.497 519.255 645.945C527.669 641.92 536.374 638.019 544.349 633.177C543.309 631.125 542.064 629.253 540.702 627.406C531.8 615.328 517.382 606.871 502.16 612.335C498.159 613.771 492.641 618.417 488.367 617.791C487.832 617.055 487.737 617.269 487.897 616.5C488.603 613.092 491.657 610.354 494.329 608.375C501.612 602.98 512.296 599.943 521.257 601.409C535.922 603.807 545 617.748 552.913 628.959C560.511 626.007 568.072 621.268 575.429 617.663C599.353 605.939 629.688 592.084 656.595 590.522C674.719 589.471 696.319 593.258 710.241 605.765C717.396 612.193 721.615 620.516 722.133 630.154C722.795 642.479 718.133 654.511 709.867 663.612C694.454 680.581 668.192 687.61 646.03 688.439C617.797 689.495 587.13 680.049 566.26 660.485C560.283 654.882 555.965 647.753 550.035 642.323C549.901 642.201 549.764 642.083 549.628 641.962C535.139 647.662 520.73 655.644 506.629 662.397C507.294 662.846 507.963 663.288 508.637 663.723C520.898 671.626 534.391 678.738 547.312 685.508C587.73 706.686 623.043 719.712 669.61 709.576C697.57 703.49 734.657 685.834 750.422 660.95C759.146 647.178 761.45 628.652 755.885 613.264C754.385 609.115 751.054 605.853 750.071 601.487C750.262 600.263 750.55 599.396 751.627 598.649C752.645 597.944 753.752 597.902 754.896 598.25C758.72 599.413 762.133 604.559 763.716 607.969C770.831 623.295 766.043 643.338 760.466 658.36C775.336 647.162 784.468 636.97 790.249 619.254C792.086 613.623 793.655 607.785 797.654 603.227C800.069 600.475 802.87 598.192 806.652 598.023C808.808 597.926 810.658 598.762 812.181 600.265C814.408 602.464 814.886 605.174 814.731 608.201C814.497 612.754 812.59 617.226 810.42 621.18C800.906 638.513 784.353 647.897 769.293 659.611C760.716 666.397 752.335 673.425 744.158 680.687C751.118 677.554 757.605 674.301 764.863 671.815C775.181 668.281 788.392 665.128 798.703 670.447C801.363 671.819 804.051 674.08 804.859 677.081C805.335 678.847 805.038 680.666 804.062 682.203C796.712 693.779 772.789 686.222 762.091 685.254C757.898 684.874 753.413 685.165 749.32 686.153C738.349 688.802 729.362 695.132 719.361 699.97C703.16 707.806 687.35 713.275 669.837 717.401C699.333 717.5 733.098 719.434 759.168 734.521C776.045 744.288 788.509 759.22 793.561 778.203C798.713 797.561 796.059 819 788.162 837.257C785.129 844.27 781.203 850.855 777.389 857.46C783.928 851.945 790.023 845.577 796.243 839.682C802.411 833.837 809.528 828.094 814.755 821.407C819.694 815.089 823.288 807.421 826.332 800.047C836.321 775.853 830.959 765.465 820.711 743.235C817.84 737.006 815.436 731.385 814.975 724.441C814.739 720.879 814.888 717.081 816.037 713.68C816.987 710.869 818.814 708.148 821.602 706.91C823.93 705.876 826.43 706.151 828.728 707.125C835.123 709.835 840.129 716.114 842.644 722.429C848.868 738.061 842.994 773.046 838.162 789.465C836.723 794.353 834.666 799.024 832.668 803.702C839.509 796.133 845.685 787.549 851.919 779.461C870.369 755.523 886.653 732.955 893.283 702.795C891.449 704.214 889.611 705.584 887.485 706.541C883.095 708.515 878.24 708.99 873.739 707.094C869.251 705.203 865.928 701.262 864.14 696.806C861.023 689.041 862.818 681.906 865.907 674.561C861.976 676.251 857.867 677.425 853.59 677.748C847.429 678.215 840.988 676.851 836.314 672.601C832.971 669.587 830.976 665.359 830.777 660.863C830.55 656.002 832.409 651.331 835.696 647.772C842.415 640.494 852.205 639.675 861.474 639.429C859.434 637 857.507 634.409 855.943 631.644C852.571 625.687 850.298 618.388 852.392 611.619C853.699 607.395 856.598 603.698 860.6 601.738C864.2 599.984 868.353 599.742 872.132 601.068C880.497 603.976 884.566 612.255 888.043 619.714C890.254 615.475 892.996 611.378 896.387 607.99C900.905 603.478 906.884 600.322 913.387 600.418C918.225 600.49 922.924 602.337 926.247 605.907C929.435 609.335 931.026 613.95 930.63 618.614C929.839 628.117 922.278 636.436 915.255 642.172C919.643 642.755 924.207 643.732 928.337 645.35C933.851 647.512 939.125 651.011 941.408 656.719C943.055 660.837 942.822 665.558 941.068 669.603C939.101 674.139 935.231 677.515 930.607 679.177C921.369 682.497 912.365 679.129 903.977 675.26C903.592 681.193 903.628 687.133 902.957 693.051C900.738 712.632 893.623 729.643 884.18 746.673C890.453 741.029 896.487 735.423 903.451 730.601C913.179 723.865 925.46 717.184 937.768 719.696C941.46 720.449 945.247 722.314 947.323 725.579C948.52 727.461 948.91 729.694 948.278 731.851C946.773 736.982 941.671 740.151 937.21 742.447C924.838 747.939 911.458 747.465 898.491 750.297C872.489 755.976 855.263 789.312 838.132 807.964C854.504 798.756 872.881 786.482 892.015 784.472C898.357 783.806 907.931 784.249 912.987 788.622C914.487 789.92 915.344 791.569 915.408 793.565C915.521 797.068 913.432 800.043 911.005 802.364C899.257 813.602 880.341 811.027 865.609 811.003C836.508 810.956 819.255 828.922 799.455 847.326C792.097 854.165 784.21 860.558 777.111 867.652C791.091 860.45 817.107 849.771 832.23 847.311C839.968 846.053 849.238 846.135 855.724 851.07C858.437 853.135 860.614 855.92 860.9 859.423C861.102 861.889 860.237 864.324 858.524 866.11C852.443 872.438 837.898 867.821 830.275 866.56C825.897 865.835 821.502 865.295 817.06 865.221C808.465 865.077 800.145 866.814 792.065 869.66C778.126 874.569 763.737 882.758 752.2 892.047C748.027 895.453 744 899.034 740.131 902.781C736.828 906.011 733.439 910.062 729.597 912.598C728.624 913.241 727.926 913.38 726.779 913.392C725.858 913.076 725.396 912.936 724.755 912.156C721.73 908.48 732.784 899.079 735.021 896.077C737.472 892.787 739.775 888.388 740.841 884.431C745.947 865.468 729.782 855.236 731.468 844.021C731.85 841.477 733.173 839.025 735.343 837.581C737.748 835.98 740.965 835.966 743.674 836.671C747.004 837.551 749.821 839.772 751.454 842.805C756.301 851.789 752.362 870.803 749.336 880.107C765.969 860.122 781.9 840.921 786.674 814.435C789.996 796.001 787.757 776.255 776.732 760.702C764.03 742.784 741.775 732.965 720.68 729.444C732.506 736.399 741.23 746.686 745.201 759.981C748.613 771.406 748.224 785.137 742.335 795.695C737.315 804.693 729.292 810.94 719.392 813.711C709.711 816.518 699.305 815.258 690.574 810.221C684.458 806.689 679.823 801.643 678.146 794.622C676.726 788.672 677.432 781.501 680.762 776.274C683.129 772.558 686.856 770.149 691.169 769.324C694.785 768.633 698.662 768.846 701.685 771.148C703.566 772.58 705.529 775.27 705.695 777.663C705.891 780.489 705.193 782.837 703.329 784.98C699.418 789.474 695.198 785.274 690.677 785.62C689.573 786.456 689.225 786.973 688.93 788.352C688.272 791.428 689.499 794.408 691.293 796.848C694.854 801.601 700.137 804.77 706.007 805.674C713.022 806.739 720.889 804.585 726.447 800.254C733.09 795.077 736.674 787.582 737.612 779.318C738.922 767.772 735.868 756 728.49 746.952C707.825 721.607 671.37 725.189 642.114 723.766C630.782 723.215 619.7 721.429 608.428 720.349C618.682 726.039 629.431 731.439 634.141 742.918C636.297 748.173 637.538 754.213 635.08 759.613C634.276 761.379 632.986 762.692 631.103 763.271C623.548 765.593 616.174 757.86 611.992 752.516C603.712 741.935 598.8 728.456 588.964 719.169C584.692 715.136 579.661 713.251 574.282 711.192C544.643 699.845 518.004 683.777 489.575 670.019C467.403 680.805 444.831 690.744 421.905 699.816C394.9 710.291 359.982 720.368 332.067 707.87C323.59 704.075 315.731 698.796 312.44 689.667C310.003 682.909 310.696 675.172 313.749 668.72C318.296 659.108 327.341 652.709 337.165 649.249C358.978 641.567 383.667 648.336 403.753 657.92C407.144 659.538 416.246 663.406 417.027 667.549C417.263 668.802 416.749 669.402 416.135 670.4C415.001 670.796 414.575 670.986 413.365 670.686C410.953 670.088 408.169 668.232 405.887 667.143C401.513 665.054 397.06 663.136 392.538 661.393C376.054 655.166 354.535 651.568 337.892 659.196C331.949 661.92 326.462 666.637 324.292 672.963C322.696 677.613 323.192 682.474 325.544 686.771C329.832 694.604 338.463 699.734 346.859 702.013C378.646 710.639 426.01 689.361 454.932 676.191C462.753 672.63 471.202 669.471 478.638 665.195C478.819 665.091 478.998 664.983 479.177 664.878C470.391 659.224 460.266 654.673 450.992 649.786C406.903 626.552 354.608 602.626 303.948 601.288C301.805 607.135 300.289 613.232 298.252 619.127C292.672 635.271 285.151 651.299 275.038 665.121C262.23 682.627 239.147 698.967 217.367 702.144C205.773 703.835 192.291 702.221 182.694 695.031C175.676 689.774 171.468 681.75 170.252 673.144C168.36 659.757 172.427 647.037 180.543 636.393C186.777 628.216 194.796 621.902 203.512 616.549C227.924 601.556 254.271 597.378 282.083 593.777C286.49 579.121 290.175 562.967 292.26 547.823C291.108 549.721 289.915 551.596 288.683 553.444C282.075 563.157 273.493 570.4 261.691 572.576C252.604 574.251 243.126 573.239 235.43 567.77C228.41 562.782 224.383 555.339 223.06 546.919C219.522 524.409 228.389 499.689 241.541 481.661C252.064 467.238 266.181 455.97 284.151 453.147Z" data-index="1" ></path>
	<path fill="#FCFBFA" d="M658.063 601.712C670.83 600.836 686.675 602.819 697.397 610.368C703.908 614.952 708.309 621.689 709.639 629.575C711.306 639.032 709.138 648.764 703.614 656.618C692.718 671.796 671.271 676.073 654.001 678.929C659.371 674.966 663.763 671.176 666.398 664.816C669.076 658.353 669.218 650.879 666.487 644.408C664.557 639.836 661.17 636.068 656.431 634.364C652.806 633.06 648.724 633.093 645.246 634.824C643.568 635.658 642.088 636.898 641.688 638.837C640.515 644.532 649.149 644.989 652.241 647.62C653.337 648.553 654.054 649.964 654.757 651.198C655.877 654.186 656.345 657.35 655.916 660.528C655.346 664.747 653.179 668.106 649.812 670.659C641.048 677.302 627.198 677.918 616.76 676.354C593.317 672.841 571.437 656.834 557.652 638.034C564.991 633.863 572.919 630.326 580.521 626.638C605.262 614.632 630.245 603.486 658.063 601.712Z" data-index="2" ></path>
	<path fill="#FCFBFA" d="M278.024 602.216C279.044 602.118 278.528 602.037 279.551 602.561C279.984 605.85 278.224 610.256 277.34 613.451C272.354 631.469 265.719 649.808 254.454 664.914C245.335 677.143 231.501 688.075 215.996 690.272C209.01 691.262 203.362 689.587 197.801 685.395C193.578 681.155 191.47 676.784 190.756 670.824C189.374 659.295 192.975 647.826 200.111 638.763C218.245 615.73 249.877 605.448 278.024 602.216Z" data-index="3" ></path>
	<path fill="#FCFBFA" d="M288.576 464.609C292.147 464.331 295.508 464.872 298.448 467.042C301.695 469.438 303.027 473.109 303.537 476.989C305.909 495.01 293.419 532.319 282.762 546.329C277.949 552.658 272.163 557.262 264.064 558.325C261.265 558.367 258.946 557.997 256.556 556.431C252.273 553.627 250.228 548.773 249.24 543.925C245.237 524.285 253.414 499.831 264.163 483.532C270.135 474.476 277.65 466.898 288.576 464.609Z" data-index="4" ></path>
	<path fill="#CFC2AC" d="M909.554 610.569C910.688 610.522 911.856 610.46 912.987 610.565C915.256 610.774 918.559 611.767 919.916 613.756C921.334 615.833 921.007 618.515 920.301 620.785C917.837 628.699 909.636 635.421 902.49 639.041C900.332 639.64 897.259 639.94 895.12 639.152C893.9 638.702 892.988 638.067 892.476 636.826C891.506 634.478 892.464 631.509 893.334 629.286C896.304 621.699 902.013 613.938 909.554 610.569Z" data-index="5"></path>
	<path fill="#CFC2AC" d="M855.327 648.701C858.878 648.517 862.718 648.582 866.218 649.254C868.546 649.7 871.552 650.672 872.771 652.909C873.41 654.081 873.35 655.38 872.977 656.62C871.493 661.55 863.193 665.232 858.891 667.183C854.691 668.53 851.357 668.695 847.032 668.436C846.704 668.234 846.381 668.027 846.061 667.814C843.391 666.027 840.876 663.397 840.381 660.096C840.044 657.847 840.847 655.644 842.262 653.908C845.572 649.845 850.452 649.123 855.327 648.701Z" data-index="6" ></path>
	<path fill="#CFC2AC" d="M908.716 651.183C914.582 650.865 921.427 651.659 926.609 654.604C928.881 655.895 930.902 657.754 931.532 660.381C932.292 663.555 930.817 666.152 929.23 668.784C927.757 669.696 926.185 670.364 924.608 671.073C918.245 671.53 912.281 669.549 906.925 666.16C903.997 664.307 899.988 661.12 899.498 657.395C899.322 656.058 899.6 655.009 900.5 653.976C902.483 651.701 905.927 651.498 908.716 651.183Z" data-index="7" ></path>
	<path fill="#CFC2AC" d="M883.236 664.748C883.79 664.985 884.106 665.102 884.608 665.369C887.664 666.995 889.712 670.587 890.697 673.788C892.408 679.345 892.362 686.841 889.458 691.978C887.385 695.645 884.702 697.422 880.679 698.451C878.382 698.019 876.2 697.374 874.52 695.648C872.562 693.636 871.803 690.845 871.848 688.095C871.982 679.9 877.318 670.252 883.236 664.748Z" data-index="8" ></path>
	<path fill="#CFC2AC" d="M865.337 610.493C866.577 610.467 867.931 610.377 869.146 610.647C872.433 611.375 875.294 614.702 876.938 617.443C880.089 622.697 882.099 630.343 880.508 636.353C879.971 638.379 879.315 638.904 877.613 639.929C873.252 638.827 870.274 635.958 867.516 632.541C864.129 628.344 860.611 622.544 861.416 616.956C861.845 613.984 863.002 612.295 865.337 610.493Z" data-index="9"></path>
	<path fill="#CFC2AC" d="M884.665 643.517C885.522 643.483 886.398 643.449 887.252 643.537C889.479 643.768 891.994 644.794 893.404 646.592C894.36 647.813 894.76 649.349 894.445 650.88C893.893 653.564 891.657 655.175 889.529 656.614C888.382 656.882 887.058 657.18 885.883 657.034C884.071 656.809 882.196 655.688 881.183 654.165C880.081 652.508 879.852 650.369 880.291 648.454C880.887 645.85 882.538 644.857 884.665 643.517Z" data-index="10"></path>
	<path fill="#CFC2AC" d="M512.373 95.2072C532.763 93.3206 553.132 99.0189 569.582 111.211C583.047 121.353 593.946 136.832 596.391 153.737C598.362 152.404 600.427 151.217 602.571 150.185C613.086 145.007 624.83 143.992 635.958 147.799C647.993 151.916 658.241 161.411 663.701 172.85C670.063 186.181 668.384 199.045 663.63 212.542C673.328 207.721 683.631 205.388 694.473 206.67C704.027 207.799 714.009 212.669 719.899 220.439C726.271 228.844 725.653 237.707 724.156 247.458C726.985 246.873 729.796 246.377 732.676 246.111C743.246 245.133 755.154 247.335 763.366 254.531C767.589 258.23 770.568 264.484 770.851 270.081C770.985 272.729 770.507 275.553 768.581 277.515C767.003 279.124 765.33 279.573 763.137 279.805C757.454 280.404 751.567 280.103 745.853 280.092L716.449 280.028C694.263 280.019 672.023 280.872 649.85 280.369C639.721 290.661 627.42 296.903 612.983 298.454C596.918 300.181 581.68 294.626 569.261 284.611L568.927 284.299C568.219 284.609 563.374 292.514 562.111 294.1C559.128 297.803 555.712 301.134 551.934 304.021C535.502 316.828 513.679 321.943 493.148 319.296C472.545 316.639 455.324 306.371 442.725 290.054C432.916 291.545 422.349 291.422 412.447 291.483L375.996 291.563C365.338 291.575 352.564 292.608 342.216 291.206C337.514 290.57 333.259 289.384 330.352 285.328C327.274 281.035 327.102 275.233 327.895 270.183C329.314 261.145 334.349 252.58 341.834 247.264C351.997 240.046 364.369 238.619 376.374 240.751C374.311 237.483 372.664 234.111 371.585 230.395C368.299 219.071 370.189 206.346 375.912 196.121C381.603 185.827 391.242 178.296 402.608 175.264C415.563 171.718 427.286 174.385 438.752 180.842C438.501 179.484 438.301 178.117 438.152 176.744C436.226 157.47 442.617 139.089 454.923 124.296C469.409 106.883 490.063 97.2738 512.373 95.2072Z" data-index="11"></path>
	<path fill="#CFC2AC" d="M450.768 727.696C450.907 727.67 451.045 727.636 451.186 727.62C470.804 725.362 492.126 731.878 507.236 744.473C521.392 756.273 528.607 772.078 530.306 790.183C541.361 782.225 554.327 778.821 567.869 780.803C580.962 782.72 593.776 790.267 601.548 801.013C610.74 813.724 611.585 827.999 609.149 842.985C619.094 836.987 628.394 833.807 640.138 835.13C650.346 836.281 662.095 841.296 668.477 849.619C673.931 856.731 674.917 864.267 673.785 872.841C676.229 872.159 678.597 871.597 681.136 871.408C688.878 870.833 697.481 872.676 703.377 877.935C707.58 881.685 710.059 886.65 710.283 892.299C710.389 894.96 709.81 897.61 707.896 899.562C705.448 902.058 701.927 902.8 698.592 903.225C693.313 903.898 687.689 903.59 682.366 903.588L655.551 903.575L582.268 903.994C579.481 906.729 576.509 909.376 573.415 911.759C557.802 923.789 539.838 926.811 520.622 924.299C507.331 921.492 496.432 916.323 486.873 906.576C484.844 909.614 482.296 912.303 479.55 914.702C466.99 925.675 449.45 930.992 432.901 929.788C413.664 928.389 397.365 919.654 384.901 905.148C377.818 905.193 370.725 905.803 363.637 905.918C348.388 906.167 333.111 906.021 317.859 906.033C307.974 906.04 297.34 906.864 287.603 905.125C283.183 904.336 279.003 902.855 276.442 898.92C273.902 895.016 274.116 890.146 274.944 885.752C276.539 877.283 280.917 869.759 288.124 864.884C299.051 857.492 311.691 856.923 324.269 859.316C324.04 858.703 323.822 858.085 323.616 857.464C320.347 847.828 319.537 838.053 324.237 828.71C328.451 820.332 336.554 813.804 345.434 810.939C357.394 807.08 369.042 809.226 380.001 814.796C379.438 812.308 378.872 809.806 378.615 807.264C376.798 789.28 383.468 770.951 394.823 757.126C408.797 740.244 428.94 729.648 450.768 727.696Z" data-index="12" ></path>
	<path fill="#494156" d="M663.55 313.68C668.535 313.064 674.536 314.113 678.835 316.672C683.724 319.581 686.587 324.297 687.973 329.715C691.7 344.28 684.528 364.25 676.908 376.51C663.258 398.47 643.098 410.821 618.358 416.676C613.598 431.687 610.984 447.632 607.567 463.011C603.997 479.082 590.318 534.659 591.536 547.027C591.715 548.844 592.474 550.472 594.015 551.517C599.246 555.065 604.35 546.954 609.14 546.26C610.022 547.049 609.905 546.629 609.933 547.666C610.055 552.205 606.369 557.424 603.231 560.389C598.201 565.142 591.42 567.588 584.515 567.139C580.11 566.875 575.709 565.494 572.768 562.04C569.942 558.721 568.918 554.21 568.863 549.943C568.698 537.176 572.293 524.118 574.878 511.671C579.289 490.087 583.568 468.476 587.713 446.838C589.542 437.214 592.422 426.911 593.083 417.198C593.097 416.995 593.106 416.792 593.117 416.589C589.446 415.277 585.531 414.518 581.814 413.294C574.451 410.87 567.555 407.262 560.957 403.227C554.645 399.367 548.96 394.665 543.182 390.068C527.365 377.484 511.959 365.979 491.965 360.905C483.741 358.818 475.052 357.654 466.574 358.53C454.335 359.785 443.113 365.9 435.423 375.504C435.16 375.906 434.894 376.306 434.654 376.722C431.029 382.998 430.668 390.618 432.693 397.48C434.592 403.914 438.844 410.093 444.939 413.154C449.498 415.444 456.342 415.838 461.201 414.108C470.37 410.844 459.518 399.856 463.199 393.74C464.067 392.298 465.642 391.652 467.22 391.35C470.515 390.721 474.203 391.168 476.982 393.145C479.954 395.26 481.353 398.719 481.877 402.223C482.674 407.552 481.232 412.677 477.936 416.921C473.309 422.88 465.769 426.267 458.383 427.07C449.008 428.112 439.609 425.33 432.312 419.353C424.863 413.133 420.175 404.22 419.272 394.558C418.413 384.737 421.83 375.114 428.191 367.65C438.152 355.962 456.22 348.576 471.302 347.475C506.04 344.937 532.372 368.796 556.786 390.009C555.812 379.273 549.687 369.321 550.495 358.495C550.959 352.286 555.021 346.359 559.606 342.339C564.116 338.383 570.222 335.187 576.35 335.726C578.425 335.908 581.105 336.548 582.352 338.383C585.714 343.328 573.397 353.952 570.712 358.177C568.629 361.455 567.025 365.335 566.089 369.101C564.125 377.002 564.788 386.266 569.149 393.28C574.885 402.508 585.281 406.192 595.352 408.336C603.244 382.016 606.765 361.75 624.366 338.957C634.164 326.268 647.301 315.828 663.55 313.68Z" data-index="13" ></path>
	<path fill="#FCFBFA" d="M664.796 325.036C667.109 324.893 669.396 324.81 671.612 325.605C674.498 326.64 676.847 328.753 678.021 331.603C681.487 340.012 677.554 353.684 674.371 361.724C666.744 380.991 651.656 395.843 632.728 404.005C628.746 405.647 624.646 406.729 620.478 407.787C625.176 389.093 631.057 369.937 639.748 352.671C645.125 341.99 652.79 329.042 664.796 325.036Z" data-index="14" ></path>
	<path fill="#494156" d="M865.579 321.626C867.638 321.499 869.584 321.473 871.621 321.87C877.034 322.923 882.243 326.295 885.203 330.982C891.511 340.973 889.461 354.422 885.853 364.953C880.086 381.785 870.905 397.664 860.053 411.733C849.311 425.66 836.444 437.918 825.04 451.308C821.946 454.942 817.838 459.143 815.54 463.308C814.42 465.338 814.09 468.656 813.598 470.943C815.883 468.221 818.158 465.474 820.544 462.839C829.966 452.433 842.303 441.675 857.056 441.026C862.674 440.779 868.797 441.655 873.022 445.7C876.123 448.67 877.561 452.817 877.878 457.025C878.938 471.082 869.193 494.367 865.409 508.639C862.652 519.034 860.318 531 860.656 541.761C860.767 545.284 861.143 552.061 863.954 554.416C867.089 557.044 870.316 551.854 873.242 551.685C873.992 551.641 874.115 552.101 874.567 552.604C874.665 553.383 874.711 554.066 874.51 554.838C873.524 558.625 870.358 561.69 867.076 563.615C861.653 566.798 854.614 567.408 848.563 565.815C844.268 564.684 840.668 562.144 838.433 558.271C832.198 547.467 837.488 530.604 840.339 519.382C842.886 509.471 856.261 468.886 851.828 461.971C850.661 460.152 848.875 458.978 846.737 458.647C841.362 457.815 836.167 461.073 832.138 464.268C813.319 479.189 808.04 498.407 803.16 520.726C801.589 527.908 799.576 535.708 799.676 543.078C799.792 551.541 805.352 552.622 804.826 557.387C804.191 558.351 803.666 558.897 802.569 559.335C799.529 560.551 776.632 561.278 774.095 559.72C773.124 559.124 772.585 558.304 772.491 557.172C772.202 553.722 776.159 542.292 777.058 538.289L790.479 480.135C797.725 447.391 804.634 414.288 815.516 382.52C819.888 369.757 825.879 356.103 833.709 345.064C841.761 333.711 851.443 324.081 865.579 321.626Z" data-index="15" ></path>
	<path fill="#FCFBFA" d="M868.713 331.956C871.014 332.273 872.936 332.784 874.732 334.34C877.856 337.049 878.821 341.191 879.088 345.148C881.373 379.014 847.435 414.792 826.535 438.539C824.531 440.811 822.476 443.042 820.447 445.291C821.946 436.674 824.491 428.158 826.794 419.721C831.381 402.918 836.267 386.207 842.485 369.924C847.46 356.895 855.139 338.046 868.713 331.956Z" data-index="16" ></path>
	<path fill="#494156" d="M115.005 268.054C118.81 267.665 122.178 267.796 125.726 269.34C130.042 271.218 133.925 274.817 135.52 279.324C136.342 281.647 136.283 284.004 135.135 286.206C133.704 288.949 130.43 291.699 127.399 292.415C121.221 293.875 119.526 286.563 115.133 284.222C113.326 283.26 111.578 283.335 109.687 283.998C103.725 286.087 99.6758 291.016 96.9388 296.496C88.2512 313.893 86.279 348.458 92.5112 366.977C93.5649 359.204 95.5555 342.398 101.583 337.205C103.195 335.816 106.71 334.501 108.843 334.88C110.082 335.101 110.979 335.589 111.596 336.726C115.802 344.468 104.456 364.196 101.487 372.131C100.196 375.58 99.6644 379.713 98.8344 383.317C112.754 364.671 133.53 346.676 154.937 337.68C151.434 327.507 149.624 317.479 153.7 307.163C157.002 298.806 163.771 291.494 172.152 288.079C177.14 286.047 182.493 285.802 187.452 288.065C191.405 289.868 194.532 293.072 195.875 297.242C198.046 303.981 195.526 310.116 192.548 316.078C197.577 314.093 202.593 312.314 208.02 311.88C213.684 311.426 219.839 312.563 224.191 316.446C227.196 319.108 228.992 322.875 229.168 326.886C229.4 331.416 227.673 335.649 224.605 338.95C217.757 346.317 206.976 348.482 197.388 349.016C201.82 354.906 205.824 361.428 206.219 369.011C206.449 373.432 205.184 377.604 202.137 380.876C198.86 384.397 194.181 386.234 189.404 386.235C182.426 386.238 175.707 382.73 170.829 377.898C160.806 367.969 159.86 357.287 159.747 343.899C158.007 344.506 156.296 345.193 154.619 345.958C121.45 360.851 94.7339 395.813 82.0473 429.118C86.3878 423.721 90.6959 418.305 95.7303 413.528C108.437 401.47 124.487 393.389 142.269 393.958C153.15 394.307 161.642 397.941 169.105 405.905C169.926 406.994 170.727 408.096 171.413 409.278C174.808 415.113 175.675 422.081 173.814 428.57C172.097 434.463 168.106 440.033 162.634 442.964C158.057 445.415 152.474 445.795 147.54 444.251C144.316 443.242 140.727 441.67 139.186 438.447C138.444 436.895 138.592 435.402 139.146 433.82C141.397 427.385 149.223 429.635 153.982 427.08C155.458 426.287 156.374 424.933 156.774 423.326C157.526 420.307 156.871 417.069 155.256 414.454C152.385 409.808 146.984 407.292 141.815 406.136C130.559 403.619 118.049 407.573 108.613 413.696C101.394 418.379 95.303 424.61 90.0913 431.416C73.1466 453.546 72.1758 476.408 75.4618 503.053C76.7797 513.74 78.6518 524.571 81.8206 534.873C83.2929 539.659 90.4836 555.074 89.6605 558.88C88.6084 560.079 87.932 560.572 86.4839 561.241C84.9456 560.934 84.1393 559.915 83.2657 558.702C77.3146 550.438 74.8657 539.304 68.0654 530.702C59.6452 520.052 48.1454 513.506 40.4044 503.703C37.3994 499.898 34.9601 495.306 35.7399 490.303C36.0928 488.039 37.1708 485.737 39.0921 484.394C40.7205 483.256 42.6193 483.031 44.5404 483.394C59.9631 486.303 63.4628 509.36 71.0269 520.427C65.3759 499.196 65.5964 474.074 69.0619 452.456C70.2772 444.875 73.2224 436.965 72.9881 429.283C72.7805 422.477 70.3848 415.785 67.9392 409.517C63.2258 397.437 50.7315 389.005 48.7625 375.728C48.4377 373.538 48.3009 370.841 49.9268 369.092C51.2845 367.631 53.477 367.238 55.3831 367.196C59.7031 367.102 63.7267 369.955 66.7024 372.822C78.6025 384.285 77.8034 402.731 78.0712 417.993C81.7882 411.336 91.5218 394.377 92.642 387.879C90.3817 381.241 87.3339 375.124 85.553 368.263C79.0761 343.308 79.6966 308.099 93.1758 285.341C98.3202 276.655 105.132 270.627 115.005 268.054Z" data-index="17"></path>
	<path fill="#CFC2AC" d="M177.231 296.563C179.909 296.465 183.299 296.49 185.285 298.64C186.505 299.962 186.926 301.41 186.883 303.174C186.657 312.542 175.703 325.002 169.098 330.905C167.576 332.027 165.828 332.843 164.158 333.72C163.546 332.658 162.961 331.599 162.515 330.455C160.038 324.11 161.223 314.792 164.011 308.748C166.73 302.852 171.132 298.72 177.231 296.563Z" data-index="18"></path>
	<path fill="#CFC2AC" d="M169.264 345.742C176.242 345.903 183.075 349.03 188.303 353.579C192.212 356.981 196.464 361.981 196.716 367.353C196.862 370.455 195.932 372.207 193.927 374.484C192.032 375.693 190.293 376.495 188.002 376.569C184.021 376.698 180.783 374.857 178.064 372.068C171.045 364.867 169.002 355.456 169.264 345.742Z" data-index="19"></path>
	<path fill="#CFC2AC" d="M206.611 321.129C209.88 320.758 214.22 321.094 216.916 323.187C218.183 324.17 219.005 325.518 219.084 327.154C219.198 329.502 217.94 331.741 216.369 333.397C210.116 339.987 198.548 340.038 190.172 340.008L189.933 340.005C186.948 339.941 179.246 340.527 177.236 338.423C177.365 337.501 177.31 337.281 177.885 336.481C183.061 329.272 198.018 322.772 206.611 321.129Z" data-index="20"></path>
	<path fill="#494156" d="M54.6814 570.089C55.4088 570.038 56.1376 570.008 56.8668 569.999C78.7002 569.865 100.677 608.771 107.624 626.401C109.767 631.839 114.393 651.198 117.192 653.897C118.673 651.719 119.027 640.813 119.601 637.533C120.905 630.093 122.785 622.595 126.891 616.163C129.727 611.721 133.864 607.427 139.248 606.414C142.557 605.791 145.822 606.767 148.47 608.794C150.289 610.188 151.652 612.052 151.918 614.372C153.099 624.692 136.641 635.411 131.16 643.07C121.803 656.143 122.473 677.35 125.071 692.347C131.359 728.653 157.794 764.21 187.862 785.215C179.73 769.758 167.126 751.07 170.261 732.708C171.254 726.892 174.682 720.242 179.715 716.992C181.927 715.565 184.428 714.923 187.009 715.649C198.1 718.77 192.363 744.846 192.068 753.435C191.822 760.594 192.221 767.832 194.124 774.767C199.131 793.015 214.163 801.835 226.624 814.573C235.004 823.14 242.458 832.377 248.554 842.709C251.425 847.576 257.308 857.43 255.815 863.238C255.349 863.7 255.094 864.152 254.415 864.272C253.469 864.44 251.856 864.196 251.107 863.534C249.051 861.714 247.105 857.761 245.493 855.432C240.721 848.533 235.021 842.947 228.218 838.034C215.326 828.725 198.141 823.984 182.323 826.581C173.04 828.105 163.9 832.89 158.472 840.755C155.132 845.596 152.584 853.144 153.721 859.062C154.702 864.167 157.851 868.496 162.247 871.227C165.176 873.046 168.649 874.164 172.074 873.193C178.732 871.305 177.2 865.339 180.106 860.577C181.054 859.023 182.51 858.163 184.257 857.766C186.188 857.327 188.03 857.548 189.687 858.681C192.154 860.367 193.406 863.617 193.786 866.471C194.343 870.641 192.94 875.233 190.343 878.513C186.607 883.231 180.528 885.549 174.703 886.231C165.803 887.273 157.633 884.057 150.83 878.491C146.408 874.46 143.14 868.664 141.917 862.811C140.095 853.783 141.95 844.401 147.07 836.745C153.736 826.565 164.762 820.182 176.524 817.746C195.509 813.814 214.812 819.916 230.697 830.245C212.413 809.847 190.503 791.788 162.129 789.485C154.37 788.856 146.581 789.29 139.087 791.495C127.979 794.763 118.11 800.48 106.066 798.791C102.699 798.319 99.2415 797.12 97.1711 794.264C95.5673 792.051 95.1966 789.148 95.6862 786.506C96.5647 781.764 99.9628 777.977 103.943 775.472C113.861 769.232 129.151 770.794 139.891 773.667C145.094 775.058 150.103 777.097 155.277 778.589C160.881 780.205 166.787 781.176 172.483 782.447C164.504 775.545 156.956 767.981 149.656 760.374C142.494 752.911 135.508 744.682 126.727 739.058C111.358 729.213 89.4368 726.207 75.6902 714.248C73.239 712.115 70.4394 708.94 70.3445 705.496C70.2931 703.634 71.1323 702.017 72.4261 700.728C75.1506 698.014 79.4017 696.958 83.1462 697.052C101.814 697.517 119.397 719.687 131.084 732.451C127.153 723.266 122.709 714.226 119.926 704.6C116.972 694.383 115.882 679.939 111.295 671.002C109.187 666.893 106.079 663.368 102.568 660.399C85.8878 646.298 67.8007 656.728 59.624 648.54C58.0418 646.956 56.9616 644.962 57.0625 642.674C57.196 639.651 59.1222 636.828 61.3768 634.933C64.8859 631.982 69.0134 631.063 73.49 631.428C89.2431 632.713 99.849 644.748 109.448 655.964C107.642 648.511 105.338 641.187 102.552 634.042C97.914 622.223 91.4818 608.776 79.8475 602.358C74.775 599.56 69.1249 597.619 63.8237 595.28C57.7264 592.59 50.2168 588.165 47.8678 581.58C47.0982 579.422 46.7413 576.768 47.8392 574.658C49.2248 571.994 52.0201 571.008 54.6814 570.089Z" data-index="21"></path>
	<path fill="#494156" d="M395.267 451.113C400.836 450.482 407.118 450.572 412.441 452.481C420.339 455.315 424.449 461.068 427.854 468.334C429.122 465.594 430.688 462.717 432.664 460.433C435.729 456.891 441.218 452.619 446.16 452.434C447.583 452.38 448.919 452.883 449.948 453.868C451.842 455.683 452.605 458.205 452.178 460.763C450.995 467.849 446.41 474.924 443.911 481.692C438.064 497.526 428.096 534.587 428.76 550.836C428.87 553.53 429.095 556.149 431.184 558.051C436.423 559.958 439.761 553.065 444.122 551.77C444.86 552.456 444.745 552.097 444.812 553.005C445.076 556.637 442.707 561.186 440.359 563.827C436.014 568.716 428.788 571.321 422.327 571.497C417.611 571.625 412.808 570.284 409.459 566.82C403.401 560.556 404.843 549.614 405.027 541.599C404.549 542.51 404.053 543.412 403.54 544.304C396.199 557.027 383.748 567.151 369.54 570.901C367.372 571.246 365.121 571.547 362.924 571.611C354.924 571.846 346.085 569.471 340.298 563.71C335.551 558.983 333.762 552.471 333.945 545.92C334.246 535.12 339.875 524.954 347.705 517.735C359.716 506.662 377.181 500.857 393.298 500.156C399.327 499.893 405.479 500.392 411.506 500.656C412.536 498.042 413.026 495.242 413.421 492.468C414.512 484.787 415.411 473.864 410.274 467.381C407.98 464.485 404.769 462.799 401.105 462.418C393.784 461.657 386.575 465.791 381.177 470.367C382.242 474.926 382.086 479.321 379.799 483.515C377.468 487.791 373.474 490.601 368.823 491.87C365.732 492.714 361.907 493.054 359.088 491.217C357.173 489.97 356.027 487.609 355.727 485.395C355.087 480.674 357.923 475.678 360.599 471.957C368.395 461.115 382.205 453.273 395.267 451.113Z" data-index="22" ></path>
	<path fill="#FCFBFA" d="M397.861 508.186C401.866 507.48 406.576 507.929 410.651 507.994C409.137 516.275 408.185 524.375 403.402 531.522C396.287 542.153 384.876 553.363 371.92 555.876C368.786 556.059 365.72 555.33 363.186 553.435C360.685 551.566 359.407 548.777 359.022 545.729C358.096 538.385 361.543 530.04 365.923 524.274C373.783 513.927 385.419 509.832 397.861 508.186Z" data-index="23" ></path>
	<path fill="#494156" d="M191.314 456.698C193.021 456.586 194.674 456.554 196.377 456.762C201.4 457.376 206.792 459.967 209.887 464.06C219.732 477.075 209.393 500.393 205.344 513.924C202.312 524.059 199.096 534.651 197.678 545.157C197.068 549.676 196.364 556.129 199.484 559.875C203.085 564.198 208.604 560.187 212.967 560.545L213.359 561.294C212.803 563.006 212.203 564.556 211.159 566.038C207.909 570.652 202.124 573.312 196.669 574.132C191.089 574.971 184.638 573.905 180.083 570.424C158.665 554.062 192.369 502.71 188.595 479.84C188.203 477.463 187.316 475.392 185.242 474.031C182.804 472.431 179.711 472.735 177.025 473.445C164.142 476.848 154.547 490.372 148.39 501.277C141.78 514.393 135.053 547.577 135.563 562.075C136.637 563.689 138.457 565.852 139.034 567.66C139.298 568.488 139.385 569.052 139.015 569.836C138.256 571.44 136.707 572.208 135.094 572.741C130.338 574.312 109.244 574.553 104.868 572.351C104.078 570.978 104.082 569.762 104.338 568.205C105.141 563.321 107.453 558.51 108.751 553.705C112.635 539.321 125.863 490.173 124.84 477.716C124.189 469.787 117.695 469.465 116.499 464.973C116.885 463.154 117.698 462.366 119.225 461.387C124.849 457.78 136.469 457.655 142.859 459.065C145.191 459.58 147.292 460.856 148.566 462.908C152.433 469.143 148.248 481.63 146.732 488.281C147.869 486.696 149.055 485.148 150.29 483.638C160.795 470.714 174.068 458.47 191.314 456.698Z" data-index="24"></path>
	<path fill="#494156" d="M538.012 449.7C541.175 449.505 544.898 449.978 547.787 451.282C553.528 453.872 556.1 459.421 556.858 465.392C558.58 478.965 546.289 522.078 543.483 538.863C542.844 542.683 541.327 549.173 542.938 552.783C546.291 560.3 553.034 551.034 557.144 552.331C557.729 554.327 556.804 556.766 555.843 558.522C553.109 563.517 547.483 567.032 542.109 568.511C536.781 569.978 530.749 569.756 525.932 566.833C521.132 563.92 519.079 558.812 518.59 553.409C516.805 533.683 536.487 485.143 532.292 470.443C531.822 468.795 531.009 467.54 529.477 466.726C526.885 465.347 523.518 465.578 520.825 466.5C510.031 470.194 501.857 482.696 496.856 492.269C490.736 506.274 480.84 541.145 481.647 555.497C481.771 557.708 482.596 559.845 482.991 562.011C483.276 563.575 483.436 564.519 482.413 565.86C479.838 569.239 469.021 568.339 465.154 568.334C461.59 568.33 456.299 568.946 453.67 566.31C452.264 563.403 457.773 546.091 458.872 541.708C462.906 525.692 466.777 509.635 470.485 493.541C472.329 485.399 475.012 476.409 475.213 468.071C475.329 463.253 469.312 460.504 469.324 456.569C469.748 455.879 470.128 455.246 470.781 454.747C474.961 451.553 484.466 451.516 489.538 452.211C492.37 452.599 496.965 453.508 498.56 456.232C501.545 461.329 497.136 472.966 495.683 478.32L497.425 476.171C508.221 462.919 520.28 451.505 538.012 449.7Z" data-index="25" ></path>
	<path fill="#494156" d="M740.787 444.581C744.28 444.375 747.724 444.15 751.187 444.828C755.908 445.752 760.076 448.216 762.62 452.373C770.249 464.843 758.226 495.87 754.933 510.124C753.315 517.127 747.495 543.612 751.509 548.762C755.037 553.29 761.45 546.415 765.423 546.667L766.088 547.566C766.142 550.566 765.278 552.806 763.53 555.25C760.139 559.991 754.712 563.586 748.87 564.392C743.412 565.145 736.723 564.147 732.408 560.573C728.615 557.432 726.716 552.529 726.271 547.726C725.001 534.022 735.715 499.533 738.909 483.921C739.936 478.899 741.441 472.938 740.904 467.811C740.662 465.497 739.967 463.095 738.022 461.639C736.487 460.491 734.636 460.392 732.819 460.69C724.093 462.117 717.563 468.646 712.461 475.327C702.169 490.089 694.461 522.247 692.374 540.475C691.686 546.485 692.16 552.748 691.34 558.679C691.136 560.156 690.67 561.502 689.27 562.254C687.536 563.186 669.352 563.684 667.068 563.05C666.154 562.796 665.108 562.198 664.693 561.326C663.368 558.542 666.876 551.164 667.652 548.061C669.75 539.663 670.678 530.998 672.531 522.548L680.454 486.25C681.982 479.102 684.558 471.141 684.318 463.792C684.165 459.096 682.172 455.662 679.849 451.747C680.198 450.446 680.734 449.682 681.872 448.961C686.676 445.92 697.291 446.413 702.753 447.534C704.971 447.989 707.03 449.024 708.204 451.037C711.046 455.91 707.733 464.465 706.375 469.587C715.435 457.901 725.821 447.537 740.787 444.581Z" data-index="26" ></path>
	<path fill="#494156" d="M367.628 125.19C371.474 125.344 374.873 125.979 377.907 128.516C380.168 130.406 381.633 133.055 381.74 136.03C382.251 150.188 353.405 161.267 342.725 167.131C336.699 170.439 330.896 174.166 325.624 178.589C317.135 185.71 309.765 194.288 302.132 202.301C294.871 209.923 287.283 217.226 280.065 224.889C289.015 219.161 299.872 213.907 310.214 211.342C316.29 209.834 325.437 208.646 330.946 212.241C332.638 213.346 333.876 214.986 334.274 216.987C334.798 219.624 333.669 222.338 332.242 224.506C324.757 235.886 306.618 231.022 295.52 230.757C290.983 230.649 286.422 231.22 282.001 232.212C256.835 237.859 228.146 262.515 214.319 283.986C213.038 285.974 212.075 287.763 209.62 288.297C208.374 287.739 208.109 287.612 207.597 286.24C204.985 279.246 223.071 261.901 227.357 256.18C229.427 253.417 230.783 250.251 232.209 247.126C235.871 238.669 238.856 229.899 240.14 220.736C241.446 211.421 238.747 192.69 243.248 185.541C244.677 183.271 246.939 181.618 249.586 181.086C251.447 180.713 253.393 181.406 254.931 182.438C259.054 185.203 261.991 190.537 262.762 195.355C265.864 214.752 249.826 234.071 239.003 248.544C249.891 239.637 288.105 210.053 293.127 198.711C294.657 195.256 293.389 190.077 292.737 186.478C290.96 176.674 288.59 166.192 291.549 156.373C293.432 150.126 297.425 144.452 303.301 141.397C305.902 140.044 309.413 138.787 312.313 139.918C314.357 140.715 315.602 142.544 316.325 144.542C321.21 158.044 312 175.237 306.242 187.044C313.067 180.105 322.378 173.165 328.045 165.591C330.114 162.826 331.651 159.558 333.365 156.559C336.703 150.723 340.137 144.923 344.267 139.603C350.515 131.555 357.21 126.468 367.628 125.19Z" data-index="27"></path>
	<path fill="#494156" d="M957.757 437.932C959.462 438.292 960.271 438.68 961.477 439.965C962.086 441.364 962.02 442.469 961.891 443.979C961.068 453.637 958.702 463.583 957.119 473.168L949.243 523.585C960.824 522.797 956.336 521.839 964.197 517.212C965.54 517.295 965.999 517.539 967.043 518.38C968.243 520.849 967.735 523.32 967.027 525.879C965.676 530.761 963.765 533.514 959.364 535.958C955.334 536.062 951.289 536.014 947.257 536.034C946.335 541.037 943.797 550.628 945.743 555.303C946.723 557.656 949.285 557.308 951.301 558.17C953.249 559.003 954.319 560.598 955.126 562.456C955.097 563.237 955.226 563.719 954.752 564.386C953.438 566.239 950.633 566.804 948.522 567.113C942.931 567.933 917.482 567.916 912.222 567.258C910.516 567.045 907.853 566.697 906.561 565.421C905.356 564.232 905.47 563.019 905.295 561.462C907.895 556.257 913.631 559.179 917.985 556.621C924.481 552.804 926.166 542.326 927.861 535.537C919.117 535.401 892.483 535.847 885.687 534.014C884.432 533.676 883.372 533.332 882.853 532.02C882.197 530.362 882.555 528.46 883.115 526.839C884.116 523.944 885.891 521.151 887.69 518.686C897.881 504.718 910.012 491.573 921.112 478.276C930.72 466.767 942.457 451.199 952.987 441.069C954.429 439.682 955.97 438.808 957.757 437.932Z" data-index="28" ></path>
	<path fill="#FCFBFA" d="M936.337 477.89C936.777 480.001 929.468 516.299 928.828 523.216L901.613 522.44C901.26 522.167 901.477 522.378 901.175 521.643C905.108 515.761 910.197 510.176 914.593 504.602C921.606 495.709 928.525 486.091 936.337 477.89Z" data-index="29" ></path>
	<path fill="#494156" d="M262.482 319.346C263.065 319.357 263.692 319.345 264.265 319.467C265.785 319.791 266.816 321.037 267.506 322.343C272.984 332.714 266.823 354.177 263.426 364.658C279.315 352.4 290.883 329.866 313.425 329.548C317.006 329.498 323.317 329.915 325.724 332.812C326.612 333.881 327.019 334.99 326.88 336.393C325.831 347.034 289.558 357.182 280.059 362.279C272.847 366.15 265.46 372.464 259.585 378.157L258.961 378.766C278.153 372.193 298.345 367.551 318.14 374.754C327.805 378.271 336.766 384.876 341.067 394.459C343.931 400.84 344.284 407.924 341.64 414.447C339.261 420.377 334.532 425.057 328.577 427.374C321.457 430.136 314.262 429.138 307.493 426.082C303.203 423.72 299.415 420.227 297.586 415.595C296.247 412.207 295.869 407.844 297.538 404.504C298.669 402.24 300.253 400.861 302.683 400.13C304.934 399.453 306.726 399.194 308.827 400.39C312.02 404.176 309.528 409.416 310.553 413.81C310.972 415.608 311.949 416.944 313.613 417.803C316.112 419.094 320.32 418.456 322.821 417.468C326.408 416.052 329.437 412.734 330.934 409.221C332.63 405.24 332.53 400.545 330.871 396.571C328.012 389.722 321.549 385.068 314.878 382.318C296.292 374.654 270.217 380.254 253.032 389.48C241.754 395.534 231.497 403.485 219.6 408.357C214.933 410.269 205.161 413.974 200.355 411.634C199.27 411.106 198.644 410.257 198.247 409.147C198.79 407.727 199.561 407.001 200.931 406.311C205.844 403.837 214.644 403.126 221.407 399.804C226.714 397.198 231.676 393.611 236.002 389.598C248.181 378.303 255.986 362.421 258.204 346.003C258.956 340.44 258.891 334.861 259.133 329.266C259.304 325.319 259.41 322.146 262.482 319.346Z" data-index="30"></path>
	<path fill="#494156" d="M269.187 716.666C273.284 716.29 277.166 716.396 281.224 717.127C293.963 719.42 306.812 726.507 314.169 737.37C323.387 750.98 323.363 767.758 320.372 783.293C326.095 777.205 332.035 771.604 339.78 768.225C344.272 766.264 353.78 763.32 358.436 765.641C359.602 766.222 360.405 767.19 360.672 768.478C360.946 769.794 360.431 771.253 359.752 772.373C356.317 778.038 337.387 782.97 330.752 786.554C319.197 792.797 312.243 803.582 303.713 813.117C298.476 819.015 292.533 824.246 286.019 828.693C283.458 830.418 280.416 832.591 277.366 833.227C275.499 833.617 273.808 833.619 272.195 832.521C271.419 829.531 275.259 827.441 277.357 826.022C292.326 815.901 303.823 802.395 311.007 785.876C314.302 776.63 315.941 767.083 313.918 757.351C311.713 746.905 305.387 737.791 296.373 732.071C288.013 726.761 278.087 725.27 268.46 727.47C261.304 729.105 254.891 732.742 251.008 739.143C247.17 745.472 245.365 754.498 247.284 761.722C248.3 765.548 250.695 768.717 254.168 770.641C257.158 772.299 262.467 774.795 265.835 773.462C270.396 771.656 269.344 762.461 271.377 758.55C272.317 756.741 273.799 755.43 275.761 754.833C277.659 754.271 279.702 754.488 281.439 755.435C283.757 756.693 285.433 759.247 286.106 761.748C287.384 766.499 286.563 772.231 283.903 776.373C280.732 781.312 275.401 784.205 269.737 785.291C261.699 786.832 252.357 784.966 245.731 780.12C239.356 775.458 236.035 768.265 234.888 760.634C233.383 750.613 235.393 739.619 241.592 731.449C248.358 722.532 258.343 718.13 269.187 716.666Z" data-index="31" ></path>
	<path fill="#494156" d="M729.272 149.163C730.581 149.149 731.897 149.142 733.204 149.23C769.31 151.67 779.124 197.589 793.106 223.624C798.429 233.534 805.632 241.89 813.08 250.221C807.667 238.638 801.33 227.321 804.59 214.066C805.268 211.31 806.307 207.92 808.974 206.466C811.096 205.31 813.895 205.749 816.059 206.563C825.238 210.014 820.499 233.829 821.396 242.511C822.088 249.203 824.106 254.523 826.879 260.603C829.649 265.914 841.38 278.673 840.871 283.136C840.774 283.98 840.475 284.013 839.887 284.526C835.779 285.098 833.108 281.169 830.6 278.471C819.128 266.134 805.987 255.366 795.808 241.854C781.211 222.479 773.707 191.782 753.516 177.856C748.156 174.16 741.661 171.286 735.247 170.089C729.48 169.012 722.74 169.236 717.628 166.05C715.714 164.857 715.069 163.376 714.68 161.219C714.278 158.989 714.809 156.802 716.197 155.01C719.335 150.958 724.472 149.776 729.272 149.163Z" data-index="32"></path>
	<path fill="#494156" d="M641.849 452.713C644.442 452.543 647.163 452.678 649.742 453.006C652.522 453.358 655.987 454.324 657.685 456.752C659.229 458.961 659.108 462.343 658.894 464.891C658.26 472.436 655.882 480.185 654.091 487.544C651.708 497.202 649.474 506.896 647.389 516.622C646.019 522.849 639.912 544.727 643.428 549.214C647.552 554.478 653.081 546.804 657.558 547.219C658.076 548.297 658.171 548.707 658.051 549.943C657.518 555.436 653.203 559.536 649.169 562.849C647.26 563.937 645.195 564.909 643.083 565.522C637.938 567.015 632.177 566.903 627.418 564.252C623.315 561.968 620.742 558.038 619.956 553.442C618.034 542.205 629.098 500.498 632.303 486.1C633.431 481.033 635.37 475.293 635.506 470.137C635.694 463.031 631.001 461.208 630.258 457.068C630.137 456.394 630.782 455.686 631.193 455.231C633.246 452.964 638.975 452.949 641.849 452.713Z" data-index="33" ></path>
	<path fill="#494156" d="M911.112 243.204C920.36 243.099 929.468 245.211 937.443 249.997C946.248 255.282 953.289 264.351 955.768 274.363C958.386 285.314 956.616 296.854 950.836 306.517C946.68 313.341 940.318 318.991 932.345 320.741C925.917 322.153 919.551 320.838 914.028 317.345C908.445 313.814 903.428 307.748 902.234 301.173C901.56 297.46 902.097 293.783 904.454 290.74C905.897 288.879 908.012 287.509 910.396 287.321C913.324 287.091 916.54 288.756 918.625 290.708C919.955 291.953 921.279 293.89 921.104 295.809C920.834 298.774 918.854 298.91 917.318 300.848C916.41 301.993 916.652 303.443 916.858 304.79C917.153 306.72 918.395 308.156 920.012 309.153C922.801 310.873 926.397 311.267 929.521 310.358C935.687 308.565 939.765 302.71 942.589 297.312C944.601 291.699 945.381 285.973 944.517 280.041C943.351 272.034 939.103 265.118 932.575 260.359C924.547 254.505 914.12 252.601 904.412 254.187C886.333 257.14 873.866 270.223 867.227 286.691C865.193 291.735 863.427 298.725 860.078 302.956C859.315 303.92 858.939 304.363 857.672 304.483C857.275 304.053 857.218 304.049 856.942 303.425C855.611 300.425 856.95 292.917 858.034 289.838C861.666 279.523 864.905 270.578 872.264 262.161C882.508 250.445 895.681 244.222 911.112 243.204Z" data-index="34" ></path>
	<path fill="#494156" d="M159.154 151.197C160.254 151.552 161.603 152.151 162.244 153.201C164.379 156.694 164.112 165.804 164.989 170.236C165.701 173.78 166.931 177.199 168.639 180.384C175.806 193.894 181.344 194.218 194.637 198.437C196.693 199.089 198.489 199.613 199.509 201.617C195.761 205.668 182.519 205.564 174.455 214.941C169.497 220.707 166.156 227.294 164.572 234.74C163.526 239.658 164.068 247.551 160.971 251.46C160.153 251.404 159.318 251.224 158.506 251.098C157.659 250.41 157.23 250.19 156.914 249.107C156.16 246.527 156.18 243.247 155.831 240.535C154.887 233.201 152.46 226.511 148.978 220.013C144.281 211.246 137.014 207.66 127.924 204.863C125.414 204.091 122.077 203.219 120.796 200.795C120.974 200.426 121.053 199.989 121.331 199.687C123.027 197.847 137.454 197.52 145.529 188.44C157.663 174.794 153.636 158.53 159.154 151.197Z" data-index="35"></path>
	<path fill="#494156" d="M801.134 296.595C803.116 296.494 805.123 296.73 806.894 297.691C808.376 298.495 809.894 299.87 810.203 301.603C810.868 305.334 805.34 308.612 803.227 311.268C793.831 323.078 800.518 334.575 801.772 347.394C801.206 348.826 801.074 348.796 799.723 349.578C796.098 348.527 791.338 338.84 788.305 335.578C781.486 328.241 771.044 323.723 761.068 323.522C752.947 323.359 744.598 325.92 738.775 331.789C734.367 336.231 732.215 342.365 732.437 348.58C732.642 354.277 734.894 360.023 739.155 363.912C741.072 365.661 743.472 366.94 746.134 366.683C753.75 365.95 753.216 357.164 757.315 352.61C757.428 352.484 757.545 352.362 757.66 352.237C759.414 351.621 761.147 351.148 763.011 351.58C764.934 352.027 766.568 353.154 767.598 354.844C769.578 358.093 769.021 362.712 768.04 366.19C766.701 370.934 763.775 374.796 759.341 377.026C753.471 379.978 745.782 379.926 739.669 377.765C733.111 375.428 727.813 370.48 725.034 364.097C721.308 355.715 721.803 345.748 725.237 337.364C728.831 328.587 735.377 321.188 744.229 317.559C756.117 312.686 769.084 314.355 780.66 319.205C781.786 314.428 782.794 309.927 785.654 305.821C789.407 300.436 794.832 297.743 801.134 296.595Z" data-index="36" ></path>
	<path fill="#494156" d="M944.752 361.497C945.809 361.42 946.995 361.27 948.031 361.593C949.612 362.087 950.898 362.971 951.66 364.476C955.927 372.912 943.814 389.333 939.961 396.555C937.603 400.978 935.7 405.629 934.282 410.437C932.018 418.096 932.485 431.703 930.068 437.204C929.561 438.356 929.212 438.718 928.045 439.116C924.744 437.646 922.547 429.531 920.512 426.371C917.322 421.416 910.857 419.87 905.474 418.611C902.556 417.833 899.699 416.592 897.666 414.294C895.896 412.293 894.885 409.728 895.131 407.043C895.335 404.817 896.41 402.719 898.233 401.396C900.479 399.767 903.43 399.573 906.083 400.056C915.201 401.714 921.135 411.434 925.904 418.52C927.838 405.147 926.56 391.58 930.908 378.537C933.415 371.016 937.523 365.103 944.752 361.497Z" data-index="37"></path>
	<path fill="#494156" d="M859.745 165.777L861.477 166.106C866.169 169.675 865.022 177.442 869.299 181.647C873.652 185.927 883.823 186.661 886.411 190.882C886.148 192.917 884.086 194.129 882.45 195.07C879.252 196.911 875.273 197.642 872.222 199.627C865.877 203.755 866.543 213.67 862.269 219.459C861.076 219.314 861.512 219.44 860.429 219.034C855.986 217.364 856.541 206.73 853.266 203.102C849.183 198.58 837.942 196.398 835.955 192.006C836.052 191.562 836.033 191.076 836.245 190.674C838.61 186.18 848.067 186.23 851.718 182.736C856.481 178.178 856.434 171.181 859.745 165.777Z" data-index="38"></path>
	<path fill="#494156" d="M260.508 268.226C265.981 268.289 271.14 268.772 276.482 270.021C283.095 271.568 291.441 274.069 295.043 280.34C296.269 282.475 297.263 286.318 296.278 288.706C295.457 290.697 293.081 292.014 291.108 292.561C284.732 294.33 276.422 288.142 271.175 284.92C261.849 279.861 250.875 278.227 240.374 279.151C236.376 279.503 232.166 280.458 228.172 279.926C227.198 279.11 227.104 279.145 226.887 277.91C227.169 277.403 227.19 277.295 227.673 276.833C233.462 271.301 252.542 268.615 260.508 268.226Z" data-index="39"></path>
	<path fill="#494156" d="M378.7 329.138C384.377 330.476 382.917 339.015 386.351 342.801C390.331 347.19 397.873 346.953 401.343 351.389C401.402 355.889 391.706 356.888 388.686 359.401C383.784 363.479 383.922 370.869 380.721 376.03C379.01 375.574 378.325 375.014 377.529 373.44C375.754 369.932 375.479 365.397 373.414 362.097C370.209 356.974 362.204 357.152 358.147 353.012C357.066 348.648 368.372 346.983 371.119 344.948C375.639 341.6 376.373 334.016 378.7 329.138Z" data-index="40"></path>
	<path fill="#494156" d="M656.57 421.609C659.235 421.426 662.35 422.08 664.551 423.642C666.236 424.838 667.299 426.62 667.635 428.653C668.092 431.418 667.224 434.299 665.561 436.52C662.773 440.242 659.034 441.619 654.593 442.353C652.071 442.456 649.421 442.312 647.125 441.154C645.129 440.147 643.671 438.52 643.103 436.338C642.387 433.583 643.142 430.529 644.691 428.19C647.558 423.861 651.73 422.47 656.57 421.609Z" data-index="41"></path>
	<path fill="#494156" d="M518.739 401.608C524.932 401.029 531.571 402.438 536.903 405.669C538.861 406.855 540.574 407.914 541.11 410.222C539.118 412.843 532.485 412.361 529.231 413.039L528.67 413.161C524.468 414.136 517.043 418.714 512.871 417.166C511.672 416.721 511.118 415.915 510.688 414.767C509.788 412.366 511.244 408.52 512.328 406.407C513.886 403.373 515.565 402.592 518.739 401.608Z" data-index="42"></path>
</svg>