<svg xmlns="http://www.w3.org/2000/svg" xmlns:xlink="http://www.w3.org/1999/xlink" width="1024" height="1024">
<style>
    path {
        opacity: 0; /* Start all paths as invisible */
        transform-origin: 50% 50%; /* Default transform origin */
    }

    /* --- Keyframes for Appearance Animations --- */

    /* 'Draws' the path by animating stroke-dashoffset */
    @keyframes drawIn {
        from {
            stroke-dashoffset: 1000; /* Start with the path 'undrawn' - assuming 1000 is long enough */
            opacity: 0; /* Ensure it's invisible while 'undrawn' if no stroke initially */
        }
        to {
            stroke-dashoffset: 0;   /* 'Draw' the path */
            opacity: 1;
        }
    }

    /* Fades in and slides up slightly */
    @keyframes fadeInSlideUp {
        from {
            opacity: 0;
            transform: translateY(20px) scale(0.95); /* Start slightly down and smaller */
        }
        to {
            opacity: 1;
            transform: translateY(0px) scale(1);
        }
    }

    /* --- Keyframes for Continuous Animations --- */

    /* Gentle floating motion */
    @keyframes gentleFloat {
        0%, 100% {
            transform: translateY(0px) rotate(0deg);
        }
        50% {
            transform: translateY(-4px) rotate(0.5deg); /* Subtle upward float and slight tilt */
        }
    }

    /* More pronounced 'wing beat' - can be adjusted for specific wing pivot points if needed */
    @keyframes wingBeat {
        0%, 100% {
            transform: translateY(0px) rotate(0deg) scaleY(1);
        }
        50% {
            /* transform-origin for wings could be set closer to their 'joint' for more realism */
            transform: translateY(-6px) rotate(-2deg) scaleY(1.03); /* Upward lift, slight flap, subtle stretch */
        }
    }

    /* Subtle pulsing effect for core body parts */
    @keyframes subtlePulse {
        0%, 100% {
            transform: scale(1);
        }
        50% {
            transform: scale(1.015); /* Very subtle pulse, adjust as desired */
        }
    }

    /* --- Assigning Animations with Staggering --- */

    /* Setup for paths that will use the drawIn animation.
       The stroke color should ideally match their fill if they are 'filled outlines'.
       The stroke-width determines how thick the "drawing line" is.
    */
    path[data-index="1"], path[data-index="3"], path[data-index="6"],
    path[data-index="8"], path[data-index="10"], path[data-index="11"],
    path[data-index="12"], path[data-index="14"], path[data-index="15"],
    path[data-index="16"] {
        stroke-dasharray: 1000; /* Adjust if any path is much longer */
        stroke-dashoffset: 1000; /* Start 'undrawn' */
        stroke: #111110;         /* Match the fill color of these dark paths for a 'filled draw' effect */
        stroke-width: 2px;       /* Thickness of the drawing line */
        /* The original 'fill' attribute on these paths will still apply. */
    }


    /*
       Animation Durations:
       - drawIn: 0.9s
       - fadeInSlideUp: 0.7s
       - gentleFloat: 7s
       - wingBeat: 5s
       - subtlePulse: 6s
       Stagger Increment: 0.06s
    */

    /* Path 1 (dark): Main outline */
    path[data-index="1"]  { animation: drawIn 0.9s ease-out 0.00s forwards, gentleFloat 7s ease-in-out 0.90s infinite; }
    /* Path 2 (light): Large fill */
    path[data-index="2"]  { animation: fadeInSlideUp 0.7s ease-out 0.06s forwards, subtlePulse 6s ease-in-out 0.76s infinite; }
    /* Path 3 (dark): Eye detail */
    path[data-index="3"]  { animation: drawIn 0.9s ease-out 0.12s forwards, gentleFloat 7s ease-in-out 1.02s infinite; }
    /* Path 4 (light): Body fill */
    path[data-index="4"]  { animation: fadeInSlideUp 0.7s ease-out 0.18s forwards, subtlePulse 6s ease-in-out 0.88s infinite; }
    /* Path 5 (light): Beak fill */
    path[data-index="5"]  { animation: fadeInSlideUp 0.7s ease-out 0.24s forwards, gentleFloat 7s ease-in-out 0.94s infinite; }
    /* Path 6 (dark): Wing outline/shape */
    path[data-index="6"]  { animation: drawIn 0.9s ease-out 0.30s forwards, wingBeat 5s ease-in-out 1.20s infinite; transform-origin: 60% 30%; /* Custom origin for better wing flap */ }
    /* Path 7 (light): Wing fill */
    path[data-index="7"]  { animation: fadeInSlideUp 0.7s ease-out 0.36s forwards, wingBeat 5s ease-in-out 1.06s infinite; transform-origin: 60% 30%; /* Custom origin for better wing flap */}
    /* Path 8 (dark): Tail details */
    path[data-index="8"]  { animation: drawIn 0.9s ease-out 0.42s forwards, gentleFloat 7s ease-in-out 1.32s infinite; }
    /* Path 9 (light): Tail fill */
    path[data-index="9"]  { animation: fadeInSlideUp 0.7s ease-out 0.48s forwards, gentleFloat 7s ease-in-out 1.18s infinite; }
    /* Path 10 (dark): Talon */
    path[data-index="10"] { animation: drawIn 0.9s ease-out 0.54s forwards, gentleFloat 7s ease-in-out 1.44s infinite; }
    /* Path 11 (dark): Talon */
    path[data-index="11"] { animation: drawIn 0.9s ease-out 0.60s forwards, gentleFloat 7s ease-in-out 1.50s infinite; }
    /* Path 12 (dark): Chest detail */
    path[data-index="12"] { animation: drawIn 0.9s ease-out 0.66s forwards, subtlePulse 6s ease-in-out 1.56s infinite; }
    /* Path 13 (light): Chest fill */
    path[data-index="13"] { animation: fadeInSlideUp 0.7s ease-out 0.72s forwards, subtlePulse 6s ease-in-out 1.42s infinite; }
    /* Path 14 (dark): Head detail */
    path[data-index="14"] { animation: drawIn 0.9s ease-out 0.78s forwards, gentleFloat 7s ease-in-out 1.68s infinite; }
    /* Path 15 (dark): Other talon */
    path[data-index="15"] { animation: drawIn 0.9s ease-out 0.84s forwards, gentleFloat 7s ease-in-out 1.74s infinite; }
    /* Path 16 (dark): Head crest detail */
    path[data-index="16"] { animation: drawIn 0.9s ease-out 0.90s forwards, gentleFloat 7s ease-in-out 1.80s infinite; }

</style>
	
	<path fill="#111110" d="M312.418 408.593C313.528 408.412 314.297 408.241 315.382 408.598C315.67 409.623 315.66 409.775 315.24 410.726C314.193 413.099 312.126 415.362 310.704 417.557C307.316 422.786 305.302 428.717 303.805 434.723C291.749 483.085 284.113 532.739 271.251 580.976C278.419 583.893 286.067 585.844 293.471 588.077C304.763 591.482 316.154 595.061 327.188 599.229C357.1 610.528 385.882 625.067 415.06 638.108C457.941 611.183 500.077 578.129 552.872 576.279C566.414 575.805 584.72 577.007 595.069 587.095C596.369 588.363 597.315 589.644 597.381 591.524C596.583 591.79 596.293 591.741 595.49 591.541C592.907 590.896 590.395 589.524 587.872 588.636C584.664 587.506 581.038 586.816 577.693 586.21C543.036 579.938 503.58 596.005 473.823 612.95C465.238 617.838 457.012 623.422 448.695 628.75C441.097 633.617 433.389 638.258 425.94 643.359C446.366 651.374 466.485 660.436 486.68 669.035C495.867 662.432 504.559 654.96 513.566 648.09C527.529 637.409 542.02 627.437 556.986 618.213C582.212 602.603 612.819 586.858 641.033 577.669C649.921 574.774 659.226 572.739 668.292 570.463C681.121 567.243 694.284 564.205 707.44 562.715C724.01 560.839 741.168 560.686 757.821 561.195C772.881 561.655 788.91 562.043 803.605 565.588C827.442 571.339 854.619 586.582 867.669 608.022C878.292 625.474 880.079 647.563 875.302 667.136C868.758 693.956 849.08 715.802 825.852 729.844C770.443 763.339 690.897 758.459 630.396 743.492C581.949 732.05 534.465 714.819 488.713 695.297C455.349 721.522 396.357 771.119 353.333 771.406C340.706 771.49 326.422 767.846 317.256 758.681C312.102 753.529 308.919 746.732 309.084 739.356C309.218 733.359 311.608 728.006 316.089 724C320.282 720.253 326.175 717.731 331.858 718.241C333.519 718.39 334.599 718.788 335.67 720.132C334.457 722.391 333.04 724.457 332.67 727.053C332.188 730.438 333.451 733.547 335.561 736.152C340.031 741.671 346.908 744.378 353.794 745.198C380.586 748.386 415.781 721.566 436.757 706.173C446.258 699.311 455.633 692.275 464.876 685.07C444.056 675.602 422.99 666.827 402.263 657.116C393.052 662.985 383.78 668.829 374.221 674.12C324.838 701.46 270.129 719.782 213.163 717.787C197.99 717.256 183.041 715.615 168.413 711.347C143.935 704.206 119.598 689.781 107.214 666.737C98.7397 650.968 96.1911 631.446 101.525 614.232C107.065 596.35 122.156 579.888 138.661 571.403C170.859 554.854 212.755 560.786 245.869 571.533C250.206 552.925 255.529 534.446 260.812 516.086C254.964 524.556 242.457 539.633 232.828 543.69C227.429 546.026 221.311 546.06 215.886 543.784C208.607 540.711 203.649 533.944 200.901 526.75C192.795 505.528 199.122 475.838 208.149 455.87C217.229 435.783 234.808 418.904 255.606 411.262C261.708 409.02 268.747 408.434 274.725 411.4C280.276 414.154 283.104 419.202 285.023 424.835C292.568 416.023 301.327 411.573 312.418 408.593Z" data-index="1" style="opacity: 1;"></path>
	<path fill="#F2F0E5" d="M743.074 577.218C757.914 576.42 776.082 578.352 790.611 581.732C810.118 586.269 828.827 598.204 839.415 615.475C848.341 630.035 849.424 648.513 845.366 664.831C840.154 685.794 824.321 701.018 806.344 711.808C751.444 744.758 688.84 735.455 629.87 720.689C589.076 709.343 549.315 696.092 510.604 678.83C560.237 642.546 606.082 613.32 664.621 592.986C676.601 588.824 688.503 584.576 700.947 581.997C714.67 579.153 729.08 577.81 743.074 577.218Z" data-index="2" style="opacity: 1; visibility: visible;"></path>
	<path fill="#111110" d="M714.848 613.716C715.003 613.697 715.158 613.672 715.314 613.66C731.398 612.359 749.211 617.009 761.67 627.455C769.704 634.19 774.826 642.748 775.742 653.294C776.681 664.109 773.519 675.898 766.458 684.258C758.695 693.447 748.403 696.338 736.844 697.228C741.998 692.715 747.641 689.793 751.207 683.672C755.623 676.092 756.933 665.928 754.606 657.467C751.931 647.743 744.866 642.17 736.525 637.4C732.106 635.129 727.396 633.477 722.526 632.491C708.499 629.753 692.864 631.656 680.916 639.814C674.623 644.11 670.069 649.898 668.735 657.59C665.662 675.315 676.709 671.764 680.161 676.617C680.007 676.897 679.883 677.198 679.698 677.459C678.728 678.826 676.26 679.957 674.642 680.223C671.678 680.711 668.726 679.172 666.483 677.378C661.264 673.204 658.644 666.661 658.11 660.132C657.37 650.919 660.38 641.797 666.458 634.834C678.317 621.199 697.353 615.02 714.848 613.716Z" data-index="3" style="opacity: 1;"></path>
	<path fill="#F2F0E5" d="M189.27 576.712C207.283 575.511 224.846 578.561 242.046 583.656C237.602 594.617 233.654 606.216 226.247 615.597C217.81 626.282 204.947 636.004 191.02 637.484C185.169 638.106 178.449 636.994 174.3 632.471C172.494 630.502 171.034 628.068 168.954 626.388C168.183 626.685 168.227 626.491 167.912 627.211C166.902 629.525 167.52 633.744 168.436 636.013C170.979 642.308 176.286 646.988 182.499 649.489C194.364 654.265 208.384 651.963 219.84 647.111C241.051 638.126 257.755 615.53 266.285 594.712C301.774 607.965 335.752 624.266 369.841 640.697C377.173 644.115 384.434 647.681 391.622 651.393C383.224 658.289 372.985 663.556 363.222 668.271C328.283 685.147 289.345 697.063 250.656 700.787C217.483 703.981 177.829 701.422 151.226 679.164C140.348 670.062 130.442 653.363 129.245 639.07C127.964 623.766 134.168 608.488 144.063 596.998C156.057 583.072 171.377 578.038 189.27 576.712Z" data-index="4" style="opacity: 1; visibility: visible;"></path>
	<path fill="#F2F0E5" d="M265.926 427.591C268.597 427.367 271.251 427.322 273.672 428.653C275.32 429.567 276.484 431.158 276.857 433.005C277.855 438.184 275.242 445.607 274.053 450.744C269.334 471.128 264.588 492.973 253.434 510.981C249.811 516.829 245.933 520.368 239.105 522.004C236.913 522.08 234.299 522.131 232.314 521.081C229.908 519.807 228.713 516.962 228.088 514.454C223.596 496.409 233.853 461.339 243.56 445.848C249.026 437.126 255.574 430.009 265.926 427.591Z" data-index="5"></path>
	<path fill="#111110" d="M685.771 230.205C688.613 229.836 691.74 229.892 694.607 229.931C714.91 230.211 737.076 237.34 751.452 252.19C762.588 263.694 766.819 279.619 766.516 295.333C766.201 311.689 758.196 328.678 746.375 339.858C740.882 345.052 734.489 348.958 727.694 352.213C700.946 365.026 673.604 358.593 645.55 355.359C637.648 354.448 629.72 354.196 621.775 353.946C621.295 356.336 621.057 359.396 619.157 361.097L618.132 360.916C616.308 359.048 615.483 356.48 614.474 354.108C604.585 354.561 594.671 355.05 584.905 356.751C578.719 378.018 574.238 399.726 568.566 421.141C562.742 443.127 555.966 464.839 550.858 487.011C548.527 497.131 545.803 508.032 545.914 518.449C545.937 520.581 546.184 522.981 547.75 524.482C552.229 525.422 554.842 520.202 558.969 520.099L559.484 520.724C559.567 522.735 558.848 524.701 558.074 526.535C555 533.818 546.585 541.358 539.25 544.164C533.942 546.195 527.959 546.329 522.782 543.831C517.877 541.464 514.937 536.591 514.577 531.216C514.038 523.178 518.133 512.305 520.047 504.264C527.641 472.357 536.525 440.965 545.297 409.365C548.626 397.373 552.578 385.446 555.468 373.349C555.968 371.255 556.741 368.604 556.014 366.554C548.857 366.071 516.645 380.744 507.628 384.334C501.579 386.687 495.489 388.935 489.361 391.076C481.948 393.443 474.507 395.747 466.929 397.532C441.159 403.604 410.399 406.132 386.895 391.416C376.217 384.83 368.607 374.257 365.752 362.04C363.196 351.099 365.126 339.591 371.111 330.083C379.11 317.563 391.719 308.698 406.207 305.408C417.605 302.901 430.04 303.653 440.018 310.117C447.05 314.672 453.126 321.609 454.72 330.017C455.969 336.598 455.034 343.976 451.14 349.562C448.42 353.463 444.408 356.127 439.665 356.784C435.997 357.293 431.39 356.625 428.418 354.258C427.371 353.424 426.93 352.593 426.753 351.267C427.539 348.151 429.893 347.894 432.291 346.358C434.798 344.752 436.239 341.858 436.764 338.995C437.596 334.456 435.904 329.11 433.174 325.477C430.56 321.963 426.605 319.69 422.252 319.2C415.808 318.516 408.598 322.252 403.731 326.284C396.898 331.945 392.534 341.22 391.787 350.006C390.99 359.372 394.331 368.98 400.459 376.05C409.187 386.12 420.791 389.569 433.745 390.388C469.848 392.671 502.985 378.833 534.923 363.648C543.512 359.564 554.173 355.405 561.35 349.1C564.052 341.096 565.409 332.631 567.711 324.502C572.534 307.477 582.052 291.444 593.418 277.947C616.722 250.503 649.904 233.349 685.771 230.205Z" data-index="6" style="opacity: 1; visibility: visible;"></path>
	<path fill="#F2F0E5" d="M677.103 253.207C681.766 252.603 687.066 252.713 691.748 252.99C706.878 253.884 721.912 259.542 732.051 271.145C738.83 278.902 742.178 288.329 741.444 298.633C740.591 310.617 733.428 322.793 724.385 330.492C704.853 347.121 676.799 344.496 653.058 342.37L623.8 339.796C625.189 335.042 626.818 330.678 629.537 326.507C635.734 316.999 645.402 310.998 656.378 308.625C660.867 308.188 664.85 308.069 669.325 308.651C671.531 308.937 675.412 310.241 677.438 309.678L677.207 308.652C674.413 305.202 670.838 302.66 666.594 301.293C657.76 298.447 646.41 300.616 638.422 304.976C623.747 312.986 619.095 325.129 614.553 340.312C606.09 341.404 597.616 341.939 589.106 342.519C593.933 322.044 602.214 301.482 616.091 285.423C631.413 267.693 653.633 254.9 677.103 253.207Z" data-index="7" style="visibility: visible; opacity: 1;"></path>
	<path fill="#111110" d="M929.33 308.188C930.409 308.107 931.609 308.103 932.676 308.275C934.326 308.542 936.345 309.498 937.124 311.055C938.635 314.079 934.649 317.284 932.798 319.356C929.712 322.809 926.897 326.225 925.536 330.762C923.851 336.379 923.319 342.907 922.374 348.708C920.531 360.185 918.591 371.646 916.555 383.09C912.056 408.183 905.882 432.728 899.346 457.353C903.778 457.554 908.352 457.938 912.776 457.675C922.616 457.09 927.806 451.743 933.974 444.905C936.341 446.679 938.473 448.474 940.553 450.578C939.604 457.269 937.822 464.553 932.857 469.456C924.377 477.829 907.31 475.519 896.242 475.461C894.366 485.217 886.595 518.093 890.618 526.183C893.035 531.043 898.426 533.962 900.548 538.57C900.292 539.487 900.33 539.744 899.622 540.452C895.107 544.969 864.483 543.58 856.75 543.552C850.003 543.543 842.325 544.255 835.709 543.164C835.416 542.316 835.23 541.712 835.411 540.796C836.3 536.289 844.375 533.866 847.885 531.399C849.983 529.925 852.07 528.135 853.363 525.886C859.814 514.672 864.363 487.016 866.83 474.003C849.422 474.121 832.013 474.091 814.606 473.913C815.912 464.124 816.004 451.712 819.155 442.51C823.524 429.75 833.408 416.322 840.712 405.006C856.203 381.009 871.722 357.227 889.602 334.906C900.484 321.321 911.153 310.196 929.33 308.188Z" data-index="8" style="opacity: 1;"></path>
	<path fill="#F2F0E5" d="M889.303 363.863C890.556 371.85 878.93 415.962 876.509 426.896C874.441 436.422 872.532 445.981 870.782 455.57C857.954 455.964 845.122 455.904 832.29 455.989C832.113 453.92 834.087 450.614 834.982 448.659C843.145 430.828 854.324 414.135 865.196 397.868C872.9 386.341 880.597 374.664 889.303 363.863Z" data-index="9" style="opacity: 1;"></path>
	<path fill="#111110" d="M691.665 409.584C695.48 409.374 699.282 409.419 702.926 410.748C721.175 417.403 712.228 444.668 708.342 457.81C706.642 463.513 705.004 469.234 703.427 474.972C700.255 486.496 697.672 497.953 695.83 509.761C695.208 513.745 693.63 520.898 695.649 524.588C695.997 525.226 696.028 525.043 696.846 525.344C699.916 524.395 701.62 520.945 704.627 520C705.901 519.6 706.377 519.943 707.431 520.537C707.954 522.181 707.375 524.409 706.671 526.002C703.455 533.279 694.741 541.279 687.323 544.104C682.508 545.937 676.077 546.578 671.29 544.315C667.294 542.426 663.568 537.499 662.972 533.104C662.062 526.396 664.945 518.34 666.597 511.898C670.093 498.264 687.73 444.586 683.312 433.331C682.715 431.81 681.713 430.777 680.142 430.233C677.732 429.399 674.114 430.755 672.029 431.912C665.181 435.715 659.264 443.158 657.241 450.65C655.283 457.9 653.823 465.313 651.973 472.601C648.261 487.229 639.499 514.617 640.458 528.416C640.725 532.244 642.896 535.783 644.749 539.041L640.906 543.356C631.576 542.836 622.089 543.2 612.749 543.435C609.847 543.508 605.78 544.197 602.96 543.745C601.651 543.535 601.465 542.706 600.827 541.672C599.654 541.388 598.821 541.878 597.71 542.323C590.471 545.226 565.242 543.379 556.616 542.691L555.006 542.053L554.723 541.294C556.089 539.655 557.568 538.158 559.017 536.597C561.883 533.511 563.866 530.09 565.283 526.142C567.03 521.278 567.951 515.987 569.112 510.95C571.283 501.819 573.297 492.651 575.153 483.451C577.974 469.757 581.414 455.924 583.416 442.099C584.12 437.24 584.539 432.457 584.355 427.547C582.939 425.02 580.945 422.977 579.616 420.356C579.778 419.858 579.756 419.807 580.129 419.323C583.117 415.445 603.902 411.612 608.937 411.515C611.263 411.47 614.11 411.708 615.844 413.451C617.391 415.006 617.025 417.641 616.853 419.645C616.217 427.04 613.812 434.825 612.196 442.073C607.722 462.144 602.278 482.079 598.07 502.185C595.995 512.1 593.81 522.683 594.008 532.838C595.554 535.619 597.514 537.457 599.923 539.458C604.023 536.781 608.146 533.678 610.405 529.195C616.852 516.403 621.09 488.189 624.567 473.202C627.403 460.976 631.309 448.79 633.313 436.405C633.79 433.457 634.619 429.494 633.341 426.675C632.253 424.272 629.998 423.689 627.739 422.729C628.817 420.335 629.921 418.216 631.407 416.038C640.318 413.32 652.426 410.541 661.717 411.092C663.359 411.189 664.388 411.326 665.468 412.596C666.114 418.362 662.932 425.662 661.254 431.126C671.467 422.399 677.828 412.803 691.665 409.584Z" data-index="10" style="opacity: 1;"></path>
	<path fill="#111110" d="M790.948 322.132C793.313 321.78 796.544 321.746 798.703 322.887C799.266 324.146 799.336 324.572 798.577 325.859C796.779 328.906 793.483 331.248 791.012 333.744C786.917 337.879 783.534 345.529 781.637 350.993C777.283 363.531 775.426 376.57 772.291 389.415C768.984 402.968 764.652 416.188 761.659 429.837C765.703 425.106 769.778 420.102 774.517 416.046C779.853 411.48 787.018 408.528 794.129 409.284C799.061 409.809 803.118 412.361 806.061 416.309C810.188 421.847 812.08 429.368 811.996 436.205C811.871 446.367 808.16 456.839 805.637 466.61C801.089 484.224 795.962 502.174 793.748 520.264C793.301 523.915 792.554 528.023 794.976 531.098C796.011 531.594 796.415 531.809 797.601 531.679C801.948 531.203 804.672 524.554 807.337 521.615C808.229 520.631 808.817 520.427 810.098 520.35C810.517 520.657 810.978 520.962 811.314 521.368C812.269 522.525 812.327 524.294 812.038 525.699C810.695 532.212 804.094 537.789 798.628 541.119C791.979 545.169 784.322 546.23 776.798 544.366C771.54 543.064 766.722 540.184 763.96 535.404C762.087 532.162 761.385 528.47 761.715 524.759C762.362 517.474 765.519 509.773 767.427 502.686C770.642 490.742 773.522 478.717 776.636 466.745C778.351 460.31 785.235 439.536 782.306 434.653C781.259 432.908 779.174 431.678 777.24 431.212C774.451 430.54 771.958 431.414 769.612 432.955C764.013 436.632 759.95 443.584 757.475 449.662C754.099 457.954 752.799 467.383 751.001 476.119C747.631 492.493 743.085 510.021 743.485 526.83C743.543 529.255 743.758 531.697 744.515 534.017C745.426 536.812 748.441 539.475 747.777 542.503C747.018 543.067 746.989 543.01 746.086 543.137C738.037 544.271 729.025 543.528 720.85 543.529C716.585 543.53 712.199 543.966 707.95 543.546C706.277 543.381 705.061 543.049 703.716 542.045C702.564 539.424 704.351 537.132 705.964 535.044C707.636 532.877 709.675 530.768 711.08 528.425C714.515 522.702 715.82 514.984 717.278 508.538C718.764 501.963 720.559 495.462 721.813 488.836C724.3 475.692 726.125 462.432 729.061 449.372C731.822 437.522 734.817 425.729 738.044 413.998C742.03 399.129 750.072 376.268 748.483 361.161L748.402 360.451C747.162 358.52 745.623 356.738 744.205 354.933C745.034 353.192 745.977 351.507 747.027 349.888C756.392 335.483 774.529 325.631 790.948 322.132Z" data-index="11" style="opacity: 1;"></path>
	<path fill="#111110" d="M359.065 411.184C363.894 410.41 369.465 410.699 374.257 411.606C383.498 413.356 391.792 418.192 397.065 426.087C399.932 430.38 402.008 435.292 402.28 440.499C402.981 453.912 389.541 485.029 386.55 500.977C385.446 506.865 382.194 521.13 385.62 526.105C390.949 528.504 391.613 521.125 395.982 520.227C397.318 519.952 397.54 519.907 398.595 520.635C398.757 521.302 398.81 521.374 398.811 522.15C398.817 526.686 392.77 533.221 389.723 536.378C384.266 542.031 376.986 546.214 368.934 546.151C364.913 546.12 361.099 544.856 358.321 541.858C353.444 536.597 354.324 529.723 354.681 523.174C346.541 531.411 337.521 540.737 325.984 543.874C319.984 545.505 312.247 545.122 306.776 541.87C301.375 538.659 299.128 533.352 297.6 527.553C296.829 521.349 296.345 515.584 297.434 509.373C298.881 501.216 302.36 493.556 307.549 487.098C325.352 464.992 349.055 470.679 369.904 455.767C370.084 455.638 370.262 455.505 370.441 455.374C372.972 449.41 375.896 440.812 375.178 434.25C374.772 430.542 372.636 427.259 369.687 425.047C364.849 421.415 357.324 420.104 351.414 421.12C346.099 422.033 342.739 424.498 339.621 428.767C340.505 429.171 341.388 429.583 342.241 430.051C345.507 431.843 348.137 434.929 349.037 438.58C349.963 442.335 348.908 446.243 346.887 449.457C344.219 453.699 339.761 457.094 334.797 458.067C331.374 458.739 327.825 458.136 324.951 456.114C321.495 453.681 319.393 449.657 318.888 445.512C318.151 439.457 320.388 431.842 324.15 427.02C332.856 415.864 345.803 413.088 359.065 411.184Z" data-index="12"></path>
	<path fill="#F2F0E5" d="M365.33 469.976L365.806 470.519C364.606 479.869 360.7 494.182 357.943 503.343C355.358 511.934 349.532 517.007 341.748 521.135C337.696 523.285 333.644 524.67 329.114 523.276C328.745 522.742 328.39 522.194 328.084 521.621C325.006 515.859 327.89 505.806 329.818 499.937C333.384 489.079 339.669 480.823 350.339 476.219C355.097 474.166 360.085 472.706 364.696 470.31L365.33 469.976Z" data-index="13"></path>
	<path fill="#111110" d="M453.432 435.207C462.664 426.73 470.977 414.961 483.21 410.584C489.338 408.392 495.736 408.674 501.61 411.522C524.564 422.654 509.537 459.912 504.597 478.041C501.483 489.468 498.357 501.67 497.188 513.475C496.765 517.744 496.046 522.782 497.516 526.909C498.533 527.842 498.56 527.685 499.963 527.639C501.622 526.854 502.466 525.718 503.605 524.312C504.507 522.581 505.355 520.655 507.34 519.978C508.149 519.702 508.53 519.975 509.308 520.201C510.093 521.528 510.319 522.376 509.98 523.912C509.282 527.075 506.625 529.915 504.68 532.432C500.803 537.428 494.477 543.128 488.276 544.924C483.537 546.297 478.325 545.421 474.057 543.04C468.733 540.07 466.042 534.038 465.554 528.157C464.857 519.758 467.96 510.32 469.926 502.198C472.402 491.965 486.374 441.976 483.915 434.138C483.35 432.34 482.189 430.899 480.441 430.143C477.703 428.957 474.108 429.55 471.421 430.581C463.948 433.448 455.909 442.745 452.693 449.977C449.416 457.347 448.535 466.324 446.692 474.194C443.663 487.135 439.897 500.213 437.672 513.304C436.936 517.634 436.217 522.274 436.726 526.666C437.612 534.327 441.308 535.193 443.368 540.313C442.814 541.344 442.342 541.751 441.271 542.193C439.682 542.849 437.713 543.011 436.013 543.093C430.381 543.365 424.669 542.823 419.017 542.935C412.975 543.054 406.808 543.799 400.782 543.561C399.3 543.502 398.015 543.203 396.632 542.685C396.411 542.421 396.015 542.233 395.97 541.892C395.791 540.537 401.483 532.992 402.476 531.354C409.975 518.99 424.552 447.644 425.095 431.405C425.278 425.949 424.009 424.256 420.5 420.461C420.626 419.995 420.664 419.74 420.952 419.297C424.964 413.138 441.823 411.15 448.38 410.367C451.415 410.005 454.181 409.754 456.687 411.747C459.444 416.32 454.521 429.754 453.432 435.207Z" data-index="14"></path>
	<path fill="#111110" d="M177.346 409.202C180.303 409.116 183.914 409.622 186.657 410.725C191.094 412.507 194.228 415.888 196.222 420.185C204.107 437.182 194.216 459.101 189.65 475.865C186.324 488.076 183.169 500.346 181.038 512.832C180.451 516.277 178.99 523.233 180.855 526.361C181.65 527.695 182.015 527.759 183.414 528.213C187.508 527.629 188.842 524.254 192.066 522.471C192.965 521.974 193.159 522.091 194.069 522.377C194.731 523.664 194.65 524.811 194.228 526.157C192.375 532.064 183.034 540.332 177.611 543.121C172.833 545.578 167.329 546.266 162.181 544.522C155.365 542.213 151.596 535.119 150.944 528.277C149.251 510.517 174.438 441.975 169.137 432.853C168.443 431.658 167.434 430.83 166.067 430.51C161.663 429.477 156.365 430.772 152.607 433.147C142.728 439.39 138.65 448.116 136.017 459.106C133.043 472.453 129.435 485.662 126.184 498.944C124.541 505.657 122.506 512.678 121.748 519.542C121.418 522.532 121.447 525.569 122.028 528.527C122.727 532.08 126.038 538.59 125.096 541.891C124.871 542.68 124.288 542.973 123.577 543.321C121.855 544.165 82.351 543.276 79.1802 542.077C78.0175 538.857 84.5583 534.259 86.5623 531.917C88.2783 529.917 89.6861 527.673 90.7389 525.258C92.8682 520.464 94.082 514.935 95.4531 509.87C99.4221 495.21 102.414 480.362 105.672 465.534C107.859 455.583 110.937 445.781 112.265 435.655C112.625 432.909 113.209 428.86 111.945 426.316C110.77 423.951 108.184 423.282 105.888 422.407C106.569 420.612 107.467 417.628 108.954 416.341C113.154 412.707 134.713 409.866 140.472 410.818C142.015 411.073 143.277 411.435 144.214 412.777C144.919 417.941 140.657 429.321 139.242 434.862C149.103 424.32 162.153 410.436 177.346 409.202Z" data-index="15"></path>
	<path fill="#111110" d="M607.693 366.13C611.467 365.745 614.989 365.608 618.551 367.121C622.172 368.659 625.055 371.541 626.417 375.251C627.658 378.527 627.512 382.166 626.012 385.332C623.653 390.286 618.962 392.731 613.986 394.349C609.819 395.058 606.018 395.375 602.04 393.513C598.95 392.068 596.388 389.438 595.259 386.194C593.969 382.484 594.537 378.493 596.315 375.043C598.818 370.187 602.715 367.821 607.693 366.13Z" data-index="16"></path>
</svg>