<svg xmlns="http://www.w3.org/2000/svg" xmlns:xlink="http://www.w3.org/1999/xlink" width="1024" height="1024">

<style>
    path {
        /* Set the center point for scaling and rotation */
        transform-origin: 50% 50%;
        /* Start invisible and slightly smaller for the grow effect */
        opacity: 0;
        /* Apply both animations:
           1. growIn: Runs once, takes 0.6s, eases out, stays at final state. Delayed per element.
           2. sway: Starts after growIn finishes, runs infinitely, takes 7s, eases in/out. Delayed per element.
        */
        /* animation: growIn 0.6s ease-out forwards, sway 7s ease-in-out infinite; */ /* Base - delays added individually below */
    }

    /* Keyframes for the appearance animation */
    @keyframes growIn {
        from {
            opacity: 0;
            transform: scale(0.7);
        }
        to {
            opacity: 1;
            transform: scale(1);
        }
    }

    /* Keyframes for the continuous subtle swaying motion */
    @keyframes sway {
        0%, 100% {
            transform: rotate(0deg) translateX(0px) scale(1); /* Ensure scale(1) is maintained */
        }
        25% {
            transform: rotate(-1.5deg) translateX(-3px) scale(1);
        }
        75% {
            transform: rotate(1deg) translateX(2px) scale(1);
        }
    }

    /* --- Staggered Animation Delays --- */
    /* Delay increment for growIn animation */
    /* Delay for sway = growIn delay + growIn duration (0.6s) */

    path[data-index="1"]  { animation: growIn 0.6s ease-out 0.00s forwards, sway 7s ease-in-out 0.60s infinite; }
    path[data-index="2"]  { animation: growIn 0.6s ease-out 0.03s forwards, sway 7s ease-in-out 0.63s infinite; }
    path[data-index="3"]  { animation: growIn 0.6s ease-out 0.06s forwards, sway 7s ease-in-out 0.66s infinite; }
    path[data-index="4"]  { animation: growIn 0.6s ease-out 0.09s forwards, sway 7s ease-in-out 0.69s infinite; }
    path[data-index="5"]  { animation: growIn 0.6s ease-out 0.12s forwards, sway 7s ease-in-out 0.72s infinite; }
    path[data-index="6"]  { animation: growIn 0.6s ease-out 0.15s forwards, sway 7s ease-in-out 0.75s infinite; }
    path[data-index="7"]  { animation: growIn 0.6s ease-out 0.18s forwards, sway 7s ease-in-out 0.78s infinite; }
    path[data-index="8"]  { animation: growIn 0.6s ease-out 0.21s forwards, sway 7s ease-in-out 0.81s infinite; }
    path[data-index="9"]  { animation: growIn 0.6s ease-out 0.24s forwards, sway 7s ease-in-out 0.84s infinite; }
    path[data-index="10"] { animation: growIn 0.6s ease-out 0.27s forwards, sway 7s ease-in-out 0.87s infinite; }
    path[data-index="11"] { animation: growIn 0.6s ease-out 0.30s forwards, sway 7s ease-in-out 0.90s infinite; }
    path[data-index="12"] { animation: growIn 0.6s ease-out 0.33s forwards, sway 7s ease-in-out 0.93s infinite; }
    path[data-index="13"] { animation: growIn 0.6s ease-out 0.36s forwards, sway 7s ease-in-out 0.96s infinite; }
    path[data-index="14"] { animation: growIn 0.6s ease-out 0.39s forwards, sway 7s ease-in-out 0.99s infinite; }
    path[data-index="15"] { animation: growIn 0.6s ease-out 0.42s forwards, sway 7s ease-in-out 1.02s infinite; }
    path[data-index="16"] { animation: growIn 0.6s ease-out 0.45s forwards, sway 7s ease-in-out 1.05s infinite; }
    path[data-index="17"] { animation: growIn 0.6s ease-out 0.48s forwards, sway 7s ease-in-out 1.08s infinite; }
    path[data-index="18"] { animation: growIn 0.6s ease-out 0.51s forwards, sway 7s ease-in-out 1.11s infinite; }
    path[data-index="19"] { animation: growIn 0.6s ease-out 0.54s forwards, sway 7s ease-in-out 1.14s infinite; }
    path[data-index="20"] { animation: growIn 0.6s ease-out 0.57s forwards, sway 7s ease-in-out 1.17s infinite; }
    path[data-index="21"] { animation: growIn 0.6s ease-out 0.60s forwards, sway 7s ease-in-out 1.20s infinite; }
    path[data-index="22"] { animation: growIn 0.6s ease-out 0.63s forwards, sway 7s ease-in-out 1.23s infinite; }
    path[data-index="23"] { animation: growIn 0.6s ease-out 0.66s forwards, sway 7s ease-in-out 1.26s infinite; }
    path[data-index="24"] { animation: growIn 0.6s ease-out 0.69s forwards, sway 7s ease-in-out 1.29s infinite; }
    path[data-index="25"] { animation: growIn 0.6s ease-out 0.72s forwards, sway 7s ease-in-out 1.32s infinite; }
    path[data-index="26"] { animation: growIn 0.6s ease-out 0.75s forwards, sway 7s ease-in-out 1.35s infinite; }
    path[data-index="27"] { animation: growIn 0.6s ease-out 0.78s forwards, sway 7s ease-in-out 1.38s infinite; }
    path[data-index="28"] { animation: growIn 0.6s ease-out 0.81s forwards, sway 7s ease-in-out 1.41s infinite; }
    path[data-index="29"] { animation: growIn 0.6s ease-out 0.84s forwards, sway 7s ease-in-out 1.44s infinite; }
    path[data-index="30"] { animation: growIn 0.6s ease-out 0.87s forwards, sway 7s ease-in-out 1.47s infinite; }
    path[data-index="31"] { animation: growIn 0.6s ease-out 0.90s forwards, sway 7s ease-in-out 1.50s infinite; }
    path[data-index="32"] { animation: growIn 0.6s ease-out 0.93s forwards, sway 7s ease-in-out 1.53s infinite; }
    path[data-index="33"] { animation: growIn 0.6s ease-out 0.96s forwards, sway 7s ease-in-out 1.56s infinite; }
    path[data-index="34"] { animation: growIn 0.6s ease-out 0.99s forwards, sway 7s ease-in-out 1.59s infinite; }
    path[data-index="35"] { animation: growIn 0.6s ease-out 1.02s forwards, sway 7s ease-in-out 1.62s infinite; }

</style>

    <!-- Original SVG Paths -->
	<path fill="#F99320" d="M574.864 193.703C582.301 192.491 591.916 193.028 599.332 193.805C629.397 196.953 660.87 214.004 672.819 243.055C678.812 257.628 681.446 272.093 691.765 284.737C711.289 308.661 741.824 303.415 766.323 290.496C771.629 287.698 776.667 284.15 781.734 280.941C791.836 274.543 802.64 268.196 813.918 264.101C824.836 260.136 836.488 259.267 847.99 260.479C869.63 262.758 882.81 270.61 898.35 285.324C905.23 291.838 911.623 298.6 917.581 305.973C926.512 317.024 934.22 329.156 942.325 340.825C951.304 353.752 960.393 366.517 967.545 380.587C981.56 408.162 985.281 439.691 981.914 470.18C974.69 535.583 934.761 611.843 862.922 620.846C852.064 622.207 841.556 621.176 830.717 620.424C806.226 618.725 776.449 615.892 754.462 628.916C718.56 650.183 726.247 693.719 695.75 717.728C683.335 727.502 668.126 732.873 652.569 734.912C626.402 738.343 600.423 730.62 579.554 714.704C556.978 697.488 543.181 679.282 512.65 675.935C482.321 672.611 455.156 686.487 432.192 705.04C422.714 712.917 414.573 722.284 406.356 731.423C378.827 762.039 351.069 783.216 308.025 785.303C293.728 785.996 278.463 783.153 265.326 777.543C236.961 765.429 229.285 747.654 220.106 720.117C217.688 712.863 215.462 705.214 211.16 698.811C206.377 691.69 199.153 686.101 191.576 682.209C183.304 677.96 174.371 676.391 165.203 675.506C133.923 672.487 111.619 675.471 86.0816 652.21C60.7179 629.106 53.8831 593.018 65.4945 561.178C72.9365 540.77 84.1155 528.449 83.5613 504.858C83.2062 489.742 75.3515 475.85 70.4716 461.86C67.2743 452.693 65.4343 443.454 65.0427 433.747C64.0905 410.144 71.3705 386.26 87.6144 368.799C106.129 348.897 132.264 340.914 158.57 348.687C167.04 351.19 176.399 355.986 185.349 355.45C187.651 355.312 190.175 354.736 191.715 352.882C196.593 347.011 191.924 327.503 191.15 319.81C189.544 303.858 192.815 287.701 203.173 275.12C207.651 269.681 212.961 265.187 218.883 261.392C231.331 253.415 245.846 248.957 260.498 247.447Q266.23 246.863 271.991 246.76Q277.752 246.656 283.501 247.032Q289.251 247.409 294.949 248.264Q300.647 249.118 306.254 250.445C316.026 252.811 325.354 256.39 334.758 259.884C357.326 268.27 379.109 276.205 403.5 276.678C410.975 276.823 418.582 276.622 425.919 275.089C444.543 271.197 457.786 259.931 471.71 247.757C505.086 218.575 528.439 198.356 574.864 193.703Z" data-index="1"></path>
	<path fill="#00392A" d="M545.74 418.756C546.18 408.647 550.137 361.35 547.566 355.523C547.489 355.349 547.397 355.181 547.314 355.009C545.092 350.416 538.953 347.188 538.92 341.675C538.9 338.246 541.464 335.209 543.839 333.005C549.565 327.693 572.891 315.153 580.94 315.938C586.087 316.44 599.757 333.069 603.526 337.47C608.002 334.745 612.461 332.683 617.733 332.083C625.881 331.156 632.59 333.71 638.884 338.667C648.042 345.879 666.78 366.511 667.856 378.51C668.408 384.664 664.755 388.877 661.03 393.263C664.609 391.668 668.615 389.991 672.55 389.658C678.855 389.125 682.646 392.526 687.18 396.278C688.377 395.184 689.584 394.054 690.902 393.107C697.643 388.262 706.32 386.845 714.397 388.302C728.703 390.883 741.821 405.601 749.806 416.961C751.253 406.698 751.572 396.464 752.349 386.158C753.021 377.247 755.309 363.55 753.631 355.063C752.344 348.556 743.801 344.695 744.382 337.648C744.633 334.601 747.112 331.885 749.376 330.059C756.139 324.608 778.109 316.339 786.751 317.522C788.426 317.751 789.712 318.512 790.953 319.629C793.388 321.819 795.017 324.936 797.031 327.508C799.918 331.196 803.061 334.683 805.971 338.354C809.184 342.406 811.942 346.394 813.362 351.451C815.8 360.135 813.574 390.686 812.421 400.449C824.397 404.396 836.026 415.335 843.124 425.49C848.714 411.997 855.861 399.016 861.924 385.708C867.771 372.874 872.759 359.072 879.433 346.688C880.548 344.618 882.48 341.148 884.58 340.034C889.373 337.494 908.706 340.892 914.086 342.893C914.211 343.022 914.34 343.146 914.461 343.279C916.717 345.775 918.441 348.858 920.409 351.583C924.642 357.446 930.358 362.885 932.772 369.847C933.823 372.878 934.092 376.306 934.169 379.495C934.394 388.732 933.353 398.136 932.73 407.353C931.518 425.3 930.041 443.321 929.413 461.293C937.412 469.681 946.354 478.992 947.068 491.076C947.484 498.122 947.281 508.931 942.166 514.357C938.436 518.314 931.971 517.894 926.968 517.994C927.164 526.066 926.226 534.11 925.969 542.176Q927.168 543.424 928.319 544.717C931.774 548.621 934.617 553.039 934.166 558.485C933.825 562.595 931.823 566.977 928.563 569.575C924.347 572.936 919.116 572.444 914.101 571.757C908.155 570.942 902.224 569.471 896.338 568.298C891.439 567.322 885.84 566.735 881.267 564.734C873.187 561.199 861.25 544.807 855.699 537.572C854.313 532.481 854.729 528.536 857.375 523.929C859.199 520.754 861.26 517.697 862.962 514.454C859.299 513.097 855.592 511.834 852.177 509.915C852.357 517.752 852.003 526.159 850.814 533.908C852.817 536.45 854.274 538.802 855.438 541.851Q855.551 543.421 855.586 544.995C855.656 548.806 854.407 552.424 851.616 555.109C848.596 558.016 844.613 558.871 840.538 558.829C833.434 558.754 823.494 557.917 817.449 553.937C815.362 552.563 813.532 550.401 811.789 548.611C808.3 552.156 805.209 553.552 800.226 554.049C793.198 554.75 774.287 554.519 768.113 551.861C765.799 550.865 763.56 548.593 761.634 546.969C756.602 551.038 751.808 552.14 745.46 552.183C738.927 552.226 727.814 553.307 722.076 550.045C718.858 548.215 715.957 544.801 713.324 542.215C712.416 543.461 711.402 544.723 710.295 545.796C703.922 551.97 688.633 550.095 680.065 550.094C669.348 550.093 666.846 550.107 659.048 542.308C658.198 543.353 657.347 544.444 656.405 545.408C654.818 547.031 653.001 548.283 650.815 548.945C643.91 551.035 630.014 550.827 622.465 550.855C615.679 550.881 613.027 547.867 608.456 543.337Q607.297 544.644 606.034 545.851C599.592 551.907 581.872 552.287 573.01 551.979C566.654 551.758 562.856 549.375 558.656 544.927Q557.61 546.061 556.515 547.148C554.364 549.266 551.841 550.42 548.95 551.23C542.83 552.944 525.72 554.062 519.064 553.969C515.137 551.824 512.342 548.703 509.326 545.477C507.331 547.612 505.114 550.335 502.449 551.612C496.526 554.452 478.754 556.519 471.505 557.267C463.974 558.044 460.855 555.484 455.277 550.891C453.954 552.825 452.375 554.749 450.674 556.362C446.13 560.668 439.885 564.575 433.417 564.181C425.446 563.696 418.928 558.232 413.958 552.492C404.34 559.976 390.689 568.833 377.945 568.558C364.131 568.259 351.771 552.906 342.849 543.847L339.38 546.374C349.289 557.799 355.961 565.358 355.951 581.265C355.941 596.679 350.077 611.924 339.036 622.793C323.035 638.546 300.925 644.362 278.987 644.083C254.565 643.772 240.541 630.096 224.503 613.469C215.114 603.736 209.855 592.053 210.084 578.527C209.719 578.497 209.355 578.461 208.989 578.442C201.074 578.027 196.087 574.181 190.127 569.412C190.138 572.75 190.54 577.654 188.325 580.383C183.498 586.328 158.78 589.682 150.612 590.221C142.262 590.772 137.795 587.434 131.856 582.138C125.802 576.738 114.384 568.442 112.237 560.367C110.289 553.042 116.3 545.209 117.078 537.839C118.333 525.962 118.447 513.993 118.999 502.075C119.662 487.767 120.786 473.219 119.978 458.908C115.57 453.233 109.752 450.25 109.151 442.286C108.855 438.357 109.76 433.763 112.593 430.839C117.524 425.75 138.813 414.652 146.236 414.564C151.576 414.501 155.441 418.606 159.03 421.989C159.995 420.76 160.974 419.543 162.06 418.417C168.872 411.358 178.551 408.551 188.184 408.437C206.842 408.218 218.438 422.068 230.732 434.017C233.015 430.084 235.425 426.242 238.413 422.798C247.842 411.928 263.163 403.896 277.312 401.61C282.667 400.745 288.106 400.877 293.495 400.412C300.803 399.781 308.051 396.955 312.504 390.931C314.528 388.193 316.232 385.083 318.453 382.515C321.193 379.347 324.575 377.251 328.827 376.987C330.828 376.863 332.994 376.894 334.797 377.853C340.13 380.689 344.388 387.231 348.536 391.582Q353.268 396.521 358.473 400.96C367.236 397.605 375.896 395.696 385.319 396.023C407.163 396.783 419.48 406.412 433.747 421.713C434.003 417.146 435.145 414.46 438.192 410.975C444.689 403.545 459.789 394.974 469.787 394.565C475.09 394.347 478.539 397.571 482.245 400.868L482.752 400.394C489.57 394.115 497.283 391.325 506.504 391.744C523.112 392.498 535.304 407.398 545.74 418.756Z" data-index="2"></path>
	<path fill="#4FA465" d="M328.253 380.606C328.977 380.591 329.672 380.584 330.395 380.637C332.414 380.786 334.308 381.473 335.535 383.172C337.059 385.283 336.882 389.053 336.517 391.488C334.574 404.443 321.575 410.474 312.164 417.24C314.166 420.339 316.76 423.121 318.861 426.177C325.402 435.693 327.629 446.282 327.439 457.73C327.186 473 322.215 491.453 310.885 502.303C301.163 511.613 288.675 514.816 275.482 514.174C270.636 513.938 265.739 513.101 260.892 513.118C259.119 513.124 258.386 513.39 257.165 514.655C256.917 516.301 256.849 517.698 258.012 519.083C263.013 525.038 292.898 525.801 301.495 527.398C310.264 529.026 318.067 532.565 323.192 540.22C329.027 548.934 330.842 561.171 328.808 571.356C326.223 584.299 317.569 598.087 306.451 605.358C292.4 614.549 263.076 622.081 246.602 618.573C234.481 615.992 226.182 609.713 219.531 599.446Q218.845 598.19 218.196 596.914C213.608 587.88 213.847 579.835 217.029 570.34C219.601 562.667 223.745 557.961 230.98 554.385C235.05 552.373 241.073 549.618 245.587 551.36C253.131 554.271 245.81 569.292 249.705 577.603C251.375 581.165 254.108 583.547 257.835 584.78C264.866 587.105 273.634 585.139 280.058 581.796C284.622 579.42 287.759 576.292 289.242 571.278C290.406 567.341 290.039 563.759 287.957 560.218C281.476 549.191 263.208 548.854 252.07 545.776C244.472 543.676 235.908 539.874 232.033 532.57C229.826 528.411 229.228 522.979 230.637 518.47C232.854 511.374 239.536 507.794 245.636 504.519C239.297 497.746 234.227 491.469 231.388 482.516C226.667 467.632 228.508 448.451 235.71 434.637C244.062 418.615 261.107 407.569 279.037 405.519C289.798 404.288 297.152 405.628 307.469 400.222C316.909 395.275 317.755 383.857 328.253 380.606Z" data-index="3"></path>
	<path fill="#00392A" d="M274.856 425.027C279.064 424.368 282.963 425.784 286.696 427.557C286.839 427.838 286.986 428.117 287.124 428.401C293.458 441.424 292.283 472.948 287.475 486.539C285.712 491.524 283.3 494.974 278.471 497.271C277.206 497.556 275.793 497.63 274.502 497.489C271.423 497.152 268.762 495.256 267.007 492.777C259.643 482.375 261.524 457.692 263.818 445.519C265.242 437.967 268.289 429.539 274.856 425.027Z" data-index="4"></path>
	<path fill="#4FA465" d="M185.854 413.715Q186.571 413.675 187.288 413.654C195.014 413.45 203.429 416.086 208.973 421.628C222.174 434.823 217.005 471.36 216.894 489.003Q216.962 510.587 217.399 532.167C220.106 534.401 223.522 536.558 224.064 540.351C224.262 541.738 223.815 543.801 222.783 544.822C219.831 547.74 189.382 553.144 183.651 553.559C181.948 551.932 180.733 550.336 179.495 548.335C181.095 543.579 181.846 538.86 182.367 533.876C183.41 523.892 183.241 513.685 183.675 503.653Q184.532 486.456 184.662 469.238C184.754 463.429 185.094 457.557 184.651 451.759C182.426 449.342 179.671 446.786 176.309 446.283C172.362 445.693 167.534 446.685 164.442 449.288C157.59 455.054 157.922 471.626 157.089 480.125C156.445 495.707 155.34 509.516 156.492 525.164C156.758 528.786 156.799 532.614 157.567 536.164C158.404 540.027 160.205 543.589 161.409 547.336C162.06 549.36 161.993 553.206 160.747 554.992C159.607 556.628 158.203 556.753 156.344 557.085C149.38 558.33 128.351 561.92 122.002 561.891C120.565 561.885 119.368 561.363 118.23 560.513C116.707 559.376 116.17 557.964 116.246 556.086C116.417 551.824 119.488 547.703 120.383 543.504C122.024 535.797 121.703 525.795 122.315 517.751C123.032 508.332 126.071 463.861 124.151 457.873C122.045 451.306 113.247 447.964 112.762 441.141C112.583 438.616 113.8 436.129 115.543 434.359C121.593 428.219 136.404 419.861 145.381 419.891C155.454 419.924 151.017 426.757 155.278 431.124C158.274 430.797 160.99 425.65 162.913 423.475C169.131 416.441 176.898 414.309 185.854 413.715Z" data-index="5"></path>
	<path fill="#4FA465" d="M887.764 344.096C893.575 343.602 902.806 343.046 908.207 345.61C909.777 346.355 910.711 347.264 911.062 349.026C912.135 354.422 911.182 360.776 910.89 366.246C910.11 380.89 908.662 395.395 907.477 409.995C906.512 421.887 906.181 433.891 905.335 445.808C905.041 449.944 903.178 462.55 904.675 465.838C905.958 468.655 917.379 463.251 920.715 464.676C922.141 466.023 922.536 467.419 922.654 469.318C922.894 473.158 922.493 485.198 919.869 487.77C916.553 491.021 906.853 490.073 902.442 490.117C902.709 503.049 900.751 511.971 902.896 525.483C903.017 525.604 903.14 525.722 903.258 525.844C905.456 528.125 908.87 533.654 908.496 536.919C908.346 538.22 907.495 539.206 906.431 539.893C899.072 544.644 879.999 538.911 871.771 537.078C868.444 536.092 862.564 536.602 860.2 533.883C858.843 527.24 865.57 519.019 867.722 512.757C869.633 507.195 871.005 500.891 871.447 495.025C871.598 493.017 871.868 490.203 870.258 488.719C865.389 484.228 832.932 486.721 828.404 480.745C827.277 479.257 827.76 475.86 827.97 474.059C828.496 469.527 829.349 464.522 831.012 460.249C832.63 456.089 835.065 452.1 837.117 448.136Q841.259 440.029 844.999 431.729C850.875 418.582 857.157 405.623 863.004 392.472C868.965 379.067 874.683 365.032 881.6 352.109C883.205 349.111 885.076 346.221 887.764 344.096Z" data-index="6"></path>
	<path fill="#00392A" d="M877.827 399.175C878.836 399.561 879.202 399.99 879.868 400.827C880.473 407.074 877.981 423.06 877.361 430.011C876.464 440.064 876.348 450.242 875.246 460.259C875.063 461.925 874.647 463.472 874.116 465.059C867.336 466.059 859.332 466.078 852.617 464.798C851.652 464.516 851.166 464.181 850.411 463.523C849.244 459.171 874.431 406.602 877.827 399.175Z" data-index="7"></path>
	<path fill="#4FA465" d="M781.695 321.13C782.79 321.026 784.261 320.928 785.319 321.349C787.655 322.28 788.491 324.618 788.892 326.911C790.084 333.735 788.57 342.409 788.163 349.34L785.928 393.292C785.637 398.422 784.629 403.582 784.529 408.693C784.497 410.341 784.572 411.724 785.313 413.208C786.847 412.971 788.244 411.948 789.603 411.21C795.37 408.079 800.445 405.155 807.265 405.101C813.251 405.053 818.848 407.319 822.977 411.674C830.225 419.32 831.523 428.583 831.973 438.662C832.111 441.742 832.439 445.137 831.606 448.132C830.688 451.435 828.66 454.76 827.313 457.945C825.123 463.122 823.176 471.35 823.051 476.945C822.956 481.162 823.938 483.254 826.878 486.194C825.897 495.802 826.329 505.617 826.355 515.264C828.111 516.275 829.77 517.482 831.446 518.619C831.559 521.6 832.089 524.781 830.111 527.269C825.419 527.775 820.579 527.24 815.858 527.285C810.651 527.335 805.412 528.032 800.239 528.604C798.558 526.156 796.981 524.029 794.802 521.985L799.344 472C800.23 461.65 801.627 451.406 801.353 440.992C801.281 439.245 801.193 437.482 801.004 435.744C800.731 433.243 799.211 430.704 797.183 429.214C795.504 427.98 793.393 427.526 791.343 427.858C787.452 428.489 784.697 431.383 782.588 434.481C781.304 442.416 781.523 451.315 780.986 459.382C780.297 469.742 778.95 480.098 778.429 490.447C778.138 496.207 778.431 502.065 778.506 507.838C780.261 509.065 782.134 510.146 783.957 511.272C784.184 515.644 783.756 519.007 782.229 523.12C781.584 523.18 780.944 523.222 780.296 523.223C774.245 523.239 747.302 524.38 743.658 520.797C743.358 517.418 745.239 513.435 745.704 509.963C746.779 501.934 747.284 493.737 748.015 485.666C749.064 474.075 749.635 462.445 750.691 450.862C753.452 420.584 756.66 390.28 758.131 359.894C758.683 348.496 749.156 339.707 749.758 335.567C755.62 327.472 772.111 322.715 781.695 321.13Z" data-index="8"></path>
	<path fill="#4FA465" d="M379.035 400.195C379.189 400.181 379.342 400.165 379.496 400.153C391.15 399.198 407.286 403.344 416.152 411.211C427.609 421.378 424.165 439.397 424.078 452.948C424.023 461.508 424.822 470.008 424.479 478.585C424.077 488.656 422.126 499.636 422.973 509.61C423.466 515.399 427.055 512.638 429.653 515.669C430.514 516.673 431.098 519.277 431.03 520.605C430.827 524.586 426.84 530.25 423.874 532.751C420.135 535.904 415.623 536.841 410.834 536.437C401.847 535.679 395.929 532.24 390.131 525.389C387.873 527.391 385.743 529.539 383.465 531.512C376.639 537.427 366.591 543.717 357.167 542.767C349.199 541.964 342.524 536.477 337.772 530.405C336.509 528.455 335.329 526.41 334.387 524.283C329.165 512.495 328.788 495.053 333.653 483.116C338.061 472.299 345.356 461.784 356.5 457.161C368.434 452.21 378.303 451.862 390.2 456.783C391.467 450.429 391.985 442.78 390.73 436.392C389.889 432.114 387.791 427.956 383.968 425.624C381.107 423.879 377.794 423.668 374.566 424.321C360.863 427.096 359.072 439.824 353.339 440.847C350.293 441.39 346.996 440.087 344.537 438.357C342.374 436.836 340.688 434.727 340.399 432.028C339.87 427.086 344.831 420.324 347.812 416.623C356.303 406.084 365.737 401.617 379.035 400.195Z" data-index="9"></path>
	<path fill="#00392A" d="M376.31 472.043C381.478 471.721 386.524 473.602 391.443 475.004C391.101 482.734 389.64 504.598 385.991 510.609C384.452 513.144 381.329 513.789 378.669 514.497C376.875 514.559 374.728 514.812 373.045 514.129C368.783 512.402 366.046 508.441 364.565 504.238C361.943 496.798 362.255 488.081 365.852 481.023C368.262 476.295 371.305 473.666 376.31 472.043Z" data-index="10"></path>
	<path fill="#4FA465" d="M705.331 392.612C707.09 392.471 708.851 392.353 710.616 392.408C717.378 392.617 724.42 396.187 728.96 401.183Q729.511 401.783 730.019 402.42Q730.527 403.056 730.99 403.726Q731.452 404.396 731.868 405.097Q732.284 405.797 732.65 406.525Q733.016 407.252 733.331 408.003Q733.647 408.754 733.909 409.525Q734.172 410.296 734.381 411.083Q734.59 411.87 734.744 412.67C736.62 422.667 734.896 436.589 734.282 447.041C733.629 458.17 733.241 469.309 732.53 480.437C731.944 489.608 731.013 498.769 730.721 507.955C732.118 510.205 733.897 512.615 734.294 515.284C734.52 516.805 734.405 518.587 733.322 519.784C732.316 520.896 730.683 521.365 729.251 521.574C725.983 522.052 722.314 521.601 718.991 521.554C713.537 521.476 708.189 521.627 702.757 522.166C701.646 521.661 700.368 521.182 699.434 520.387C698.271 519.396 698.031 518.357 698.057 516.869C698.129 512.901 699.997 509.091 700.315 505.137C701.334 492.476 701.674 479.689 702.609 467C703.464 455.391 705.604 443.323 704.523 431.695C704.249 428.751 703.623 426.22 701.191 424.317C699.059 422.65 696.656 422.336 694.029 422.616C688.911 423.163 685.268 425.75 682.185 429.733C681.648 434.619 681.171 439.457 681.006 444.375C680.866 462.079 676.704 491.767 681.947 507.462C682.743 509.845 684.478 512.003 685.922 514.039C685.525 515.49 685.115 517.851 684.247 519.075C683.522 520.096 682.85 520.323 681.666 520.597C674.851 522.174 665.218 520.05 657.978 520.232C654.375 520.323 650.83 521.05 647.21 520.93C645.411 520.87 644.013 520.626 642.481 519.679C641.058 516.671 645.436 506.005 646.057 501.74C647.172 494.092 647.013 485.868 647.578 478.106C648.242 468.99 653.003 426.066 650.862 419.592C650.393 418.172 647.912 417.56 646.659 416.921C643.994 415.562 643.62 413.605 642.745 410.992C644.653 408.117 646.626 406.034 649.367 403.959C655.332 399.442 666.684 392.64 674.498 394.05C678.924 394.849 680.616 400.473 682.92 403.797C683.259 403.953 683.565 404.29 683.937 404.265C685.849 404.138 694.063 396.537 697.125 394.994C699.792 393.651 702.427 393.114 705.331 392.612Z" data-index="11"></path>
	<path fill="#4FA465" d="M501.326 396.166C507.291 395.624 513.903 396.386 519.106 399.508C524.125 402.519 527.201 407.479 528.711 413.039C531.416 423.001 530.098 434.542 529.594 444.76L527.977 482.473C527.642 489.62 526.748 497.074 527.182 504.207C527.531 509.936 530.526 513.68 531.709 519.013C532.104 520.791 532.264 522.912 531.036 524.425C528.722 527.276 511.458 527.352 507.223 527.344C504.321 527.338 500.956 526.881 498.872 524.645C498.401 524.14 497.772 523.343 497.554 522.683C496.303 518.891 498.892 503.301 499.226 498.147C500.009 486.065 499.421 473.717 499.522 461.592C499.591 453.328 500.504 444.916 499.868 436.677C499.586 433.022 499.423 427.217 496.777 424.482C495.04 422.687 491.751 421.847 489.331 421.806C486.608 421.759 484.165 422.712 482.236 424.639C476.236 430.634 477.341 441.195 477.395 448.997Q476.919 466.163 476.659 483.334C476.506 490.945 475.877 499.02 476.562 506.606C477.143 513.049 482.456 520.36 481.582 526.462C480.663 527.747 479.754 528.247 478.212 528.627C474.337 529.58 470.103 529.131 466.141 529.553C459.81 530.228 449.315 534.786 443.433 530.629C442.372 529.879 441.805 528.726 441.647 527.462C440.943 521.856 443.186 512.675 443.701 506.699C445.16 489.792 445.507 472.732 446.338 455.785C446.743 447.531 448.641 437.871 447.304 429.783C446.554 425.249 444.323 425.263 441.153 422.92C439.877 421.977 438.979 420.639 438.874 419.014C438.739 416.91 439.976 415.16 441.314 413.676C447.097 407.266 459.757 399.401 468.516 399.037C477.267 398.674 474.122 405.877 477.497 408.803C481.395 408.487 488.48 400.067 493.465 397.899C495.961 396.815 498.655 396.519 501.326 396.166Z" data-index="12"></path>
	<path fill="#4FA465" d="M578.63 320.12C579.948 320.302 580.744 320.528 581.759 321.435C583.33 322.838 583.903 325.577 584.13 327.562C585.042 335.53 584.522 344.18 584.26 352.189C583.732 368.346 582.627 384.436 581.588 400.565Q580.532 414.874 579.77 429.201C579.271 440.609 579.167 452.071 578.431 463.464C577.532 477.374 575.778 490.899 576.781 504.881C576.913 505.008 577.049 505.131 577.177 505.263C580.015 508.174 582.539 513.146 582.265 517.316C582.179 518.617 581.724 519.899 580.627 520.689C576.835 523.42 550.943 523.667 546.078 522.562C544.612 520.931 543.604 519.219 542.515 517.333C542.361 506.986 545.05 496.98 545.869 486.72C547.93 460.916 548.263 434.997 549.779 409.161L551.66 373.278C551.92 368.55 552.904 363.285 552.519 358.598C551.836 350.282 544.161 345.836 543.525 340.993C543.331 339.51 543.617 338.973 544.413 337.788C549.796 329.785 569.444 321.747 578.63 320.12Z" data-index="13"></path>
	<path fill="#4FA465" d="M626.81 397.685C627.408 397.606 628.143 397.467 628.757 397.517C630.369 397.647 631.947 398.324 633.068 399.513C638.358 405.127 631.041 447.581 630.049 456.709C629.371 462.949 629.204 469.289 628.925 475.558C628.7 480.6 628.374 485.728 628.6 490.773C628.854 496.438 629.554 502.039 629.464 507.72L632.49 510.452Q632.558 512.505 632.6 514.559C632.632 516.215 632.929 520.217 631.499 521.4C627.586 524.639 604.745 523.744 598.99 522.799C598.029 522.422 596.974 522.044 596.088 521.508C594.439 520.511 593.886 518.754 593.859 516.917C593.813 513.86 595.997 511.219 596.373 508.137C597.86 495.969 604.105 435.986 602.176 428.204C601.273 424.559 598.433 424.55 595.722 422.835C594.445 422.027 593.426 420.775 593.202 419.245C592.916 417.301 594.002 415.447 595.171 413.991C601.134 406.565 617.407 398.735 626.81 397.685Z" data-index="14"></path>
	<path fill="#4FA465" d="M616.571 336.055C621.761 335.746 626.488 336.297 631.214 338.59C636.242 341.029 640.824 345.302 642.473 350.774C643.906 355.53 642.705 360.502 640.215 364.679C636.21 371.398 630.741 374.66 623.429 376.659C617.538 377.596 611.245 377.354 605.825 374.649C601.712 372.596 598.6 369.298 597.184 364.888C595.488 359.604 596.065 352.892 598.758 348.029C602.531 341.216 609.439 338.046 616.571 336.055Z" data-index="15"></path>
	<path fill="#007564" d="M856.796 743.52C859.004 743.675 861.579 743.728 863.364 745.165C865.209 746.65 865.708 748.653 866.204 750.868C867.785 757.932 867.615 765.629 868.166 772.837L871.584 817.492C881.996 813.574 892.376 809.591 902.989 806.237C906.936 804.989 913.655 802.772 917.461 805.225C918.933 806.173 919.581 807.361 919.846 809.047C920.936 815.984 906.27 826.341 901.707 831.122Q895.735 837.433 890.857 844.624C899.073 849.82 922.524 857.304 927.957 863.875C928.831 864.932 929.122 866.323 928.925 867.66C928.664 869.436 927.642 870.963 926.154 871.948C921.573 874.977 883.234 870.203 876.666 868.888C874.301 883.336 875.391 919.779 870.909 930.414C870.139 932.242 868.782 934.643 866.681 935.15C865.308 935.481 863.637 935.083 862.418 934.421C856.971 931.46 854.774 918.726 853.17 912.879C851.309 907.336 849.195 901.861 847.452 896.283C845.822 891.067 844.882 883.755 842.083 879.112C841.251 877.733 839.69 878.611 838.483 879.077C827.23 883.419 816.82 889.558 806.447 895.671C801.769 898.428 796.963 901.906 791.933 903.911C790.089 904.646 787.983 905.128 786.007 904.698C784.177 904.301 782.44 902.911 781.661 901.185C781.012 899.747 781.387 897.97 782.062 896.609C783.897 892.912 787.217 889.513 789.847 886.355C793.898 881.492 797.829 876.493 802.03 871.759C805.934 867.359 810.259 863.261 813.974 858.707C816.706 855.357 818.827 851.949 820.604 848.013C815.023 842.892 803.459 835.374 796.861 831.343C792.664 828.779 787.67 826.485 784.114 823.067C782.475 821.492 781.157 819.795 781.087 817.451C781.484 816.52 781.796 815.949 782.535 815.228C783.678 814.115 785.528 813.33 787.095 813.195C792.705 812.71 798.932 814.128 804.54 814.763C814.262 815.863 824.298 816.925 834.079 817.018C840.971 802.761 844.615 781.642 848.207 766.208C849.683 759.863 851.097 752.189 853.975 746.355C854.649 744.989 855.551 744.35 856.796 743.52Z" data-index="16"></path>
	<path fill="#007564" d="M167.931 748.402C169.312 748.385 171.138 748.399 172.338 749.17C173.649 750.013 174.289 751.412 174.696 752.851C175.793 756.727 176.041 761.039 176.606 765.025C177.682 772.627 178.995 780.64 181.28 787.972C186.426 804.483 191.516 815.047 207.627 822.777C212.296 825.017 217.162 826.957 222.202 828.187C226.664 829.276 233.417 829.636 237.368 831.907C238.687 832.665 239.642 833.713 239.934 835.245C240.331 837.321 239.781 840.018 238.356 841.615C235.807 844.473 230.603 843.592 227.156 843.865C220.709 844.375 213.814 847.935 208.083 850.768C192.283 858.58 185.857 867.583 179.848 883.969C177.595 890.11 175.564 896.458 174.157 902.845C172.61 909.863 171.927 916.997 167.228 922.761C166.149 923.375 165.006 923.991 163.73 923.961C161.133 923.9 159.698 921.689 158.86 919.521C157.081 914.921 157.02 909.332 156.443 904.45C154.971 892.004 153.202 879.74 147.932 868.226C138.753 848.167 123.949 847.253 105.178 840.692C102.701 839.827 99.1568 838.677 97.4613 836.586C96.6746 835.616 96.3307 834.676 96.5169 833.418C96.8415 831.225 98.5188 830.358 100.346 829.546C103.969 827.937 108.13 827.584 111.923 826.448C123.532 822.971 135.32 816.739 143.961 808.153C154.432 797.749 159.341 781.912 161.753 767.676C162.616 762.586 162.965 756.642 165.002 751.894C165.628 750.434 166.768 749.438 167.931 748.402Z" data-index="17"></path>
	<path fill="#007564" d="M834.768 674.208C839.443 673.752 845.972 673.622 849.756 676.836C851.246 678.102 852.038 679.876 852.096 681.821C852.445 693.372 840.037 692.327 832.238 693.042C829.846 693.261 827.45 693.827 825.145 694.49C817.514 696.685 810.374 700.838 803.942 705.418C790.229 715.182 783.303 730.87 774.656 744.826C767.08 757.053 759.193 769.165 749.398 779.757C730.35 800.354 702.685 818.185 673.457 815.062C660.575 813.686 648.647 810.035 635.489 810.644C630.313 810.883 625.066 811.327 620.063 812.748C608.085 816.15 592.041 826.81 583.476 835.832C579.053 840.492 575.443 845.938 571.11 850.716C569.244 852.45 567.304 853.927 564.706 854.264C562.562 854.542 560.287 854.033 558.608 852.639C556.814 851.15 555.977 849.057 555.847 846.762C555.47 840.077 561.399 832.313 565.528 827.456C574.559 816.833 584.941 809.44 597.042 802.803C603.611 799.2 610.611 795.318 617.789 793.152C638.57 786.88 665.275 796.617 687.431 794.793C720.974 792.031 745.749 763.313 761.791 736.142C769.243 723.519 774.865 710.723 784.569 699.473C797.57 684.398 815.035 675.731 834.768 674.208Z" data-index="18"></path>
	<path fill="#007564" d="M141.142 82.0143Q141.99 81.9465 142.84 81.9245C145.013 81.8823 146.318 82.6454 147.516 84.4248C151.682 90.6138 153.492 109.188 156.894 118.022C159.204 124.019 163.133 129.767 167.749 134.227C178.8 144.904 193.422 145.024 207.839 144.813C211.199 144.763 216.797 144.706 219.161 147.521C219.944 148.455 220.431 149.559 220.202 150.804C219.128 156.633 205.932 159.473 201.197 161.622C197.275 163.402 193.419 165.587 190.003 168.219C176.407 178.695 170.516 199.217 168.974 215.575C168.258 223.172 168.694 230.901 167.664 238.464C167.161 242.149 166.365 243.425 163.408 245.683C160.798 245.697 159.136 245.041 157.829 242.747C155.471 238.605 155.212 233.16 154.137 228.548C151.383 216.744 146.494 205.66 139.127 196.002C121.006 172.243 95.873 184.76 85.7172 175.435C84.6598 174.464 83.89 173.083 83.9714 171.61C84.1042 169.205 86.8208 167.63 88.7756 166.781C91.6465 165.536 94.9619 165.119 98.0062 164.468C106.089 162.737 115.388 160.37 121.672 154.698C136.882 140.967 135.453 112.76 136.354 94.2149C136.588 89.4189 137.504 85.3398 141.142 82.0143Z" data-index="19"></path>
	<path fill="#007564" d="M324.811 837.209C348.014 836.095 367.565 847.431 383.641 863.476C393.333 873.149 401.862 883.67 412.642 892.262C430.978 906.876 457.084 914.281 477.692 899.632C483.742 895.332 489.158 885.825 496.677 885.226C498.632 885.071 500.791 885.426 502.254 886.833C503.731 888.254 504.152 890.401 504.162 892.373C504.191 897.921 501.074 901.836 497.363 905.576C485.161 917.872 467.91 924.133 450.753 924.119C424.197 924.096 404.482 910.52 386.32 892.467C377.911 883.33 369.711 873.875 359.612 866.527C346.064 856.67 331.604 854.32 315.284 856.99Q314.419 857.129 313.561 857.313Q312.704 857.497 311.858 857.724Q311.011 857.952 310.177 858.222Q309.343 858.493 308.525 858.806Q307.706 859.12 306.904 859.475Q306.103 859.83 305.32 860.225Q304.538 860.621 303.777 861.056Q303.016 861.492 302.279 861.966Q301.542 862.44 300.829 862.951Q300.117 863.462 299.432 864.009Q298.748 864.557 298.092 865.138Q297.436 865.72 296.811 866.335Q296.186 866.949 295.593 867.595Q295.001 868.241 294.442 868.917Q293.883 869.593 293.36 870.296Q292.837 871 292.351 871.729C288.573 877.288 286.834 886.278 288.237 892.889C289.319 897.991 293.043 902.863 297.496 905.515C306.646 910.962 311.536 901.179 319.357 899.337C321.115 898.923 322.964 899.198 324.454 900.258C326.384 901.631 327.505 903.745 327.867 906.057C328.349 909.135 327.318 911.804 325.388 914.169C320.453 920.215 311.995 925.036 304.232 925.846C296.612 926.64 289.673 923.428 283.965 918.626C275.745 911.712 271.712 902.449 270.863 891.859C269.781 878.356 275.17 865.869 283.817 855.705C294.026 843.704 309.481 838.415 324.811 837.209Z" data-index="20"></path>
	<path fill="#007564" d="M882.061 102.479C883.379 102.425 884.646 102.293 885.882 102.863C890.786 105.124 892.486 119.451 894.206 124.461C900.599 143.088 908.894 146.184 927.033 150.063C931.239 150.962 935.764 151.682 939.613 153.701C941.028 154.444 941.816 155.081 942.32 156.602C940.813 164.343 917.264 164.396 909.368 173.643C901.37 183.009 897.282 196.57 894.513 208.328C893.514 212.572 892.833 217.387 891.15 221.383C890.631 222.615 889.767 223.528 888.821 224.446C886.608 224.851 884.386 225.046 882.423 223.752C877.715 220.647 876.944 208.107 875.779 202.78C874.374 196.351 871.673 191.03 868.591 185.262C860.303 169.749 853.147 170.191 838.382 163.95C835.863 162.886 832.514 161.784 830.317 160.142C829.31 159.389 829.208 158.729 829.047 157.552C829.692 156.115 830.691 155.465 832.102 154.885C840.62 151.386 853.185 152.618 861.775 148.008C869.138 144.057 874.156 130.434 876 122.805C877.594 116.206 877.503 107.794 882.061 102.479Z" data-index="21"></path>
	<path fill="#007564" d="M666.515 78.6152C675.559 78.0668 683.319 81.9345 690.803 86.6165C700.342 92.5845 709.934 100.342 716.947 109.177C725.58 120.052 739.029 148.856 749.673 154.82C751.418 155.798 753.823 156.442 755.766 155.636C760.465 153.686 762.924 131.785 764.913 126.191C768.682 115.597 777.366 102.451 787.951 97.7088C792.946 95.4707 799.591 94.5706 804.794 96.6144C807.658 97.7391 810.279 99.906 811.46 102.802C812.29 104.839 812.324 107.151 811.368 109.151C809.829 112.374 806.316 114.282 803.107 115.433C801.077 115.943 798.871 116.386 797.056 117.464C784.596 124.866 782.196 144.372 779.092 157.245C777.382 164.339 774.492 171.232 767.876 175.098C763.828 177.464 759.041 178.182 754.415 177.79C733.257 175.998 723.218 150.406 713.657 134.523C709.904 128.288 705.668 122.241 700.801 116.821C690.002 104.796 682.539 100.176 667.274 95.7625C664.384 94.927 661.589 93.2241 660.24 90.4285C659.36 88.6047 659.324 86.5859 660.028 84.6975C661.265 81.3767 663.413 80.0262 666.515 78.6152Z" data-index="22"></path>
	<path fill="#007564" d="M419.929 100.203C430.077 99.7758 441.1 101.018 450.656 104.59C455.986 106.582 464.187 110.752 466.479 116.216C467.493 118.631 467.27 121.229 466.169 123.577C464.357 127.441 460.9 128.224 456.934 128.011C451.403 127.715 447.102 124.399 441.889 123.044C427.596 119.329 407.55 120.221 394.136 126.679C386.465 130.371 380.539 136.143 374.478 141.978C368.72 147.523 363.015 153.071 357.727 159.074C345.972 172.422 334.937 187.911 320.207 198.098C314.534 202.022 308.617 204.509 302.133 206.779Q297.4 208.229 292.518 209.042C281.908 210.864 268.009 210.65 258.995 203.855C257.131 202.45 255.46 200.54 255.389 198.086C255.34 196.435 256.06 194.293 257.266 193.134C258.047 192.382 259.186 191.877 260.225 191.61C270.941 188.855 283.707 199.521 301.204 192.541C314.71 187.154 323.83 176.127 332.95 165.306C356.413 137.465 380.569 103.819 419.929 100.203Z" data-index="23"></path>
	<path fill="#F99320" d="M507.127 742.06Q507.717 741.986 508.31 741.941Q508.903 741.896 509.498 741.88Q510.092 741.864 510.687 741.877Q511.281 741.89 511.874 741.932Q512.468 741.974 513.058 742.044Q513.649 742.115 514.235 742.214Q514.821 742.314 515.402 742.442Q515.983 742.569 516.557 742.725Q517.131 742.881 517.696 743.065Q518.262 743.248 518.818 743.459Q519.374 743.67 519.919 743.908Q520.464 744.146 520.997 744.41Q521.53 744.674 522.049 744.964Q522.569 745.254 523.073 745.568Q523.578 745.883 524.066 746.222Q524.555 746.561 525.027 746.923Q525.499 747.285 525.952 747.67Q526.405 748.055 526.84 748.461Q527.274 748.868 527.688 749.295Q528.101 749.722 528.494 750.169Q528.887 750.615 529.257 751.081Q529.627 751.546 529.975 752.029Q530.322 752.511 530.645 753.01Q530.969 753.51 531.267 754.024Q531.566 754.538 531.839 755.066Q532.112 755.595 532.36 756.135Q532.607 756.676 532.827 757.229Q533.048 757.781 533.241 758.343Q533.435 758.906 533.601 759.477Q533.766 760.048 533.904 760.626Q534.042 761.205 534.152 761.789Q534.261 762.374 534.342 762.963Q534.423 763.552 534.475 764.145Q534.527 764.737 534.55 765.331Q534.573 765.925 534.568 766.52Q534.562 767.115 534.527 767.708Q534.492 768.302 534.429 768.893Q534.365 769.485 534.273 770.072Q534.181 770.66 534.06 771.242Q533.939 771.824 533.79 772.4Q533.641 772.976 533.464 773.543Q533.287 774.111 533.083 774.67Q532.879 775.228 532.648 775.776Q532.416 776.324 532.159 776.86Q531.901 777.396 531.618 777.919Q531.334 778.442 531.026 778.95Q530.717 779.458 530.384 779.951Q530.051 780.444 529.695 780.92Q529.338 781.396 528.959 781.854Q528.579 782.312 528.178 782.751Q527.777 783.19 527.355 783.609Q526.933 784.028 526.491 784.426Q526.049 784.824 525.588 785.199Q525.128 785.575 524.649 785.928Q524.17 786.281 523.675 786.611Q523.18 786.94 522.669 787.245Q522.159 787.55 521.634 787.829Q521.109 788.109 520.571 788.363Q520.033 788.616 519.484 788.844Q518.934 789.071 518.374 789.271Q517.814 789.471 517.245 789.644Q516.676 789.816 516.099 789.961Q515.522 790.106 514.939 790.223Q514.356 790.339 513.768 790.427Q513.37 790.487 512.97 790.533Q512.57 790.579 512.169 790.613Q511.768 790.646 511.366 790.666Q510.964 790.686 510.561 790.692Q510.159 790.699 509.756 790.692Q509.354 790.686 508.952 790.666Q508.55 790.646 508.149 790.613Q507.747 790.58 507.348 790.534Q506.948 790.487 506.55 790.428Q506.151 790.368 505.756 790.296Q505.36 790.223 504.966 790.138Q504.573 790.052 504.183 789.954Q503.792 789.855 503.405 789.744Q503.019 789.633 502.636 789.509Q502.253 789.385 501.874 789.248Q501.495 789.111 501.121 788.962Q500.748 788.814 500.379 788.652Q500.01 788.491 499.647 788.318Q499.283 788.145 498.926 787.959Q498.568 787.774 498.217 787.577Q497.866 787.38 497.522 787.172Q497.177 786.964 496.84 786.744Q496.503 786.525 496.173 786.294Q495.843 786.063 495.52 785.822Q495.198 785.581 494.884 785.329Q494.57 785.077 494.265 784.815Q493.959 784.553 493.662 784.281Q493.366 784.009 493.078 783.728Q492.79 783.446 492.512 783.155Q492.234 782.864 491.965 782.564Q491.697 782.264 491.439 781.956Q491.18 781.647 490.932 781.33Q490.684 781.013 490.446 780.688Q490.209 780.363 489.982 780.03Q489.755 779.698 489.54 779.358Q489.324 779.018 489.12 778.671Q488.916 778.324 488.723 777.97Q488.53 777.617 488.349 777.257Q488.168 776.898 487.999 776.533Q487.83 776.167 487.674 775.796Q487.517 775.426 487.372 775.05Q487.228 774.674 487.096 774.294Q486.963 773.914 486.844 773.529Q486.724 773.145 486.618 772.757Q486.511 772.369 486.417 771.977Q486.323 771.586 486.242 771.191Q486.161 770.797 486.094 770.4Q486.026 770.004 485.971 769.605Q485.916 769.206 485.875 768.805Q485.833 768.405 485.805 768.003Q485.776 767.602 485.761 767.2Q485.746 766.797 485.744 766.395Q485.742 765.992 485.754 765.59Q485.765 765.188 485.79 764.786Q485.815 764.384 485.853 763.983Q485.891 763.582 485.942 763.183Q485.993 762.784 486.057 762.386Q486.121 761.989 486.199 761.594Q486.276 761.199 486.366 760.806Q486.457 760.414 486.56 760.025Q486.663 759.636 486.779 759.25Q486.895 758.865 487.024 758.484Q487.152 758.102 487.293 757.725Q487.435 757.348 487.588 756.976Q487.741 756.604 487.907 756.237Q488.073 755.87 488.25 755.509Q488.428 755.148 488.618 754.793Q488.807 754.437 489.008 754.089Q489.209 753.74 489.422 753.398Q489.634 753.056 489.858 752.721Q490.081 752.387 490.316 752.06Q490.551 751.732 490.796 751.413Q491.041 751.094 491.297 750.783Q491.552 750.472 491.818 750.17Q492.084 749.867 492.359 749.574Q492.635 749.28 492.92 748.996Q493.205 748.712 493.499 748.437Q493.793 748.162 494.096 747.898Q494.4 747.633 494.711 747.378Q495.023 747.124 495.343 746.879Q495.663 746.635 495.991 746.401Q496.319 746.168 496.654 745.945Q496.989 745.723 497.332 745.511Q497.675 745.3 498.024 745.1Q498.373 744.9 498.729 744.711Q499.085 744.523 499.446 744.346Q499.808 744.169 500.175 744.005Q500.543 743.84 500.915 743.688Q501.288 743.536 501.665 743.396Q502.043 743.256 502.425 743.128Q502.806 743.001 503.192 742.886Q503.578 742.771 503.967 742.669Q504.357 742.567 504.749 742.478Q505.142 742.388 505.537 742.312Q505.932 742.236 506.33 742.173Q506.728 742.11 507.127 742.06Z" data-index="24"></path>
	<path fill="#F99320" d="M646.165 873.858Q646.726 873.764 647.291 873.697Q647.856 873.63 648.423 873.591Q648.99 873.552 649.559 873.541Q650.128 873.53 650.696 873.546Q651.265 873.563 651.832 873.607Q652.399 873.651 652.963 873.723Q653.527 873.795 654.087 873.894Q654.647 873.994 655.202 874.12Q655.756 874.247 656.304 874.4Q656.851 874.554 657.391 874.734Q657.93 874.914 658.46 875.12Q658.991 875.326 659.51 875.558Q660.029 875.79 660.537 876.047Q661.044 876.304 661.538 876.585Q662.033 876.867 662.513 877.172Q662.992 877.477 663.457 877.805Q663.921 878.134 664.369 878.484Q664.817 878.835 665.247 879.207Q665.677 879.579 666.089 879.971Q666.5 880.364 666.892 880.776Q667.284 881.188 667.656 881.619Q668.027 882.05 668.377 882.499Q668.726 882.947 669.054 883.412Q669.381 883.877 669.685 884.358Q669.99 884.838 670.27 885.333Q670.551 885.828 670.807 886.336Q671.063 886.844 671.294 887.363Q671.525 887.883 671.73 888.413Q671.935 888.944 672.114 889.484Q672.293 890.024 672.446 890.571Q672.599 891.119 672.724 891.674Q672.85 892.229 672.948 892.789Q673.046 893.349 673.117 893.914Q673.188 894.478 673.231 895.045Q673.274 895.612 673.29 896.181Q673.305 896.749 673.293 897.318Q673.281 897.886 673.241 898.454Q673.201 899.021 673.133 899.586Q673.065 900.15 672.97 900.711Q672.875 901.272 672.752 901.827Q672.63 902.383 672.48 902.931Q672.331 903.48 672.154 904.021Q671.978 904.562 671.776 905.093Q671.574 905.625 671.346 906.146Q671.118 906.667 670.864 907.176Q670.611 907.685 670.333 908.182Q670.056 908.678 669.754 909.16Q669.452 909.642 669.128 910.109Q668.803 910.576 668.455 911.026Q668.108 911.477 667.739 911.91Q667.37 912.343 666.981 912.757Q666.591 913.172 666.182 913.566Q665.773 913.961 665.344 914.336Q664.916 914.71 664.47 915.063Q664.024 915.416 663.562 915.747Q663.099 916.078 662.621 916.386Q662.143 916.694 661.65 916.978Q661.157 917.262 660.651 917.522Q660.145 917.781 659.627 918.016Q659.109 918.251 658.58 918.46Q658.052 918.669 657.513 918.852Q656.975 919.035 656.428 919.192Q655.881 919.348 655.327 919.478Q654.773 919.608 654.214 919.71Q653.649 919.813 653.08 919.889Q652.511 919.964 651.939 920.012Q651.367 920.059 650.793 920.078Q650.219 920.097 649.645 920.088Q649.071 920.079 648.498 920.041Q647.925 920.004 647.355 919.938Q646.785 919.872 646.218 919.778Q645.652 919.684 645.091 919.563Q644.53 919.441 643.975 919.292Q643.421 919.143 642.875 918.967Q642.328 918.791 641.791 918.588Q641.254 918.385 640.728 918.155Q640.201 917.926 639.687 917.671Q639.173 917.417 638.671 917.137Q638.17 916.857 637.683 916.552Q637.196 916.248 636.725 915.92Q636.254 915.592 635.799 915.241Q635.345 914.891 634.908 914.518Q634.472 914.145 634.054 913.751Q633.636 913.358 633.238 912.944Q632.84 912.53 632.464 912.097Q632.087 911.664 631.731 911.213Q631.376 910.762 631.044 910.294Q630.711 909.826 630.402 909.342Q630.093 908.858 629.809 908.359Q629.524 907.861 629.264 907.349Q629.004 906.837 628.77 906.313Q628.536 905.789 628.327 905.253Q628.119 904.718 627.938 904.174Q627.756 903.629 627.602 903.076Q627.447 902.523 627.32 901.963Q627.193 901.404 627.094 900.838Q626.995 900.273 626.924 899.703Q626.852 899.133 626.809 898.561Q626.766 897.988 626.751 897.414Q626.737 896.841 626.75 896.267Q626.763 895.693 626.805 895.12Q626.847 894.548 626.917 893.978Q626.987 893.408 627.085 892.842Q627.183 892.276 627.308 891.716Q627.434 891.156 627.587 890.603Q627.741 890.05 627.921 889.504Q628.101 888.959 628.308 888.424Q628.515 887.888 628.748 887.364Q628.981 886.839 629.24 886.327Q629.498 885.814 629.782 885.315Q630.066 884.816 630.374 884.331Q630.681 883.847 631.013 883.378Q631.344 882.909 631.698 882.457Q632.052 882.005 632.428 881.571Q632.804 881.137 633.201 880.723Q633.598 880.308 634.015 879.913Q634.432 879.518 634.867 879.144Q635.303 878.771 635.757 878.419Q636.21 878.067 636.681 877.738Q637.151 877.409 637.637 877.104Q638.124 876.798 638.624 876.517Q639.125 876.236 639.639 875.98Q640.152 875.724 640.678 875.494Q641.204 875.263 641.741 875.059Q642.277 874.855 642.823 874.677Q643.369 874.5 643.923 874.349Q644.477 874.199 645.038 874.076Q645.599 873.953 646.165 873.858Z" data-index="25"></path>
	<path fill="#F99320" d="M426.69 182.515Q427.194 182.448 427.701 182.407Q428.208 182.365 428.717 182.348Q429.225 182.331 429.734 182.339Q430.242 182.348 430.75 182.381Q431.257 182.414 431.763 182.471Q432.268 182.529 432.77 182.612Q433.272 182.694 433.769 182.801Q434.267 182.909 434.758 183.04Q435.249 183.171 435.734 183.326Q436.218 183.482 436.694 183.66Q437.171 183.839 437.638 184.041Q438.104 184.243 438.561 184.467Q439.017 184.692 439.462 184.939Q439.907 185.185 440.339 185.453Q440.772 185.722 441.19 186.011Q441.609 186.3 442.013 186.609Q442.417 186.918 442.805 187.247Q443.193 187.575 443.565 187.922Q443.937 188.27 444.291 188.635Q444.645 189 444.981 189.382Q445.317 189.764 445.634 190.162Q445.95 190.56 446.247 190.973Q446.544 191.386 446.821 191.813Q447.097 192.24 447.352 192.68Q447.607 193.12 447.84 193.572Q448.073 194.024 448.284 194.487Q448.495 194.95 448.683 195.423Q448.87 195.896 449.035 196.377Q449.199 196.858 449.34 197.347Q449.48 197.836 449.597 198.331Q449.713 198.826 449.806 199.327Q449.898 199.827 449.965 200.331Q450.032 200.835 450.075 201.342Q450.118 201.849 450.136 202.357Q450.153 202.866 450.146 203.374Q450.139 203.883 450.107 204.39Q450.075 204.898 450.018 205.404Q449.961 205.909 449.88 206.411Q449.798 206.913 449.692 207.411Q449.586 207.908 449.455 208.4Q449.325 208.891 449.171 209.376Q449.016 209.861 448.838 210.337Q448.66 210.814 448.459 211.281Q448.258 211.748 448.035 212.205Q447.811 212.662 447.565 213.107Q447.319 213.553 447.052 213.985Q446.785 214.418 446.497 214.837Q446.208 215.256 445.9 215.661Q445.591 216.065 445.264 216.454Q444.936 216.843 444.589 217.216Q444.243 217.588 443.878 217.943Q443.514 218.298 443.133 218.634Q442.751 218.971 442.354 219.289Q441.957 219.606 441.544 219.904Q441.132 220.201 440.705 220.479Q440.279 220.756 439.839 221.012Q439.399 221.267 438.948 221.501Q438.496 221.735 438.034 221.947Q437.571 222.159 437.099 222.347Q436.626 222.536 436.145 222.701Q435.664 222.867 435.176 223.008Q434.687 223.15 434.192 223.267Q433.697 223.385 433.197 223.478Q432.697 223.571 432.193 223.639Q431.688 223.708 431.18 223.751Q430.672 223.795 430.162 223.814Q429.653 223.832 429.143 223.826Q428.633 223.819 428.124 223.788Q427.615 223.756 427.109 223.7Q426.602 223.644 426.099 223.562Q425.595 223.481 425.096 223.375Q424.598 223.269 424.105 223.139Q423.612 223.009 423.126 222.855Q422.64 222.7 422.162 222.522Q421.684 222.344 421.216 222.143Q420.747 221.942 420.289 221.718Q419.831 221.494 419.385 221.248Q418.938 221.002 418.505 220.734Q418.071 220.466 417.651 220.177Q417.231 219.888 416.825 219.579Q416.42 219.27 416.03 218.941Q415.64 218.612 415.267 218.265Q414.894 217.918 414.538 217.552Q414.183 217.187 413.845 216.804Q413.508 216.422 413.19 216.024Q412.872 215.625 412.574 215.211Q412.276 214.798 411.998 214.37Q411.721 213.942 411.465 213.501Q411.209 213.061 410.975 212.608Q410.741 212.155 410.529 211.691Q410.318 211.227 410.129 210.753Q409.94 210.279 409.775 209.797Q409.61 209.315 409.469 208.825Q409.328 208.335 409.211 207.838Q409.094 207.342 409.002 206.841Q408.91 206.339 408.842 205.834Q408.774 205.329 408.732 204.821Q408.689 204.312 408.671 203.803Q408.653 203.293 408.661 202.784Q408.668 202.274 408.7 201.765Q408.733 201.256 408.79 200.749Q408.847 200.243 408.93 199.74Q409.012 199.236 409.118 198.738Q409.225 198.239 409.356 197.746Q409.487 197.254 409.643 196.768Q409.798 196.282 409.977 195.805Q410.156 195.327 410.358 194.859Q410.56 194.391 410.785 193.934Q411.009 193.476 411.256 193.03Q411.504 192.584 411.772 192.151Q412.041 191.717 412.331 191.298Q412.62 190.878 412.93 190.473Q413.24 190.068 413.569 189.679Q413.899 189.29 414.247 188.917Q414.595 188.545 414.961 188.19Q415.327 187.835 415.71 187.498Q416.093 187.162 416.492 186.844Q416.891 186.527 417.305 186.23Q417.72 185.932 418.148 185.656Q418.576 185.379 419.018 185.124Q419.459 184.869 419.912 184.635Q420.366 184.402 420.83 184.191Q421.294 183.981 421.768 183.793Q422.242 183.605 422.725 183.441Q423.208 183.277 423.698 183.137Q424.188 182.997 424.685 182.881Q425.181 182.765 425.683 182.673Q426.185 182.582 426.69 182.515Z" data-index="26"></path>
	<path fill="#007564" d="M101.722 252.373Q102.199 252.353 102.677 252.356Q103.155 252.359 103.631 252.386Q104.108 252.413 104.583 252.462Q105.058 252.512 105.531 252.585Q106.003 252.658 106.471 252.754Q106.938 252.849 107.401 252.968Q107.864 253.086 108.32 253.227Q108.777 253.368 109.226 253.531Q109.675 253.694 110.115 253.879Q110.556 254.063 110.987 254.269Q111.418 254.475 111.838 254.702Q112.259 254.928 112.668 255.175Q113.076 255.422 113.473 255.689Q113.869 255.955 114.252 256.241Q114.635 256.526 115.004 256.83Q115.372 257.134 115.725 257.455Q116.079 257.777 116.416 258.115Q116.753 258.453 117.073 258.808Q117.394 259.162 117.696 259.532Q117.999 259.901 118.283 260.285Q118.568 260.669 118.833 261.066Q119.098 261.463 119.344 261.873Q119.589 262.283 119.815 262.704Q120.04 263.125 120.245 263.557Q120.449 263.988 120.632 264.429Q120.816 264.87 120.977 265.32Q121.139 265.77 121.278 266.226Q121.417 266.683 121.534 267.146Q121.651 267.609 121.746 268.078Q121.84 268.546 121.911 269.018Q121.983 269.491 122.031 269.966Q122.079 270.441 122.104 270.918Q122.129 271.395 122.131 271.873Q122.132 272.35 122.111 272.827Q122.089 273.305 122.044 273.78Q122 274.256 121.932 274.728Q121.864 275.201 121.773 275.67Q121.682 276.139 121.568 276.603Q121.455 277.067 121.319 277.525Q121.183 277.983 121.024 278.433Q120.866 278.884 120.686 279.326Q120.506 279.769 120.305 280.202Q120.103 280.635 119.881 281.058Q119.659 281.48 119.416 281.892Q119.173 282.303 118.911 282.702Q118.649 283.102 118.367 283.487Q118.086 283.873 117.786 284.245Q117.486 284.617 117.168 284.973Q116.85 285.33 116.515 285.671Q116.181 286.011 115.83 286.335Q115.479 286.659 115.112 286.966Q114.746 287.272 114.365 287.561Q113.984 287.849 113.59 288.118Q113.196 288.388 112.788 288.638Q112.381 288.887 111.963 289.117Q111.544 289.347 111.114 289.556Q110.685 289.765 110.246 289.953Q109.807 290.14 109.359 290.307Q108.911 290.473 108.456 290.617Q108 290.761 107.538 290.883Q107.077 291.005 106.609 291.104Q106.142 291.203 105.671 291.279Q105.199 291.356 104.724 291.409Q104.25 291.462 103.773 291.492Q103.129 291.533 102.483 291.531Q101.838 291.529 101.194 291.484Q100.55 291.44 99.9102 291.353Q99.2705 291.266 98.638 291.138Q98.0054 291.009 97.3827 290.839Q96.76 290.669 96.1499 290.458Q95.5397 290.247 94.9447 289.997Q94.3498 289.747 93.7726 289.458Q93.1954 289.169 92.6385 288.842Q92.0816 288.516 91.5474 288.153Q91.0132 287.791 90.504 287.394Q89.9948 286.998 89.5128 286.568Q89.0309 286.139 88.5782 285.679Q88.1255 285.219 87.7042 284.729Q87.2828 284.24 86.8945 283.725Q86.5063 283.209 86.1528 282.669Q85.7993 282.129 85.4822 281.567Q85.1651 281.004 84.8856 280.422Q84.6062 279.841 84.3657 279.242Q84.1252 278.643 83.9246 278.029Q83.7241 277.415 83.5643 276.79Q83.4046 276.164 83.2864 275.53Q83.1682 274.895 83.0921 274.254Q83.0159 273.613 82.9821 272.969Q82.9483 272.324 82.957 271.679Q82.9658 271.033 83.017 270.39Q83.0682 269.746 83.1616 269.107Q83.2551 268.469 83.3904 267.838Q83.5257 267.206 83.7022 266.585Q83.8788 265.965 84.0959 265.357Q84.3129 264.749 84.5695 264.156Q84.8261 263.564 85.1212 262.99Q85.4163 262.416 85.7485 261.862Q86.0807 261.309 86.4486 260.779Q86.8165 260.248 87.2186 259.743Q87.6206 259.238 88.0551 258.761Q88.4895 258.283 88.9544 257.836Q89.4193 257.388 89.9127 256.972Q90.4061 256.555 90.9258 256.173Q91.4455 255.79 91.9893 255.442Q92.5331 255.094 93.0986 254.783Q93.6641 254.472 94.2489 254.198Q94.8337 253.925 95.4352 253.691Q96.0367 253.457 96.6523 253.262Q97.2679 253.068 97.895 252.915Q98.522 252.762 99.1578 252.65Q99.7936 252.539 100.435 252.47Q101.077 252.4 101.722 252.373Z" data-index="27"></path>
	<path fill="#F99320" d="M923.77 657.367Q924.243 657.314 924.718 657.284Q925.193 657.253 925.668 657.247Q926.144 657.24 926.619 657.256Q927.095 657.272 927.569 657.312Q928.043 657.352 928.515 657.415Q928.986 657.477 929.454 657.563Q929.922 657.649 930.386 657.758Q930.849 657.866 931.306 657.997Q931.764 658.128 932.214 658.282Q932.664 658.435 933.107 658.61Q933.549 658.786 933.982 658.982Q934.416 659.179 934.839 659.396Q935.262 659.614 935.674 659.852Q936.086 660.09 936.486 660.348Q936.885 660.606 937.272 660.883Q937.659 661.16 938.031 661.456Q938.404 661.752 938.762 662.065Q939.12 662.379 939.462 662.71Q939.804 663.04 940.129 663.387Q940.455 663.734 940.763 664.097Q941.071 664.46 941.361 664.837Q941.651 665.214 941.922 665.605Q942.193 665.996 942.444 666.4Q942.696 666.804 942.928 667.219Q943.159 667.635 943.37 668.061Q943.582 668.488 943.771 668.924Q943.961 669.36 944.13 669.805Q944.298 670.25 944.444 670.703Q944.591 671.156 944.715 671.615Q944.839 672.074 944.94 672.539Q945.042 673.004 945.12 673.473Q945.199 673.942 945.254 674.415Q945.31 674.888 945.342 675.362Q945.374 675.837 945.383 676.312Q945.392 676.788 945.378 677.264Q945.364 677.739 945.326 678.214Q945.289 678.688 945.228 679.16Q945.167 679.632 945.084 680.1Q945 680.568 944.894 681.032Q944.787 681.496 944.658 681.954Q944.529 682.412 944.378 682.863Q944.227 683.314 944.053 683.757Q943.88 684.2 943.686 684.634Q943.491 685.068 943.275 685.492Q943.06 685.916 942.823 686.329Q942.587 686.742 942.331 687.143Q942.075 687.544 941.8 687.932Q941.525 688.32 941.23 688.694Q940.936 689.068 940.624 689.428Q940.312 689.787 939.983 690.13Q939.654 690.474 939.308 690.801Q938.963 691.128 938.602 691.438Q938.241 691.747 937.865 692.039Q937.489 692.331 937.099 692.603Q936.709 692.876 936.307 693.13Q935.904 693.383 935.49 693.617Q935.075 693.85 934.65 694.063Q934.224 694.276 933.789 694.468Q933.354 694.66 932.909 694.83Q932.465 695.001 932.013 695.149Q931.561 695.298 931.102 695.424Q930.644 695.55 930.179 695.653Q929.715 695.757 929.246 695.838Q928.777 695.918 928.305 695.976Q927.83 696.034 927.353 696.069Q926.875 696.103 926.397 696.114Q925.919 696.125 925.44 696.113Q924.962 696.1 924.485 696.064Q924.007 696.028 923.533 695.968Q923.058 695.909 922.586 695.826Q922.115 695.743 921.648 695.637Q921.182 695.531 920.721 695.403Q920.26 695.274 919.806 695.123Q919.352 694.972 918.906 694.798Q918.46 694.625 918.023 694.43Q917.586 694.234 917.159 694.018Q916.732 693.802 916.317 693.564Q915.901 693.327 915.498 693.07Q915.094 692.813 914.704 692.536Q914.313 692.259 913.937 691.963Q913.561 691.667 913.2 691.353Q912.839 691.039 912.493 690.708Q912.148 690.377 911.819 690.029Q911.491 689.681 911.18 689.317Q910.869 688.954 910.576 688.575Q910.283 688.197 910.009 687.804Q909.735 687.412 909.481 687.006Q909.227 686.601 908.993 686.183Q908.759 685.766 908.546 685.337Q908.333 684.909 908.141 684.471Q907.949 684.032 907.779 683.585Q907.609 683.137 907.462 682.682Q907.314 682.227 907.189 681.765Q907.064 681.303 906.961 680.836Q906.859 680.368 906.78 679.896Q906.701 679.424 906.645 678.949Q906.589 678.474 906.557 677.996Q906.525 677.519 906.516 677.04Q906.507 676.562 906.522 676.084Q906.536 675.605 906.575 675.128Q906.613 674.651 906.675 674.177Q906.736 673.702 906.821 673.231Q906.906 672.76 907.014 672.294Q907.122 671.828 907.253 671.368Q907.384 670.907 907.537 670.454Q907.691 670.001 907.866 669.555Q908.042 669.11 908.239 668.674Q908.436 668.238 908.654 667.812Q908.872 667.387 909.111 666.972Q909.351 666.558 909.61 666.155Q909.869 665.753 910.147 665.364Q910.426 664.975 910.723 664.6Q911.021 664.225 911.337 663.865Q911.652 663.506 911.985 663.162Q912.318 662.818 912.667 662.491Q913.017 662.164 913.382 661.854Q913.747 661.545 914.126 661.254Q914.506 660.963 914.9 660.691Q915.294 660.419 915.7 660.166Q916.107 659.914 916.525 659.682Q916.944 659.45 917.373 659.239Q917.803 659.028 918.242 658.838Q918.681 658.648 919.129 658.48Q919.578 658.312 920.033 658.167Q920.489 658.021 920.952 657.898Q921.414 657.775 921.882 657.675Q922.35 657.575 922.822 657.498Q923.295 657.421 923.77 657.367Z" data-index="28"></path>
	<path fill="#F99320" d="M277.996 89.0753C281.861 88.8776 285.484 89.2305 289.004 90.9514Q289.45 91.173 289.884 91.4162Q290.319 91.6595 290.741 91.9237Q291.163 92.1879 291.572 92.4726Q291.98 92.7572 292.374 93.0616Q292.769 93.3659 293.147 93.6892Q293.526 94.0125 293.888 94.354Q294.251 94.6955 294.596 95.0544Q294.941 95.4133 295.268 95.7887Q295.596 96.1641 295.904 96.5551Q296.212 96.946 296.501 97.3517Q296.79 97.7573 297.059 98.1767Q297.327 98.596 297.575 99.028Q297.823 99.46 298.049 99.9036Q298.275 100.347 298.479 100.801Q298.683 101.256 298.865 101.719Q299.046 102.183 299.205 102.655Q299.363 103.112 299.498 103.577Q299.632 104.042 299.742 104.513Q299.852 104.984 299.938 105.46Q300.023 105.936 300.083 106.416Q300.144 106.896 300.179 107.379Q300.215 107.861 300.225 108.345Q300.235 108.829 300.22 109.312Q300.205 109.796 300.165 110.278Q300.125 110.76 300.06 111.24Q299.995 111.719 299.905 112.194Q299.815 112.67 299.701 113.14Q299.586 113.61 299.447 114.073Q299.308 114.537 299.146 114.992Q298.983 115.448 298.796 115.894Q298.61 116.341 298.401 116.777Q298.192 117.213 297.96 117.638C294.989 122.997 290.36 125.666 284.632 127.166C280.244 127.434 276.347 126.774 272.51 124.511C267.588 121.608 263.768 116.412 262.345 110.887Q262.136 110.102 262.008 109.299Q261.88 108.497 261.833 107.685Q261.786 106.874 261.821 106.062Q261.856 105.25 261.972 104.446Q262.089 103.641 262.285 102.853Q262.482 102.064 262.757 101.3Q263.033 100.535 263.383 99.8019Q263.734 99.0688 264.157 98.3748C267.237 93.2508 272.293 90.3644 277.996 89.0753Z" data-index="29"></path>
</svg>