<svg xmlns="http://www.w3.org/2000/svg" xmlns:xlink="http://www.w3.org/1999/xlink" width="1024" height="1024">
<style>
    path {
        transform-origin: 50% 50%; /* Set the center point for scaling and rotation */
        opacity: 0; /* Start invisible; animation will make them visible */
    }

    /* Keyframes for the appearance animation: Fade in, slide up, and scale in */
    @keyframes fadeInSlideUp {
        from {
            opacity: 0;
            transform: translateY(20px) scale(0.85); /* Start lower, smaller, and transparent */
        }
        to {
            opacity: 1;
            transform: translateY(0px) scale(1);   /* End at final position, full size, and opaque */
        }
    }

    /* Keyframes for the continuous subtle floating motion */
    @keyframes subtleFloat {
        0%, 100% {
            transform: translateY(0px) translateX(0px) rotate(0deg) scale(1);
        }
        33% {
            transform: translateY(-2.5px) translateX(1.2px) rotate(-0.6deg) scale(1.005); /* Slight upward/right drift, small rotation, tiny grow */
        }
        66% {
            transform: translateY(1.5px) translateX(-0.8px) rotate(0.3deg) scale(0.995); /* Slight downward/left drift, reverse rotation, tiny shrink */
        }
    }

    /* --- Staggered Animation Delays --- */
    /* fadeInSlideUp: 0.8s cubic-bezier(0.25, 0.46, 0.45, 0.94) forwards */
    /* subtleFloat: 9s ease-in-out infinite */
    /* Delay for subtleFloat = fadeInSlideUp_delay + 0.8s (duration of fadeInSlideUp) */
    /* Stagger increment for fadeInSlideUp: 0.035s */

    path[data-index="1"] {
        animation:
            fadeInSlideUp 0.8s cubic-bezier(0.25, 0.46, 0.45, 0.94) 0.000s forwards,
            subtleFloat 9s ease-in-out 0.800s infinite;
    }
    path[data-index="2"] {
        animation:
            fadeInSlideUp 0.8s cubic-bezier(0.25, 0.46, 0.45, 0.94) 0.035s forwards,
            subtleFloat 9s ease-in-out 0.835s infinite;
    }
    path[data-index="3"] {
        animation:
            fadeInSlideUp 0.8s cubic-bezier(0.25, 0.46, 0.45, 0.94) 0.070s forwards,
            subtleFloat 9s ease-in-out 0.870s infinite;
    }
    path[data-index="4"] {
        animation:
            fadeInSlideUp 0.8s cubic-bezier(0.25, 0.46, 0.45, 0.94) 0.105s forwards,
            subtleFloat 9s ease-in-out 0.905s infinite;
    }
    path[data-index="5"] {
        animation:
            fadeInSlideUp 0.8s cubic-bezier(0.25, 0.46, 0.45, 0.94) 0.140s forwards,
            subtleFloat 9s ease-in-out 0.940s infinite;
    }
    path[data-index="6"] {
        animation:
            fadeInSlideUp 0.8s cubic-bezier(0.25, 0.46, 0.45, 0.94) 0.175s forwards,
            subtleFloat 9s ease-in-out 0.975s infinite;
    }
    path[data-index="7"] {
        animation:
            fadeInSlideUp 0.8s cubic-bezier(0.25, 0.46, 0.45, 0.94) 0.210s forwards,
            subtleFloat 9s ease-in-out 1.010s infinite;
    }
    path[data-index="8"] {
        animation:
            fadeInSlideUp 0.8s cubic-bezier(0.25, 0.46, 0.45, 0.94) 0.245s forwards,
            subtleFloat 9s ease-in-out 1.045s infinite;
    }
    path[data-index="9"] {
        animation:
            fadeInSlideUp 0.8s cubic-bezier(0.25, 0.46, 0.45, 0.94) 0.280s forwards,
            subtleFloat 9s ease-in-out 1.080s infinite;
    }
    path[data-index="10"] {
        animation:
            fadeInSlideUp 0.8s cubic-bezier(0.25, 0.46, 0.45, 0.94) 0.315s forwards,
            subtleFloat 9s ease-in-out 1.115s infinite;
    }
    path[data-index="11"] {
        animation:
            fadeInSlideUp 0.8s cubic-bezier(0.25, 0.46, 0.45, 0.94) 0.350s forwards,
            subtleFloat 9s ease-in-out 1.150s infinite;
    }
    path[data-index="12"] {
        animation:
            fadeInSlideUp 0.8s cubic-bezier(0.25, 0.46, 0.45, 0.94) 0.385s forwards,
            subtleFloat 9s ease-in-out 1.185s infinite;
    }
    path[data-index="13"] {
        animation:
            fadeInSlideUp 0.8s cubic-bezier(0.25, 0.46, 0.45, 0.94) 0.420s forwards,
            subtleFloat 9s ease-in-out 1.220s infinite;
    }
    path[data-index="14"] {
        animation:
            fadeInSlideUp 0.8s cubic-bezier(0.25, 0.46, 0.45, 0.94) 0.455s forwards,
            subtleFloat 9s ease-in-out 1.255s infinite;
    }
    path[data-index="15"] {
        animation:
            fadeInSlideUp 0.8s cubic-bezier(0.25, 0.46, 0.45, 0.94) 0.490s forwards,
            subtleFloat 9s ease-in-out 1.290s infinite;
    }
    path[data-index="16"] {
        animation:
            fadeInSlideUp 0.8s cubic-bezier(0.25, 0.46, 0.45, 0.94) 0.525s forwards,
            subtleFloat 9s ease-in-out 1.325s infinite;
    }
    path[data-index="17"] {
        animation:
            fadeInSlideUp 0.8s cubic-bezier(0.25, 0.46, 0.45, 0.94) 0.560s forwards,
            subtleFloat 9s ease-in-out 1.360s infinite;
    }
    path[data-index="18"] {
        animation:
            fadeInSlideUp 0.8s cubic-bezier(0.25, 0.46, 0.45, 0.94) 0.595s forwards,
            subtleFloat 9s ease-in-out 1.395s infinite;
    }
    path[data-index="19"] {
        animation:
            fadeInSlideUp 0.8s cubic-bezier(0.25, 0.46, 0.45, 0.94) 0.630s forwards,
            subtleFloat 9s ease-in-out 1.430s infinite;
    }
    path[data-index="20"] {
        animation:
            fadeInSlideUp 0.8s cubic-bezier(0.25, 0.46, 0.45, 0.94) 0.665s forwards,
            subtleFloat 9s ease-in-out 1.465s infinite;
    }
    path[data-index="21"] {
        animation:
            fadeInSlideUp 0.8s cubic-bezier(0.25, 0.46, 0.45, 0.94) 0.700s forwards,
            subtleFloat 9s ease-in-out 1.500s infinite;
    }
    path[data-index="22"] {
        animation:
            fadeInSlideUp 0.8s cubic-bezier(0.25, 0.46, 0.45, 0.94) 0.735s forwards,
            subtleFloat 9s ease-in-out 1.535s infinite;
    }
    path[data-index="23"] {
        animation:
            fadeInSlideUp 0.8s cubic-bezier(0.25, 0.46, 0.45, 0.94) 0.770s forwards,
            subtleFloat 9s ease-in-out 1.570s infinite;
    }
    path[data-index="24"] {
        animation:
            fadeInSlideUp 0.8s cubic-bezier(0.25, 0.46, 0.45, 0.94) 0.805s forwards,
            subtleFloat 9s ease-in-out 1.605s infinite;
    }
    path[data-index="25"] {
        animation:
            fadeInSlideUp 0.8s cubic-bezier(0.25, 0.46, 0.45, 0.94) 0.840s forwards,
            subtleFloat 9s ease-in-out 1.640s infinite;
    }
    path[data-index="26"] {
        animation:
            fadeInSlideUp 0.8s cubic-bezier(0.25, 0.46, 0.45, 0.94) 0.875s forwards,
            subtleFloat 9s ease-in-out 1.675s infinite;
    }
    path[data-index="27"] {
        animation:
            fadeInSlideUp 0.8s cubic-bezier(0.25, 0.46, 0.45, 0.94) 0.910s forwards,
            subtleFloat 9s ease-in-out 1.710s infinite;
    }
    path[data-index="28"] {
        animation:
            fadeInSlideUp 0.8s cubic-bezier(0.25, 0.46, 0.45, 0.94) 0.945s forwards,
            subtleFloat 9s ease-in-out 1.745s infinite;
    }
    path[data-index="29"] {
        animation:
            fadeInSlideUp 0.8s cubic-bezier(0.25, 0.46, 0.45, 0.94) 0.980s forwards,
            subtleFloat 9s ease-in-out 1.780s infinite;
    }
    path[data-index="30"] {
        animation:
            fadeInSlideUp 0.8s cubic-bezier(0.25, 0.46, 0.45, 0.94) 1.015s forwards,
            subtleFloat 9s ease-in-out 1.815s infinite;
    }
    path[data-index="31"] {
        animation:
            fadeInSlideUp 0.8s cubic-bezier(0.25, 0.46, 0.45, 0.94) 1.050s forwards,
            subtleFloat 9s ease-in-out 1.850s infinite;
    }
    path[data-index="32"] {
        animation:
            fadeInSlideUp 0.8s cubic-bezier(0.25, 0.46, 0.45, 0.94) 1.085s forwards,
            subtleFloat 9s ease-in-out 1.885s infinite;
    }
    path[data-index="33"] {
        animation:
            fadeInSlideUp 0.8s cubic-bezier(0.25, 0.46, 0.45, 0.94) 1.120s forwards,
            subtleFloat 9s ease-in-out 1.920s infinite;
    }
    path[data-index="34"] {
        animation:
            fadeInSlideUp 0.8s cubic-bezier(0.25, 0.46, 0.45, 0.94) 1.155s forwards,
            subtleFloat 9s ease-in-out 1.955s infinite;
    }
    path[data-index="35"] {
        animation:
            fadeInSlideUp 0.8s cubic-bezier(0.25, 0.46, 0.45, 0.94) 1.190s forwards,
            subtleFloat 9s ease-in-out 1.990s infinite;
    }
    path[data-index="36"] {
        animation:
            fadeInSlideUp 0.8s cubic-bezier(0.25, 0.46, 0.45, 0.94) 1.225s forwards,
            subtleFloat 9s ease-in-out 2.025s infinite;
    }
    path[data-index="37"] {
        animation:
            fadeInSlideUp 0.8s cubic-bezier(0.25, 0.46, 0.45, 0.94) 1.260s forwards,
            subtleFloat 9s ease-in-out 2.060s infinite;
    }
    path[data-index="38"] {
        animation:
            fadeInSlideUp 0.8s cubic-bezier(0.25, 0.46, 0.45, 0.94) 1.295s forwards,
            subtleFloat 9s ease-in-out 2.095s infinite;
    }
    path[data-index="39"] {
        animation:
            fadeInSlideUp 0.8s cubic-bezier(0.25, 0.46, 0.45, 0.94) 1.330s forwards,
            subtleFloat 9s ease-in-out 2.130s infinite;
    }
    path[data-index="40"] {
        animation:
            fadeInSlideUp 0.8s cubic-bezier(0.25, 0.46, 0.45, 0.94) 1.365s forwards,
            subtleFloat 9s ease-in-out 2.165s infinite;
    }
    path[data-index="41"] {
        animation:
            fadeInSlideUp 0.8s cubic-bezier(0.25, 0.46, 0.45, 0.94) 1.400s forwards,
            subtleFloat 9s ease-in-out 2.200s infinite;
    }
    path[data-index="42"] {
        animation:
            fadeInSlideUp 0.8s cubic-bezier(0.25, 0.46, 0.45, 0.94) 1.435s forwards,
            subtleFloat 9s ease-in-out 2.235s infinite;
    }
    path[data-index="43"] {
        animation:
            fadeInSlideUp 0.8s cubic-bezier(0.25, 0.46, 0.45, 0.94) 1.470s forwards,
            subtleFloat 9s ease-in-out 2.270s infinite;
    }
    path[data-index="44"] {
        animation:
            fadeInSlideUp 0.8s cubic-bezier(0.25, 0.46, 0.45, 0.94) 1.505s forwards,
            subtleFloat 9s ease-in-out 2.305s infinite;
    }
    path[data-index="45"] {
        animation:
            fadeInSlideUp 0.8s cubic-bezier(0.25, 0.46, 0.45, 0.94) 1.540s forwards,
            subtleFloat 9s ease-in-out 2.340s infinite;
    }
</style>
	
	<path fill="#E8762B" d="M336.639 387.715C338.051 387.602 339.479 387.614 340.895 387.62C368.121 387.726 392.937 402.396 419.87 405.668C424.395 406.218 442.101 406.632 444.808 409.374L444.72 410.644C442.699 413.888 437.406 414.898 433.93 415.77C402.476 423.658 378.057 413.403 347.421 413.086C335.473 412.963 323.009 414.715 311.887 419.206C303.46 422.608 295.065 427.694 291.427 436.463C287.806 445.192 289.161 460.95 289.14 470.683L289.072 529.601C289.037 559.813 291.337 593.109 279.195 621.477C271.22 640.11 257.65 654.633 238.657 662.219C218.881 669.949 196.837 669.464 177.42 660.873C163.614 654.846 152.589 644.683 147.078 630.501C142.036 617.524 143.398 602.609 148.923 590.078C154.629 579.523 164.062 572.666 175.485 569.297C187.832 565.656 202.961 566.476 214.304 572.842C221.089 576.65 227.14 582.541 229.239 590.245C229.965 592.907 231.151 596.85 229.777 599.329C224.882 602.522 218.808 593.264 211.019 592.821C206.414 592.559 201.17 594.185 197.791 597.391C194.699 600.325 192.593 604.723 192.542 609.011C192.501 612.59 194.017 615.793 196.502 618.322C200.844 622.739 207.228 624.565 213.291 624.604C222.703 624.697 231.746 620.943 238.325 614.211C256.456 595.885 255.007 562.132 254.976 538.061C249.376 546.26 241.778 552.237 231.909 554.308C223.495 556.074 214.787 554.628 207.621 549.821C194.927 541.304 188.951 525.423 186.238 511.009C182.192 489.515 184.265 463.2 196.982 444.756C204.038 434.347 214.946 427.175 227.299 424.822C240.976 422.335 252.993 424.587 264.426 432.395C266.477 426.332 269.92 420.976 274.169 416.219C289.674 398.856 313.717 389.049 336.639 387.715Z" data-index="1" style="opacity: 1;"></path>
	<path fill="#F7F2E6" d="M239.199 443.044C241.427 442.941 243.613 442.928 245.64 444.001C249.741 446.174 251.832 451.091 252.966 455.355C256.255 467.726 257.863 505.302 250.989 515.996C248.43 519.976 244.466 521.196 240.101 522.1C237.73 521.985 235.308 521.826 233.122 520.803C229.45 519.085 227.136 514.876 225.78 511.248C220.205 496.33 221.115 468.938 227.79 454.427C230.254 449.07 233.56 445.094 239.199 443.044Z" data-index="2" style="opacity: 1; visibility: visible;"></path>
	<path fill="#E8762B" d="M227.072 202.141C234.889 201.588 243.144 203.587 249.232 208.719C254.5 213.16 257.143 219.579 257.733 226.318C258.857 239.151 252.145 253.257 244.073 262.843C256.219 254.255 267.985 240.947 284.241 242.145C290.757 242.625 296.594 245.418 300.745 250.506C305.622 256.481 308.106 265.101 307.024 272.754C306.103 279.269 302.504 284.619 297.292 288.511C286.62 296.481 271.133 297.866 258.375 295.973C269.811 300.474 283.563 305.482 291.094 315.833C294.692 320.78 296.098 326.543 295.084 332.585C293.967 339.238 290.14 345.914 284.495 349.686C279.484 353.034 273.22 353.836 267.382 352.636C253.416 349.766 244.051 335.206 236.586 324.252C238.326 328.963 239.427 333.887 239.859 338.891C240.822 349.006 240.248 360.454 233.272 368.516C228.703 373.795 223.195 375.657 216.461 376.193C211.693 376.172 207.219 375.441 202.964 373.173C197.626 370.328 193.782 365.723 192.036 359.924C187.78 345.791 196.417 331.163 202.796 319.11C194.811 329.201 183.731 339.778 170.282 341.17C163.442 341.878 156.263 339.935 150.928 335.536C146.2 331.637 143.543 326.091 142.969 320.03C142.308 313.05 143.999 306.359 148.544 300.936C157.202 290.606 171.646 287.834 184.357 286.707C172.94 282.772 157.384 278.277 149.702 268.462C145.458 263.11 143.611 256.244 144.594 249.484C145.705 242.246 149.978 236.245 155.902 232.112C161.798 227.999 168.645 226.182 175.777 227.63C191.585 230.842 202.158 247.342 210.416 259.904C208.408 253.587 206.343 247.27 205.103 240.746C203.258 231.043 204.053 220.628 209.945 212.372C214.165 206.46 220.084 203.44 227.072 202.141Z" data-index="3" style="opacity: 1;"></path>
	<path fill="#EFA229" d="M219.138 265.862C230.82 263.519 242.192 271.076 244.558 282.753C246.924 294.43 239.39 305.818 227.718 308.207C216.013 310.604 204.585 303.043 202.212 291.333C199.84 279.623 207.423 268.211 219.138 265.862Z" data-index="4" style="opacity: 1; visibility: visible;"></path>
	<path fill="#E8762B" d="M928.756 357.685C930.505 357.389 932.462 357.355 934.237 357.289C938.351 357.134 943.922 357.54 946.99 360.602C949.892 363.498 948.62 368.525 947.444 371.91C945.485 377.545 942.933 383.111 941.85 389.006C940.078 398.652 940.577 409.288 940.321 419.07C939.793 439.292 939.322 459.768 939.962 479.987C944.091 480.048 948.91 480.33 952.798 478.788C956.079 477.487 959.603 472.736 962.902 472.215C963.673 472.093 964.175 472.078 964.759 472.613C966.472 474.181 966.662 477.253 966.696 479.433C966.81 486.694 967.025 504.056 960.692 509.288C955.763 513.36 946.506 512.428 940.446 512.317C941.918 520.59 942.223 528.941 945.293 536.883C946.884 540.998 951.893 545.389 952.295 549.658C952.407 550.853 951.826 552.194 950.965 553.006C949.801 554.104 948.187 554.263 946.671 554.409C941.074 554.946 935.088 554.521 929.453 554.491L900.595 554.484C898.137 554.506 893.864 554.933 892.159 552.739C891.599 552.019 891.305 551.242 891.314 550.347C891.358 546.028 896.932 540.923 898.375 536.546C901.041 528.46 901.805 519.858 902.725 511.439C893.466 510.702 853.205 512.734 848.32 509.64C846.873 508.724 846.032 506.979 845.545 505.385C843.476 498.622 844.478 487.714 846.269 480.938C848.822 471.277 855.877 457.807 859.698 447.95C864.546 435.342 869.2 422.661 873.66 409.91C876.757 401.155 881.746 384.426 886.745 376.989C887.858 375.333 889.959 373.744 891.48 372.456C901.925 363.612 915.349 359.288 928.756 357.685Z" data-index="5" style="opacity: 1;"></path>
	<path fill="#F7F2E6" d="M904.843 421.407C904.981 421.571 905.172 421.703 905.255 421.9C905.45 422.364 904.499 473.482 904.505 479.006C894.398 478.834 884.27 478.921 874.16 478.886L874.026 478.734C873.981 478.477 873.854 478.221 873.892 477.962C874.145 476.204 880.744 466.3 881.916 464.252C889.921 450.258 897.978 435.997 904.843 421.407Z" data-index="6" style="opacity: 1; visibility: visible;"></path>
	<path fill="#3F9679" d="M793.671 552.871C796.479 545.13 798.552 537.141 799.861 529.011C802.031 515.811 805.987 468.842 800.384 457.598C799.364 455.522 797.513 453.973 795.29 453.334C791.976 452.376 788.232 453.263 785.298 454.932C780.974 457.391 778.774 460.816 777.581 465.552C774.118 479.298 776.159 516.366 778.194 531.67C778.678 535.311 782.535 549.351 782.209 550.901C782.04 551.703 781.617 552.412 780.953 552.904C780.062 553.565 778.851 553.853 777.771 553.983C772.925 554.566 741.268 554.574 737.595 553.599C736.429 553.289 735.713 552.95 735.094 551.845C733.587 549.156 739.124 535.211 739.957 531.369C744.572 510.085 743.113 485.61 742.958 463.84C742.824 444.913 743.57 416.614 737.713 398.898C735.577 392.438 723.644 383.308 724.689 378.476C726.137 377.042 727.889 376.233 729.757 375.476C738.855 371.793 749.422 369.398 758.904 365.862C762.922 364.364 773.246 359.362 777.096 359.361C778.753 359.36 780.09 359.926 781.197 361.188C782.507 362.681 781.991 365.901 781.751 367.771C778.592 392.459 775.319 419.734 776.119 444.634C782.329 435.412 791.922 428.037 803.002 425.938C810.037 424.605 817.714 425.367 823.767 429.438C830.612 434.043 834.279 442.043 835.673 449.944C837.247 458.862 836.384 468.161 835.977 477.158C835.032 498.108 833.346 523.41 841.671 543.073C842.396 544.786 845.377 550.729 844.264 552.248C842.015 555.318 834.27 557.283 830.672 559.939C824.662 564.374 819.485 570.231 814.285 575.573C809.628 580.947 804.933 586.29 800.202 591.599C799.146 588.594 797.424 587.64 794.934 585.924C793.871 583.532 792.481 582.158 792.307 579.397L792.223 578.854C791.924 578.523 791.304 577.851 791.075 577.527C789.421 575.191 787.209 574.19 785.517 572.001C785.251 570.035 784.964 568.974 783.79 567.36L785.672 565.506C789.107 561.635 791.292 557.421 793.671 552.871Z" data-index="7" style="opacity: 1;"></path>
	<defs>
		<linearGradient id="gradient_0" gradientUnits="userSpaceOnUse" x1="795.92535" y1="583.71838" x2="803.11066" y2="579.46429">
			<stop offset="0" stop-color="#849459"></stop>
			<stop offset="1" stop-color="#689468"></stop>
		</linearGradient>
	</defs>
	<path fill="url(#gradient_0)" d="M785.672 565.506C789.107 561.635 791.292 557.421 793.671 552.871C793.312 556.768 795.401 558.156 795.879 561.905L796.41 562.242L795.683 560.524L796.173 559.685C796.812 560.247 796.872 561.226 797.216 561.506C798.718 562.729 800.178 561.47 801.662 563.724L801.643 564.45L801.098 564.484L800.82 564.051L800.197 564.41C798.536 564.049 796.133 563.63 795.091 562.118C794.101 560.681 794.025 558.7 792.556 557.702C790.561 559.608 789.398 562.818 787.814 565.13C788.443 566.109 788.414 566.34 789.513 566.854L790.471 565.217L790.914 565.185C790.962 566.513 790.714 568.127 791.473 569.223C792.509 568.902 792.073 569.188 792.734 568.454C793.856 567.21 794.635 566.264 796.222 565.677C797.493 565.845 797.72 565.826 798.684 566.642C798.777 568.208 798.731 569.198 798.285 570.699L797.839 570.914C797.146 569.872 797.438 568.729 797.55 567.548C797.276 568.931 796.955 570.284 796.875 571.693C797.913 571.233 797.842 571.223 798.91 571.601L799.849 572.962C799.347 573.982 798.981 573.862 797.966 574.274L799.266 575.071C800.184 573.068 800.849 571.121 802.653 569.752C803.667 569.649 803.407 569.468 804.088 570.038C805.15 570.928 805.934 572.068 806.765 573.166L806.806 574.063C805.425 574.87 805.376 574.793 804.874 576.293L805.261 578.137L806.263 577.875L805.262 577.297L805.375 576.663L807.74 576.878C807.577 577.987 806.187 578.948 805.389 579.747C804.43 579.232 804.145 579.048 803.746 577.943C803.498 577.254 803.454 576.34 803.359 575.609L802.638 574.687L802.403 576.229L801.718 576.028C801.512 575.094 801.402 574.301 801.414 573.345L801.239 573.104L800.488 573.807C800.552 576.041 801.674 579.6 803.363 581.16C804.246 581.975 805.279 582.694 806.312 583.304L806.64 582.881C808.288 580.782 811.646 575.907 814.285 575.573C809.628 580.947 804.933 586.29 800.202 591.599C799.146 588.594 797.424 587.64 794.934 585.924C793.871 583.532 792.481 582.158 792.307 579.397L792.223 578.854C791.924 578.523 791.304 577.851 791.075 577.527C789.421 575.191 787.209 574.19 785.517 572.001C785.251 570.035 784.964 568.974 783.79 567.36L785.672 565.506Z" data-index="8"></path>
	<path fill="#6F9047" d="M783.79 567.36L785.672 565.506C787.514 567.676 788.715 570.108 790.23 572.489C790.377 572.564 790.523 572.64 790.671 572.713C792.325 573.532 793.845 573.951 795.649 574.309L794.044 573.941L794.948 575.078L793.773 576.031C794.042 577.421 794.521 577.891 795.447 578.896C795.461 580.169 795.349 580.355 794.698 581.463C794.247 581.053 793.821 580.637 793.39 580.206C792.802 579.618 793.071 579.842 792.307 579.397L792.223 578.854C791.924 578.523 791.304 577.851 791.075 577.527C789.421 575.191 787.209 574.19 785.517 572.001C785.251 570.035 784.964 568.974 783.79 567.36Z" data-index="9"></path>
	<defs>
		<linearGradient id="gradient_1" gradientUnits="userSpaceOnUse" x1="635.31519" y1="647.91223" x2="624.4505" y2="558.55774">
			<stop offset="0" stop-color="#EB7022"></stop>
			<stop offset="1" stop-color="#DE9431"></stop>
		</linearGradient>
	</defs>
	<path fill="url(#gradient_1)" d="M781.771 569.157L783.79 567.36C784.964 568.974 785.251 570.035 785.517 572.001C787.209 574.19 789.421 575.191 791.075 577.527C791.304 577.851 791.924 578.523 792.223 578.854L792.307 579.397C792.481 582.158 793.871 583.532 794.934 585.924C797.424 587.64 799.146 588.594 800.202 591.599C797.327 594.764 794.467 598.187 791.124 600.865C787.137 605.478 781.936 609.477 777.039 613.105C754.347 629.92 727.857 638.927 699.801 640.987C644.858 645.021 603.565 621.582 552.456 608.855C541.207 606.033 529.755 604.093 518.205 603.054C512.284 602.537 505.909 602.822 500.101 601.84C495.941 599.233 484.629 603.447 479.256 602.669C478.216 601.757 478.122 600.495 477.821 599.206C477.176 596.442 471.752 594.769 470.696 591.306C470.252 589.848 470.399 588.824 471.144 587.532C471.605 586.732 471.642 586.805 471.64 585.803C470.351 584.011 467.885 583.968 466.017 582.947C464.525 582.132 464.187 580.959 463.754 579.45C465.638 577.195 476.86 576.872 480.117 576.497L480.399 575.672C492.402 573.115 508.51 573.399 520.848 573.875C590.869 576.577 672.611 612.57 740.921 591.004C753.56 587.014 765.221 580.818 776.284 573.599C778.124 572.132 779.953 570.652 781.771 569.157Z" data-index="10" style="opacity: 1; visibility: visible;"></path>
	<path fill="#9D9550" d="M781.771 569.157L783.79 567.36C784.964 568.974 785.251 570.035 785.517 572.001C787.209 574.19 789.421 575.191 791.075 577.527C791.304 577.851 791.924 578.523 792.223 578.854L792.307 579.397C792.481 582.158 793.871 583.532 794.934 585.924C797.424 587.64 799.146 588.594 800.202 591.599C797.327 594.764 794.467 598.187 791.124 600.865C791.259 599.506 791.501 599.36 792.388 598.292C792.977 594.868 790.245 592.827 788.79 589.942L789.268 589.598L790.126 589.752C790.388 589.439 790.786 588.995 790.956 588.632C792.408 585.527 786.043 583.888 784.846 580.793C783.684 577.785 782.737 574.113 779.812 572.391C779.838 572.617 779.817 572.853 779.889 573.069C780.279 574.238 780.167 574.461 780 575.739L781.923 577.136C782.357 578.178 782.422 578.002 782.178 579.227C781.853 579.151 781.512 579.126 781.204 578.999C779.424 578.267 777.699 576.077 776.767 574.456L776.284 573.599C778.124 572.132 779.953 570.652 781.771 569.157Z" data-index="11"></path>
	<path fill="#45A2AF" d="M568.593 205.18C568.853 205.172 569.112 205.153 569.372 205.155C575.285 205.201 582.001 207.611 585.894 212.135C589.668 216.52 590.747 222.854 590.21 228.463C588.921 241.921 580.172 250.184 570.433 258.476C580.967 255.711 592.394 252.285 603.255 255.239C609.586 256.96 615.658 260.573 618.832 266.503C621.856 272.153 621.496 279.079 619.472 285.005C617.839 289.784 614.639 293.498 610.059 295.657C597.129 301.754 580.797 295.44 568.394 290.846C575.778 300.004 582.99 310.491 582.559 322.813C582.35 328.792 580.184 334.345 575.684 338.399C571.298 342.283 565.525 344.225 559.684 343.783C553.776 343.411 548.273 340.657 544.434 336.152C535.364 325.441 536.967 307.891 538.099 294.841L532.859 304.598C531.783 306.482 530.697 308.365 529.457 310.149C524.064 317.903 517.225 324.675 507.494 326.223C501.107 327.24 494.082 325.985 488.811 322.116C484.392 318.873 481.709 314.004 481.094 308.581C480.285 301.274 482.391 293.944 486.955 288.18C495.378 277.526 509.588 274.018 522.434 272.565C518.609 271.981 514.76 271.399 510.986 270.536C500.248 268.081 488.651 262.079 482.776 252.387C479.667 247.257 478.516 241.649 480.024 235.782C481.648 229.612 485.729 224.377 491.317 221.297C497.779 217.723 505.428 216.965 512.466 219.202C526.545 223.643 533.909 237.802 540.331 249.993C541.43 237.848 542.703 224.008 550.729 214.161C555.394 208.438 561.41 205.852 568.593 205.18Z" data-index="12" style="opacity: 1;"></path>
	<path fill="#EFA229" d="M540.929 254.202C547.443 252.422 554.412 254.284 559.17 259.077C563.928 263.87 565.74 270.852 563.913 277.353C562.085 283.855 556.901 288.871 550.343 290.483C540.382 292.932 530.303 286.918 527.727 276.99C525.151 267.061 531.034 256.906 540.929 254.202Z" data-index="13" style="opacity: 1; visibility: visible;"></path>
	<path fill="#EFA229" d="M144.365 424.177C147.855 423.772 151.782 424.023 155.194 424.889C181.466 431.562 177.305 464.106 177.076 484.529C176.891 500.991 175.671 519.73 180.526 535.597C181.971 540.322 185.034 543.531 187.445 547.695C188.318 549.204 188.407 550.068 188.002 551.736C186.906 553.119 185.766 553.695 184.078 554.124C180.614 555.003 145.113 554.835 140.841 554.411C138.936 554.222 137.549 553.866 135.908 552.887C134.883 551.278 135.039 548.964 135.216 547.132C135.596 543.184 136.856 539.185 137.696 535.304C138.811 529.957 139.689 524.564 140.326 519.139C141.815 506.89 144.885 464.18 137.357 455.157C135.588 453.037 133.2 451.834 130.439 451.674C126.673 451.448 122.989 452.829 120.3 455.475C111.635 463.88 112.567 478.768 112.408 489.975C111.772 503.836 111.985 525.437 116.865 538.161C118.492 542.402 122.785 546.566 122.493 551.328C122.438 552.225 122.081 553.172 121.335 553.705C119.788 554.81 117.675 554.933 115.836 555.038C110.17 555.36 104.357 554.771 98.6651 554.757C90.8495 554.737 79.2292 556.123 71.8796 554.546C69.929 554.127 68.9272 553.331 67.8288 551.7C66.9061 547.539 71.5097 543.496 73.0981 539.722C80.5211 522.086 81.4012 471.966 75.0263 453.748C72.1146 445.426 66.1604 442.794 64.5692 438.355C64.0963 437.035 64.2284 436.067 64.8587 434.857C69.4361 432.123 102.531 424.465 107.989 425.112C109.466 425.287 110.589 425.584 111.515 426.842C114.844 431.361 113.148 440.848 112.422 446.113C113.601 444.324 114.833 442.572 116.118 440.858C123.333 431.281 132.519 425.815 144.365 424.177Z" data-index="14" style="opacity: 1;"></path>
	<path fill="#3F9679" d="M442.388 424.661C443.106 424.618 444.227 424.511 444.903 424.723C445.747 424.988 446.416 425.391 446.902 426.126C449.586 430.18 446.434 439.745 445.457 444.351C451.608 435.391 458.84 427.97 469.949 425.948C478.144 424.456 486.83 426.103 493.639 430.989C511.065 443.494 506.784 467.057 506.124 485.508C505.742 496.202 505.659 507.247 506.093 517.945C506.508 528.153 509.562 537.315 511.259 547.219C511.574 549.059 511.97 551.158 510.568 552.641C509.753 553.502 508.374 553.945 507.23 554.091C503.198 554.608 498.41 554.114 494.312 554.132C486.674 554.167 478.212 554.948 470.653 553.989C468.993 553.779 466.849 553.333 465.558 552.174C464.134 550.897 463.751 549.667 464.149 547.825C465.102 543.405 467.858 539.419 468.892 534.943C473.273 515.967 475.397 482.434 473.177 463.031C473.041 462.57 472.9 462.11 472.753 461.652C471.692 458.369 470.044 455.192 466.785 453.645C463.634 452.15 458.883 452.042 455.626 453.283C451.583 454.825 449.163 458.389 447.728 462.319C442.438 476.807 444.629 517.779 447.62 533.78C448.276 537.294 454.143 548.874 452.72 551.413C451.972 552.747 450.444 553.39 449.018 553.723C446.091 554.405 413.194 554.432 408.604 554.01C406.708 553.835 405.234 553.507 403.602 552.525C400.516 548.629 404.731 543.925 406.301 540.161C412.739 524.725 413.464 468.305 409.32 452.371C407.786 446.474 400.77 441.371 400.357 435.67C401.503 434.072 403.662 433.292 405.473 432.699C409.948 431.234 414.905 430.633 419.514 429.657C427.149 428.039 434.734 426.192 442.388 424.661Z" data-index="15" style="opacity: 1;"></path>
	<path fill="#E8762B" d="M661.784 424.633C662.506 424.547 663.21 424.508 663.937 424.603C665.236 424.773 666.275 425.359 666.9 426.552C669.041 430.63 666.375 439.371 665.522 443.8C668.249 439.673 671.443 435.87 675.29 432.738C682.014 427.266 690.568 424.343 699.254 425.321C706.907 426.183 714.297 430.52 719.022 436.605C723.102 441.86 725.307 448.298 726.141 454.847C727.327 464.147 726.278 474.074 725.929 483.432C725.346 496.18 725.335 508.948 725.896 521.697C726.136 526.191 726.665 530.76 727.631 535.161C728.827 540.608 731.533 546.535 730.816 552.149C729.962 553.198 729.315 553.409 727.994 553.698C721.006 555.222 708.37 554.003 700.976 553.973C697.062 553.957 693.061 554.42 689.16 554.055C687.849 553.933 686.579 553.684 685.471 552.937C680.907 549.865 686.079 542.481 687.432 538.925C692.71 525.053 695.096 477.359 692.618 462.451C691.73 459.473 690.732 456.629 688.27 454.569C685.513 452.263 681.554 452.285 678.176 452.767C675.001 453.22 672.275 454.435 670.422 457.135C660.922 470.972 665.377 518.936 668.593 535.795C669.481 540.45 672.956 544.46 673.51 549.143C673.649 550.319 673.279 551.971 672.34 552.778C671.222 553.739 669.047 553.982 667.65 554.102C663.317 554.472 629.176 554.433 625.878 553.559C624.332 553.149 623.186 552.209 622.44 550.8C621.896 549.77 621.924 548.726 622.206 547.624C622.695 545.712 624.547 543.561 625.531 541.819C627.194 538.907 628.489 535.799 629.386 532.568C633.228 519.071 634.939 467.506 631.249 454.178C629.595 448.205 625.773 444.545 622.975 439.288C622.092 437.631 621.682 436.286 622.227 434.467C625.755 431.953 656.379 425.605 661.784 424.633Z" data-index="16" style="opacity: 1;"></path>
	<path fill="#217A91" d="M347.358 424.221C358.089 423.456 370.749 425.722 379.401 432.473C395.894 445.342 393.645 471.89 393.207 490.557C392.944 501.726 392.394 513.44 393.117 524.594C393.389 528.788 393.916 533.31 395.176 537.329C396.707 542.214 399.032 546.619 399.687 551.761C398.94 552.747 398.298 553.156 397.148 553.553C391.734 555.421 372.664 554.559 367.84 551.817C362.957 549.042 361.526 544.053 360.153 539.005C356.271 544.619 351.361 548.566 345.139 551.346C336.082 555.393 324.682 556.524 315.314 552.86C307.262 549.71 302.681 543.834 299.381 536.134C298.997 534.903 298.652 533.661 298.345 532.408C296.623 525.294 296.971 516.814 299.279 509.872C309.936 477.809 347.569 483.712 357.828 466.926C358.106 463.307 358.202 459.575 357.606 455.982C356.719 450.641 354.532 445.842 349.919 442.752C347.11 440.871 342.783 440.294 339.506 441.038C337.355 441.526 334.204 442.87 333.078 444.882C331.168 448.294 335.706 453.549 336.383 457.116C336.922 459.957 335.854 462.779 334.139 465.02C331.308 468.719 327.259 470.851 322.668 471.316C318.071 471.781 313.998 470.68 310.504 467.601C307.627 465.067 306.323 461.888 306.072 458.104C305.585 450.761 307.977 443.975 312.789 438.446C321.708 428.199 334.291 425.033 347.358 424.221Z" data-index="17" style="opacity: 1;"></path>
	<path fill="#F7F2E6" d="M357.671 487.971C358.243 488.124 357.897 487.971 358.514 488.727C358.555 497.426 360.092 513.065 356.054 520.634C354.183 524.142 351.057 526.548 347.23 527.581C343.051 528.709 339.667 527.695 336.022 525.59C334.908 524.493 333.961 523.318 333.28 521.896C331.173 517.499 331.717 510.509 333.491 506.084C337.468 496.166 348.509 491.72 357.671 487.971Z" data-index="18" style="opacity: 1; visibility: visible;"></path>
	<path fill="#E8762B" d="M553.785 359.012C555.864 358.89 557.309 358.874 558.941 360.287C559.231 361.029 559.268 361.521 559.285 362.331C559.536 374.235 557.587 389.042 557.161 401.422C556.249 426.038 555.85 450.672 555.965 475.305C555.951 486.806 555.69 498.384 556.086 509.876C556.391 518.732 556.897 529.392 559.787 537.805C561.321 542.273 566.48 546.299 566.451 551.172C565.376 552.628 564.168 553.037 562.399 553.475C557.749 554.625 523.256 554.914 518.183 554.195C516.896 554.012 515.859 553.406 514.78 552.719C513.85 548.595 517.453 542.859 518.77 538.81C521.671 529.894 522.456 520.634 523.081 511.341C524.578 489.058 526.177 418.486 518.02 400.012C514.338 391.673 510.83 391.86 506.165 386.1C505.211 384.922 504.568 383.41 504.915 381.87C505.324 380.052 507.161 378.683 508.72 377.868C515.645 374.251 524.333 372.78 531.709 369.943C539.331 367.012 546.483 362.669 553.785 359.012Z" data-index="19" style="opacity: 1;"></path>
	<path fill="#45A2AF" d="M421.973 588.778C434.31 583.301 466.471 576.589 480.399 575.672L480.117 576.497C476.86 576.872 465.638 577.195 463.754 579.45C464.187 580.959 464.525 582.132 466.017 582.947C467.885 583.968 470.351 584.011 471.64 585.803C471.642 586.805 471.605 586.732 471.144 587.532C470.399 588.824 470.252 589.848 470.696 591.306C471.752 594.769 477.176 596.442 477.821 599.206C478.122 600.495 478.216 601.757 479.256 602.669C484.629 603.447 495.941 599.233 500.101 601.84L499.182 602.025C492.637 603.274 485.603 602.782 478.939 603.814C465.188 605.945 452.838 611.603 440.067 616.724C422.357 626.158 404.214 636.827 384.869 642.544C349.194 653.087 318.162 646.132 286.248 628.79C290.124 618.863 294.775 609.103 299.45 599.524C308.278 601.925 316.931 604.898 325.957 606.516C350.86 610.978 374.797 604.806 398.237 596.76C406.122 594.053 413.937 591.008 421.973 588.778Z" data-index="20" style="opacity: 1; visibility: visible;"></path>
	<defs>
		<linearGradient id="gradient_2" gradientUnits="userSpaceOnUse" x1="470.11295" y1="586.6781" x2="448.75198" y2="600.22461">
			<stop offset="0" stop-color="#B8A14D"></stop>
			<stop offset="1" stop-color="#73A77F"></stop>
		</linearGradient>
	</defs>
	<path fill="url(#gradient_2)" d="M421.973 588.778C434.31 583.301 466.471 576.589 480.399 575.672L480.117 576.497C476.86 576.872 465.638 577.195 463.754 579.45C464.187 580.959 464.525 582.132 466.017 582.947C467.885 583.968 470.351 584.011 471.64 585.803C471.642 586.805 471.605 586.732 471.144 587.532C470.399 588.824 470.252 589.848 470.696 591.306C471.752 594.769 477.176 596.442 477.821 599.206C478.122 600.495 478.216 601.757 479.256 602.669C484.629 603.447 495.941 599.233 500.101 601.84L499.182 602.025C492.637 603.274 485.603 602.782 478.939 603.814C465.188 605.945 452.838 611.603 440.067 616.724L440.221 616.109C443.827 612.777 449.786 612.56 453.804 609.985C454.525 609.523 454.347 609.223 454.468 608.439C453.473 606.023 451.105 603.845 449.483 601.782C448.272 591.56 445.953 595.031 441.737 589.626C440.967 588.639 440.856 587.911 440.929 586.722C440.983 585.847 441.023 585.326 440.72 584.472C439.523 584.187 438.684 584.147 437.527 584.547C436.05 585.058 435.505 585.878 434.915 587.253C435.774 588.468 438.347 588.037 439.701 588.926L439.035 589.425C437.842 589.415 436.373 589.236 435.267 589.724C435.125 589.786 435.001 589.884 434.867 589.964C434.098 589.659 433.943 587.109 433.152 586.173L422.859 589.211L421.973 588.778Z" data-index="21" style="opacity: 1;"></path>
	<path fill="#217A91" d="M536.424 654.71C559.185 652.172 584.543 656.267 604.954 666.395C614.588 671.176 623.617 677.1 633.285 681.855C651.079 690.608 668.712 694.668 688.347 690.076C692.286 689.155 695.853 687.441 699.699 686.35C700.981 685.987 701.719 685.805 702.919 686.463C703.375 688.083 702.773 689.72 701.982 691.148C694.732 704.252 678.245 713.004 664.391 716.919C636.664 723.321 609.652 712.058 586.704 697.17C573.124 688.359 559.98 678.622 544.398 673.573C534.619 670.473 524.516 668.512 514.287 667.727C509.782 667.376 496.166 667.774 493.268 666.72C492.506 666.443 492.728 666.495 492.402 665.681C492.559 665.226 492.628 664.916 492.968 664.522C497.955 658.761 527.367 655.429 536.424 654.71Z" data-index="22" style="opacity: 1;"></path>
	<path fill="#6F9047" d="M608.628 426.113C609.506 426.081 611.069 426.212 611.835 426.693C614.783 428.543 613.383 434.95 613.08 437.897C610.798 460.072 608.614 513.121 613.601 533.982C614.899 539.41 618.711 543.453 620.218 548.634C620.616 550.001 620.617 550.592 619.962 551.835C618.298 553.02 616.611 553.515 614.593 553.821C609.717 554.561 604.338 554.089 599.393 554.067L572.805 553.996C571.905 553.618 571.189 553.297 570.49 552.578C569.459 551.518 568.994 550.163 569.28 548.695C570.183 544.062 573.199 539.459 574.71 534.942C577.806 525.691 578.525 514.86 579.012 505.118C579.686 491.621 581.421 453.893 572.315 443.957C571.27 442.817 570.073 441.653 569.195 440.381C568.361 439.171 568.37 438.588 568.711 437.218C570.213 435.641 571.694 434.756 573.74 433.991C578.811 432.095 584.694 431.374 590.022 430.238C596.236 428.914 602.395 427.345 608.628 426.113Z" data-index="23" style="opacity: 1;"></path>
	<path fill="#EFA229" d="M883.827 583.707C893.684 582.946 904.709 584.79 913.155 590.169C918.058 593.292 922.555 598.023 923.717 603.89C924.45 607.591 923.783 611.451 921.543 614.523C909.71 630.751 882.21 620.17 866.476 618.539C856.486 617.504 846.694 618.105 836.792 619.638C824 621.482 812.607 627.197 800.162 630.08L799.728 629.179C800.038 628.524 800.001 628.534 800.517 627.848C803.529 623.846 809.536 619.883 813.575 616.788C833.968 601.161 857.616 585.867 883.827 583.707Z" data-index="24" style="opacity: 1;"></path>
	<path fill="#EFA229" d="M795.985 210.712C796.922 211.422 797.292 211.645 797.692 212.798C798.659 215.587 798.921 219.069 799.452 221.999C800.87 229.825 802.427 237.685 805.711 244.978C811.269 257.32 820.585 263.48 833.456 266.619C837.094 267.506 841.565 268.031 844.981 269.472C845.993 269.898 846.039 270.059 846.441 271.012C845.302 273.05 842.842 272.969 840.732 273.336C808.914 278.873 803.764 293.413 798.627 323.044C798.174 325.658 798.12 327.714 795.945 329.449C792.686 325.196 792.481 316.998 791.22 311.737C786.782 293.221 778.782 279.901 759.345 275.384C755.086 274.394 748.926 273.928 745.258 271.677C745.1 270.87 744.802 270.175 745.627 269.587C747.069 268.561 750.434 268.261 752.221 267.875C760.579 266.069 769.493 264.138 776.278 258.599C787.235 249.657 790.366 235.377 792.785 222.145C793.483 218.326 793.831 214.022 795.985 210.712Z" data-index="25" style="visibility: visible;"></path>
	<path fill="#6F9047" d="M592.414 358.081C598.169 357.291 604.104 358.279 609.044 361.438C614.88 365.169 618.719 371.526 620.019 378.267C621.498 385.645 619.929 393.307 615.67 399.51C611.341 405.937 605.399 409.424 597.907 410.908C592.508 411.175 587.463 410.359 582.679 407.672C576.986 404.53 572.808 399.214 571.1 392.939C569.118 385.761 570.559 377.957 574.204 371.549C578.287 364.371 584.501 360.185 592.414 358.081Z" data-index="26"></path>
	<path fill="#3F9679" d="M805.325 657.688C816.545 656.727 827.814 658.84 837.923 663.799C845.679 667.64 853.165 673.691 855.829 682.245C856.97 685.911 857.246 689.977 855.323 693.43C853 697.603 848.976 699.211 844.636 700.365C840.661 700.643 836.919 699.984 833.238 698.464C829.771 697.055 826.546 695.113 823.68 692.707C816.527 686.791 811.453 678.521 804.332 672.736C800.787 669.855 795.019 667.12 793.238 662.85C793.29 662.074 793.142 661.593 793.699 660.986C796.077 658.397 801.971 658.1 805.325 657.688Z" data-index="27" style="opacity: 1;"></path>
	<path fill="#E8762B" d="M294.809 683.67C295.78 684.222 296.047 684.345 296.486 685.433C297.26 687.353 297.56 689.756 298.012 691.79C299.447 698.252 301.119 704.654 305.135 710.073C309.925 716.536 323.996 716.899 327.026 721.64C326.208 723.452 314.47 725.66 311.837 726.77C297.944 732.629 300.352 746.078 295.751 757.255C295.551 757.168 295.337 757.108 295.151 756.995C293.046 755.721 291.795 744.594 290.842 741.693C287.351 731.069 282.045 726.615 271.245 723.954C269.133 723.434 266.229 723.088 264.367 722.015C263.644 721.598 263.866 721.688 263.602 720.787C265.829 717.995 274.476 717.81 278.066 715.756C294.771 706.197 287.725 695.324 294.809 683.67Z" data-index="28"></path>
	<path fill="#217A91" d="M410.697 255.296C412.262 256.441 412.455 258.623 412.831 260.396C414.654 268.998 416.292 279.588 425.382 283.628C427.964 284.776 431.067 285.422 433.782 286.262C435.819 286.892 438.147 287.385 439.684 288.934C438.973 289.975 426.497 292.714 423.659 294.467C415.329 299.613 414.031 310.134 412.12 318.869C411.958 318.868 411.022 318.703 410.915 318.615C410.173 318.009 407.46 303.608 404.775 299.493C398.358 289.657 386.837 292.002 383.082 288.278C384.818 285.716 392.211 285.185 395.21 284.083C408.146 279.326 405.956 265.399 410.697 255.296Z" data-index="29" style="visibility: visible; opacity: 1;"></path>
	<path fill="#EFA229" d="M100.373 327.239C109.011 326.222 116.85 332.37 117.92 341.002C118.99 349.634 112.89 357.51 104.264 358.633C95.564 359.766 87.604 353.601 86.5246 344.894C85.4453 336.187 91.659 328.265 100.373 327.239Z" data-index="30"></path>
	<path fill="#E8762B" d="M677.38 233.597C685.862 231.739 694.232 237.157 696.011 245.657C697.789 254.157 692.293 262.475 683.777 264.174C675.373 265.85 667.187 260.442 665.432 252.054C663.677 243.666 669.008 235.431 677.38 233.597Z" data-index="31"></path>
	<path fill="#E8762B" d="M719.938 306.83C721.334 306.922 722.44 306.921 723.492 307.935C727.222 311.531 725.922 319.044 730.149 323.034C733.572 326.265 739.57 326.221 743.21 329.319C742.814 330.858 740.988 331.223 739.609 331.7C730.661 334.791 728.515 335.546 725.636 345.129C724.972 347.337 724.39 349.236 723.143 351.201C722.895 351.252 722.65 351.315 722.4 351.355C716.631 352.279 717.125 342.187 714.945 338.709C711.079 332.538 705.389 333.564 700.334 329.835L700.423 328.476L700.12 329.294C703.397 325.63 710.313 326.045 713.674 321.913C717.19 317.592 716.835 311.435 719.938 306.83Z" data-index="32"></path>
	<path fill="#EFA229" d="M445.939 670.77C453.999 668.935 462.009 674.024 463.772 682.101C465.535 690.177 460.374 698.142 452.282 699.832C444.292 701.501 436.449 696.419 434.709 688.444C432.968 680.47 437.98 672.582 445.939 670.77Z" data-index="33"></path>
	<path fill="#E8762B" d="M343.112 311.272C350.03 310.033 356.649 314.616 357.923 321.528C359.198 328.439 354.65 335.082 347.745 336.392C340.789 337.713 334.087 333.123 332.803 326.161C331.519 319.198 336.143 312.52 343.112 311.272Z" data-index="34"></path>
	<path fill="#217A91" d="M863.628 305.245C870.363 303.323 877.386 307.196 879.355 313.917C881.324 320.638 877.5 327.688 870.792 329.704C864.019 331.739 856.884 327.869 854.896 321.081C852.908 314.294 856.827 307.186 863.628 305.245Z" data-index="35"></path>
	<path fill="#E8762B" d="M97.6404 600.271C104.022 598.444 110.676 602.136 112.503 608.517C114.33 614.898 110.639 621.552 104.258 623.38C97.8765 625.207 91.2223 621.515 89.395 615.134C87.5677 608.753 91.2592 602.099 97.6404 600.271Z" data-index="36"></path>
	<path fill="#45A2AF" d="M380.847 692.26C384.469 691.241 388.36 692.008 391.324 694.326C394.287 696.645 395.969 700.237 395.851 703.997C395.69 709.147 392.209 713.598 387.25 714.995C380.972 716.764 374.448 713.108 372.68 706.83C370.912 700.551 374.568 694.028 380.847 692.26Z" data-index="37"></path>
	<path fill="#EFA229" d="M832.689 370.318C838.847 369.764 844.32 374.229 845.013 380.372C845.707 386.515 841.368 392.088 835.242 392.921C831.154 393.477 827.085 391.776 824.609 388.475C822.133 385.175 821.638 380.793 823.316 377.023C824.993 373.254 828.58 370.688 832.689 370.318Z" data-index="38"></path>
	<path fill="#E8762B" d="M516.481 715.306C519.858 714.632 523.357 715.54 525.981 717.77C528.605 720 530.065 723.307 529.945 726.749C529.761 732.03 525.93 736.474 520.733 737.435C514.645 738.56 508.789 734.561 507.621 728.481C506.452 722.401 510.409 716.518 516.481 715.306Z" data-index="39"></path>
	<path fill="#EFA229" d="M451.011 343.203C454.423 342.358 458.034 343.168 460.757 345.389C463.481 347.611 465.001 350.984 464.86 354.496C464.662 359.42 461.261 363.633 456.489 364.865C450.494 366.412 444.384 362.789 442.866 356.787C441.348 350.784 445.001 344.692 451.011 343.203Z" data-index="40"></path>
	<path fill="#E8762B" d="M744.888 670.244C750.752 669.192 756.361 673.085 757.426 678.946C758.491 684.808 754.611 690.426 748.752 691.504C742.874 692.586 737.234 688.69 736.165 682.81C735.097 676.93 739.005 671.299 744.888 670.244Z" data-index="41" style="opacity: 1;"></path>
	<path fill="#E8762B" d="M345.494 231.85C351.036 230.863 356.356 234.467 357.496 239.979C358.636 245.491 355.182 250.909 349.704 252.202C346.022 253.071 342.159 251.871 339.617 249.07C337.076 246.268 336.256 242.307 337.478 238.727C338.7 235.147 341.77 232.513 345.494 231.85Z" data-index="42"></path>
	<path fill="#45A2AF" d="M653.46 305.795C656.522 305.093 659.737 305.853 662.162 307.85C664.586 309.848 665.947 312.858 665.844 315.998C665.691 320.683 662.343 324.65 657.751 325.589C652.317 326.701 646.999 323.234 645.824 317.813C644.649 312.392 648.053 307.034 653.46 305.795Z" data-index="43"></path>
	<path fill="#45A2AF" d="M211.593 703.896C216.704 702.365 222.092 705.255 223.642 710.361C225.192 715.466 222.321 720.864 217.221 722.433C212.095 724.01 206.663 721.121 205.105 715.989C203.547 710.857 206.455 705.436 211.593 703.896Z" data-index="44"></path>
	<path fill="#217A91" d="M139.65 381.315C142.988 380.456 146.529 381.457 148.924 383.935C151.319 386.413 152.198 389.986 151.227 393.293C150.256 396.599 147.583 399.129 144.229 399.918C139.116 401.12 133.989 397.982 132.734 392.882C131.479 387.782 134.564 382.623 139.65 381.315Z" data-index="45"></path>
</svg>