<?xml version="1.0" encoding="utf-8"?>
<svg xmlns="http://www.w3.org/2000/svg" viewBox="0 0 500 500" xmlns:bx="https://boxy-svg.com" width="500px" height="500px">
<defs>
    <radialGradient id="paint0_radial_16771_53212" cx="0" cy="0" r="1" gradientUnits="userSpaceOnUse" gradientTransform="matrix(36.037743, 12.186327, -97.620239, 288.685272, 160.053957, 207.162097)">
        <stop offset="0.0671" stop-color="#9168C0"/>
        <stop offset="0.3426" stop-color="#5684D1"/>
        <stop offset="0.6721" stop-color="#1BA1E3"/>
    </radialGradient>
    <radialGradient id="paint1_radial_16771_53213" cx="0" cy="0" r="1" gradientUnits="userSpaceOnUse" gradientTransform="matrix(14.86541, 0, 0, 118.644592, 131.993894, 275.878453)">
        <stop offset="0.3851" stop-color="#9E72BA"/>
        <stop offset="0.7343" stop-color="#D65C67"/>
        <stop offset="0.931" stop-color="#D6635C"/>
    </radialGradient>
    <bx:export>
        <bx:file format="svg"/>
    </bx:export>
</defs>
<style>
    path {
        transform-origin: center center;
        opacity: 0; /* Crucial: all paths start invisible */
    }

    /* Keyframes for Entrance Animations */
    @keyframes fadeInScaleUp {
        from { opacity: 0; transform: scale(0.8); }
        to   { opacity: 1; transform: scale(1); }
    }

    @keyframes fadeInScaleRotate {
        from { opacity: 0; transform: scale(0.7) rotate(-15deg); }
        to   { opacity: 1; transform: scale(1)   rotate(0deg); }
    }

    /* Keyframes for Continuous Animations */
    @keyframes gentlePulse {
        0%, 100% { transform: scale(1); }
        50%      { transform: scale(1.03); }
    }

    @keyframes subtleFloat {
        0%, 100% { transform: translateY(0px) rotate(0deg) scale(1); }
        25%      { transform: translateY(-1.5px) rotate(-0.7deg) scale(1); }
        75%      { transform: translateY(1px) rotate(0.5deg) scale(1); }
    }

    @keyframes shimmer {
        0%, 100% { opacity: 0.6; transform: scale(1); }
        50%      { opacity: 1;   transform: scale(1.08); }
    }

    /* --- Animation Applications --- */

    /* Group 1: Pre-elements (Face and initial decor: pre-1 to pre-17) */
    /* Entrance: 0.6s duration, 0.04s stagger. Continuous: 8s duration. */
    path[data-index="pre-1"]   { animation: fadeInScaleUp 0.6s ease-out 0.00s forwards, subtleFloat 8s ease-in-out 0.60s infinite; }
    path[data-index="pre-2"]   { animation: fadeInScaleUp 0.6s ease-out 0.04s forwards, subtleFloat 8s ease-in-out 0.64s infinite; }
    path[data-index="pre-3"]   { animation: fadeInScaleRotate 0.6s ease-out 0.08s forwards, subtleFloat 8s ease-in-out 0.68s infinite; }
    path[data-index="pre-4"]   { animation: fadeInScaleRotate 0.6s ease-out 0.12s forwards, subtleFloat 8s ease-in-out 0.72s infinite; }
    path[data-index="pre-5"]   { animation: fadeInScaleRotate 0.6s ease-out 0.16s forwards, subtleFloat 8s ease-in-out 0.76s infinite; }
    path[data-index="pre-6"]   { animation: fadeInScaleRotate 0.6s ease-out 0.20s forwards, subtleFloat 8s ease-in-out 0.80s infinite; }
    path[data-index="pre-7"]   { animation: fadeInScaleRotate 0.6s ease-out 0.24s forwards, subtleFloat 8s ease-in-out 0.84s infinite; }
    path[data-index="pre-8"]   { animation: fadeInScaleRotate 0.6s ease-out 0.28s forwards, subtleFloat 8s ease-in-out 0.88s infinite; }
    path[data-index="pre-9"]   { animation: fadeInScaleRotate 0.6s ease-out 0.32s forwards, subtleFloat 8s ease-in-out 0.92s infinite; }
    path[data-index="pre-10"]  { animation: fadeInScaleRotate 0.6s ease-out 0.36s forwards, subtleFloat 8s ease-in-out 0.96s infinite; }
    path[data-index="pre-11"]  { animation: fadeInScaleRotate 0.6s ease-out 0.40s forwards, subtleFloat 8s ease-in-out 1.00s infinite; }
    path[data-index="pre-12"]  { animation: fadeInScaleRotate 0.6s ease-out 0.44s forwards, subtleFloat 8s ease-in-out 1.04s infinite; }
    path[data-index="pre-13"]  { animation: fadeInScaleRotate 0.6s ease-out 0.48s forwards, subtleFloat 8s ease-in-out 1.08s infinite; }
    path[data-index="pre-14"]  { animation: fadeInScaleRotate 0.6s ease-out 0.52s forwards, subtleFloat 8s ease-in-out 1.12s infinite; }
    path[data-index="pre-15"]  { animation: fadeInScaleRotate 0.6s ease-out 0.56s forwards, subtleFloat 8s ease-in-out 1.16s infinite; }
    path[data-index="pre-16"]  { animation: fadeInScaleRotate 0.6s ease-out 0.60s forwards, subtleFloat 8s ease-in-out 1.20s infinite; }
    path[data-index="pre-17"]  { animation: fadeInScaleRotate 0.6s ease-out 0.64s forwards, subtleFloat 8s ease-in-out 1.24s infinite; }

    /* Group 2: Core Logo (data-index 1-4) - Start after pre-elements */
    /* Entrance: 0.7s duration. Continuous: 6s duration. Base delay: 0.7s (pre-17 ends at 0.64+0.6 = 1.24s) */
    path[data-index="1"]  { animation: fadeInScaleUp 0.7s ease-out 0.80s forwards, gentlePulse 6.0s ease-in-out 1.50s infinite; }
    path[data-index="2"]  { animation: fadeInScaleUp 0.7s ease-out 0.85s forwards, gentlePulse 6.0s ease-in-out 1.55s infinite; }
    path[data-index="3"]  { animation: fadeInScaleUp 0.7s ease-out 0.90s forwards, gentlePulse 6.2s ease-in-out 1.60s infinite; }
    path[data-index="4"]  { animation: fadeInScaleUp 0.7s ease-out 0.95s forwards, gentlePulse 6.2s ease-in-out 1.65s infinite; }

    /* Group 3: Supporting Elements (data-index 5-69) - Start after Core Logo */
    /* Entrance: 0.5s duration, 0.02s stagger. Continuous: 8.5s duration. Base delay: 1.1s (data-index 4 ends at 0.95+0.7 = 1.65s) */
    /* Let's say Group 3 starts appearing around 1.2s */
    path[data-index="5"]   { animation: fadeInScaleRotate 0.5s ease-out 1.70s forwards, subtleFloat 8.5s ease-in-out 2.20s infinite; }
    path[data-index="6"]   { animation: fadeInScaleRotate 0.5s ease-out 1.72s forwards, subtleFloat 8.5s ease-in-out 2.22s infinite; }
    path[data-index="7"]   { animation: fadeInScaleRotate 0.5s ease-out 1.74s forwards, subtleFloat 8.5s ease-in-out 2.24s infinite; }
    /* ... pattern continues for data-index 8 to 68 ... */
    /* Example for a few more: */
    path[data-index="8"]   { animation: fadeInScaleRotate 0.5s ease-out 1.76s forwards, subtleFloat 8.5s ease-in-out 2.26s infinite; }
    path[data-index="9"]   { animation: fadeInScaleRotate 0.5s ease-out 1.78s forwards, subtleFloat 8.5s ease-in-out 2.28s infinite; }
    path[data-index="10"]  { animation: fadeInScaleRotate 0.5s ease-out 1.80s forwards, subtleFloat 8.5s ease-in-out 2.30s infinite; }
    /* To keep this example concise, I'll skip listing all 65 individually. */
    /* The last one in this group would be: */
    /* data-index 69 is (69-5) = 64th element in this group. 64 * 0.02s = 1.28s stagger offset */
    /* Entrance delay for 69: 1.70s + 1.28s = 2.98s */
    /* Continuous delay for 69: 2.98s + 0.5s = 3.48s */
    path[data-index="11"] { animation: fadeInScaleRotate 0.5s ease-out calc(1.70s + (11 - 5) * 0.02s) forwards, subtleFloat 8.5s ease-in-out calc(1.70s + (11 - 5) * 0.02s + 0.5s) infinite; }
    path[data-index="12"] { animation: fadeInScaleRotate 0.5s ease-out calc(1.70s + (12 - 5) * 0.02s) forwards, subtleFloat 8.5s ease-in-out calc(1.70s + (12 - 5) * 0.02s + 0.5s) infinite; }
    path[data-index="13"] { animation: fadeInScaleRotate 0.5s ease-out calc(1.70s + (13 - 5) * 0.02s) forwards, subtleFloat 8.5s ease-in-out calc(1.70s + (13 - 5) * 0.02s + 0.5s) infinite; }
    path[data-index="14"] { animation: fadeInScaleRotate 0.5s ease-out calc(1.70s + (14 - 5) * 0.02s) forwards, subtleFloat 8.5s ease-in-out calc(1.70s + (14 - 5) * 0.02s + 0.5s) infinite; }
    path[data-index="15"] { animation: fadeInScaleRotate 0.5s ease-out calc(1.70s + (15 - 5) * 0.02s) forwards, subtleFloat 8.5s ease-in-out calc(1.70s + (15 - 5) * 0.02s + 0.5s) infinite; }
    path[data-index="16"] { animation: fadeInScaleRotate 0.5s ease-out calc(1.70s + (16 - 5) * 0.02s) forwards, subtleFloat 8.5s ease-in-out calc(1.70s + (16 - 5) * 0.02s + 0.5s) infinite; }
    path[data-index="17"] { animation: fadeInScaleRotate 0.5s ease-out calc(1.70s + (17 - 5) * 0.02s) forwards, subtleFloat 8.5s ease-in-out calc(1.70s + (17 - 5) * 0.02s + 0.5s) infinite; }
    path[data-index="18"] { animation: fadeInScaleRotate 0.5s ease-out calc(1.70s + (18 - 5) * 0.02s) forwards, subtleFloat 8.5s ease-in-out calc(1.70s + (18 - 5) * 0.02s + 0.5s) infinite; }
    path[data-index="19"] { animation: fadeInScaleRotate 0.5s ease-out calc(1.70s + (19 - 5) * 0.02s) forwards, subtleFloat 8.5s ease-in-out calc(1.70s + (19 - 5) * 0.02s + 0.5s) infinite; }
    path[data-index="20"] { animation: fadeInScaleRotate 0.5s ease-out calc(1.70s + (20 - 5) * 0.02s) forwards, subtleFloat 8.5s ease-in-out calc(1.70s + (20 - 5) * 0.02s + 0.5s) infinite; }
    path[data-index="21"] { animation: fadeInScaleRotate 0.5s ease-out calc(1.70s + (21 - 5) * 0.02s) forwards, subtleFloat 8.5s ease-in-out calc(1.70s + (21 - 5) * 0.02s + 0.5s) infinite; }
    path[data-index="22"] { animation: fadeInScaleRotate 0.5s ease-out calc(1.70s + (22 - 5) * 0.02s) forwards, subtleFloat 8.5s ease-in-out calc(1.70s + (22 - 5) * 0.02s + 0.5s) infinite; }
    path[data-index="23"] { animation: fadeInScaleRotate 0.5s ease-out calc(1.70s + (23 - 5) * 0.02s) forwards, subtleFloat 8.5s ease-in-out calc(1.70s + (23 - 5) * 0.02s + 0.5s) infinite; }
    path[data-index="24"] { animation: fadeInScaleRotate 0.5s ease-out calc(1.70s + (24 - 5) * 0.02s) forwards, subtleFloat 8.5s ease-in-out calc(1.70s + (24 - 5) * 0.02s + 0.5s) infinite; }
    path[data-index="25"] { animation: fadeInScaleRotate 0.5s ease-out calc(1.70s + (25 - 5) * 0.02s) forwards, subtleFloat 8.5s ease-in-out calc(1.70s + (25 - 5) * 0.02s + 0.5s) infinite; }
    path[data-index="26"] { animation: fadeInScaleRotate 0.5s ease-out calc(1.70s + (26 - 5) * 0.02s) forwards, subtleFloat 8.5s ease-in-out calc(1.70s + (26 - 5) * 0.02s + 0.5s) infinite; }
    path[data-index="27"] { animation: fadeInScaleRotate 0.5s ease-out calc(1.70s + (27 - 5) * 0.02s) forwards, subtleFloat 8.5s ease-in-out calc(1.70s + (27 - 5) * 0.02s + 0.5s) infinite; }
    path[data-index="28"] { animation: fadeInScaleRotate 0.5s ease-out calc(1.70s + (28 - 5) * 0.02s) forwards, subtleFloat 8.5s ease-in-out calc(1.70s + (28 - 5) * 0.02s + 0.5s) infinite; }
    path[data-index="29"] { animation: fadeInScaleRotate 0.5s ease-out calc(1.70s + (29 - 5) * 0.02s) forwards, subtleFloat 8.5s ease-in-out calc(1.70s + (29 - 5) * 0.02s + 0.5s) infinite; }
    path[data-index="30"] { animation: fadeInScaleRotate 0.5s ease-out calc(1.70s + (30 - 5) * 0.02s) forwards, subtleFloat 8.5s ease-in-out calc(1.70s + (30 - 5) * 0.02s + 0.5s) infinite; }
    path[data-index="31"] { animation: fadeInScaleRotate 0.5s ease-out calc(1.70s + (31 - 5) * 0.02s) forwards, subtleFloat 8.5s ease-in-out calc(1.70s + (31 - 5) * 0.02s + 0.5s) infinite; }
    path[data-index="32"] { animation: fadeInScaleRotate 0.5s ease-out calc(1.70s + (32 - 5) * 0.02s) forwards, subtleFloat 8.5s ease-in-out calc(1.70s + (32 - 5) * 0.02s + 0.5s) infinite; }
    path[data-index="33"] { animation: fadeInScaleRotate 0.5s ease-out calc(1.70s + (33 - 5) * 0.02s) forwards, subtleFloat 8.5s ease-in-out calc(1.70s + (33 - 5) * 0.02s + 0.5s) infinite; }
    path[data-index="34"] { animation: fadeInScaleRotate 0.5s ease-out calc(1.70s + (34 - 5) * 0.02s) forwards, subtleFloat 8.5s ease-in-out calc(1.70s + (34 - 5) * 0.02s + 0.5s) infinite; }
    path[data-index="35"] { animation: fadeInScaleRotate 0.5s ease-out calc(1.70s + (35 - 5) * 0.02s) forwards, subtleFloat 8.5s ease-in-out calc(1.70s + (35 - 5) * 0.02s + 0.5s) infinite; }
    path[data-index="36"] { animation: fadeInScaleRotate 0.5s ease-out calc(1.70s + (36 - 5) * 0.02s) forwards, subtleFloat 8.5s ease-in-out calc(1.70s + (36 - 5) * 0.02s + 0.5s) infinite; }
    path[data-index="37"] { animation: fadeInScaleRotate 0.5s ease-out calc(1.70s + (37 - 5) * 0.02s) forwards, subtleFloat 8.5s ease-in-out calc(1.70s + (37 - 5) * 0.02s + 0.5s) infinite; }
    path[data-index="38"] { animation: fadeInScaleRotate 0.5s ease-out calc(1.70s + (38 - 5) * 0.02s) forwards, subtleFloat 8.5s ease-in-out calc(1.70s + (38 - 5) * 0.02s + 0.5s) infinite; }
    path[data-index="39"] { animation: fadeInScaleRotate 0.5s ease-out calc(1.70s + (39 - 5) * 0.02s) forwards, subtleFloat 8.5s ease-in-out calc(1.70s + (39 - 5) * 0.02s + 0.5s) infinite; }
    path[data-index="40"] { animation: fadeInScaleRotate 0.5s ease-out calc(1.70s + (40 - 5) * 0.02s) forwards, subtleFloat 8.5s ease-in-out calc(1.70s + (40 - 5) * 0.02s + 0.5s) infinite; }
    path[data-index="41"] { animation: fadeInScaleRotate 0.5s ease-out calc(1.70s + (41 - 5) * 0.02s) forwards, subtleFloat 8.5s ease-in-out calc(1.70s + (41 - 5) * 0.02s + 0.5s) infinite; }
    path[data-index="42"] { animation: fadeInScaleRotate 0.5s ease-out calc(1.70s + (42 - 5) * 0.02s) forwards, subtleFloat 8.5s ease-in-out calc(1.70s + (42 - 5) * 0.02s + 0.5s) infinite; }
    path[data-index="43"] { animation: fadeInScaleRotate 0.5s ease-out calc(1.70s + (43 - 5) * 0.02s) forwards, subtleFloat 8.5s ease-in-out calc(1.70s + (43 - 5) * 0.02s + 0.5s) infinite; }
    path[data-index="44"] { animation: fadeInScaleRotate 0.5s ease-out calc(1.70s + (44 - 5) * 0.02s) forwards, subtleFloat 8.5s ease-in-out calc(1.70s + (44 - 5) * 0.02s + 0.5s) infinite; }
    path[data-index="45"] { animation: fadeInScaleRotate 0.5s ease-out calc(1.70s + (45 - 5) * 0.02s) forwards, subtleFloat 8.5s ease-in-out calc(1.70s + (45 - 5) * 0.02s + 0.5s) infinite; }
    path[data-index="46"] { animation: fadeInScaleRotate 0.5s ease-out calc(1.70s + (46 - 5) * 0.02s) forwards, subtleFloat 8.5s ease-in-out calc(1.70s + (46 - 5) * 0.02s + 0.5s) infinite; }
    path[data-index="47"] { animation: fadeInScaleRotate 0.5s ease-out calc(1.70s + (47 - 5) * 0.02s) forwards, subtleFloat 8.5s ease-in-out calc(1.70s + (47 - 5) * 0.02s + 0.5s) infinite; }
    path[data-index="48"] { animation: fadeInScaleRotate 0.5s ease-out calc(1.70s + (48 - 5) * 0.02s) forwards, subtleFloat 8.5s ease-in-out calc(1.70s + (48 - 5) * 0.02s + 0.5s) infinite; }
    path[data-index="49"] { animation: fadeInScaleRotate 0.5s ease-out calc(1.70s + (49 - 5) * 0.02s) forwards, subtleFloat 8.5s ease-in-out calc(1.70s + (49 - 5) * 0.02s + 0.5s) infinite; }
    path[data-index="50"] { animation: fadeInScaleRotate 0.5s ease-out calc(1.70s + (50 - 5) * 0.02s) forwards, subtleFloat 8.5s ease-in-out calc(1.70s + (50 - 5) * 0.02s + 0.5s) infinite; }
    path[data-index="51"] { animation: fadeInScaleRotate 0.5s ease-out calc(1.70s + (51 - 5) * 0.02s) forwards, subtleFloat 8.5s ease-in-out calc(1.70s + (51 - 5) * 0.02s + 0.5s) infinite; }
    path[data-index="52"] { animation: fadeInScaleRotate 0.5s ease-out calc(1.70s + (52 - 5) * 0.02s) forwards, subtleFloat 8.5s ease-in-out calc(1.70s + (52 - 5) * 0.02s + 0.5s) infinite; }
    path[data-index="53"] { animation: fadeInScaleRotate 0.5s ease-out calc(1.70s + (53 - 5) * 0.02s) forwards, subtleFloat 8.5s ease-in-out calc(1.70s + (53 - 5) * 0.02s + 0.5s) infinite; }
    path[data-index="54"] { animation: fadeInScaleRotate 0.5s ease-out calc(1.70s + (54 - 5) * 0.02s) forwards, subtleFloat 8.5s ease-in-out calc(1.70s + (54 - 5) * 0.02s + 0.5s) infinite; }
    path[data-index="55"] { animation: fadeInScaleRotate 0.5s ease-out calc(1.70s + (55 - 5) * 0.02s) forwards, subtleFloat 8.5s ease-in-out calc(1.70s + (55 - 5) * 0.02s + 0.5s) infinite; }
    path[data-index="56"] { animation: fadeInScaleRotate 0.5s ease-out calc(1.70s + (56 - 5) * 0.02s) forwards, subtleFloat 8.5s ease-in-out calc(1.70s + (56 - 5) * 0.02s + 0.5s) infinite; }
    path[data-index="57"] { animation: fadeInScaleRotate 0.5s ease-out calc(1.70s + (57 - 5) * 0.02s) forwards, subtleFloat 8.5s ease-in-out calc(1.70s + (57 - 5) * 0.02s + 0.5s) infinite; }
    path[data-index="58"] { animation: fadeInScaleRotate 0.5s ease-out calc(1.70s + (58 - 5) * 0.02s) forwards, subtleFloat 8.5s ease-in-out calc(1.70s + (58 - 5) * 0.02s + 0.5s) infinite; }
    path[data-index="59"] { animation: fadeInScaleRotate 0.5s ease-out calc(1.70s + (59 - 5) * 0.02s) forwards, subtleFloat 8.5s ease-in-out calc(1.70s + (59 - 5) * 0.02s + 0.5s) infinite; }
    path[data-index="60"] { animation: fadeInScaleRotate 0.5s ease-out calc(1.70s + (60 - 5) * 0.02s) forwards, subtleFloat 8.5s ease-in-out calc(1.70s + (60 - 5) * 0.02s + 0.5s) infinite; }
    path[data-index="61"] { animation: fadeInScaleRotate 0.5s ease-out calc(1.70s + (61 - 5) * 0.02s) forwards, subtleFloat 8.5s ease-in-out calc(1.70s + (61 - 5) * 0.02s + 0.5s) infinite; }
    path[data-index="62"] { animation: fadeInScaleRotate 0.5s ease-out calc(1.70s + (62 - 5) * 0.02s) forwards, subtleFloat 8.5s ease-in-out calc(1.70s + (62 - 5) * 0.02s + 0.5s) infinite; }
    path[data-index="63"] { animation: fadeInScaleRotate 0.5s ease-out calc(1.70s + (63 - 5) * 0.02s) forwards, subtleFloat 8.5s ease-in-out calc(1.70s + (63 - 5) * 0.02s + 0.5s) infinite; }
    path[data-index="64"] { animation: fadeInScaleRotate 0.5s ease-out calc(1.70s + (64 - 5) * 0.02s) forwards, subtleFloat 8.5s ease-in-out calc(1.70s + (64 - 5) * 0.02s + 0.5s) infinite; }
    path[data-index="65"] { animation: fadeInScaleRotate 0.5s ease-out calc(1.70s + (65 - 5) * 0.02s) forwards, subtleFloat 8.5s ease-in-out calc(1.70s + (65 - 5) * 0.02s + 0.5s) infinite; }
    path[data-index="66"] { animation: fadeInScaleRotate 0.5s ease-out calc(1.70s + (66 - 5) * 0.02s) forwards, subtleFloat 8.5s ease-in-out calc(1.70s + (66 - 5) * 0.02s + 0.5s) infinite; }
    path[data-index="67"] { animation: fadeInScaleRotate 0.5s ease-out calc(1.70s + (67 - 5) * 0.02s) forwards, subtleFloat 8.5s ease-in-out calc(1.70s + (67 - 5) * 0.02s + 0.5s) infinite; }
    path[data-index="68"] { animation: fadeInScaleRotate 0.5s ease-out calc(1.70s + (68 - 5) * 0.02s) forwards, subtleFloat 8.5s ease-in-out calc(1.70s + (68 - 5) * 0.02s + 0.5s) infinite; }
    path[data-index="69"] { animation: fadeInScaleRotate 0.5s ease-out calc(1.70s + (69 - 5) * 0.02s) forwards, subtleFloat 8.5s ease-in-out calc(1.70s + (69 - 5) * 0.02s + 0.5s) infinite; }


    /* Group 4: Sparkles - Start after Group 3 finishes */
    /* Group 3's last element (69) entrance ends at 2.98s + 0.5s = 3.48s. Let sparkles start around 3.0s */
    path[data-index="sparkle-1"] { animation: fadeInScaleUp 0.5s ease-out 3.00s forwards, shimmer 3.0s ease-in-out 3.50s infinite; }
    path[data-index="sparkle-2"] { animation: fadeInScaleUp 0.5s ease-out 3.05s forwards, shimmer 3.2s ease-in-out 3.55s infinite; }

</style>
<path data-index="pre-1" fill="#3469B2" d="M 105.606 256.445 C 107.572 256.129 110.069 256.644 111.698 257.81 C 114.165 259.578 115.244 262.478 115.677 265.378 C 116.692 272.165 117.528 278.995 118.486 285.793 C 119.122 290.309 120.363 295.461 120.096 300.004 C 119.996 301.713 119.579 303.153 118.537 304.528 C 117.501 305.896 116.063 307.052 114.423 307.594 C 110.129 309.011 101.917 309.575 97.011 310.259 L 58.417 315.656 C 55.89 315.874 53.52 315.552 51.458 313.95 C 50.322 313.069 49.44 311.94 48.938 310.593 C 47.434 306.553 47.243 301.716 46.659 297.452 L 43.871 277.196 C 43.375 273.589 43.003 270.438 45.389 267.368 C 46.623 265.783 48.289 264.921 50.194 264.375 C 52.482 263.719 54.972 263.518 57.328 263.189 L 69.23 261.544 L 105.606 256.445 Z" />
<path data-index="pre-2" fill="#FEFDF6" d="M 103.458 265.48 C 104.087 265.347 105.019 265.292 105.636 265.486 C 106.36 265.713 106.999 266.282 107.315 266.97 C 108.103 268.687 111.343 293.238 111.521 296.109 C 111.579 297.04 111.541 297.841 111.196 298.724 C 110.246 299.491 108.771 299.828 107.593 300.065 C 102.703 301.051 97.546 301.466 92.599 302.149 L 60.643 306.631 C 59.613 306.725 58.252 306.853 57.34 306.279 C 56.419 305.699 56.173 304.943 55.94 303.945 C 54.696 298.611 54.354 292.715 53.637 287.268 C 53.157 283.617 52.271 279.838 52.108 276.169 C 52.074 275.404 52.068 274.154 52.534 273.522 C 53.05 272.822 55.117 272.387 55.943 272.214 C 61.357 271.079 67.07 270.58 72.552 269.806 L 103.458 265.48 Z" />
<path data-index="pre-3" fill="#0E0E0D" d="M 92.318 272.744 C 94.242 272.581 96.054 272.625 97.894 273.275 C 100.946 274.353 102.742 276.555 104.123 279.38 C 102.253 279.724 100.367 279.983 98.487 280.268 C 98.453 280.224 98.417 280.181 98.383 280.137 C 97.991 279.63 97.621 279.146 97.098 278.763 C 95.955 277.928 94.692 277.553 93.276 277.797 C 91.857 278.044 90.606 278.872 89.823 280.081 C 88.709 281.824 88.553 284.193 89.028 286.167 C 89.478 288.036 90.571 289.873 92.264 290.861 C 93.375 291.51 94.68 291.715 95.925 291.364 C 98.151 290.737 98.284 289.552 99.415 287.843 C 99.782 287.288 100.571 287.304 101.175 287.198 L 105.178 286.8 C 104.883 288.362 104.54 289.894 103.784 291.305 C 102.49 293.723 100.352 295.218 97.75 295.989 C 94.878 296.841 91.796 296.593 89.163 295.132 C 86.333 293.524 84.275 290.837 83.458 287.685 C 82.601 284.49 82.912 280.92 84.603 278.045 C 86.386 275.015 89.01 273.59 92.318 272.744 Z" />
<path data-index="pre-4" fill="#0E0E0D" d="M 68.361 276.172 C 70.371 276.032 72.269 276.041 74.181 276.759 C 77.033 277.83 78.742 279.894 79.974 282.602 C 78.201 282.938 76.412 283.219 74.633 283.524 C 74.242 283.132 73.846 282.733 73.417 282.382 C 72.325 281.491 70.669 280.854 69.261 281.067 C 68.077 281.246 67.067 281.973 66.352 282.91 C 65.096 284.558 64.745 286.663 65.023 288.683 C 65.284 290.577 66.072 292.593 67.671 293.748 C 68.751 294.529 70.306 294.941 71.629 294.697 C 73.595 294.334 74.593 292.455 75.632 290.946 C 76.55 290.556 77.593 290.51 78.576 290.389 L 81.284 290.055 C 80.916 291.778 80.525 293.358 79.615 294.883 C 78.179 297.291 75.951 298.713 73.256 299.364 C 70.371 300.062 67.349 299.696 64.805 298.125 C 62.078 296.441 60.258 293.703 59.529 290.603 C 58.779 287.411 59.148 283.892 60.897 281.08 C 62.645 278.27 65.213 276.877 68.361 276.172 Z" />
<path data-index="pre-5" fill="#F16634" d="M 59.105 136.884 C 75.914 135.067 91.009 147.233 92.809 164.048 C 94.608 180.863 82.428 195.949 65.616 197.731 C 48.828 199.51 33.773 187.35 31.977 170.56 C 30.18 153.77 42.322 138.699 59.105 136.884 Z" />
<path data-index="pre-6" fill="#FFBF2D" d="M 425.174 170.216 C 425.773 170.106 426.345 170.016 426.954 170.073 C 427.683 170.141 428.467 170.457 428.9 171.077 C 429.863 172.444 434.585 185.84 434.396 187.165 C 439.3 187.268 444.263 187.223 449.154 187.533 C 450.462 187.616 452.662 187.729 453.544 188.859 C 453.921 189.342 453.996 189.972 453.866 190.556 C 453.661 191.465 453.101 192.285 452.467 192.95 C 450.355 195.163 442.281 201.054 439.502 202.666 C 439.818 202.964 439.941 203.191 440.098 203.597 C 441.289 206.677 442.18 209.907 443.189 213.052 C 443.778 214.889 444.653 216.819 444.943 218.722 C 445.07 219.554 445.07 220.489 444.693 221.257 C 444.458 221.731 444.074 222.071 443.57 222.232 C 440.283 223.276 430.664 214.284 427.224 212.582 C 427.162 212.551 427.097 212.523 427.035 212.493 L 426.703 212.074 C 424.585 211.925 414.34 222.124 411.096 222.429 C 410.348 222.499 409.56 222.038 409.026 221.553 C 408.45 221.028 408.252 220.257 408.284 219.498 C 408.333 218.368 408.886 217.277 409.222 216.213 C 410.035 213.646 413.293 204.657 413.123 202.718 C 413.12 202.668 413.11 202.618 413.104 202.569 C 411.851 200.394 403.354 195.494 400.855 193.322 C 399.954 192.541 399.117 191.548 399.075 190.299 C 399.052 189.661 399.208 189.156 399.664 188.699 C 400.334 188.027 401.34 187.707 402.258 187.552 C 405.909 186.934 413.924 187.276 418.086 187.192 C 420.878 184.598 421.75 173.683 425.174 170.216 Z" />
<path data-index="pre-7" fill="#F16634" d="M 418.725 314.32 C 426.04 313.728 433.421 316.938 437.583 323.048 C 439.262 325.514 440.619 328.705 443.232 330.331 C 450.355 334.764 452.786 323.491 458.283 322.274 C 459.51 322.003 460.632 322.297 461.664 322.972 C 463.057 323.879 464.254 325.322 464.589 326.975 C 464.967 328.857 464.28 330.711 463.245 332.263 C 460.19 336.845 454.163 341.081 448.8 342.089 C 442.018 343.365 438.936 340.562 433.743 337.024 C 433.248 335.396 427.788 328.225 426.268 327.196 C 412.831 318.088 404.976 342.3 398.783 343.38 C 397.374 343.626 395.926 343.293 394.764 342.455 C 393.524 341.569 392.515 340.239 392.307 338.7 C 391.773 334.794 397.24 328.837 399.616 325.842 C 404.735 319.388 410.394 315.276 418.725 314.32 Z" />
<path data-index="pre-8" fill="#FFBF2D" d="M 108.163 330.673 C 108.571 330.747 109.01 330.818 109.387 330.995 C 111.477 331.974 114.608 343.058 115.737 345.802 C 119.075 345.803 128.346 345.149 131.072 346.661 C 131.746 347.034 131.862 347.228 132.059 347.92 C 131.321 350.685 122.73 356.4 120.155 358.521 C 121.629 362.432 123.243 366.509 124.402 370.519 C 124.698 371.541 125.121 373.214 124.503 374.168 C 124.307 374.471 124.089 374.621 123.733 374.684 C 121.193 375.133 112.919 368.71 110.459 367.027 C 107.732 366.023 100.361 375.674 96.598 375.14 C 96.159 375.077 95.824 374.911 95.576 374.535 C 94.305 372.606 98.107 361.414 98.869 358.716 C 96.283 356.79 87.638 351.927 86.852 349.103 C 86.668 348.441 86.801 348.159 87.082 347.585 C 89.287 345.7 98.861 346.163 102.135 345.896 C 103.359 341.858 104.438 337.691 105.856 333.721 C 106.387 332.237 106.67 331.387 108.163 330.673 Z" />
<path data-index="pre-9" fill="#FFBF2D" d="M 377.87 136.625 C 380.984 136.186 394.437 137.758 396.972 139.558 C 398.147 140.392 398.84 141.569 399.077 142.977 C 399.39 144.831 397.707 156.986 397.118 159.287 C 396.874 160.245 396.493 161.253 395.882 162.04 C 394.909 163.295 393.506 163.88 391.98 164.11 C 390.382 164.432 378.013 162.662 376.282 162.14 C 374.576 161.626 373.174 160.865 372.331 159.224 C 371.84 158.253 371.563 157.189 371.514 156.102 C 371.345 152.88 372.76 144.148 373.766 141.01 C 374.557 138.537 375.637 137.763 377.87 136.625 Z" />
<path data-index="pre-10" fill="#3469B2" d="M 365.215 366.172 C 371.378 365.182 377.174 369.382 378.154 375.547 C 379.133 381.712 374.926 387.503 368.759 388.473 C 362.608 389.44 356.835 385.243 355.856 379.092 C 354.88 372.94 359.068 367.159 365.215 366.172 Z" />
<path data-index="pre-11" fill="#3469B2" d="M 79.779 214.141 C 83.706 213.354 87.752 214.738 90.375 217.766 C 92.997 220.793 93.79 224.997 92.452 228.772 C 91.113 232.547 87.85 235.312 83.906 236.011 C 77.904 237.074 72.164 233.109 71.033 227.117 C 69.902 221.126 73.802 215.34 79.779 214.141 Z" />
<path data-index="pre-12" fill="#F16634" d="M 140.901 132.483 C 141.442 132.563 142.023 132.633 142.526 132.855 C 143.291 133.191 143.9 133.766 144.185 134.558 C 144.349 135.014 144.441 135.428 144.332 135.905 C 143.604 139.082 141.656 142.606 140.38 145.625 L 131.415 166.745 C 130.456 168.987 130.092 170.861 127.653 171.839 C 127.231 171.817 126.813 171.747 126.407 171.63 C 125.649 171.41 124.922 170.886 124.565 170.168 C 123.956 168.94 124.377 167.922 124.813 166.726 C 127.403 159.618 130.751 152.629 133.709 145.659 C 135.006 142.602 137.217 136.292 138.852 133.884 C 139.339 133.165 140.139 132.837 140.901 132.483 Z" />
<path data-index="pre-13" fill="#3469B2" d="M 457.68 247.814 C 458.773 247.609 460.218 247.748 461.214 248.292 C 461.553 248.477 461.8 248.903 461.888 249.271 C 462.129 250.26 461.601 251.48 461.097 252.322 C 459.06 255.707 451.113 262.833 448.015 265.97 C 444.751 269.274 441.653 272.927 438.178 276.006 C 437.67 276.459 437.198 276.741 436.531 276.911 C 436.228 276.96 435.913 277.011 435.607 276.997 C 434.839 276.961 434.054 276.523 433.55 275.958 C 433.023 275.367 432.75 274.611 432.834 273.817 C 432.916 273.059 433.264 272.482 433.736 271.903 C 436.882 268.032 440.989 264.516 444.523 260.972 C 448.871 256.607 453.066 251.889 457.68 247.814 Z" />
<path data-index="pre-14" fill="#3469B2" d="M 405.805 245.875 C 410.087 245.432 413.927 248.527 414.402 252.808 C 414.881 257.089 411.815 260.953 407.539 261.463 C 403.214 261.978 399.3 258.871 398.818 254.542 C 398.336 250.214 401.473 246.322 405.805 245.875 Z" />
<path data-index="pre-15" fill="#3469B2" d="M 461.998 268.076 C 462.991 267.963 464.299 268.055 465.142 268.663 C 465.549 268.957 465.803 269.407 465.871 269.9 C 466.037 271.1 465.383 272.308 464.706 273.252 C 463.199 275.355 452.864 285.594 450.755 287.122 C 450.26 287.483 449.798 287.635 449.196 287.736 C 448.956 287.746 448.711 287.754 448.467 287.736 C 447.631 287.675 446.86 287.173 446.349 286.525 C 445.88 285.928 445.74 285.156 445.9 284.418 C 446.307 282.551 459.932 269.285 461.998 268.076 Z" />
<path data-index="pre-16" fill="#F16634" d="M 153.855 144.668 C 154.173 144.655 154.497 144.646 154.814 144.684 C 155.694 144.787 156.618 145.221 157.145 145.953 C 157.561 146.53 157.775 147.384 157.633 148.086 C 157.148 150.504 151.338 164.128 149.912 166.2 C 149.548 166.728 148.999 167.073 148.464 167.406 C 148.101 167.422 147.726 167.439 147.364 167.396 C 146.494 167.294 145.549 166.829 145.051 166.091 C 144.568 165.375 144.523 164.605 144.721 163.784 C 145.378 161.057 150.784 147.989 152.323 145.868 C 152.698 145.351 153.318 144.998 153.855 144.668 Z" />
<path data-index="pre-17" fill="#F16634" d="M 118.921 140.748 C 119.386 140.732 119.861 140.716 120.318 140.813 C 121.183 140.995 122.023 141.46 122.472 142.245 C 122.943 143.069 122.933 143.901 122.693 144.791 C 121.985 147.424 117.201 158.735 115.729 160.81 C 115.361 161.328 114.805 161.651 114.266 161.964 C 113.745 161.995 113.171 162.049 112.66 161.924 C 111.996 161.763 111.375 161.33 111.018 160.745 C 110.454 159.821 110.51 158.541 110.742 157.519 C 111.294 155.088 116.128 143.883 117.479 141.977 C 117.863 141.435 118.368 141.095 118.921 140.748 Z" />
<path fill="#FDB622" d="M 171.216 166.187 C 195.603 164.722 216.567 183.289 218.061 207.674 C 219.557 232.059 201.017 253.046 176.633 254.571 C 152.207 256.1 131.175 237.52 129.677 213.091 C 128.18 188.664 146.786 167.654 171.216 166.187 Z" data-index="1" />
<path fill="#FCF7EA" d="M 172.578 183.913 C 172.65 183.904 172.723 183.892 172.796 183.886 C 179.192 183.296 185.66 185.634 190.421 189.856 C 195.71 194.545 198.632 201.26 199.002 208.272 C 199.402 215.823 197.414 223.41 192.266 229.104 C 188.138 233.67 182.005 236.765 175.835 237.095 L 175.56 237.12 C 169.059 237.639 162.618 235.559 157.649 231.336 C 152.376 226.791 149.605 220.02 149.093 213.176 C 148.519 205.515 150.418 198.188 155.517 192.327 C 160.024 187.146 165.771 184.415 172.578 183.913 Z" data-index="2" />
<path fill="#F04E36" d="M 337.093 166.738 C 338.512 166.905 339.927 167.017 341.351 167.113 C 341.896 167.241 342.491 167.29 343.045 167.375 C 351.832 168.749 359.249 172.28 365.675 178.434 C 366.784 179.497 368.158 180.656 369.033 181.915 C 369.34 182.362 369.694 183.007 369.507 183.57 C 369.335 184.091 368.804 184.593 368.413 184.958 C 366.711 186.547 364.718 187.907 362.93 189.41 C 361.094 190.954 359.3 192.899 357.294 194.189 C 356.704 194.568 356.239 194.693 355.607 194.296 C 354.438 193.56 353.444 192.151 352.438 191.188 C 349.062 187.995 344.86 185.811 340.307 184.884 C 334.068 183.554 327.316 184.331 321.914 187.855 C 316.169 191.603 312.027 198.016 310.682 204.708 C 309.224 211.957 310.229 220.175 314.399 226.389 C 318 231.726 323.59 235.398 329.918 236.581 C 336.56 237.869 344.376 236.534 349.984 232.664 C 353.801 230.03 356.202 225.98 357.046 221.453 C 351.946 221.28 346.784 221.418 341.679 221.44 C 340.199 221.446 336.694 221.725 335.49 221.366 C 335.28 221.303 335.225 221.179 335.125 220.998 C 334.857 220.51 334.772 219.848 334.727 219.3 C 334.562 217.355 334.429 207.694 335.001 206.354 C 335.127 206.06 335.16 205.966 335.454 205.861 C 336.711 205.415 350.925 205.7 353.251 205.697 C 359.897 205.692 366.638 205.445 373.271 205.697 C 373.86 205.719 374.531 205.724 375.073 205.972 C 375.547 206.557 375.62 207.34 375.656 208.07 C 375.755 210.255 375.646 212.502 375.547 214.686 C 375.094 224.83 372.418 233.976 365.394 241.61 C 357.898 249.759 347.197 254.005 336.252 254.458 C 324.47 255.04 312.948 250.868 304.268 242.879 C 295.93 235.138 291.617 223.988 291.207 212.747 C 290.763 200.564 294.861 188.45 303.255 179.506 C 309.679 172.662 318.492 168.601 327.724 167.347 C 330.832 166.925 333.962 166.842 337.093 166.738 Z" data-index="3" />
<path fill="#05599F" d="M 250.026 166.371 C 251.1 166.29 252.18 166.302 253.255 166.336 C 263.469 166.66 271.882 170.461 278.85 177.875 C 279.184 178.231 280.345 179.402 280.265 179.89 C 280.074 181.056 271.856 188.406 270.426 189.736 C 270.002 190.131 268.838 191.276 268.257 191.263 C 267.811 191.253 264.524 187.617 263.75 187.099 C 260.478 184.911 256.304 183.548 252.37 183.422 C 249.585 183.333 246.646 183.923 244.579 185.923 C 243.12 187.336 242.368 189.231 242.336 191.251 C 242.302 193.307 242.947 194.921 244.531 196.251 C 246.688 198.062 249.721 198.945 252.341 199.857 C 260.371 202.65 271.887 205.43 277.802 211.745 C 282.387 216.64 283.693 222.798 283.441 229.336 C 283.19 235.811 280.619 241.831 275.796 246.227 C 269.183 252.254 259.727 254.216 251.01 253.827 C 248.787 253.685 246.58 253.467 244.392 253.038 C 237.018 251.592 230.622 248.184 225.396 242.786 C 224.406 241.764 223.308 240.694 222.544 239.491 C 222.165 238.897 221.845 238.124 222.071 237.413 C 222.357 236.506 233.027 227.585 234.364 227.001 C 235.242 227.039 237.871 230.286 238.714 231.019 C 243.491 235.129 249.691 237.198 255.979 236.78 C 258.679 236.584 261.436 235.654 263.212 233.511 C 264.573 231.871 265.086 229.656 264.849 227.561 C 264.628 225.597 263.673 223.94 262.078 222.773 C 259.597 220.959 256.178 220.126 253.266 219.226 C 245.945 216.964 237.741 214.727 231.714 209.779 C 227.202 206.074 224.785 201.01 224.27 195.233 C 223.641 188.171 225.186 181.029 229.831 175.513 C 234.916 169.473 242.373 167.001 250.026 166.371 Z" data-index="4" />
<path fill="#FDB622" d="M 342.676 298.748 C 342.936 298.73 343.195 298.713 343.455 298.724 C 344.275 298.759 345.033 299.056 345.671 299.559 C 347.063 300.649 348.22 302.469 349.326 303.858 C 351.537 306.627 353.707 309.436 356.006 312.127 C 356.764 309.512 356.572 302.561 358.119 300.829 C 358.566 300.331 359.157 300.069 359.827 300.076 C 360.595 300.084 361.716 300.453 362.246 301.031 C 362.589 301.407 362.713 301.857 362.76 302.354 C 363.009 304.968 361.992 309.552 361.893 312.49 C 364.924 310.455 367.821 308.012 370.692 305.741 C 372.015 304.694 373.36 303.473 374.818 302.633 C 375.472 302.258 376.168 302.009 376.931 302.054 C 377.813 302.106 378.66 302.546 379.241 303.21 C 379.911 303.968 380.232 304.971 380.129 305.977 C 380.051 306.715 379.729 307.406 379.215 307.945 C 378.182 309.048 376.682 309.932 375.472 310.86 C 372.358 313.249 369.191 315.591 366.17 318.095 C 368.568 318.534 374.341 318.48 375.929 320.067 C 376.422 320.562 376.651 321.202 376.635 321.897 C 376.62 322.657 376.355 323.429 375.773 323.94 C 375.26 324.396 374.6 324.608 373.92 324.67 C 371.657 324.876 368.091 324.029 365.682 323.851 C 367.707 326.669 370.017 329.334 372.223 332.008 C 373.505 333.558 375.332 335.332 376.142 337.176 C 376.474 337.933 376.427 338.901 376.085 339.646 C 375.561 340.786 374.585 341.317 373.458 341.712 C 373.22 341.744 372.97 341.774 372.726 341.765 C 372.02 341.735 371.34 341.485 370.78 341.051 C 369.456 340.027 368.387 338.392 367.338 337.083 C 364.914 334.044 362.578 330.803 359.936 327.956 C 359.484 330.034 359.178 337.473 357.953 338.695 C 357.486 339.163 356.816 339.373 356.162 339.349 C 355.43 339.321 354.683 339.003 354.19 338.453 C 353.707 337.912 353.525 337.225 353.499 336.514 C 353.468 335.618 353.722 334.691 353.847 333.805 C 354.153 331.597 354.491 329.368 354.626 327.143 C 353.157 328.055 351.833 329.226 350.483 330.31 L 344.664 334.952 C 343.517 335.862 342.354 336.924 341.067 337.63 C 340.491 337.945 339.889 338.125 339.229 338.119 C 338.259 338.109 337.34 337.692 336.691 336.97 C 336.011 336.203 335.736 335.215 335.824 334.204 C 335.876 333.639 336.037 333.05 336.385 332.595 C 337.459 331.201 339.203 330.118 340.6 329.048 C 343.616 326.73 346.798 324.494 349.653 321.983 C 347.639 321.595 341.171 321.364 340.06 319.883 C 339.536 319.189 339.385 318.194 339.51 317.35 C 339.588 316.775 339.904 316.258 340.377 315.923 C 342.1 314.677 348.256 316.067 350.431 316.366 C 348.319 313.746 346.17 311.154 343.989 308.59 C 342.79 307.159 341.02 305.49 340.231 303.804 C 339.821 302.931 339.78 301.801 340.159 300.912 C 340.652 299.767 341.565 299.196 342.676 298.748 Z" data-index="5" />
<path fill="#044236" d="M 142.983 264.83 C 149.127 264.734 154.181 269.644 154.263 275.787 C 154.346 281.931 149.424 286.973 143.28 287.041 C 137.156 287.109 132.134 282.207 132.052 276.083 C 131.971 269.96 136.86 264.926 142.983 264.83 Z" data-index="6" />
<path fill="#FCF7EA" d="M 142.89 268.588 C 146.936 268.434 150.338 271.592 150.486 275.638 C 150.633 279.684 147.469 283.081 143.423 283.222 C 139.387 283.363 135.999 280.208 135.852 276.171 C 135.704 272.135 138.854 268.741 142.89 268.588 Z" data-index="7" />
<path fill="#07734D" d="M 330.446 167.403 C 324.551 166.244 320.255 164.22 316.822 159.068 C 315.11 156.499 312.07 149.339 312.71 146.336 C 312.784 145.987 312.899 145.78 313.154 145.523 C 314.685 144.816 317.981 145.967 319.526 146.529 C 325.558 148.739 330.447 153.285 333.087 159.142 C 334.184 161.523 335.281 165.017 334.728 167.651 C 334.719 167.693 334.712 167.736 334.704 167.778 C 333.28 167.682 331.865 167.57 330.446 167.403 Z" data-index="8" />
<path fill="#07734D" d="M 353.496 147.375 C 353.991 147.324 354.463 147.305 354.901 147.587 C 355.336 147.866 355.524 148.32 355.61 148.809 C 356.172 152.003 353.988 157.586 352.084 160.137 C 348.457 164.997 343.631 166.874 337.812 167.743 C 337.206 167.825 336.198 168.096 335.67 167.714 C 335.48 167.577 335.413 167.309 335.38 167.084 C 334.98 164.308 337.465 159.013 339.007 156.739 C 342.357 151.796 347.672 148.516 353.496 147.375 Z" data-index="9" />
<path fill="#044236" d="M 290.966 265.203 L 294.618 265.205 L 294.603 273.232 C 295.668 272.114 296.882 271.423 298.446 271.287 C 300.275 271.126 302.082 271.769 303.48 272.94 C 305.155 274.346 306.098 276.38 306.242 278.543 C 306.395 280.852 305.71 282.983 304.18 284.737 C 303.004 285.911 301.554 286.703 299.885 286.87 C 297.844 287.076 296.208 286.313 294.649 285.089 C 294.667 285.588 294.656 286.092 294.657 286.592 C 293.428 286.64 292.199 286.619 290.97 286.608 C 290.877 279.478 290.963 272.335 290.966 265.203 Z" data-index="10" />
<path fill="#FCF7EA" d="M 297.686 274.648 C 298.42 274.588 299.184 274.541 299.887 274.798 C 300.963 275.191 301.777 276.003 302.218 277.056 C 302.743 278.313 302.755 279.897 302.223 281.155 C 301.71 282.365 300.845 283.022 299.647 283.481 C 298.782 283.637 297.932 283.656 297.104 283.318 C 296.134 282.922 295.42 282.141 295.038 281.174 C 294.509 279.841 294.494 278.038 295.129 276.737 C 295.696 275.578 296.506 275.073 297.686 274.648 Z" data-index="11" />
<path fill="#044236" d="M 188.979 294.237 C 190.814 294.152 192.552 294.15 194.306 294.765 C 196.892 295.672 198.566 297.366 199.727 299.82 C 198.566 300.369 197.419 300.957 196.268 301.524 C 195.336 300.03 194.387 298.694 192.644 298.082 C 191.032 297.518 189.19 297.779 187.672 298.505 C 185.986 299.31 184.784 300.778 184.217 302.546 C 183.557 304.607 183.675 307.037 184.711 308.955 C 185.541 310.51 186.958 311.669 188.646 312.174 C 190.398 312.692 192.459 312.469 194.066 311.59 C 195.617 310.74 196.277 309.47 196.726 307.838 C 195.534 307.847 192.018 308.153 191.138 307.703 C 190.933 307.597 190.966 307.348 190.927 307.141 L 190.939 304.079 C 194.183 304.047 197.426 304.053 200.669 304.097 C 200.99 306.712 200.654 309.715 199.184 311.959 C 197.78 314.101 195.513 315.495 193.024 315.994 C 190.144 316.572 186.97 316.124 184.523 314.442 C 182.149 312.791 180.549 310.245 180.087 307.39 C 179.574 304.377 180.202 300.937 182.003 298.437 C 183.7 296.084 186.141 294.694 188.979 294.237 Z" data-index="12" />
<path fill="#044236" d="M 298.346 300.666 C 301.118 300.279 303.884 301.412 305.589 303.633 C 307.292 305.853 307.671 308.818 306.579 311.396 C 305.487 313.973 303.094 315.764 300.314 316.086 C 296.085 316.574 292.25 313.57 291.712 309.348 C 291.173 305.126 294.131 301.256 298.346 300.666 Z" data-index="13" />
<path fill="#FCF7EA" d="M 298.37 304.083 C 299.214 304.038 300.01 303.988 300.812 304.309 C 301.862 304.722 302.699 305.545 303.129 306.588 C 303.602 307.751 303.592 309.054 303.1 310.21 C 302.557 311.48 301.619 312.191 300.374 312.699 C 299.64 312.78 298.925 312.813 298.213 312.584 C 297.135 312.236 296.292 311.468 295.798 310.455 C 295.244 309.307 295.168 307.987 295.586 306.783 C 296.087 305.382 297.061 304.662 298.37 304.083 Z" data-index="14" />
<path fill="#044236" d="M 262.9 265.083 C 263.9 265.026 264.857 265.028 265.844 265.226 C 268.244 265.705 269.922 267.022 271.253 269.034 C 270.235 269.676 269.202 270.283 268.124 270.817 L 268.048 270.715 L 267.918 270.548 C 267.071 269.445 266.278 268.86 264.863 268.689 C 263.821 268.564 262.6 268.601 261.766 269.326 C 261.308 269.724 260.823 270.374 260.869 271.015 C 261.03 273.27 267.672 274.776 269.705 276.506 C 270.864 277.491 271.65 278.794 271.731 280.333 C 271.807 281.754 271.246 283.479 270.279 284.538 C 268.691 286.28 266.421 286.746 264.178 286.881 C 262.632 286.777 261.126 286.557 259.726 285.854 C 258.149 285.062 257.17 283.86 256.616 282.204 C 257.631 281.497 258.716 280.884 259.775 280.248 C 260.259 281.012 260.706 281.756 261.425 282.329 C 262.473 283.163 263.796 283.427 265.112 283.259 C 266.022 283.142 266.76 282.728 267.313 281.993 C 267.617 281.589 267.876 281.091 267.75 280.567 C 267.237 278.444 261.628 277.172 259.764 275.981 C 258.417 275.121 257.324 273.876 257.018 272.271 C 256.732 270.772 257.181 269.11 258.038 267.868 C 259.206 266.175 260.95 265.452 262.9 265.083 Z" data-index="15" />
<path fill="#044236" d="M 269.673 300.61 C 270.051 300.582 270.431 300.562 270.809 300.552 C 272.706 300.508 274.599 300.832 276.005 302.22 C 278.163 304.35 277.822 307.585 277.817 310.351 L 277.796 315.83 C 276.817 315.819 275.511 316.167 274.656 315.641 C 274.315 315.226 274.389 314.67 274.385 314.161 C 273.959 314.536 273.532 314.917 273.045 315.215 C 271.528 316.147 269.584 316.483 267.861 315.994 C 266.337 315.561 265.361 314.592 264.636 313.224 C 264.388 312.399 264.26 311.621 264.366 310.757 C 264.509 309.611 265.058 308.611 265.984 307.913 C 268.211 306.231 271.89 306.542 274.477 306.971 C 274.419 306.702 274.356 306.433 274.291 306.165 C 274.05 305.186 273.619 304.42 272.712 303.909 C 271.956 303.484 271.016 303.413 270.19 303.662 C 268.998 304.02 268.374 304.823 267.81 305.871 C 266.714 305.815 265.643 305.684 264.556 305.527 C 264.766 304.69 264.97 303.918 265.447 303.181 C 266.465 301.609 267.928 301.015 269.673 300.61 Z" data-index="16" />
<path fill="#FCF7EA" d="M 270.592 309.196 C 271.779 309.144 273.176 309.059 274.171 309.793 C 274.348 310.122 274.477 310.292 274.373 310.684 C 274.113 311.665 272.525 312.569 271.676 312.931 C 270.743 313.132 269.693 313.237 268.844 312.713 C 268.364 312.417 268.013 311.972 267.924 311.406 C 267.85 310.929 268.015 310.477 268.316 310.112 C 268.88 309.427 269.768 309.307 270.592 309.196 Z" data-index="17" />
<path fill="#044236" d="M 352.899 271.348 C 354.425 271.352 355.88 271.744 357.142 272.623 C 358.994 273.914 360.035 276.035 360.411 278.218 C 360.523 278.871 360.623 279.482 360.23 280.054 C 359.167 280.628 350.891 280.29 349.154 280.297 C 349.428 281.176 349.716 281.974 350.373 282.649 C 351.103 283.398 352.042 283.793 353.088 283.78 C 354.743 283.759 355.847 282.816 356.961 281.726 L 358.026 282.334 L 359.779 283.377 C 359.698 283.496 359.618 283.615 359.531 283.73 C 358.19 285.514 356.542 286.559 354.314 286.849 C 352.187 287.126 349.967 286.674 348.26 285.325 C 346.672 284.07 345.751 282.199 345.526 280.205 C 345.281 278.03 345.804 275.754 347.209 274.042 C 348.678 272.252 350.666 271.539 352.899 271.348 Z" data-index="18" />
<path fill="#FCF7EA" d="M 352.379 274.505 C 353.118 274.452 353.914 274.536 354.591 274.853 C 355.738 275.39 356.238 276.513 356.654 277.625 L 353.421 277.636 C 352.004 277.641 350.587 277.639 349.169 277.628 C 349.285 277.347 349.41 277.07 349.542 276.795 C 350.196 275.466 351.029 274.958 352.379 274.505 Z" data-index="19" />
<path fill="#044236" d="M 209.815 300.621 C 211.82 300.443 213.763 300.96 215.303 302.294 C 216.867 303.647 217.926 305.948 218.02 308.029 C 218.046 308.605 217.985 308.999 217.574 309.435 C 216.089 309.854 208.878 309.569 206.793 309.563 C 206.944 310.025 207.087 310.513 207.313 310.944 C 207.766 311.805 208.582 312.684 209.541 312.962 C 211.997 313.673 212.887 311.984 214.551 311.158 C 214.789 311.04 214.979 311.212 215.21 311.308 C 215.965 311.716 216.676 312.16 217.391 312.636 C 216.02 314.397 214.61 315.635 212.318 316.013 C 210.128 316.375 207.779 315.967 205.98 314.623 C 204.443 313.473 203.468 311.754 203.179 309.866 C 202.837 307.637 203.302 305.256 204.681 303.446 C 205.988 301.73 207.728 300.919 209.815 300.621 Z" data-index="20" />
<path fill="#FCF7EA" d="M 209.636 303.79 C 210.48 303.718 211.335 303.701 212.13 304.039 C 213.331 304.553 213.829 305.675 214.299 306.802 L 211.278 306.811 L 206.799 306.804 C 207.412 305.193 208.1 304.486 209.636 303.79 Z" data-index="21" />
<path fill="#044236" d="M 242.983 300.621 C 243.288 300.601 243.594 300.588 243.901 300.585 C 245.839 300.571 247.75 301.272 249.114 302.668 C 251.008 304.605 251.294 306.998 251.239 309.568 L 240.206 309.564 C 240.255 309.711 240.306 309.859 240.358 310.005 C 240.769 311.147 241.554 312.357 242.717 312.844 C 245.213 313.889 246.548 311.657 247.976 311.117 C 248.192 311.035 248.393 311.209 248.591 311.301 C 249.313 311.71 250.018 312.155 250.729 312.584 C 249.582 314.236 248.2 315.446 246.194 315.925 C 244.132 316.416 241.711 316.124 239.908 314.995 C 238.222 313.94 237.13 312.233 236.7 310.31 C 236.209 308.122 236.585 305.68 237.837 303.803 C 239.062 301.969 240.865 301.022 242.983 300.621 Z" data-index="22" />
<path fill="#FCF7EA" d="M 243.158 303.787 C 243.976 303.716 244.772 303.705 245.535 304.047 C 246.71 304.574 247.186 305.695 247.613 306.82 L 244.855 306.812 L 240.284 306.812 C 240.365 306.571 240.447 306.329 240.551 306.096 C 241.107 304.838 241.891 304.245 243.158 303.787 Z" data-index="23" />
<path fill="#044236" d="M 180.257 271.341 C 180.354 271.34 180.45 271.335 180.546 271.337 C 182.569 271.382 184.541 272.125 185.914 273.651 C 187.637 275.564 187.947 277.815 187.855 280.271 C 184.19 280.388 180.494 280.274 176.825 280.308 C 177.042 281.209 177.368 282.023 178.033 282.693 C 178.765 283.43 179.726 283.796 180.761 283.78 C 182.415 283.755 183.516 282.852 184.623 281.75 L 185.838 282.475 L 187.43 283.418 C 186.105 285.211 184.416 286.511 182.155 286.837 C 180.049 287.141 177.713 286.718 175.996 285.422 C 174.422 284.234 173.474 282.437 173.186 280.503 C 172.856 278.283 173.374 275.905 174.763 274.118 C 176.166 272.314 178.06 271.585 180.257 271.341 Z" data-index="24" />
<path fill="#FCF7EA" d="M 180.169 274.498 C 180.831 274.448 181.527 274.543 182.129 274.828 C 183.312 275.384 183.868 276.454 184.264 277.639 L 181.283 277.62 C 179.787 277.635 178.292 277.642 176.796 277.639 C 176.998 277.166 177.192 276.662 177.469 276.228 C 178.126 275.195 179.023 274.789 180.169 274.498 Z" data-index="25" />
<path fill="#044236" d="M 236.145 265.201 L 239.771 265.201 L 239.775 277.037 C 241.508 275.313 243.123 273.456 244.825 271.698 C 246.364 271.687 247.902 271.684 249.441 271.689 C 247.629 273.94 245.396 275.969 243.369 278.03 C 244.794 279.785 246.102 281.657 247.449 283.474 C 248.222 284.496 248.963 285.541 249.671 286.61 L 245.148 286.611 C 243.694 284.72 242.384 282.704 240.984 280.77 C 240.566 281.134 240.165 281.521 239.759 281.899 L 239.759 286.555 C 238.559 286.625 237.355 286.603 236.154 286.599 L 236.145 265.201 Z" data-index="26" />
<path fill="#05599F" d="M 233.954 336.281 C 234.571 336.256 235.213 336.21 235.815 336.373 C 236.508 336.559 237.483 337.466 238.14 337.429 C 238.152 337.148 238.176 336.884 238.223 336.608 C 238.976 336.411 239.972 336.536 240.758 336.551 C 240.833 339.639 241.13 346.133 240.559 348.814 C 240.346 349.815 239.977 350.739 239.281 351.505 C 238.307 352.574 236.922 353.013 235.51 353.077 C 234.056 353.143 232.094 352.393 231.054 351.39 C 230.726 351.073 230.433 350.733 230.428 350.275 L 232.448 349.113 C 232.548 349.243 232.652 349.372 232.761 349.498 C 233.365 350.192 234.276 350.834 235.227 350.871 C 235.867 350.895 236.471 350.648 236.929 350.204 C 238.007 349.159 238 347.663 238.037 346.274 C 237.503 346.718 236.993 347.101 236.331 347.334 C 235.045 347.788 233.686 347.717 232.475 347.077 C 231.205 346.407 230.321 345.243 229.902 343.881 C 229.39 342.221 229.523 340.222 230.402 338.706 C 231.213 337.305 232.428 336.655 233.954 336.281 Z" data-index="27" />
<path fill="#FCF7EA" d="M 235.124 338.596 C 235.639 338.65 236.151 338.708 236.62 338.946 C 237.285 339.283 237.761 339.904 237.976 340.613 C 238.296 341.669 238.164 342.894 237.632 343.858 C 237.124 344.779 236.451 345.017 235.477 345.291 C 234.878 345.22 234.268 345.138 233.743 344.815 C 233.055 344.389 232.581 343.653 232.399 342.872 C 232.168 341.881 232.326 340.79 232.896 339.939 C 233.459 339.1 234.165 338.795 235.124 338.596 Z" data-index="28" />
<path fill="#F04E36" d="M 441.307 138.017 C 444.89 137.342 448.34 139.707 449.002 143.291 C 449.667 146.876 447.291 150.318 443.705 150.97 C 440.133 151.62 436.708 149.258 436.049 145.689 C 435.388 142.119 437.74 138.688 441.307 138.017 Z" data-index="29" />
<path fill="#FDB622" d="M 248.463 144.774 C 251.968 144.152 255.32 146.468 255.977 149.966 C 256.635 153.464 254.354 156.839 250.863 157.533 C 248.573 157.988 246.215 157.178 244.688 155.411 C 243.161 153.645 242.701 151.194 243.481 148.995 C 244.262 146.795 246.164 145.183 248.463 144.774 Z" data-index="30" />
<path fill="#05599F" d="M 186.512 331.506 L 189.173 331.508 C 189.155 333.459 189.164 335.41 189.202 337.361 C 189.967 336.914 190.645 336.526 191.536 336.371 C 192.935 336.121 194.375 336.459 195.514 337.307 C 196.791 338.242 197.599 339.691 197.825 341.248 C 198.11 343.206 197.571 344.813 196.403 346.357 C 194.497 348.267 192.833 348.429 190.488 347.414 C 190.088 347.242 189.642 346.974 189.207 346.988 C 189.207 347.266 189.185 347.507 189.131 347.78 C 188.35 347.981 187.335 347.867 186.521 347.858 L 186.512 331.506 Z" data-index="31" />
<path fill="#FCF7EA" d="M 191.364 338.731 C 191.913 338.713 192.475 338.694 192.999 338.877 C 193.842 339.182 194.52 339.821 194.875 340.643 C 195.278 341.583 195.298 342.644 194.93 343.599 C 194.518 344.641 193.846 345.133 192.849 345.556 C 192.261 345.672 191.657 345.667 191.085 345.48 C 190.37 345.239 189.785 344.716 189.465 344.034 C 188.983 343.024 188.955 341.701 189.336 340.657 C 189.729 339.58 190.355 339.183 191.364 338.731 Z" data-index="32" />
<path fill="#044236" d="M 284.023 271.697 C 285.241 271.671 286.463 271.696 287.682 271.703 C 287.761 273.238 287.716 274.791 287.718 276.329 C 287.747 279.751 287.732 283.174 287.672 286.595 C 286.738 286.624 285.018 286.878 284.214 286.342 C 284.165 285.969 284.122 285.596 284.086 285.222 C 283.063 285.392 282.153 286.847 280.535 286.862 C 278.826 286.879 277.173 286.607 275.904 285.358 C 273.693 283.181 273.988 279.659 273.997 276.815 L 274.022 271.7 C 275.219 271.659 276.429 271.697 277.628 271.7 C 277.611 274.236 276.985 280.768 278.765 282.6 C 279.307 283.16 280.056 283.407 280.824 283.405 C 281.63 283.402 282.361 283.158 282.924 282.565 C 284.611 280.788 284.022 274.153 284.023 271.697 Z" data-index="33" />
<path fill="#044236" d="M 227.608 300.618 C 227.751 300.606 227.895 300.592 228.039 300.588 C 229.571 300.547 231.153 300.962 232.279 302.043 C 233.097 302.827 233.617 303.894 233.873 304.99 C 234.495 307.646 234.134 312.906 234.125 315.832 L 230.5 315.852 C 230.49 313.221 230.831 309.504 230.446 307.027 C 230.294 306.049 229.92 305.053 229.064 304.48 C 228.121 303.85 226.978 303.992 225.929 304.227 C 225.559 304.435 225.209 304.65 224.917 304.964 C 223.345 306.658 223.957 313.386 223.974 315.828 C 222.755 315.859 221.531 315.842 220.311 315.84 L 220.324 300.987 C 221.187 300.969 222.064 300.921 222.926 300.947 C 224.524 300.993 223.447 301.517 224.054 302.181 C 225.178 301.494 226.1 300.855 227.425 300.646 L 227.608 300.618 Z" data-index="34" />
<path fill="#044236" d="M 164.507 271.347 C 166.063 271.347 167.671 271.764 168.809 272.873 C 171.041 275.05 170.644 278.729 170.631 281.56 C 170.626 283.23 170.628 284.899 170.641 286.569 C 169.435 286.622 168.224 286.608 167.017 286.61 C 166.998 284.153 167.437 279.098 166.724 276.932 C 166.451 276.105 165.937 275.32 165.11 274.963 C 164.16 274.554 163.058 274.78 162.129 275.125 C 161.87 275.301 161.635 275.476 161.419 275.706 C 159.864 277.36 160.46 284.094 160.474 286.542 C 159.257 286.606 158.057 286.614 156.838 286.58 L 156.838 271.688 C 157.99 271.656 159.104 271.522 160.197 271.95 C 160.524 272.324 160.44 272.434 160.422 272.917 L 160.613 273.003 C 161.849 271.951 162.919 271.541 164.507 271.347 Z" data-index="35" />
<path fill="#044236" d="M 227.087 271.335 C 227.751 271.283 228.469 271.344 229.126 271.464 C 231.565 271.911 233.126 273.392 234.443 275.364 C 233.438 276.019 232.4 276.63 231.374 277.254 C 230.663 276.225 229.776 275.275 228.555 274.864 C 227.694 274.573 226.843 274.709 226.051 275.135 C 224.941 275.735 224.128 276.767 223.804 277.987 C 223.47 279.247 223.708 280.758 224.42 281.852 C 224.934 282.64 225.67 283.124 226.588 283.318 C 228.148 283.648 229.387 283.268 230.482 282.115 C 230.767 281.814 231.061 281.378 231.417 281.175 C 231.457 281.151 231.502 281.136 231.546 281.117 C 232.534 281.718 233.485 282.388 234.446 283.032 C 234.397 283.107 234.349 283.183 234.3 283.258 C 233.105 285.041 231.303 286.353 229.175 286.749 C 227.079 287.139 224.875 286.765 223.119 285.521 C 221.386 284.292 220.308 282.371 220.02 280.279 C 219.729 278.157 220.276 275.908 221.597 274.211 C 223.004 272.407 224.887 271.64 227.087 271.335 Z" data-index="36" />
<path fill="#044236" d="M 197.404 271.344 C 198.334 271.29 199.337 271.4 200.229 271.673 C 202.226 272.282 203.613 273.65 204.603 275.438 C 203.58 276.004 202.567 276.591 201.551 277.17 C 200.911 276.243 200.3 275.538 199.274 275.006 C 198.488 274.599 197.607 274.555 196.778 274.853 C 195.622 275.267 194.712 276.197 194.236 277.32 C 193.708 278.565 193.776 280.023 194.329 281.25 C 194.748 282.178 195.464 282.885 196.442 283.203 C 200.118 284.4 200.507 281.611 201.703 281.151 C 201.745 281.135 201.791 281.132 201.834 281.123 L 204.651 282.963 C 204.52 283.187 204.378 283.404 204.226 283.615 C 202.99 285.31 201.319 286.447 199.223 286.777 C 197.105 287.111 194.881 286.676 193.147 285.378 C 191.519 284.16 190.507 282.28 190.243 280.277 C 189.961 278.145 190.512 275.887 191.847 274.188 C 193.276 272.368 195.184 271.628 197.404 271.344 Z" data-index="37" />
<path fill="#044236" d="M 367.461 271.333 C 368.112 271.3 368.778 271.331 369.413 271.463 C 371.366 271.865 372.584 273.043 373.656 274.642 L 370.767 276.145 C 370.673 276.002 370.579 275.861 370.481 275.722 C 369.95 274.991 369.356 274.546 368.445 274.416 C 367.768 274.32 366.888 274.423 366.357 274.895 C 366.05 275.165 366.018 275.361 365.966 275.75 C 366.539 277.216 370.938 277.73 372.444 279.005 C 373.303 279.733 373.917 280.868 374.006 281.997 C 374.084 283.056 373.678 284.057 372.99 284.849 C 371.657 286.38 369.768 286.851 367.831 286.961 C 367.023 286.877 366.211 286.76 365.447 286.491 C 363.692 285.873 362.663 284.755 361.874 283.122 L 365.11 281.7 C 365.383 282.211 365.675 282.759 366.112 283.151 C 366.721 283.695 367.606 283.95 368.413 283.893 C 369.023 283.851 369.752 283.619 370.127 283.107 C 370.346 282.809 370.392 282.504 370.304 282.152 C 369.902 280.604 365.442 279.887 363.967 278.908 C 363.199 278.397 362.663 277.672 362.487 276.758 C 362.273 275.647 362.485 274.436 363.156 273.516 C 364.189 272.099 365.81 271.592 367.461 271.333 Z" data-index="38" />
<path fill="#044236" d="M 310.749 267.59 C 311.735 267.577 312.722 267.612 313.707 267.635 L 313.706 271.672 C 315.109 271.633 316.511 271.632 317.914 271.667 L 317.921 275.067 L 313.721 275.07 C 313.743 276.808 313.645 278.537 313.638 280.274 C 313.633 281.146 313.707 282.085 314.387 282.719 C 315.326 283.594 316.723 283.441 317.905 283.445 L 317.908 286.206 L 317.788 286.431 C 317.283 286.755 316.562 286.744 315.971 286.769 C 314.373 286.838 312.6 286.56 311.414 285.397 C 310.866 284.859 310.497 284.182 310.291 283.445 C 309.742 281.479 310.086 277.268 310.099 275.065 L 307.211 275.07 L 307.212 271.621 L 310.104 271.618 C 310.099 270.549 309.773 268.646 310.275 267.69 L 310.749 267.59 Z" data-index="39" />
<path fill="#05599F" d="M 201.01 367.402 C 205.159 366.779 209.035 369.615 209.695 373.759 C 210.355 377.902 207.55 381.804 203.413 382.498 C 199.225 383.202 195.266 380.356 194.598 376.162 C 193.931 371.968 196.81 368.034 201.01 367.402 Z" data-index="40" />
<path fill="#05599F" d="M 146.136 370.504 C 150.277 369.94 154.1 372.815 154.71 376.949 C 155.32 381.082 152.49 384.938 148.362 385.594 C 145.651 386.026 142.917 384.967 141.204 382.822 C 139.491 380.676 139.062 377.775 140.084 375.227 C 141.104 372.678 143.415 370.874 146.136 370.504 Z" data-index="41" />
<path fill="#044236" d="M 329.205 267.593 C 330.333 267.567 331.455 267.584 332.583 267.614 L 332.586 271.645 C 333.946 271.619 335.307 271.614 336.667 271.633 L 336.667 275.063 L 332.587 275.076 C 332.605 276.757 332.065 281.513 333.153 282.637 C 334.06 283.573 335.466 283.373 336.643 283.351 L 336.641 285.971 C 336.641 286.177 336.6 286.305 336.539 286.499 C 336.123 286.747 335.735 286.768 335.263 286.784 C 333.464 286.849 331.347 286.5 330.039 285.164 C 328.465 283.555 328.969 277.347 328.972 275.066 L 326.198 275.067 L 326.196 271.643 C 327.117 271.625 328.041 271.64 328.962 271.64 C 328.95 270.672 328.68 268.315 329.205 267.593 Z" data-index="42" />
<path fill="#05599F" d="M 315.67 331.626 L 318.228 331.616 L 318.23 342.3 L 320.433 342.278 C 320.477 343.07 320.449 343.864 320.436 344.657 L 318.225 344.674 L 318.23 347.849 L 315.611 347.859 L 315.612 345.64 C 315.621 345.288 315.666 345.027 315.468 344.719 C 313.289 344.456 310.889 344.656 308.685 344.663 C 308.656 343.801 308.531 342.788 308.838 341.967 C 309.514 340.17 314.315 333.495 315.67 331.626 Z" data-index="43" />
<path fill="#FCF7EA" d="M 315.401 336.21 C 315.856 336.887 315.615 341.208 315.61 342.339 L 311.742 342.323 L 311.63 342.215 C 311.689 341.45 314.79 337.139 315.401 336.21 Z" data-index="44" />
<path fill="#05599F" d="M 64.169 360.196 C 68.344 359.754 72.09 362.776 72.54 366.95 C 72.991 371.125 69.977 374.877 65.804 375.337 C 61.617 375.799 57.851 372.774 57.399 368.585 C 56.946 364.397 59.98 360.638 64.169 360.196 Z" data-index="45" />
<path fill="#044236" d="M 282.706 296.815 L 286.313 296.806 L 286.32 300.969 L 290.419 300.971 L 290.427 304.355 L 286.317 304.357 C 286.342 306.08 285.738 310.795 286.917 311.933 C 287.829 312.813 289.1 312.621 290.257 312.594 L 290.266 314.972 C 290.271 315.27 290.246 315.455 290.139 315.733 C 289.798 315.938 289.506 316.009 289.106 316.025 C 287.469 316.09 285.308 315.949 284.097 314.723 C 282.054 312.656 282.68 307.134 282.7 304.359 L 279.942 304.359 L 279.947 300.955 L 282.701 300.979 L 282.706 296.815 Z" data-index="46" />
<path fill="#05599F" d="M 247.888 336.149 C 248.126 336.132 248.366 336.121 248.604 336.118 C 249.915 336.092 251.328 336.432 252.262 337.399 C 254.214 339.418 253.567 345.115 253.551 347.849 C 252.769 347.867 251.989 347.897 251.209 347.827 C 250.927 347.512 250.95 347.052 250.887 346.638 L 250.712 346.565 C 250.393 346.861 250.06 347.198 249.693 347.429 C 248.703 348.048 247.249 348.16 246.142 347.862 C 244.986 347.55 244.254 346.89 243.683 345.864 C 243.499 345.197 243.361 344.571 243.453 343.875 C 243.575 342.959 244.056 342.205 244.815 341.684 C 246.531 340.503 249.081 340.575 251.059 340.893 C 250.852 340.061 250.714 339.35 249.967 338.837 C 249.403 338.451 248.745 338.273 248.072 338.436 C 247.112 338.668 246.595 339.21 246.12 340.038 C 245.572 340.042 244.56 340.172 244.109 339.824 C 243.793 339.58 243.77 339.426 243.698 339.06 C 243.77 338.754 243.876 338.539 244.061 338.291 C 245.02 337.006 246.344 336.381 247.888 336.149 Z" data-index="47" />
<path fill="#FCF7EA" d="M 247.778 342.805 C 248.583 342.764 249.978 342.548 250.649 343.095 C 250.966 343.354 250.938 343.451 250.962 343.833 C 250.604 344.6 249.974 345.019 249.28 345.469 C 248.707 345.661 248.041 345.775 247.444 345.635 C 246.968 345.522 246.423 345.169 246.222 344.708 C 246.085 344.397 246.128 344.049 246.297 343.76 C 246.624 343.195 247.202 343.012 247.778 342.805 Z" data-index="48" />
<path fill="#05599F" d="M 296.479 331.48 L 299.124 331.493 C 299.117 333.512 299.127 335.53 299.155 337.55 C 300.065 336.842 300.994 336.269 302.177 336.21 C 303.284 336.157 304.533 336.447 305.35 337.234 C 307.312 339.121 306.692 345.184 306.683 347.844 L 304.011 347.858 L 304.011 342.205 C 303.987 341.261 304.038 340.242 303.402 339.47 C 303.018 339.004 302.494 338.788 301.899 338.755 C 301.195 338.715 300.467 338.918 299.965 339.435 C 298.597 340.847 299.125 345.827 299.13 347.848 L 296.471 347.856 L 296.479 331.48 Z" data-index="49" />
<path fill="#044236" d="M 339.177 265.204 L 342.757 265.204 L 342.768 279.431 C 342.769 281.74 342.997 284.313 342.692 286.588 C 341.514 286.638 340.335 286.617 339.156 286.605 C 339.057 283.347 339.141 280.059 339.14 276.798 C 339.14 272.937 339.072 269.062 339.177 265.204 Z" data-index="50" />
<path fill="#044236" d="M 207.016 265.204 L 210.63 265.199 C 210.621 272.307 210.863 279.482 210.597 286.579 C 209.397 286.62 208.205 286.615 207.005 286.595 L 207.016 265.204 Z" data-index="51" />
<path fill="#05599F" d="M 198.414 336.547 L 201.21 336.51 C 202.233 339.195 203.288 341.868 204.375 344.529 C 205.18 341.848 206.168 339.214 207.008 336.541 L 209.877 336.542 C 208.881 339.749 207.514 342.857 206.431 346.04 C 205.648 347.925 205.425 350.448 203.899 351.921 C 202.622 353.155 200.904 353.084 199.26 353.04 C 199.187 352.222 199.222 351.395 199.23 350.574 C 200.115 350.602 201.181 350.724 201.958 350.218 C 202.692 349.74 202.88 348.821 203.08 348.029 C 201.436 344.282 199.814 340.394 198.414 336.547 Z" data-index="52" />
<path fill="#044236" d="M 316.761 300.615 C 317.171 300.583 317.562 300.502 317.94 300.7 C 318.285 301.153 318.33 301.604 318.282 302.157 C 318.219 302.889 318.225 303.621 318.221 304.355 L 318.118 304.347 C 317.844 304.323 317.571 304.299 317.297 304.286 C 316.245 304.236 315.162 304.501 314.392 305.255 C 313.87 305.766 313.567 306.417 313.407 307.123 C 312.954 309.112 313.276 313.567 313.288 315.83 C 312.05 315.862 310.809 315.85 309.571 315.854 C 309.453 310.903 309.553 305.926 309.549 300.972 L 313.117 300.991 C 313.126 301.652 313.097 302.316 313.085 302.977 C 314.21 301.676 315.062 301.021 316.761 300.615 Z" data-index="53" />
<path fill="#044236" d="M 261.126 300.605 C 261.516 300.576 261.844 300.542 262.225 300.66 C 262.899 301.428 262.547 303.292 262.545 304.292 C 262.065 304.253 261.57 304.204 261.089 304.219 C 260.175 304.247 259.234 304.642 258.607 305.311 C 256.895 307.135 257.467 313.354 257.471 315.833 C 256.265 315.853 255.058 315.857 253.85 315.845 C 253.762 310.893 253.84 305.927 253.853 300.974 L 257.318 300.983 L 257.356 302.813 C 258.519 301.581 259.437 300.942 261.126 300.605 Z" data-index="54" />
<path fill="#05599F" d="M 261.837 336.291 C 262.188 336.268 262.54 336.255 262.892 336.25 C 263.977 336.247 265.072 336.624 265.836 337.413 C 267.795 339.435 267.155 345.12 267.129 347.851 L 264.418 347.855 C 264.385 346.179 264.455 344.5 264.465 342.825 C 264.471 341.61 264.509 340.166 263.539 339.269 C 262.9 338.679 262.115 338.76 261.308 338.811 C 260.973 338.966 260.667 339.119 260.396 339.376 C 259.087 340.62 259.602 345.958 259.599 347.849 L 256.835 347.855 L 256.822 336.422 C 257.626 336.411 258.786 336.265 259.538 336.494 C 259.591 336.708 259.633 336.908 259.656 337.128 C 259.664 337.194 259.668 337.259 259.675 337.325 C 260.09 337.318 261.161 336.525 261.677 336.345 C 261.73 336.326 261.784 336.309 261.837 336.291 Z" data-index="55" />
<path fill="#05599F" d="M 222.116 336.292 C 222.274 336.281 222.43 336.271 222.587 336.264 C 223.857 336.205 225.094 336.426 226.033 337.351 C 228.092 339.376 227.447 345.083 227.429 347.848 L 224.687 347.856 C 224.667 345.953 224.775 344.05 224.746 342.147 C 224.73 341.114 224.615 339.952 223.788 339.221 C 223.163 338.671 222.401 338.744 221.624 338.791 C 221.249 338.969 220.871 339.16 220.59 339.476 C 219.419 340.789 219.9 346.042 219.914 347.851 L 217.204 347.854 C 217.156 344.057 217.199 340.253 217.198 336.456 C 217.832 336.458 219.356 336.291 219.842 336.592 L 219.959 337.305 C 220.382 337.319 221.445 336.51 221.961 336.34 C 222.012 336.322 222.064 336.307 222.116 336.292 Z" data-index="56" />
<path fill="#05599F" d="M 288.122 336.282 C 288.32 336.268 288.517 336.255 288.716 336.253 C 289.935 336.242 291.141 336.466 292.026 337.375 C 293.957 339.36 293.314 345.195 293.31 347.847 L 290.665 347.859 C 290.657 345.735 290.873 343.479 290.649 341.372 C 290.561 340.54 290.285 339.615 289.569 339.106 C 288.938 338.658 288.252 338.759 287.528 338.85 C 287.17 338.994 286.862 339.124 286.585 339.403 C 285.257 340.741 285.773 345.955 285.8 347.848 L 283.132 347.859 L 283.131 336.43 C 283.749 336.431 285.32 336.269 285.771 336.59 L 285.85 337.269 L 286.012 337.367 C 286.682 336.98 287.216 336.529 287.974 336.321 C 288.023 336.306 288.073 336.295 288.122 336.282 Z" data-index="57" />
<path fill="#FDB622" d="M 145.646 314.269 C 148.74 313.64 151.766 315.613 152.44 318.7 C 153.114 321.787 151.188 324.843 148.107 325.563 C 146.077 326.037 143.949 325.382 142.537 323.847 C 141.125 322.311 140.652 320.135 141.292 318.151 C 141.939 316.167 143.601 314.683 145.646 314.269 Z" data-index="58" />
<path fill="#FDB622" d="M 301.83 363.674 C 304.962 363.264 307.838 365.465 308.259 368.598 C 308.677 371.731 306.485 374.613 303.354 375.043 C 300.209 375.475 297.311 373.271 296.889 370.124 C 296.466 366.977 298.681 364.086 301.83 363.674 Z" data-index="59" />
<path fill="#FDB622" d="M 108.135 185.75 C 111.228 185.466 113.964 187.743 114.248 190.835 C 114.532 193.928 112.256 196.665 109.164 196.949 C 106.071 197.234 103.333 194.957 103.049 191.864 C 102.765 188.772 105.042 186.033 108.135 185.75 Z" data-index="60" />
<path fill="#044236" d="M 213.911 271.712 C 215.115 271.671 216.328 271.702 217.533 271.704 C 217.703 276.609 217.714 281.685 217.522 286.589 C 216.311 286.636 215.103 286.615 213.892 286.599 L 213.911 271.712 Z" data-index="61" />
<path fill="#044236" d="M 320.361 271.699 C 321.545 271.663 322.736 271.7 323.92 271.707 C 324.016 276.646 324.071 281.677 323.895 286.613 C 322.708 286.643 321.521 286.632 320.335 286.583 C 320.114 281.67 320.29 276.62 320.361 271.699 Z" data-index="62" />
<path fill="#FDB622" d="M 429.535 363.069 C 432.531 362.372 435.515 364.248 436.183 367.247 C 436.85 370.245 434.944 373.212 431.94 373.851 C 428.978 374.482 426.057 372.608 425.403 369.651 C 424.743 366.694 426.585 363.757 429.535 363.069 Z" data-index="63" />
<path fill="#05599F" d="M 250.087 373.808 C 251.962 373.436 253.895 374.1 255.142 375.55 C 256.391 376.999 256.762 379.009 256.115 380.808 C 255.468 382.609 253.901 383.921 252.016 384.243 C 249.155 384.732 246.431 382.832 245.903 379.978 C 245.376 377.124 247.239 374.375 250.087 373.808 Z" data-index="64" />
<path fill="#05599F" d="M 270.103 331.474 L 272.841 331.475 C 272.836 333.549 272.547 344.023 273.052 345.178 C 273.533 345.441 274.107 345.417 274.643 345.446 L 274.594 347.851 C 273.446 347.877 271.893 348.055 270.986 347.204 C 270.438 346.692 270.264 345.748 270.171 345.041 C 269.968 343.499 270.084 341.837 270.086 340.279 L 270.103 331.474 Z" data-index="65" />
<path fill="#05599F" d="M 277.052 336.422 L 279.772 336.436 L 279.762 347.842 L 277.044 347.858 L 277.052 336.422 Z" data-index="66" />
<path fill="#044236" d="M 214.86 264.976 C 216.092 264.547 217.439 265.205 217.856 266.442 C 218.274 267.678 217.603 269.018 216.364 269.424 C 215.14 269.826 213.82 269.166 213.407 267.945 C 212.995 266.724 213.644 265.399 214.86 264.976 Z" data-index="67" />
<path fill="#044236" d="M 321.331 264.973 C 322.13 264.697 323.016 264.873 323.65 265.433 C 324.284 265.994 324.566 266.852 324.389 267.679 C 324.212 268.506 323.604 269.174 322.796 269.426 C 321.573 269.809 320.27 269.139 319.869 267.922 C 319.468 266.705 320.12 265.392 321.331 264.973 Z" data-index="68" />
<path fill="#05599F" d="M 277.737 331.358 C 278.607 330.998 279.604 331.416 279.956 332.289 C 280.31 333.162 279.884 334.155 279.007 334.501 C 278.142 334.844 277.162 334.422 276.813 333.559 C 276.464 332.696 276.877 331.714 277.737 331.358 Z" data-index="69" />
<path data-index="sparkle-1" d="M 174.378 228.379 C 174.378 225.906 173.901 223.583 172.949 221.409 C 172.024 219.234 170.759 217.344 169.151 215.735 C 167.543 214.127 165.651 212.861 163.477 211.938 C 161.302 210.984 158.979 210.508 156.507 210.508 C 158.979 210.508 161.302 210.046 163.477 209.123 C 165.651 208.17 167.543 206.889 169.151 205.281 C 170.759 203.673 172.024 201.781 172.949 199.607 C 173.901 197.432 174.378 195.109 174.378 192.637 C 174.378 195.109 174.839 197.432 175.763 199.607 C 176.715 201.781 177.997 203.673 179.605 205.281 C 181.214 206.889 183.104 208.17 185.279 209.123 C 187.453 210.046 189.776 210.508 192.249 210.508 C 189.776 210.508 187.453 210.984 185.279 211.938 C 183.104 212.861 181.214 214.127 179.605 215.735 C 177.997 217.344 176.715 219.234 175.763 221.409 C 174.839 223.583 174.378 225.906 174.378 228.379 Z" fill="url(#paint0_radial_16771_53212)" />
<path data-index="sparkle-2" d="M 143.086 282.77 C 143.086 281.819 142.902 280.926 142.536 280.09 C 142.181 279.254 141.694 278.525 141.075 277.907 C 140.457 277.288 139.729 276.801 138.892 276.446 C 138.056 276.08 137.163 275.896 136.212 275.896 C 137.163 275.896 138.056 275.719 138.892 275.364 C 139.729 274.997 140.457 274.505 141.075 273.886 C 141.694 273.268 142.181 272.539 142.536 271.703 C 142.902 270.867 143.086 269.973 143.086 269.023 C 143.086 269.973 143.263 270.867 143.618 271.703 C 143.985 272.539 144.477 273.268 145.096 273.886 C 145.714 274.505 146.443 274.997 147.279 275.364 C 148.115 275.719 149.008 275.896 149.959 275.896 C 149.008 275.896 148.115 276.08 147.279 276.446 C 146.443 276.801 145.714 277.288 145.096 277.907 C 144.477 278.525 143.985 279.254 143.618 280.09 C 143.263 280.926 143.086 281.819 143.086 282.77 Z" fill="url(#paint1_radial_16771_53213)" />
</svg>